<?xml version="1.0" encoding="utf-8"?>
<!-- Generator: Adobe Illustrator 19.0.0, SVG Export Plug-In . SVG Version: 6.00 Build 0)  -->
<svg version="1.1" id="Layer_1" xmlns="http://www.w3.org/2000/svg" xmlns:xlink="http://www.w3.org/1999/xlink" x="0px" y="0px"
	 viewBox="-1752.8 -1935.7 3667.6 2283.4" style="enable-background:new -1752.8 -1935.7 3667.6 2283.4;" xml:space="preserve">
<style type="text/css">
	.st0{fill:#528E9C;}
	.st1{fill:#5359A6;}
	.st2{fill:#5C9EBC;}
	.st3{fill:#73CA9B;}
	.st4{fill:#CACACA;}
	.st5{fill-rule:evenodd;clip-rule:evenodd;fill:#5359A6;}
	.st6{fill-rule:evenodd;clip-rule:evenodd;fill:#73CA9B;}
	.st7{fill-rule:evenodd;clip-rule:evenodd;fill:#528E9C;}
	.st8{fill-rule:evenodd;clip-rule:evenodd;fill:#5C9EBC;}
	.st9{opacity:0.85;fill-rule:evenodd;clip-rule:evenodd;fill:#528E9C;}
	.st10{fill:#FFFFFF;}
	.st11{font-family:'ArialRoundedMTBold';}
	.st12{font-size:96px;}
	.st13{fill-rule:evenodd;clip-rule:evenodd;fill:none;}
	.st14{font-size:82px;}
</style>
<path class="st0" d="M-1335.6-1430.5c230.4,0,417.2,186.8,417.2,417.2c0,230.4-186.8,417.2-417.2,417.2
	c-230.4,0-417.2-186.8-417.2-417.2C-1752.8-1243.7-1566-1430.5-1335.6-1430.5L-1335.6-1430.5z M-1335.6-1416.8
	c-13.1,0-23.8,10.7-23.8,23.8c0,13.1,10.7,23.8,23.8,23.8c13.1,0,23.8-10.7,23.8-23.8C-1311.8-1406.1-1322.5-1416.8-1335.6-1416.8
	L-1335.6-1416.8z M-1335.6-1357.4c-190,0-344.1,154-344.1,344.1c0,190,154,344.1,344.1,344.1c190,0,344.1-154,344.1-344.1
	C-991.6-1203.3-1145.6-1357.4-1335.6-1357.4L-1335.6-1357.4z"/>
<path class="st1" d="M-391.2-1430.5c230.4,0,417.2,186.8,417.2,417.2c0,230.4-186.8,417.2-417.2,417.2s-417.2-186.8-417.2-417.2
	C-808.4-1243.7-621.6-1430.5-391.2-1430.5L-391.2-1430.5z M-391.2-1416.8c-13.1,0-23.8,10.7-23.8,23.8c0,13.1,10.7,23.8,23.8,23.8
	c13.1,0,23.8-10.7,23.8-23.8C-367.4-1406.1-378.1-1416.8-391.2-1416.8L-391.2-1416.8z M-391.2-1357.4c-190,0-344.1,154-344.1,344.1
	c0,190,154,344.1,344.1,344.1c190,0,344.1-154,344.1-344.1C-47.1-1203.3-201.2-1357.4-391.2-1357.4L-391.2-1357.4z"/>
<path class="st2" d="M553.2-1430.5c230.4,0,417.2,186.8,417.2,417.2c0,230.4-186.8,417.2-417.2,417.2
	c-230.4,0-417.2-186.8-417.2-417.2C136.1-1243.7,322.8-1430.5,553.2-1430.5L553.2-1430.5z M553.2-1416.8
	c-13.1,0-23.8,10.7-23.8,23.8c0,13.1,10.7,23.8,23.8,23.8c13.1,0,23.8-10.7,23.8-23.8C577-1406.1,566.4-1416.8,553.2-1416.8
	L553.2-1416.8z M553.2-1357.4c-190,0-344.1,154-344.1,344.1c0,190,154,344.1,344.1,344.1c190,0,344.1-154,344.1-344.1
	C897.3-1203.3,743.3-1357.4,553.2-1357.4L553.2-1357.4z"/>
<path class="st3" d="M1497.7-1430.5c230.4,0,417.2,186.8,417.2,417.2c0,230.4-186.8,417.2-417.2,417.2s-417.2-186.8-417.2-417.2
	C1080.5-1243.7,1267.3-1430.5,1497.7-1430.5L1497.7-1430.5z M1497.7-1416.8c-13.1,0-23.8,10.7-23.8,23.8c0,13.1,10.7,23.8,23.8,23.8
	c13.1,0,23.8-10.7,23.8-23.8C1521.5-1406.1,1510.8-1416.8,1497.7-1416.8L1497.7-1416.8z M1497.7-1357.4
	c-190,0-344.1,154-344.1,344.1c0,190,154,344.1,344.1,344.1c190,0,344.1-154,344.1-344.1C1841.7-1203.3,1687.7-1357.4,1497.7-1357.4
	L1497.7-1357.4z"/>
<path class="st4" d="M-1344.8-1632.4c0-5,4.1-9.1,9.1-9.1c5,0,9.1,4.1,9.1,9.1v18.3c0,5-4.1,9.1-9.1,9.1c-5,0-9.1-4.1-9.1-9.1
	V-1632.4L-1344.8-1632.4z M-1344.8-1486.2c0-5,4.1-9.1,9.1-9.1c5,0,9.1,4.1,9.1,9.1v18.3c0,5-4.1,9.1-9.1,9.1c-5,0-9.1-4.1-9.1-9.1
	V-1486.2L-1344.8-1486.2z M-1344.8-1559.3c0-5,4.1-9.1,9.1-9.1c5,0,9.1,4.1,9.1,9.1v18.3c0,5-4.1,9.1-9.1,9.1c-5,0-9.1-4.1-9.1-9.1
	V-1559.3L-1344.8-1559.3z"/>
<g>
	<path class="st4" d="M-583-1784.1c-5,0-9.1-4.1-9.1-9.1c0-5,4.1-9.1,9.1-9.1h18.3c5,0,9.1,4.1,9.1,9.1c0,5-4.1,9.1-9.1,9.1H-583
		L-583-1784.1z M-1167.3-1784.1c-5,0-9.1-4.1-9.1-9.1c0-5,4.1-9.1,9.1-9.1h18.3c5,0,9.1,4.1,9.1,9.1c0,5-4.1,9.1-9.1,9.1H-1167.3
		L-1167.3-1784.1z M-1094.2-1784.1c-5,0-9.1-4.1-9.1-9.1c0-5,4.1-9.1,9.1-9.1h18.3c5,0,9.1,4.1,9.1,9.1c0,5-4.1,9.1-9.1,9.1H-1094.2
		L-1094.2-1784.1z M-1021.1-1784.1c-5,0-9.1-4.1-9.1-9.1c0-5,4.1-9.1,9.1-9.1h18.3c5,0,9.1,4.1,9.1,9.1c0,5-4.1,9.1-9.1,9.1H-1021.1
		L-1021.1-1784.1z M-948.5-1784.1c-5,0-9.1-4.1-9.1-9.1c0-5,4.1-9.1,9.1-9.1h18.3c5,0,9.1,4.1,9.1,9.1c0,5-4.1,9.1-9.1,9.1H-948.5
		L-948.5-1784.1z M-875.4-1784.1c-5,0-9.1-4.1-9.1-9.1c0-5,4.1-9.1,9.1-9.1h18.3c5,0,9.1,4.1,9.1,9.1c0,5-4.1,9.1-9.1,9.1H-875.4
		L-875.4-1784.1z M-802.3-1784.1c-5,0-9.1-4.1-9.1-9.1c0-5,4.1-9.1,9.1-9.1h18.3c5,0,9.1,4.1,9.1,9.1c0,5-4.1,9.1-9.1,9.1H-802.3
		L-802.3-1784.1z M-729.2-1784.1c-5,0-9.1-4.1-9.1-9.1c0-5,4.1-9.1,9.1-9.1h18.3c5,0,9.1,4.1,9.1,9.1c0,5-4.1,9.1-9.1,9.1H-729.2
		L-729.2-1784.1z M-656.1-1784.1c-5,0-9.1-4.1-9.1-9.1c0-5,4.1-9.1,9.1-9.1h18.3c5,0,9.1,4.1,9.1,9.1c0,5-4.1,9.1-9.1,9.1H-656.1
		L-656.1-1784.1z"/>
	<path class="st4" d="M-400.3-1632.4c0-5,4.1-9.1,9.1-9.1c5,0,9.1,4.1,9.1,9.1v18.3c0,5-4.1,9.1-9.1,9.1c-5,0-9.1-4.1-9.1-9.1
		V-1632.4L-400.3-1632.4z M-400.3-1486.2c0-5,4.1-9.1,9.1-9.1c5,0,9.1,4.1,9.1,9.1v18.3c0,5-4.1,9.1-9.1,9.1c-5,0-9.1-4.1-9.1-9.1
		V-1486.2L-400.3-1486.2z M-400.3-1559.3c0-5,4.1-9.1,9.1-9.1c5,0,9.1,4.1,9.1,9.1v18.3c0,5-4.1,9.1-9.1,9.1c-5,0-9.1-4.1-9.1-9.1
		V-1559.3L-400.3-1559.3z"/>
</g>
<g>
	<path class="st4" d="M544.1-1632.4c0-5,4.1-9.1,9.1-9.1c5,0,9.1,4.1,9.1,9.1v18.3c0,5-4.1,9.1-9.1,9.1c-5,0-9.1-4.1-9.1-9.1
		V-1632.4L544.1-1632.4z M544.1-1486.2c0-5,4.1-9.1,9.1-9.1c5,0,9.1,4.1,9.1,9.1v18.3c0,5-4.1,9.1-9.1,9.1c-5,0-9.1-4.1-9.1-9.1
		V-1486.2L544.1-1486.2z M544.1-1559.3c0-5,4.1-9.1,9.1-9.1c5,0,9.1,4.1,9.1,9.1v18.3c0,5-4.1,9.1-9.1,9.1c-5,0-9.1-4.1-9.1-9.1
		V-1559.3L544.1-1559.3z"/>
	<path class="st4" d="M361.8-1784.1c-5,0-9.1-4.1-9.1-9.1c0-5,4.1-9.1,9.1-9.1H380c5,0,9.1,4.1,9.1,9.1c0,5-4.1,9.1-9.1,9.1H361.8
		L361.8-1784.1z M-222.5-1784.1c-5,0-9.1-4.1-9.1-9.1c0-5,4.1-9.1,9.1-9.1h18.3c5,0,9.1,4.1,9.1,9.1c0,5-4.1,9.1-9.1,9.1H-222.5
		L-222.5-1784.1z M-149.4-1784.1c-5,0-9.1-4.1-9.1-9.1c0-5,4.1-9.1,9.1-9.1h18.3c5,0,9.1,4.1,9.1,9.1c0,5-4.1,9.1-9.1,9.1H-149.4
		L-149.4-1784.1z M-76.3-1784.1c-5,0-9.1-4.1-9.1-9.1c0-5,4.1-9.1,9.1-9.1h18.3c5,0,9.1,4.1,9.1,9.1c0,5-4.1,9.1-9.1,9.1H-76.3
		L-76.3-1784.1z M-3.7-1784.1c-5,0-9.1-4.1-9.1-9.1c0-5,4.1-9.1,9.1-9.1h18.3c5,0,9.1,4.1,9.1,9.1c0,5-4.1,9.1-9.1,9.1H-3.7
		L-3.7-1784.1z M69.4-1784.1c-5,0-9.1-4.1-9.1-9.1c0-5,4.1-9.1,9.1-9.1h18.3c5,0,9.1,4.1,9.1,9.1c0,5-4.1,9.1-9.1,9.1H69.4
		L69.4-1784.1z M142.5-1784.1c-5,0-9.1-4.1-9.1-9.1c0-5,4.1-9.1,9.1-9.1h18.3c5,0,9.1,4.1,9.1,9.1c0,5-4.1,9.1-9.1,9.1H142.5
		L142.5-1784.1z M215.6-1784.1c-5,0-9.1-4.1-9.1-9.1c0-5,4.1-9.1,9.1-9.1h18.3c5,0,9.1,4.1,9.1,9.1c0,5-4.1,9.1-9.1,9.1H215.6
		L215.6-1784.1z M288.7-1784.1c-5,0-9.1-4.1-9.1-9.1c0-5,4.1-9.1,9.1-9.1h18.3c5,0,9.1,4.1,9.1,9.1c0,5-4.1,9.1-9.1,9.1H288.7
		L288.7-1784.1z"/>
</g>
<g>
	<path class="st4" d="M1488.5-1632.4c0-5,4.1-9.1,9.1-9.1c5,0,9.1,4.1,9.1,9.1v18.3c0,5-4.1,9.1-9.1,9.1c-5,0-9.1-4.1-9.1-9.1
		V-1632.4L1488.5-1632.4z M1488.5-1486.2c0-5,4.1-9.1,9.1-9.1c5,0,9.1,4.1,9.1,9.1v18.3c0,5-4.1,9.1-9.1,9.1c-5,0-9.1-4.1-9.1-9.1
		V-1486.2L1488.5-1486.2z M1488.5-1559.3c0-5,4.1-9.1,9.1-9.1c5,0,9.1,4.1,9.1,9.1v18.3c0,5-4.1,9.1-9.1,9.1c-5,0-9.1-4.1-9.1-9.1
		V-1559.3L1488.5-1559.3z"/>
	<path class="st4" d="M1307.1-1784.1c-5,0-9.1-4.1-9.1-9.1c0-5,4.1-9.1,9.1-9.1h18.3c5,0,9.1,4.1,9.1,9.1c0,5-4.1,9.1-9.1,9.1
		H1307.1L1307.1-1784.1z M722.8-1784.1c-5,0-9.1-4.1-9.1-9.1c0-5,4.1-9.1,9.1-9.1h18.3c5,0,9.1,4.1,9.1,9.1c0,5-4.1,9.1-9.1,9.1
		H722.8L722.8-1784.1z M795.9-1784.1c-5,0-9.1-4.1-9.1-9.1c0-5,4.1-9.1,9.1-9.1h18.3c5,0,9.1,4.1,9.1,9.1c0,5-4.1,9.1-9.1,9.1H795.9
		L795.9-1784.1z M869-1784.1c-5,0-9.1-4.1-9.1-9.1c0-5,4.1-9.1,9.1-9.1h18.3c5,0,9.1,4.1,9.1,9.1c0,5-4.1,9.1-9.1,9.1H869
		L869-1784.1z M941.6-1784.1c-5,0-9.1-4.1-9.1-9.1c0-5,4.1-9.1,9.1-9.1h18.3c5,0,9.1,4.1,9.1,9.1c0,5-4.1,9.1-9.1,9.1H941.6
		L941.6-1784.1z M1014.7-1784.1c-5,0-9.1-4.1-9.1-9.1c0-5,4.1-9.1,9.1-9.1h18.3c5,0,9.1,4.1,9.1,9.1c0,5-4.1,9.1-9.1,9.1H1014.7
		L1014.7-1784.1z M1087.8-1784.1c-5,0-9.1-4.1-9.1-9.1c0-5,4.1-9.1,9.1-9.1h18.3c5,0,9.1,4.1,9.1,9.1c0,5-4.1,9.1-9.1,9.1H1087.8
		L1087.8-1784.1z M1160.9-1784.1c-5,0-9.1-4.1-9.1-9.1c0-5,4.1-9.1,9.1-9.1h18.3c5,0,9.1,4.1,9.1,9.1c0,5-4.1,9.1-9.1,9.1H1160.9
		L1160.9-1784.1z M1234-1784.1c-5,0-9.1-4.1-9.1-9.1c0-5,4.1-9.1,9.1-9.1h18.3c5,0,9.1,4.1,9.1,9.1c0,5-4.1,9.1-9.1,9.1H1234
		L1234-1784.1z"/>
</g>
<g>
	<path class="st5" d="M-405.7-841.1c0,5,3.6,7.9,10.9,8.9v-17.9c-3.1,0-5.7,0.8-7.7,2.3C-404.6-846.3-405.7-844-405.7-841.1
		L-405.7-841.1z"/>
	<path class="st5" d="M-387.6-818.4v20.4c3.3-0.1,6.1-1,8.4-2.9c2.3-1.9,3.4-4.4,3.4-7.5C-375.8-813.7-379.8-817-387.6-818.4
		L-387.6-818.4z"/>
	<path class="st5" d="M-368.7-925c0.3,0,0.6,0.1,0.9,0.2c4.1-5.6,8.7-13,14.3-22.8c11-19-16.3-18.9-36.7-18.9
		c-20.4,0-46.9-0.5-37.1,18.9c4.8,9.5,9.6,17.2,14.4,23.1c0.5-0.3,1-0.4,1.6-0.4H-368.7L-368.7-925z"/>
	<path class="st5" d="M-370.2-795.2c-4,3.9-9.8,6.2-17.5,6.9l0,9.8h-7.2v-9.8c-13.2-1.1-21.6-7.5-25.3-19.2l11.4-2.7
		c2.1,7.5,6.7,11.5,13.9,12.1v-21c-9.4-2.2-15.5-4.9-18.4-8.2c-2.8-3.3-4.3-7.3-4.3-11.9c0-12,7.5-18.8,22.6-20.7v-7.7h7.2v7.7
		c11,1.4,18,6.9,20.9,16.3l-10.8,2.3c-1.8-5.5-5.2-8.4-10.1-8.8l0,18.6c6.9,2,11.6,3.5,14,4.6c2.4,1.1,4.6,3.1,6.5,6.2
		c1.9,3.1,2.9,6.7,2.9,10.9C-364.1-804-366.1-799.1-370.2-795.2L-370.2-795.2z M-363.6-912.1c-0.8,3.6-2.8,6.1-5.1,6.1h-42.7
		c-2.7,0-4.9-3.3-5.4-7.7c-31.6,19.1-57.3,68.2-57.3,106.8c0,49.1,37.5,62.7,83.8,62.7c46.3,0,83.8-13.6,83.8-62.7
		C-306.4-844.5-334.1-891.9-363.6-912.1L-363.6-912.1z"/>
</g>
<g>
	<path class="st6" d="M1498.8-938.2c0,1.6-1.5,2.9-3.4,2.9h0c-1.9,0-3.4-1.3-3.4-2.9l0-20.5c0-1.6,1.5-2.9,3.4-2.9h0
		c1.9,0,3.4,1.3,3.4,2.9V-938.2L1498.8-938.2z"/>
	<path class="st6" d="M1427.4-906.7c1.2,1.1,1.1,3.1-0.2,4.5l0,0c-1.3,1.4-3.2,1.7-4.4,0.6l-15.2-13.7c-1.2-1.1-1.1-3.1,0.2-4.5h0
		c1.3-1.4,3.3-1.7,4.4-0.6L1427.4-906.7L1427.4-906.7z"/>
	<path class="st6" d="M1402.9-832.5c1.6-0.2,3,1.2,3.2,3.1v0c0.2,1.9-0.9,3.6-2.5,3.7l-20.3,2.1c-1.6,0.2-3-1.2-3.2-3.1l0,0
		c-0.2-1.9,0.9-3.5,2.5-3.7L1402.9-832.5L1402.9-832.5z"/>
	<path class="st6" d="M1594-831.7c-1.6-0.2-2.7-1.8-2.5-3.7v0c0.2-1.9,1.6-3.3,3.2-3.1l20.3,2.1c1.6,0.2,2.7,1.8,2.5,3.7l0,0
		c-0.2,1.9-1.6,3.3-3.2,3.1L1594-831.7L1594-831.7z"/>
	<path class="st6" d="M1570.1-906.1c-1.2,1.1-3.2,0.8-4.4-0.6l0,0c-1.3-1.4-1.3-3.4-0.2-4.5l15.2-13.7c1.2-1.1,3.2-0.8,4.4,0.6l0,0
		c1.3,1.4,1.3,3.4,0.2,4.5L1570.1-906.1L1570.1-906.1z"/>
	<path class="st6" d="M1518.3-750.2c0,2.2-1,4.2-2.6,5.4c-0.9,0.6-1.9,1-3,1h-35.1c-1.1,0-2.2-0.4-3-1c-1.5-1.1-2.6-3.1-2.6-5.4
		l0-19.7h46.4V-750.2L1518.3-750.2z M1467.9-888c-11.1,8.3-18.3,21.6-18.3,36.5c0,14,6.3,26.5,16.3,34.9c1.3,1.1,1.5,3.1,0.6,4.5
		l0,0.1c-1.1,1.7-3.5,2-5,0.7c-11.4-9.6-18.7-24-18.7-40.1c0-17.1,8.3-32.4,21-41.9c1.5-1.2,3.7-0.8,4.8,0.8l0,0
		C1469.7-891.2,1469.4-889.1,1467.9-888L1467.9-888z M1568.1-851.5c0-40.3-32.7-73-73-73c-40.3,0-73,32.7-73,73
		c0,29.6,17.6,55.1,42.9,66.5l0,15.1v19.7c0,6.6,4.5,12,10.5,13c0.4,1.8,1.1,3.6,1.8,5.2c3.2,7.1,8.5,11.2,12.8,11.2h9.9
		c4.3,0,9.7-4.1,12.8-11.2c0.8-1.7,1.4-3.4,1.8-5.2c5.9-1,10.5-6.5,10.5-13v-26.7v-8.1C1550.5-796.5,1568.1-822,1568.1-851.5
		L1568.1-851.5z"/>
</g>
<g>
	<path class="st7" d="M-1335.6-1912.2c63.7,0,115.3,51.6,115.3,115.3c0,63.7-51.6,115.3-115.3,115.3c-63.7,0-115.3-51.6-115.3-115.3
		C-1451-1860.6-1399.3-1912.2-1335.6-1912.2L-1335.6-1912.2z"/>
	<path class="st0" d="M-1335.6-1935.7c76.6,0,138.8,62.2,138.8,138.8c0,76.6-62.2,138.8-138.8,138.8c-76.7,0-138.8-62.2-138.8-138.8
		C-1474.4-1873.6-1412.3-1935.7-1335.6-1935.7L-1335.6-1935.7z M-1335.6-1922c-69.1,0-125.1,56-125.1,125.1
		c0,69.1,56,125.1,125.1,125.1c69.1,0,125.1-56,125.1-125.1C-1210.5-1866-1266.6-1922-1335.6-1922L-1335.6-1922z"/>
</g>
<g>
	<path class="st5" d="M-391.2-1912.2c63.7,0,115.3,51.6,115.3,115.3c0,63.7-51.6,115.3-115.3,115.3c-63.7,0-115.3-51.6-115.3-115.3
		C-506.5-1860.6-454.9-1912.2-391.2-1912.2L-391.2-1912.2z"/>
	<path class="st1" d="M-391.2-1935.7c76.7,0,138.8,62.1,138.8,138.8c0,76.7-62.1,138.8-138.8,138.8c-76.7,0-138.8-62.1-138.8-138.8
		C-530-1873.6-467.9-1935.7-391.2-1935.7L-391.2-1935.7z M-391.2-1922c-69.1,0-125.1,56-125.1,125.1c0,69.1,56,125.1,125.1,125.1
		c69.1,0,125.1-56,125.1-125.1C-266.1-1866-322.1-1922-391.2-1922L-391.2-1922z"/>
</g>
<g>
	<path class="st8" d="M553.2-1912.2c63.7,0,115.3,51.6,115.3,115.3c0,63.7-51.6,115.3-115.3,115.3c-63.7,0-115.3-51.6-115.3-115.3
		C437.9-1860.6,489.5-1912.2,553.2-1912.2L553.2-1912.2z"/>
	<path class="st2" d="M553.2-1935.7c76.7,0,138.8,62.1,138.8,138.8c0,76.7-62.1,138.8-138.8,138.8c-76.7,0-138.8-62.1-138.8-138.8
		C414.4-1873.6,476.6-1935.7,553.2-1935.7L553.2-1935.7z M553.2-1922c-69.1,0-125.1,56-125.1,125.1c0,69.1,56,125.1,125.1,125.1
		c69.1,0,125.1-56,125.1-125.1C678.3-1866,622.3-1922,553.2-1922L553.2-1922z"/>
</g>
<g>
	<path class="st6" d="M1497.7-1912.2c63.7,0,115.3,51.6,115.3,115.3c0,63.7-51.6,115.3-115.3,115.3c-63.7,0-115.3-51.6-115.3-115.3
		C1382.3-1860.6,1434-1912.2,1497.7-1912.2L1497.7-1912.2z"/>
	<path class="st3" d="M1497.7-1935.7c76.7,0,138.8,62.1,138.8,138.8c0,76.7-62.1,138.8-138.8,138.8c-76.7,0-138.8-62.1-138.8-138.8
		C1358.9-1873.6,1421-1935.7,1497.7-1935.7L1497.7-1935.7z M1497.7-1922c-69.1,0-125.1,56-125.1,125.1c0,69.1,56,125.1,125.1,125.1
		s125.1-56,125.1-125.1C1622.8-1866,1566.8-1922,1497.7-1922L1497.7-1922z"/>
</g>
<path class="st9" d="M-1335.6-472.6c-13.1,0-23.8,10.7-23.8,23.8c0,13.1,10.7,23.8,23.8,23.8c13.1,0,23.8-10.7,23.8-23.8
	C-1311.8-462-1322.5-472.6-1335.6-472.6L-1335.6-472.6z"/>
<path class="st5" d="M-391.2-472.6c-13.1,0-23.8,10.7-23.8,23.8c0,13.1,10.7,23.8,23.8,23.8c13.1,0,23.8-10.7,23.8-23.8
	C-367.4-462-378.1-472.6-391.2-472.6L-391.2-472.6z"/>
<path class="st8" d="M553.2-472.6c-13.1,0-23.8,10.7-23.8,23.8c0,13.1,10.7,23.8,23.8,23.8c13.1,0,23.8-10.7,23.8-23.8
	C577-462,566.4-472.6,553.2-472.6L553.2-472.6z"/>
<path class="st6" d="M1497.7-472.6c-13.1,0-23.8,10.7-23.8,23.8c0,13.1,10.7,23.8,23.8,23.8c13.1,0,23.8-10.7,23.8-23.8
	C1521.5-462,1510.8-472.6,1497.7-472.6L1497.7-472.6z"/>
<path class="st10" d="M-1302.8-1771.5v18.7h-62.8v-18.7h22v-46.9c-0.9,1.2-2.4,2.5-4.4,3.8c-2,1.3-4.2,2.5-6.6,3.6
	c-2.4,1.1-4.8,2.1-7.3,2.8c-2.5,0.7-4.8,1.1-6.7,1.1v-19.3c1.9,0,4.1-0.6,6.8-1.8c2.7-1.2,5.3-2.6,7.9-4.3c2.6-1.7,4.8-3.3,6.7-4.9
	c1.9-1.6,3.1-2.9,3.6-3.8h21.2v69.6H-1302.8L-1302.8-1771.5z"/>
<path class="st10" d="M-428.5-1752c0-4.6,0.4-8.8,1.1-12.6c0.7-3.8,2-7.2,3.8-10.4c1.8-3.2,4.3-6.2,7.4-9c3.1-2.8,7.1-5.5,12-8.2
	c4.2-2.3,8-4.3,11.2-6c3.3-1.7,6-3.3,8.1-4.7c2.2-1.4,3.8-2.9,5-4.4c1.1-1.5,1.7-3.2,1.7-5.2c0-3.1-1.2-5.8-3.7-8
	c-2.5-2.2-6-3.3-10.7-3.3c-2.5,0-4.7,0.3-6.8,1c-2.1,0.7-4,1.6-5.8,2.7c-1.8,1.1-3.5,2.4-5,3.8c-1.5,1.4-2.9,2.9-4.1,4.4l-13.3-15.3
	c1.3-1.4,3.2-3,5.7-4.7c2.5-1.7,5.4-3.3,8.7-4.8c3.4-1.5,7.1-2.7,11.1-3.7c4.1-1,8.4-1.5,13.1-1.5c5.3,0,10,0.6,14.1,1.9
	c4.1,1.3,7.6,3.1,10.4,5.4c2.8,2.3,5,5.1,6.5,8.4c1.5,3.2,2.2,6.8,2.2,10.6c0,3.6-0.7,6.8-2,9.6c-1.3,2.8-3,5.3-5.1,7.4
	c-2.1,2.2-4.3,4.1-6.7,5.6c-2.4,1.6-4.8,3-7,4.3c-1.9,1-4,2.2-6.3,3.6c-2.4,1.3-4.7,2.8-7,4.4c-2.3,1.6-4.5,3.3-6.4,5
	c-2,1.7-3.5,3.4-4.5,5h46.9v18.7H-428.5L-428.5-1752z"/>
<path class="st10" d="M569.7-1800.2c6.4,1.1,11.6,4.2,15.5,9.2c4,5,6,11.1,6,18.3c0,4.8-1,9.2-2.9,13.2c-1.9,3.9-4.6,7.2-8,10
	c-3.5,2.7-7.7,4.8-12.6,6.3c-4.9,1.5-10.5,2.2-16.7,2.2c-7.8,0-14.8-1.3-20.8-3.8c-6-2.5-11.1-6.2-15.1-11.1l11.8-14.7
	c2.7,3.4,5.9,6,9.6,7.9c3.7,1.9,8.4,2.8,13.9,2.8c6.3,0,11.1-1.2,14.4-3.7c3.3-2.5,4.9-6.3,4.9-11.5c0-5.4-1.9-9.5-5.7-12.4
	c-3.8-2.9-9.6-4.3-17.3-4.3h-4.3v-15.5h4.8c6.4,0,11.3-1.4,14.9-4.3c3.5-2.8,5.3-6.5,5.3-10.9c0-4.2-1.4-7.4-4.3-9.4
	c-2.9-2.1-6.7-3.1-11.3-3.1c-4.7,0-9,1.1-12.8,3.2c-3.8,2.2-6.8,5.2-9.2,9.1l-13-14.5c1.5-2.4,3.6-4.5,6.2-6.4
	c2.6-1.9,5.5-3.6,8.7-5c3.2-1.4,6.8-2.5,10.6-3.2c3.8-0.8,7.7-1.2,11.8-1.2c5.3,0,10.1,0.7,14.4,2c4.3,1.3,8.1,3.2,11.2,5.6
	c3.1,2.4,5.6,5.2,7.3,8.6c1.7,3.3,2.5,7.1,2.5,11.2c0,3.1-0.5,6-1.4,8.8c-0.9,2.8-2.3,5.3-4,7.6c-1.8,2.3-3.8,4.2-6.3,5.7
	C575.3-1801.8,572.6-1800.7,569.7-1800.2L569.7-1800.2z"/>
<path class="st10" d="M1496.5-1742.9v-23.1h-45.2v-18.4l51.8-66.5h14.1v66.4h13.6v18.6h-13.6v23.1H1496.5L1496.5-1742.9z
	 M1472-1784.5h26.8v-35L1472-1784.5L1472-1784.5z"/>
<g>
	<path class="st8" d="M595.7-907.3c0,25.5-20.6,51.9-46.1,51.9c-25.5,0-46.1-26.4-46.1-51.9c0-25.5,20.6-46.1,46.1-46.1
		C575-953.4,595.7-932.7,595.7-907.3L595.7-907.3z"/>
	<path class="st8" d="M614.8-739.9c8.5,0,15.3-6.9,15.3-15.3v-10.7c0-32.9-23.8-81.6-80.6-81.6c-54.6,0-80.5,46.9-80.5,80.2v12
		c0,8.5,6.9,15.3,15.3,15.3H614.8L614.8-739.9z"/>
	<path class="st8" d="M485.9-891.7c0,18.6-15.1,39.5-33.7,39.5c-18.6,0-33.7-20.9-33.7-39.5c0-18.6,15.1-33.7,33.7-33.7
		C470.9-925.4,485.9-910.3,485.9-891.7L485.9-891.7z"/>
	<path class="st8" d="M491.1-833.7c-10.3-8.9-24.2-14.4-38.9-14.4c-30.7,0-55.8,23.5-58.6,53.4h-0.3c0,13.9,11.3,25.2,25.2,25.2h43
		C461.1-796.3,473.4-818.9,491.1-833.7L491.1-833.7z"/>
	<path class="st8" d="M613-891.7c0,18.6,15.1,39.5,33.7,39.5c18.6,0,33.7-20.9,33.7-39.5c0-18.6-15.1-33.7-33.7-33.7
		C628-925.4,613-910.3,613-891.7L613-891.7z"/>
	<path class="st8" d="M607.8-833.7c10.3-8.9,24.2-14.4,38.9-14.4c30.6,0,55.8,23.5,58.6,53.4h0.3c0,13.9-11.3,25.2-25.2,25.2h-43
		C637.8-796.3,625.5-818.9,607.8-833.7L607.8-833.7z"/>
</g>
<text transform="matrix(1 0 0 1 -1562.078 -1085.9919)" class="st11 st12">Collection</text>
<text transform="matrix(1 0 0 1 -646.2062 -1085.9919)" class="st11 st12">Annotation</text>
<text transform="matrix(1 0 0 1 319.1653 -1085.9919)" class="st11 st12">Validation</text>
<text transform="matrix(1 0 0 1 1321.8235 -1085.9919)" class="st11 st12">Release</text>
<path class="st7" d="M-1247.6-944.8c0,11.7-39.9,24.7-97.2,24.7c-57.3,0-97.2-13-97.2-24.7c0-2.8,2.4-5.7,6.7-8.5
	c17.7,10.1,54.9,15.4,90.5,15.4c35.6,0,72.8-5.4,90.5-15.5C-1249.9-950.5-1247.6-947.6-1247.6-944.8L-1247.6-944.8z M-1247.6-909
	c0,11.7-39.9,24.7-97.2,24.7c-57.3,0-97.2-13-97.2-24.6c0-2.8,2.3-5.7,6.7-8.5c17.7,10.1,54.9,15.5,90.5,15.5
	c35.6,0,72.8-5.4,90.5-15.5C-1249.9-914.7-1247.6-911.8-1247.6-909L-1247.6-909z M-1247.6-873.2c0,11.7-39.9,24.7-97.2,24.7
	c-57.3,0-97.2-13-97.2-24.6c0-2.8,2.4-5.7,6.7-8.5c17.7,10.1,54.9,15.4,90.5,15.4c35.6,0,72.8-5.4,90.5-15.5
	C-1249.9-878.9-1247.6-876-1247.6-873.2L-1247.6-873.2z M-1247.6-837.4c0,11.7-39.9,24.7-97.2,24.7c-57.3,0-97.2-13-97.2-24.7
	c0-2.8,2.4-5.7,6.7-8.5c17.7,10.1,54.9,15.4,90.5,15.4c35.6,0,72.8-5.4,90.5-15.5C-1249.9-843.1-1247.6-840.2-1247.6-837.4
	L-1247.6-837.4z M-1344.8-1005.2c57.3,0,97.2,13,97.2,24.6c0,11.7-39.9,24.7-97.2,24.7c-57.3,0-97.2-13-97.2-24.7
	C-1442-992.2-1402.1-1005.2-1344.8-1005.2L-1344.8-1005.2z M-1243.8-966.7l0-13.9c0-18.7-52-28.8-101-28.8c-49,0-101,10.2-101,28.8
	l0,13.9c0,4.1,2.5,7.7,6.8,10.9c-4.3,3.2-6.8,6.9-6.8,10.9l0,13.9c0,4.1,2.5,7.7,6.8,10.9c-4.3,3.2-6.8,6.9-6.8,10.9l0,13.9
	c0,4.1,2.5,7.7,6.8,11c-4.3,3.2-6.8,6.9-6.8,10.9l0,13.9c0,4.1,2.4,7.7,6.8,10.9c-4.3,3.2-6.8,6.9-6.8,10.9l0,13.9
	c0,18.7,52,28.8,101,28.8c49,0,101-10.1,101-28.8l0-13.9c0-4-2.5-7.7-6.8-10.9c4.3-3.2,6.8-6.9,6.8-11l0-13.9
	c0-4.1-2.5-7.7-6.8-10.9c4.3-3.2,6.8-6.9,6.8-11l0-13.9c0-4.1-2.5-7.7-6.8-10.9c4.3-3.2,6.8-6.9,6.8-10.9l0-13.9
	c0-4.1-2.5-7.7-6.8-10.9C-1246.2-958.9-1243.8-962.6-1243.8-966.7L-1243.8-966.7z"/>
<rect x="-1746.2" y="-361.9" class="st13" width="820.9" height="579.9"/>
<text transform="matrix(1 0 0 1 -1695.3932 -302.2349)"><tspan x="0" y="0" class="st11 st14">Obtain ARGs from </tspan><tspan x="-23.6" y="98.4" class="st11 st14">different resources </tspan><tspan x="-38.1" y="196.8" class="st11 st14">(CARD, NCBI, deep</tspan><tspan x="730.2" y="196.8" class="st11 st14">-</tspan><tspan x="24.7" y="295.2" class="st11 st14">ARG, MEGARES, </tspan><tspan x="91.8" y="393.6" class="st11 st14">ARG-ANNOT, </tspan><tspan x="226.4" y="492" class="st11 st14">SARG)</tspan></text>
<rect x="-929.1" y="-361.9" class="st13" width="1075.7" height="319.5"/>
<text transform="matrix(1 0 0 1 -889.7305 -302.2349)"><tspan x="0" y="0" class="st11 st14">Inspection and validation </tspan><tspan x="67.5" y="98.4" class="st11 st14">of ARGs using crowd</tspan><tspan x="902.2" y="98.4" class="st11 st14">-</tspan><tspan x="20.9" y="196.8" class="st11 st14">sourcing (AMT, experts)</tspan></text>
<rect x="130.7" y="-361.9" class="st13" width="839.7" height="319.5"/>
<text transform="matrix(1 0 0 1 189.552 -302.2349)"><tspan x="0" y="0" class="st11 st14">ARGminer evalua</tspan><tspan x="694.7" y="0" class="st11 st14">-</tspan><tspan x="-51.7" y="98.4" class="st11 st14">tors verify authentic</tspan><tspan x="746.4" y="98.4" class="st11 st14">-</tspan><tspan x="19.3" y="196.8" class="st11 st14">ity of annotations</tspan></text>
<rect x="1080.5" y="-361.9" class="st13" width="836.2" height="319.5"/>
<text transform="matrix(1 0 0 1 1136.7717 -302.2349)"><tspan x="0" y="0" class="st11 st14">Update ARGminer </tspan><tspan x="-27.4" y="98.4" class="st11 st14">database and make </tspan><tspan x="203.3" y="196.8" class="st11 st14">it public</tspan></text>
<path class="st4" d="M553.7,3c0-5,4.1-9.1,9.1-9.1c5,0,9.1,4.1,9.1,9.1v18.3c0,5-4.1,9.1-9.1,9.1c-5,0-9.1-4.1-9.1-9.1V3L553.7,3z
	 M553.7,149.2c0-5,4.1-9.1,9.1-9.1c5,0,9.1,4.1,9.1,9.1v18.3c0,5-4.1,9.1-9.1,9.1c-5,0-9.1-4.1-9.1-9.1V149.2L553.7,149.2z
	 M553.7,76.1c0-5,4.1-9.1,9.1-9.1c5,0,9.1,4.1,9.1,9.1v18.3c0,5-4.1,9.1-9.1,9.1c-5,0-9.1-4.1-9.1-9.1V76.1L553.7,76.1z"/>
<path class="st4" d="M522,217.8c-5,0-9.1-4.1-9.1-9.1c0-5,4.1-9.1,9.1-9.1h18.3c5,0,9.1,4.1,9.1,9.1c0,5-4.1,9.1-9.1,9.1H522
	L522,217.8z M-62.3,217.8c-5,0-9.1-4.1-9.1-9.1c0-5,4.1-9.1,9.1-9.1H-44c5,0,9.1,4.1,9.1,9.1c0,5-4.1,9.1-9.1,9.1H-62.3L-62.3,217.8
	z M10.8,217.8c-5,0-9.1-4.1-9.1-9.1c0-5,4.1-9.1,9.1-9.1h18.3c5,0,9.1,4.1,9.1,9.1c0,5-4.1,9.1-9.1,9.1H10.8L10.8,217.8z
	 M83.9,217.8c-5,0-9.1-4.1-9.1-9.1c0-5,4.1-9.1,9.1-9.1h18.3c5,0,9.1,4.1,9.1,9.1c0,5-4.1,9.1-9.1,9.1H83.9L83.9,217.8z
	 M156.6,217.8c-5,0-9.1-4.1-9.1-9.1c0-5,4.1-9.1,9.1-9.1h18.3c5,0,9.1,4.1,9.1,9.1c0,5-4.1,9.1-9.1,9.1H156.6L156.6,217.8z
	 M229.7,217.8c-5,0-9.1-4.1-9.1-9.1c0-5,4.1-9.1,9.1-9.1h18.3c5,0,9.1,4.1,9.1,9.1c0,5-4.1,9.1-9.1,9.1H229.7L229.7,217.8z
	 M302.8,217.8c-5,0-9.1-4.1-9.1-9.1c0-5,4.1-9.1,9.1-9.1H321c5,0,9.1,4.1,9.1,9.1c0,5-4.1,9.1-9.1,9.1H302.8L302.8,217.8z
	 M375.9,217.8c-5,0-9.1-4.1-9.1-9.1c0-5,4.1-9.1,9.1-9.1h18.3c5,0,9.1,4.1,9.1,9.1c0,5-4.1,9.1-9.1,9.1H375.9L375.9,217.8z
	 M448.9,217.8c-5,0-9.1-4.1-9.1-9.1c0-5,4.1-9.1,9.1-9.1h18.3c5,0,9.1,4.1,9.1,9.1c0,5-4.1,9.1-9.1,9.1H448.9L448.9,217.8z"/>
<path class="st4" d="M-125.3,217.9c-5,0-9.1-4.1-9.1-9.1c0-5,4.1-9.1,9.1-9.1h18.3c5,0,9.1,4.1,9.1,9.1c0,5-4.1,9.1-9.1,9.1H-125.3
	L-125.3,217.9z"/>
<path class="st4" d="M-417.7,217.9c-5,0-9.1-4.1-9.1-9.1c0-5,4.1-9.1,9.1-9.1h18.3c5,0,9.1,4.1,9.1,9.1c0,5-4.1,9.1-9.1,9.1H-417.7
	L-417.7,217.9z"/>
<path class="st4" d="M-344.6,217.9c-5,0-9.1-4.1-9.1-9.1c0-5,4.1-9.1,9.1-9.1h18.3c5,0,9.1,4.1,9.1,9.1c0,5-4.1,9.1-9.1,9.1H-344.6
	L-344.6,217.9z"/>
<path class="st4" d="M-271.5,217.9c-5,0-9.1-4.1-9.1-9.1c0-5,4.1-9.1,9.1-9.1h18.3c5,0,9.1,4.1,9.1,9.1c0,5-4.1,9.1-9.1,9.1H-271.5
	L-271.5,217.9z"/>
<path class="st4" d="M-198.4,217.9c-5,0-9.1-4.1-9.1-9.1c0-5,4.1-9.1,9.1-9.1h18.3c5,0,9.1,4.1,9.1,9.1c0,5-4.1,9.1-9.1,9.1H-198.4
	L-198.4,217.9z"/>
<path class="st4" d="M-437.6,3c0-5,4.1-9.1,9.1-9.1c5,0,9.1,4.1,9.1,9.1v18.3c0,5-4.1,9.1-9.1,9.1c-5,0-9.1-4.1-9.1-9.1V3L-437.6,3z
	 M-437.6,149.2c0-5,4.1-9.1,9.1-9.1c5,0,9.1,4.1,9.1,9.1v18.3c0,5-4.1,9.1-9.1,9.1c-5,0-9.1-4.1-9.1-9.1V149.2L-437.6,149.2z
	 M-437.6,76.1c0-5,4.1-9.1,9.1-9.1c5,0,9.1,4.1,9.1,9.1v18.3c0,5-4.1,9.1-9.1,9.1c-5,0-9.1-4.1-9.1-9.1V76.1L-437.6,76.1z"/>
<rect x="-152.1" y="243.9" class="st13" width="490.3" height="103.8"/>
<text transform="matrix(1 0 0 1 -103.9105 303.6057)" class="st11 st14">Feedback</text>
</svg>
