<?xml version="1.0" encoding="utf-8"?>
<!-- Generator: Adobe Illustrator 19.0.0, SVG Export Plug-In . SVG Version: 6.00 Build 0)  -->
<svg version="1.1" id="Layer_1" xmlns="http://www.w3.org/2000/svg" xmlns:xlink="http://www.w3.org/1999/xlink" x="0px" y="0px"
	 viewBox="187.1 -337.4 1065.8 800" style="enable-background:new 187.1 -337.4 1065.8 800;" xml:space="preserve">
<style type="text/css">
	.st0{clip-path:url(#SVGID_2_);}
	.st1{fill:#B9E7ED;}
	.st2{opacity:8.000000e-02;fill:#333333;enable-background:new    ;}
	.st3{fill:#D9AE8D;}
	.st4{fill:#F7C6A1;}
	.st5{fill:#F7DFCD;}
	.st6{fill:#A8BCBF;}
	.st7{fill:#4D4D4D;}
	.st8{fill:#333333;}
	.st9{opacity:5.000000e-02;fill:#333333;enable-background:new    ;}
	.st10{clip-path:url(#SVGID_4_);}
	.st11{fill:#F7D1B4;}
	.st12{fill:#F2A753;}
	.st13{fill:#EBC09F;}
	.st14{fill:#FFECDE;}
	.st15{fill:#C49E72;}
	.st16{clip-path:url(#SVGID_6_);}
	.st17{fill:#C7A482;}
	.st18{fill:#1D5A69;}
	.st19{opacity:0.15;fill:#333333;enable-background:new    ;}
	.st20{fill:#B39273;}
	.st21{fill:#43759C;}
	.st22{clip-path:url(#SVGID_8_);}
	.st23{fill:#43AB9B;}
	.st24{fill:#72A891;}
</style>
<g id="Background">
</g>
<g id="Objects">
	<g>
		<g>
			<defs>
				<rect id="SVGID_1_" x="322" y="-337.4" width="800" height="800"/>
			</defs>
			<clipPath id="SVGID_2_">
				<use xlink:href="#SVGID_1_"  style="overflow:visible;"/>
			</clipPath>
			<g class="st0">
				<path class="st1" d="M969.8,119l-62.7-10c1.8,4.7,2.5,10,1.6,15.4c-2.6,16.2-17.8,27.3-34.1,24.7c-16.2-2.6-27.3-17.8-24.7-34.1
					c0.9-5.4,3.1-10.2,6.3-14.1L793.8,91c-12.3-2-23.9,6.4-25.9,18.8l-10.3,64.7c-3-2-6.5-3.4-10.3-4c-14.1-2.3-27.4,7.4-29.7,21.5
					s7.4,27.4,21.5,29.7c3.8,0.6,7.5,0.3,11-0.6L740,285.7c-2,12.3,6.4,23.9,18.8,25.9l175.9,28c12.3,2,23.9-6.4,25.9-18.8l28-175.9
					C990.5,132.6,982.1,121,969.8,119z"/>
				<path class="st2" d="M960.5,320.8l9.7-61.1L913.7,197c-4-4.5-11-4.9-15.5-0.8l-2.4,2.2c-4.5,4-4.9,11-0.8,15.5l38.5,42.8
					l-1.2,1.1l-0.5,0.5L882,202.9c-4-4.5-11-4.9-15.5-0.8l-2.4,2.2c-0.4,0.3-0.7,0.7-1,1.1c-0.1,0.1-0.2,0.2-0.2,0.3
					c-0.3,0.4-0.6,0.7-0.8,1.1c0,0,0,0,0,0.1c-0.2,0.4-0.5,0.8-0.6,1.3c0,0.1-0.1,0.2-0.1,0.3c-0.2,0.4-0.3,0.9-0.4,1.3l0,0
					c-0.1,0.5-0.2,1-0.3,1.4c0,0.1,0,0.1,0,0.2c0,0.5-0.1,1-0.1,1.4l0,0c0,0.5,0.1,1,0.2,1.5v0.1c0.1,0.5,0.2,1,0.4,1.4l0,0l0,0
					c0.5,1.4,1.2,2.8,2.3,3.9l49.8,55.3l-1.4,1.3l-58.2-64.7c-4-4.5-11-4.9-15.5-0.8l-2.4,2.2c-4.5,4-4.9,11-0.8,15.5l58.2,64.7
					l-1.8,1.6l-53-58.9c-4-4.5-11-4.9-15.5-0.8l-2.4,2.2c-4.5,4-4.9,11-0.8,15.5l65.2,72.4l0,0l6.7,7.4l-33-6.2
					c-2-0.4-4.1-0.4-6,0.1l82.3,13.1C947,341.5,958.5,333.1,960.5,320.8z"/>
				<g>
					<g>
						<g>
							
								<rect x="959.1" y="317.5" transform="matrix(-0.7431 0.6692 -0.6692 -0.7431 1981.8286 -36.8576)" class="st3" width="77.7" height="89"/>
							<path class="st4" d="M992.2,274.9c20,22.2,3.6,43-1.6,47.6l-45.8,41.2c-5.2,4.7-13.1,4.2-17.8-0.9l-38.9-43.2
								c-4.7-5.2-4.2-13.1,0.9-17.8l61-54.9c5.2-4.7,13.1-4.2,17.8,0.9L992.2,274.9z"/>
							<g>
								<path class="st4" d="M910.5,306.8c4.1,4.5,3.7,11.4-0.8,15.5l-2.4,2.2c-4.5,4-11.4,3.7-15.5-0.8l-65.2-72.4
									c-4-4.5-3.7-11.4,0.8-15.5l2.4-2.2c4.5-4,11.4-3.7,15.5,0.8L910.5,306.8z"/>
								<path class="st5" d="M844.5,238.3c3.5,3.9,0.5,6.8-3.4,10.3s-7.1,6.1-10.6,2.3c-3.5-3.9-3.2-9.8,0.7-13.3
									S841,234.4,844.5,238.3z"/>
							</g>
							<g>
								<path class="st4" d="M925.8,282.6c4,4.5,3.7,11.4-0.8,15.5l-2.4,2.2c-4.5,4-11.4,3.7-15.5-0.8l-65.2-72.4
									c-4-4.5-3.7-11.4,0.8-15.5l2.4-2.2c4.5-4,11.4-3.7,15.5,0.8L925.8,282.6z"/>
								<path class="st5" d="M859.8,214.1c3.5,3.9,0.5,6.8-3.4,10.3s-7.1,6.1-10.6,2.3c-3.5-3.9-3.2-9.8,0.7-13.3
									S856.3,210.2,859.8,214.1z"/>
							</g>
							<g>
								<path class="st4" d="M954.4,273.8c4,4.5,3.7,11.4-0.8,15.5l-2.4,2.2c-4.5,4-11.4,3.7-15.5-0.8l-65.2-72.4
									c-4-4.5-3.7-11.4,0.8-15.5l2.4-2.2c4.5-4,11.4-3.7,15.5,0.8L954.4,273.8z"/>
								<path class="st5" d="M888.4,205.3c3.5,3.9,0.5,6.8-3.4,10.3s-7.1,6.1-10.6,2.3c-3.5-3.9-3.2-9.8,0.7-13.3
									C878.9,201.1,884.9,201.4,888.4,205.3z"/>
							</g>
							<g>
								<path class="st4" d="M986.2,268c4.1,4.5,3.7,11.4-0.8,15.5l-2.4,2.2c-4.5,4-11.4,3.7-15.5-0.8l-65.2-72.4
									c-4-4.5-3.7-11.4,0.8-15.5l2.4-2.2c4.5-4,11.4-3.7,15.5,0.8L986.2,268z"/>
								<path class="st5" d="M920.1,199.4c3.5,3.9,0.5,6.8-3.4,10.3s-7.1,6.1-10.6,2.3c-3.5-3.9-3.2-9.8,0.7-13.3
									C910.7,195.3,916.6,195.6,920.1,199.4z"/>
							</g>
							<g>
								<path class="st4" d="M939.2,338.8c7.5,1.6,12.3,9,10.8,16.5l-0.1,0.7c-1.6,7.5-9,12.3-16.5,10.7l-73.7-13.9
									c-7.5-1.6-12.3-9-10.8-16.5l0.1-0.7c1.6-7.5,9-12.3,16.5-10.7L939.2,338.8z"/>
								<path class="st5" d="M853.6,345.1c-0.3,1.7-0.2,3.4,0.2,4.9c1.7,1.3,3.6,2.3,5.9,2.8l10.8,2.1c0.7-1.8,1.2-4.1,1.6-6.6
									c1.1-6.5,1.8-11.8-4.7-12.9C860.9,334.2,854.7,338.6,853.6,345.1z"/>
							</g>
						</g>
						<polygon class="st6" points="1165.6,477.8 1095.5,540.9 951.8,381.3 999.8,338.1 1019.1,353.6 1006.7,331.9 1021.9,318.2 
													"/>
						<g>
							<path class="st7" d="M1027.7,332.7c2.4,2.6,2.2,6.7-0.5,9c-2.6,2.4-6.7,2.2-9-0.5c-2.4-2.6-2.2-6.7,0.5-9
								C1021.3,329.9,1025.4,330.1,1027.7,332.7z"/>
							<circle class="st8" cx="1023" cy="337" r="4.1"/>
						</g>
					</g>
					<path class="st9" d="M905.5,194.8l-2.4,2.2c-4.5,4-4.9,11-0.8,15.5l38.5,42.8l-1.7,1.6l-49.8-55.3c-4-4.5-11-4.9-15.5-0.8
						l-2.4,2.2c-3.3,3-4.4,7.5-3.1,11.5l264.2,293.4l33.2-29.9l-143.8-159.8l-6.2,5.6l-15.4-17.1c2.7-8.8,2.3-20.1-8.2-31.8l-5-5.5
						c-0.3-0.5-0.6-0.9-1-1.4l-65.2-72.4C916.9,191.1,910,190.7,905.5,194.8z"/>
				</g>
			</g>
		</g>
		<g>
			<defs>
				<rect id="SVGID_3_" x="322" y="-337.4" width="800" height="800"/>
			</defs>
			<clipPath id="SVGID_4_">
				<use xlink:href="#SVGID_3_"  style="overflow:visible;"/>
			</clipPath>
			<g class="st10">
				<g>
					<path class="st11" d="M976.9-123.2c4.1-6.5,12.7-8.4,19.2-4.2l0.6,0.4c6.5,4.1,8.4,12.7,4.2,19.2l-39,64
						c-4.1,6.5-12.7,8.4-19.2,4.2l-0.6-0.4c-6.5-4.1-8.4-12.7-4.2-19.2L976.9-123.2z"/>
					<path class="st5" d="M952.5-40.9c1.5,0.9,3.1,1.4,4.7,1.6c1.8-1.1,3.5-2.6,4.7-4.5l5.8-9.4c-1.4-1.3-3.4-2.6-5.6-3.8
						c-5.7-3.3-10.4-5.8-13.8-0.2C945-51.6,946.9-44.3,952.5-40.9z"/>
				</g>
				<path class="st12" d="M940.1-186.5H761.9c-12.5,0-22.6,10.1-22.6,22.6v63.9c4.4-2.7,9.6-4.2,15.1-4.2
					c16.2,0,29.3,13.1,29.3,29.3c0,16.2-13.1,29.3-29.3,29.3c-5.5,0-10.7-1.5-15.1-4.2v63.9c0,12.5,10.1,22.6,22.6,22.6h67.8
					c-3,4.2-4.8,9.4-4.8,15c0,14.3,11.6,25.9,25.9,25.9c14.3,0,25.9-11.6,25.9-25.9c0-5.6-1.8-10.7-4.8-15h68
					c12.5,0,22.6-10.1,22.6-22.6v-178C962.7-176.3,952.5-186.5,940.1-186.5z"/>
				<path class="st2" d="M962.7-163.9c0-12.5-10.1-22.6-22.6-22.6h-3.8l-0.5,0.1c-0.3,0-0.5,0.1-0.8,0.1s-0.6,0.1-0.9,0.2
					l-94.4,24.4c-5.9,1.5-9.4,7.5-7.9,13.3l0.8,3.2c1.5,5.9,7.5,9.4,13.3,7.9l55.7-14.4l0.3,1.3l0.2,1L830-130.8
					c-5.9,1.5-9.4,7.5-7.9,13.3l0.8,3.2c0.1,0.3,0.2,0.6,0.3,1c0,0.1,0.1,0.2,0.1,0.3c0.1,0.2,0.2,0.5,0.3,0.7
					c0,0.1,0.1,0.2,0.1,0.3c0.1,0.3,0.3,0.6,0.5,0.8c0,0.1,0.1,0.1,0.1,0.2c0.1,0.2,0.3,0.4,0.4,0.6c0.1,0.1,0.1,0.2,0.2,0.3
					c0.1,0.2,0.3,0.3,0.4,0.5c0.1,0.1,0.2,0.2,0.2,0.3c0.2,0.2,0.4,0.4,0.6,0.6c0.1,0.1,0.2,0.2,0.3,0.3s0.3,0.2,0.4,0.3
					c0.1,0.1,0.3,0.2,0.4,0.3c0.1,0.1,0.2,0.2,0.4,0.2c0.3,0.2,0.5,0.3,0.8,0.5c0.1,0,0.2,0.1,0.3,0.1c0.2,0.1,0.3,0.2,0.5,0.2
					c0.1,0,0.2,0.1,0.3,0.1c0.2,0.1,0.4,0.1,0.5,0.2c0.1,0,0.2,0.1,0.3,0.1c0.4,0.1,0.8,0.2,1.1,0.3c0.1,0,0.1,0,0.2,0l0,0
					c1.5,0.2,3,0.2,4.5-0.2l72.1-18.6l0.5,1.9l-83.9,21.6c-5.9,1.5-9.4,7.5-7.9,13.3l0.8,3.2c1.5,5.9,7.5,9.4,13.3,7.9l84.3-21.8
					l0.6,2.3l-76.8,19.8c-5.9,1.5-9.4,7.5-7.9,13.3l0.8,3.2c1.5,5.9,7.5,9.4,13.3,7.9l94.4-24.4l0,0l22.8-5.9v-81.3H962.7z"/>
				<g>
					<g>
						<g>
							
								<rect x="987.1" y="-210.6" transform="matrix(0.2501 0.9682 -0.9682 0.2501 608.4692 -1117.91)" class="st13" width="77.7" height="89"/>
							<path class="st11" d="M945.9-201.3c28.9-7.5,39.8,16.7,41.5,23.4l15.4,59.7c1.7,6.7-2.3,13.6-9.1,15.3l-56.3,14.5
								c-6.7,1.7-13.6-2.3-15.3-9l-20.5-79.5c-1.7-6.7,2.3-13.6,9-15.3L945.9-201.3z"/>
							<g>
								<path class="st11" d="M936.5-114.1c5.9-1.5,11.8,2,13.3,7.9l0.8,3.2c1.5,5.9-2,11.8-7.9,13.3l-94.2,24.3
									c-5.9,1.5-11.8-2-13.3-7.9l-0.8-3.2c-1.5-5.9,2-11.8,7.9-13.3L936.5-114.1z"/>
								<path class="st14" d="M845.2-87.3c5-1.3,6.3,2.7,7.6,7.7c1.3,5,2.1,9.1-2.9,10.4s-10.1-1.7-11.4-6.7
									C837.2-80.8,840.2-86,845.2-87.3z"/>
							</g>
							<g>
								<path class="st11" d="M922.1-138.9c5.9-1.5,11.8,2,13.3,7.9l0.8,3.2c1.5,5.9-2,11.8-7.9,13.3l-94.4,24.4
									c-5.9,1.5-11.8-2-13.3-7.9l-0.8-3.2c-1.5-5.9,2-11.8,7.9-13.3L922.1-138.9z"/>
								<path class="st14" d="M830.8-112c5-1.3,6.3,2.7,7.6,7.7s2.1,9.1-2.9,10.4c-5,1.3-10.1-1.7-11.4-6.7
									C822.8-105.6,825.8-110.7,830.8-112z"/>
							</g>
							<g>
								<path class="st11" d="M927.5-168.3c5.9-1.5,11.8,2,13.3,7.9l0.8,3.2c1.5,5.9-2,11.8-7.9,13.3l-94.4,24.4
									c-5.9,1.5-11.8-2-13.3-7.9l-0.8-3.2c-1.5-5.9,2-11.8,7.9-13.3L927.5-168.3z"/>
								<path class="st14" d="M836.2-141.4c5-1.3,6.3,2.7,7.6,7.7s2.1,9.1-2.9,10.4c-5,1.3-10.1-1.7-11.4-6.7
									C828.2-135,831.2-140.1,836.2-141.4z"/>
							</g>
							<g>
								<path class="st11" d="M937-199.2c5.9-1.5,11.8,2,13.3,7.9l0.8,3.2c1.5,5.9-2,11.8-7.9,13.3L849-150.4
									c-5.9,1.5-11.8-2-13.3-7.9l-0.8-3.2c-1.5-5.9,2-11.8,7.9-13.3L937-199.2z"/>
								<path class="st14" d="M845.7-172.3c5-1.3,6.3,2.7,7.6,7.7s2.1,9.1-2.9,10.4c-5,1.3-10.1-1.7-11.4-6.7
									C837.7-165.9,840.7-171,845.7-172.3z"/>
							</g>
						</g>
						<polygon class="st15" points="1206,-261.4 1229.6,-170.1 1021.7,-116.4 1005.5,-178.9 1028.2,-188.9 1003.2,-187.9 
							998.1,-207.7 						"/>
						<g>
							<path class="st7" d="M1013.6-206.1c3.4-0.9,6.9,1.2,7.8,4.6c0.9,3.4-1.2,6.9-4.6,7.8c-3.4,0.9-6.9-1.2-7.8-4.6
								C1008.2-201.8,1010.2-205.3,1013.6-206.1z"/>
							<circle class="st8" cx="1015.2" cy="-200" r="4.1"/>
						</g>
					</g>
					<path class="st9" d="M834.8-161.5l0.8,3.2c1.5,5.9,7.5,9.4,13.3,7.9l55.7-14.4l0.6,2.2L833.1-144c-5.9,1.5-9.4,7.5-7.9,13.3
						l0.8,3.2c1.1,4.3,4.7,7.4,8.8,8.1l382.3-98.7l-11.1-43.3l-207.9,53.7l2.1,8L978-194c-6.5-6.5-16.7-11.4-32-7.4l-7.2,1.9
						c-0.6,0.1-1.1,0.1-1.7,0.3l-94.4,24.4C836.8-173.3,833.3-167.3,834.8-161.5z"/>
				</g>
			</g>
		</g>
		<g>
			<defs>
				<rect id="SVGID_5_" x="322" y="-337.4" width="800" height="800"/>
			</defs>
			<clipPath id="SVGID_6_">
				<use xlink:href="#SVGID_5_"  style="overflow:visible;"/>
			</clipPath>
			<g class="st16">
				<g>
					<path class="st17" d="M475.5,273.1c-3.5,6.9-11.8,9.6-18.7,6.1l-0.6-0.3c-6.9-3.5-9.6-11.8-6.1-18.7l32.4-67.6
						c3.5-6.9,11.8-9.6,18.7-6.1l0.6,0.3c6.9,3.5,9.6,11.8,6.1,18.7L475.5,273.1z"/>
				</g>
				<path class="st18" d="M688.4,163.3c3.6-0.4,7.1,0,10.4,0.9l-6-61.5c-1.2-12.4-12.3-21.5-24.7-20.3l-67.8,6.7
					c2.7-4.6,4.1-10,3.5-15.7c-1.4-14.2-14.1-24.7-28.3-23.3c-14.2,1.4-24.7,14.1-23.3,28.3c0.6,5.7,2.9,10.8,6.5,14.8l-67.8,6.7
					c-12.4,1.2-21.5,12.3-20.3,24.7L488,301.9c1.2,12.4,12.3,21.5,24.7,20.3l177.2-17.6c12.4-1.2,21.5-12.3,20.3-24.7l-6-61.5
					c-3.1,1.5-6.4,2.5-10,2.9c-16,1.6-30.3-10.1-31.8-26.2S672.4,164.8,688.4,163.3z"/>
				<path class="st19" d="M508.1,335.1l93.8-23.9c5.9-1.5,9.4-7.5,7.9-13.3l-0.8-3.3c-1.5-5.9-7.5-9.4-13.3-7.9L540,301l-0.4-1.5
					l-0.2-0.7l72.1-18.4c5.9-1.5,9.4-7.5,7.9-13.3l-0.8-3.2c-0.1-0.3-0.2-0.6-0.3-1c0-0.1-0.1-0.2-0.1-0.3c-0.1-0.2-0.2-0.5-0.3-0.7
					c0-0.1-0.1-0.2-0.1-0.3c-0.1-0.3-0.3-0.6-0.5-0.8c0-0.1-0.1-0.1-0.1-0.2c-0.1-0.2-0.3-0.4-0.4-0.6c-0.1-0.1-0.1-0.2-0.2-0.3
					c-0.1-0.2-0.3-0.3-0.4-0.5c-0.1-0.1-0.2-0.2-0.2-0.3c-0.2-0.2-0.4-0.4-0.6-0.6c-0.1-0.1-0.2-0.2-0.3-0.3s-0.3-0.2-0.4-0.3
					c-0.1-0.1-0.3-0.2-0.4-0.3c-0.1-0.1-0.2-0.2-0.4-0.2c-0.5-0.3-1.1-0.6-1.6-0.9c-0.1,0-0.2-0.1-0.3-0.1c-0.2-0.1-0.4-0.1-0.6-0.2
					c-0.1,0-0.2-0.1-0.3-0.1c-0.4-0.1-0.8-0.2-1.2-0.3h-0.1l0,0c-1.5-0.3-3-0.2-4.5,0.2l-72.1,18.4l-0.5-1.9l84.3-21.5
					c5.9-1.5,9.4-7.5,7.9-13.3l-0.8-3.2c-1.5-5.9-7.5-9.4-13.3-7.9l-84.3,21.5l-0.6-2.3l76.8-19.6c5.9-1.5,9.4-7.5,7.9-13.3
					l-0.8-3.2c-1.5-5.9-7.5-9.4-13.3-7.9L502,225.8l0,0l-20.4,5.2l8.2,84.1C490.9,325.3,498.6,333.2,508.1,335.1z"/>
				<g>
					<g>
						<g>
							
								<rect x="392.2" y="276.1" transform="matrix(-0.3458 -0.9383 0.9383 -0.3458 279.2827 836.0037)" class="st20" width="77.7" height="89"/>
							<path class="st17" d="M514.2,347.7c-28,10.3-41.2-12.6-43.6-19.1l-21.3-57.8c-2.4-6.5,0.9-13.8,7.5-16.2l54.6-20.1
								c6.5-2.4,13.8,0.9,16.2,7.5l28.4,77c2.4,6.5-0.9,13.8-7.5,16.2L514.2,347.7z"/>
							<g>
								<path class="st17" d="M514.8,260c-5.7,2.1-12-0.8-14.1-6.5l-1.1-3.1c-2.1-5.7,0.8-12,6.5-14.1l91.4-33.7
									c5.7-2.1,12,0.8,14.1,6.5l1.1,3.1c2.1,5.7-0.8,12-6.5,14.1L514.8,260z"/>
								<path class="st5" d="M602.9,224.1c-4.9,1.8-6.5-2.1-8.3-6.9c-1.8-4.9-3-8.9,1.8-10.7c4.9-1.8,10.3,0.7,12.1,5.6
									C610.3,216.9,607.8,222.3,602.9,224.1z"/>
							</g>
							<g>
								<path class="st17" d="M531.6,283.2c-5.7,2.1-12-0.8-14.1-6.5l-1.1-3.1c-2.1-5.7,0.8-12,6.5-14.1l91.4-33.7
									c5.7-2.1,12,0.8,14.1,6.5l1.1,3.1c2.1,5.7-0.8,12-6.5,14.1L531.6,283.2z"/>
								<path class="st5" d="M619.7,247.3c-4.9,1.8-6.5-2.1-8.3-6.9c-1.8-4.9-3-8.9,1.8-10.7c4.9-1.8,10.3,0.7,12.1,5.6
									C627.1,240.1,624.6,245.5,619.7,247.3z"/>
							</g>
							<g>
								<path class="st17" d="M529.1,313c-5.7,2.1-12-0.8-14.1-6.5l-1.1-3.1c-2.1-5.7,0.8-12,6.5-14.1l91.4-33.7
									c5.7-2.1,12,0.8,14.1,6.5l1.1,3.1c2.1,5.7-0.8,12-6.5,14.1L529.1,313z"/>
								<path class="st5" d="M617.3,277.1c-4.9,1.8-6.5-2.1-8.3-6.9c-1.8-4.9-3-8.9,1.8-10.7c4.9-1.8,10.3,0.7,12.1,5.6
									C624.7,269.9,622.2,275.3,617.3,277.1z"/>
							</g>
							<g>
								<path class="st17" d="M522.8,344.7c-5.7,2.1-12-0.8-14.1-6.5l-1.1-3.1c-2.1-5.7,0.8-12,6.5-14.1l91.4-33.7
									c5.7-2.1,12,0.8,14.1,6.5l1.1,3.1c2.1,5.7-0.8,12-6.5,14.1L522.8,344.7z"/>
								<path class="st5" d="M611,308.8c-4.9,1.8-6.5-2.1-8.3-6.9c-1.8-4.9-3.1-8.9,1.8-10.7c4.9-1.8,10.3,0.7,12.1,5.6
									C618.3,301.6,615.8,307,611,308.8z"/>
							</g>
						</g>
						<polygon class="st21" points="261.4,433.5 228.8,345 430.3,270.8 452.6,331.4 431,343.5 455.8,340 462.9,359.2 						"/>
						<g>
							<path class="st7" d="M447.3,359.3c-3.3,1.2-7-0.5-8.2-3.8c-1.2-3.3,0.5-7,3.8-8.2c3.3-1.2,7,0.5,8.2,3.8
								C452.3,354.4,450.6,358,447.3,359.3z"/>
							<circle class="st8" cx="445.1" cy="353.3" r="4.1"/>
						</g>
					</g>
					<path class="st9" d="M620.7,296.9l-1.1-3.1c-2.1-5.7-8.4-8.6-14.1-6.5l-54,19.9l-0.8-2.2l69.8-25.7c5.7-2.1,8.6-8.4,6.5-14.1
						l-1.1-3.1c-1.5-4.2-5.4-6.9-9.6-7.1L245.9,391.5l15.5,42l201.5-74.3l-2.9-7.8l21.6-7.9c7.1,5.8,17.8,9.6,32.6,4.2l7-2.6
						c0.6-0.1,1.1-0.3,1.7-0.5l91.4-33.7C619.9,308.9,622.8,302.6,620.7,296.9z"/>
				</g>
			</g>
		</g>
		<g>
			<defs>
				<rect id="SVGID_7_" x="322" y="-337.4" width="800" height="800"/>
			</defs>
			<clipPath id="SVGID_8_">
				<use xlink:href="#SVGID_7_"  style="overflow:visible;"/>
			</clipPath>
			<g class="st22">
				<g>
					<path class="st4" d="M461.5-179.2c-7.6,0.8-14.5-4.7-15.3-12.3l-0.1-0.7c-0.8-7.6,4.7-14.5,12.3-15.3l74.3-9.7
						c7.6-0.8,14.5,4.7,15.3,12.3l0.1,0.7c0.8,7.6-4.7,14.5-12.3,15.3L461.5-179.2z"/>
				</g>
				<path class="st23" d="M715.8-98.7c-5.8-1-11.5,0-16.4,2.4l12-67.4c2.2-12.3-6-24-18.3-26.2l-175.4-31.2
					c-12.3-2.2-24,6-26.2,18.3L460.3-27.4c-2.2,12.3,6,24,18.3,26.2l64.7,11.5c-2.1-4.8-2.8-10.3-1.8-15.9
					c2.7-15.2,17.2-25.3,32.4-22.6c15.2,2.7,25.3,17.2,22.6,32.4c-1,5.6-3.6,10.5-7.2,14.3L654,30c12.3,2.2,24-6,26.2-18.3l12-67.4
					c3.7,4,8.7,6.9,14.5,7.9c14.1,2.5,27.6-6.9,30.1-21C739.3-82.8,729.9-96.2,715.8-98.7z"/>
				<path class="st2" d="M576.7-101.3c4.8,3.6,11.7,2.6,15.3-2.2l2-2.6c3.6-4.8,2.6-11.7-2.2-15.3l-78.1-58.2l0,0l-23.1-17.2
					L469.5-78.6l40.7,30.3c4.9,3.6,11.7,2.6,15.3-2.2l2-2.6c3.6-4.8,2.6-11.7-2.2-15.3l-46.1-34.4l0.7-1l0.7-0.9l59.7,44.5
					c4.8,3.6,11.7,2.6,15.3-2.2l2-2.6c0.2-0.3,0.4-0.6,0.6-0.8c0.1-0.1,0.1-0.2,0.2-0.3c0.1-0.2,0.2-0.4,0.3-0.6
					c0-0.1,0.1-0.2,0.1-0.3c0.1-0.3,0.3-0.6,0.4-0.9c0-0.1,0-0.1,0.1-0.2c0.1-0.2,0.2-0.5,0.2-0.7c0-0.1,0.1-0.2,0.1-0.3
					c0-0.2,0.1-0.4,0.1-0.6c0-0.1,0-0.2,0.1-0.3c0-0.3,0.1-0.6,0.1-0.9c0-0.1,0-0.3,0-0.4c0-0.2,0-0.4,0-0.5c0-0.2,0-0.3,0-0.5
					s0-0.3,0-0.5s-0.1-0.5-0.1-0.7s-0.1-0.4-0.1-0.5c0-0.2-0.1-0.4-0.1-0.5s-0.1-0.2-0.1-0.3c-0.1-0.2-0.1-0.4-0.2-0.5
					c0-0.1-0.1-0.2-0.1-0.3c-0.1-0.4-0.3-0.7-0.5-1c0-0.1-0.1-0.1-0.1-0.2l0,0c-0.7-1.3-1.7-2.5-3-3.4l-59.7-44.5l1.1-1.5l69.8,52
					c4.8,3.6,11.7,2.6,15.3-2.2l2-2.6c3.6-4.8,2.6-11.7-2.2-15.3l-69.8-52l1.4-1.9L576.7-101.3z"/>
				<g>
					<g>
						<g>
							
								<rect x="358.4" y="-235" transform="matrix(0.5976 -0.8018 0.8018 0.5976 312.5941 241.8628)" class="st3" width="77.7" height="89"/>
							<path class="st4" d="M420.1-106.1c-24-17.9-11.9-41.4-7.8-47l36.8-49.4c4.2-5.6,12.1-6.7,17.6-2.6l46.7,34.8
								c5.6,4.2,6.7,12.1,2.6,17.6l-49,65.8c-4.2,5.6-12,6.7-17.6,2.6L420.1-106.1z"/>
							<g>
								<path class="st4" d="M493.9-153.4c-4.9-3.6-5.9-10.5-2.2-15.3l2-2.6c3.6-4.8,10.5-5.9,15.3-2.2l78,58.1
									c4.8,3.6,5.9,10.5,2.2,15.3l-2,2.6c-3.6,4.8-10.5,5.8-15.3,2.2L493.9-153.4z"/>
								<path class="st5" d="M572.1-99.1c-4.2-3.1-1.8-6.6,1.3-10.8c3.1-4.2,5.8-7.4,9.9-4.3c4.2,3.1,5,9,1.9,13.1
									C582.1-96.9,576.2-96,572.1-99.1z"/>
							</g>
							<g>
								<path class="st4" d="M483.6-126.7c-4.9-3.6-5.9-10.5-2.2-15.3l2-2.6c3.6-4.8,10.5-5.8,15.3-2.2l78.1,58.2
									c4.8,3.6,5.8,10.5,2.2,15.3l-2,2.6c-3.6,4.9-10.5,5.9-15.3,2.2L483.6-126.7z"/>
								<path class="st5" d="M561.8-72.4c-4.2-3.1-1.8-6.6,1.3-10.8c3.1-4.2,5.8-7.4,9.9-4.3c4.2,3.1,5,9,1.9,13.1
									C571.8-70.2,565.9-69.3,561.8-72.4z"/>
							</g>
							<g>
								<path class="st4" d="M457.3-112.5c-4.9-3.6-5.9-10.5-2.2-15.3l2-2.6c3.6-4.8,10.5-5.9,15.3-2.2l78.1,58.2
									c4.8,3.6,5.8,10.5,2.2,15.3l-2,2.6c-3.6,4.9-10.5,5.9-15.3,2.2L457.3-112.5z"/>
								<path class="st5" d="M535.5-58.2c-4.2-3.1-1.8-6.6,1.3-10.8c3.1-4.2,5.8-7.4,9.9-4.3c4.2,3.1,5,9,1.9,13.1
									C545.5-55.9,539.7-55.1,535.5-58.2z"/>
							</g>
							<g>
								<path class="st4" d="M427.3-100.5c-4.9-3.6-5.9-10.5-2.2-15.3l2-2.6c3.6-4.8,10.5-5.9,15.3-2.2l78.1,58.2
									c4.8,3.6,5.8,10.5,2.2,15.3l-2,2.6c-3.6,4.9-10.5,5.9-15.3,2.2L427.3-100.5z"/>
								<path class="st5" d="M505.5-46.2c-4.2-3.1-1.8-6.6,1.3-10.8c3.1-4.2,5.8-7.4,9.9-4.3c4.2,3.1,5,9,1.9,13.1
									C515.5-44,509.7-43.1,505.5-46.2z"/>
							</g>
						</g>
						<polygon class="st24" points="210.2,-271.1 266.6,-346.7 438.7,-218.4 400.1,-166.6 378.2,-178 394.6,-159.2 382.4,-142.8 
													"/>
						<g>
							<path class="st7" d="M373.8-155.8c-2.8-2.1-3.4-6.1-1.3-8.9c2.1-2.8,6.1-3.4,8.9-1.3c2.8,2.1,3.4,6.1,1.3,8.9
								C380.7-154.3,376.7-153.7,373.8-155.8z"/>
							<circle class="st8" cx="377.7" cy="-161" r="4.1"/>
						</g>
					</g>
					<path class="st9" d="M520.8-44.5l2-2.6c3.6-4.8,2.6-11.7-2.2-15.3l-46.1-34.4l1.4-1.9l59.7,44.5c4.8,3.6,11.7,2.6,15.3-2.2
						l2-2.6c2.7-3.6,2.8-8.2,0.8-11.9l-316.8-236L210.2-271l172.2,128.2l5-6.7l18.4,13.7c-1,9.1,1.6,20.2,14.3,29.6l6,4.4
						c0.4,0.4,0.8,0.8,1.3,1.1l78.1,58.2C510.3-38.6,517.2-39.6,520.8-44.5z"/>
				</g>
			</g>
		</g>
	</g>
</g>
<g id="Firma__x28_unir_a_object_x29_">
</g>
</svg>
