<?xml version="1.0" encoding="utf-8"?>
<!-- Generator: Adobe Illustrator 19.0.0, SVG Export Plug-In . SVG Version: 6.00 Build 0)  -->
<svg version="1.1" id="Layer_1" xmlns="http://www.w3.org/2000/svg" xmlns:xlink="http://www.w3.org/1999/xlink" x="0px" y="0px"
	 viewBox="-75.7 35.8 59.4 45.4" style="enable-background:new -75.7 35.8 59.4 45.4;" xml:space="preserve">
<style type="text/css">
	.st0{fill:rgba(0,0,0,0.1);stroke:rgba(0,0,20,0.8);stroke-miterlimit:10;}
	.st1{fill:rgba(0,0,20,0.8);}
	
	<defs>
		<style>
			.st0 {
				stroke-dasharray:90;
				stroke-dashoffset:0;
				-webkit-animation: dash 4s linear infinite alternate;
				-o-animation: dash 4s linear infinite alternate;
				-moz-animation: dash 4s linear infinite alternate;
				animation: dash 4s linear infinite alternate;
				
			}

			@-webkit-keyframes dash {
				from { 
					stroke-dashoffset: 90;
				}
				to {
					stroke-dashoffset: 0;
				}
				
			}

		</style>
	</defs>

</style>
<g>
	<path class="st0" d="M-35,68.8h-14.2c-4.7,0-8.6-3.8-8.6-8.6s3.8-8.6,8.6-8.6c1,0,2,0.2,3,0.5c1-2.8,3.6-4.7,6.6-4.7
		c3.9,0,7,3.2,7,7l0,0c2.8,1,4.8,3.7,4.8,6.8C-27.7,65.4-31.1,68.8-35,68.8z M-49.2,53.7c-3.6,0-6.6,3-6.6,6.6c0,3.6,3,6.6,6.6,6.6
		H-35c2.9,0,5.3-2.5,5.3-5.4c0-2.4-1.7-4.6-4-5.1c-0.5-0.1-0.8-0.6-0.8-1.1c0-0.2,0-0.4,0-0.6c0-2.8-2.3-5-5-5c-2.5,0-4.6,1.8-5,4.3
		c0,0.3-0.3,0.6-0.5,0.8c-0.3,0.1-0.6,0.1-0.9,0C-47,54-48,53.7-49.2,53.7z">
	</path>
</g>
<g>
	<g>
		<path class="st1" d="M-47.7,61.8c-0.3,0-0.5-0.1-0.7-0.3c-0.2-0.2-0.3-0.4-0.3-0.7s0.1-0.5,0.3-0.7c0.4-0.4,1.1-0.4,1.4,0
			c0.2,0.2,0.3,0.4,0.3,0.7c0,0.3-0.1,0.5-0.3,0.7C-47.2,61.7-47.5,61.8-47.7,61.8z">

			<animateTransform
				attributeName="transform"
				attributeType="XML"
				type="translate"
				begin="0.0"
				dur="1s"
				values="0,2; 0,-2; 0,2"
				repeatCount="indefinite"
			/>

		</path>
	</g>
	<g>
		<path class="st1" d="M-43.7,60.8c0-0.5,0.5-1,1-1l0,0c0.6,0,1,0.5,1,1l0,0c0,0.6-0.4,1-1,1l0,0C-43.3,61.8-43.7,61.3-43.7,60.8z">
			<animateTransform
				attributeName="transform"
				attributeType="XML"
				type="translate"
				begin="0.6"
				dur="1s"
				values="0,2; 0,-2; 0,2"
				repeatCount="indefinite"
			/>
		</path>
	</g>
	<g>
		<path class="st1" d="M-37.7,61.8c-0.3,0-0.5-0.1-0.7-0.3c-0.2-0.2-0.3-0.4-0.3-0.7s0.1-0.5,0.3-0.7c0.4-0.4,1.1-0.4,1.4,0
			c0.2,0.2,0.3,0.4,0.3,0.7c0,0.3-0.1,0.5-0.3,0.7C-37.2,61.7-37.5,61.8-37.7,61.8z">

			<animateTransform
				attributeName="transform"
				attributeType="XML"
				type="translate"
				begin="0.9"
				dur="1s"
				values="0,2; 0,-6; 0,2"
				repeatCount="indefinite"
			/>

		</path>
	</g>
</g>

</svg>
