<svg xmlns="http://www.w3.org/2000/svg" xmlns:xlink="http://www.w3.org/1999/xlink" version="1.1" x="0px" y="0px" viewBox="0 0 64 80" enable-background="new 0 0 64 64" xml:space="preserve"><g><path fill="#000000" d="M32.744,26.61c0.658-0.108,1.338-0.104,2.008-0.11c0.47-0.004,0.946,0.121,1.409,0.078   c1.259-0.117,2.245-1.037,2.45-2.211c0.196-1.119-0.433-2.285-1.534-2.844c-1.037-0.527-2.282-0.269-3.147,0.663   c-0.462,0.497-0.899,1.019-1.372,1.506c-1.036,1.066-2.659,0.737-3.177-0.633c-0.282-0.745,0.063-1.653,0.881-2.334   c0.522-0.435,1.067-0.847,1.552-1.32c0.849-0.828,1.048-1.726,0.653-2.647c-0.51-1.188-1.571-1.9-2.776-1.865   c-1.051,0.031-1.935,0.675-2.235,1.827c-0.174,0.667-0.058,1.404-0.153,2.098c-0.105,0.771-0.228,1.554-0.48,2.285   c-0.226,0.656-0.918,0.833-1.486,0.652c-0.538-0.171-1.179-0.535-1.416-0.997c-0.285-0.556-0.23-1.305-0.251-1.972   c-0.018-0.588,0.125-1.183,0.084-1.767c-0.09-1.276-0.787-2.04-1.975-2.282c-1.2-0.245-2.447,0.282-2.986,1.262   c-0.54,0.982-0.379,2.323,0.413,3.135c0.494,0.506,1.031,0.972,1.553,1.451c0.832,0.764,0.982,2.123,0.314,2.883   c-0.619,0.705-1.756,0.729-2.631-0.052c-0.655-0.585-1.16-1.337-1.807-1.933c-1.004-0.925-2.439-1.035-3.436-0.351   c-0.969,0.665-1.345,1.951-0.901,3.086c0.523,1.339,1.548,1.892,3.003,1.794c0.84-0.057,1.719-0.01,2.533,0.185   c0.709,0.171,1.254,0.719,1.201,1.556c-0.053,0.827-0.446,1.488-1.277,1.736c-0.439,0.131-0.924,0.154-1.386,0.147   c-0.619-0.009-1.239-0.149-1.856-0.137c-1.288,0.025-2.314,0.816-2.58,1.913c-0.304,1.255,0.285,2.545,1.436,3.14   c1.03,0.532,2.249,0.269,3.146-0.668c0.51-0.532,1.007-1.083,1.559-1.569c0.555-0.489,1.198-0.747,1.964-0.448   c1.379,0.539,1.558,2.237,0.335,3.328c-0.53,0.473-1.088,0.914-1.614,1.392c-1.204,1.094-1.217,2.68-0.047,3.827   c1.13,1.108,2.757,0.994,3.833-0.21c0.798-0.894,0.847-1.864,0.614-2.979c-0.225-1.08,0.056-2.057,1.055-2.714   c0.605-0.398,1.175-0.302,1.736,0.078c0.955,0.647,1.011,1.593,0.857,2.606c-0.04,0.263-0.134,0.528-0.122,0.788   c0.024,0.557,0.019,1.135,0.173,1.662c0.39,1.33,1.773,2.043,3.102,1.679c1.029-0.282,1.712-0.936,1.986-1.958   c0.293-1.093-0.177-1.967-0.935-2.712c-0.504-0.496-1.031-0.968-1.548-1.451c-0.811-1.139-0.679-2.17,0.399-2.84   c0.835-0.519,1.791-0.319,2.526,0.534c0.502,0.583,0.983,1.185,1.501,1.754c0.693,0.761,1.589,0.951,2.517,0.618   c1.018-0.365,1.817-1.048,1.959-2.203c0.124-1.006-0.207-1.864-1.091-2.451c-0.921-0.613-1.938-0.59-2.992-0.547   c-0.623,0.025-1.308-0.064-1.869-0.314c-0.63-0.281-1.068-0.867-0.965-1.646C31.554,27.342,31.941,26.741,32.744,26.61z    M23.343,30.562c-0.122,0.118-0.254,0.234-0.392,0.346c-0.454,1.106-2.805,1.186-2.629-0.33c0.304-1.098,1.153-1.906,2.271-2.431   c0.418-0.128,1.105,0.027,1.374,0.311C24.64,29.165,24.061,30.256,23.343,30.562z M24.606,27.427   c-0.731-0.874-0.914-2.031-0.71-3.25c0.132-0.416,0.65-0.894,1.036-0.955c0.965-0.152,1.533,0.945,1.377,1.709   c0.027,0.168,0.048,0.342,0.062,0.519C27.024,26.452,25.754,28.433,24.606,27.427z M29.72,31.066   c-0.478,0.852-1.691,0.62-2.195,0.024c-0.149-0.082-0.298-0.173-0.446-0.273c-1.191-0.107-1.961-2.33-0.46-2.609   c1.139-0.034,2.161,0.539,2.993,1.453C29.857,30.023,29.911,30.725,29.72,31.066z"/><path fill="#000000" d="M61.375,49.691c-3.19-2.283-6.416-4.521-9.62-6.772c-1.499-1.044-2.992-2.105-4.492-3.149   c2.448-4.701,3.414-10.221,2.4-15.826C47.23,10.489,34.303,1.518,20.843,3.952C7.387,6.386-1.583,19.317,0.851,32.772   c2.434,13.461,15.364,22.426,28.82,19.992c4.27-0.772,8.086-2.598,11.231-5.169c4.33,3.87,8.678,7.737,13.018,11.605   c1.07,0.961,2.347,1.393,3.974,1.201c1.111-0.108,2.151-0.686,2.972-1.668c0.537-0.643,1.05-1.306,1.568-1.97   C64.249,54.434,63.809,51.434,61.375,49.691z M37.796,42.84c-0.096,0.086-0.192,0.167-0.288,0.254   c-0.02,0.009-0.033,0.022-0.051,0.041c-2.454,2.029-5.442,3.476-8.789,4.082C18.271,49.096,8.28,42.165,6.4,31.769   c-1.349-7.46,1.836-14.706,7.583-18.9c2.267-1.656,4.927-2.837,7.863-3.368c10.396-1.88,20.387,5.05,22.268,15.447   C45.36,31.838,42.736,38.553,37.796,42.84z"/></g><text x="0" y="79" fill="#000000" font-size="5px" font-weight="bold" font-family="'Helvetica Neue', Helvetica, Arial-Unicode, Arial, Sans-serif">Created by Delwar Hossain</text><text x="0" y="84" fill="#000000" font-size="5px" font-weight="bold" font-family="'Helvetica Neue', Helvetica, Arial-Unicode, Arial, Sans-serif">from the Noun Project</text></svg>