<?xml version="1.0" encoding="utf-8"?>
<!-- Generator: Adobe Illustrator 19.0.0, SVG Export Plug-In . SVG Version: 6.00 Build 0)  -->
<svg version="1.1" id="Layer_1" xmlns="http://www.w3.org/2000/svg" xmlns:xlink="http://www.w3.org/1999/xlink" x="0px" y="0px"
	 viewBox="-27 35.9 100 62.6" style="enable-background:new -27 35.9 100 62.6;" xml:space="preserve">
<style type="text/css">
	.st0{fill:none;}
</style>
<rect x="-54" y="37.5" class="st0" width="100" height="100"/>
<path d="M30.7,85.2c-0.9,0.9-2.3,0.9-3.2,0c-0.9-0.9-0.9-2.3,0-3.2c0.9-0.9,2.3-0.9,3.2,0C31.6,82.9,31.6,84.3,30.7,85.2z
	 M21.9,90.8c-0.9,0.9-0.9,2.3,0,3.2c0.9,0.9,2.3,0.9,3.2,0c0.9-0.9,0.9-2.3,0-3.2C24.2,89.9,22.8,89.9,21.9,90.8z M31.5,90.8
	c-0.9,0.9-0.9,2.3,0,3.2c0.9,0.9,2.3,0.9,3.2,0c0.9-0.9,0.9-2.3,0-3.2C33.8,89.9,32.4,89.9,31.5,90.8z M20.6,82.7
	c-0.9-0.9-2.3-0.9-3.2,0c-0.9,0.9-0.9,2.3,0,3.2c0.9,0.9,2.3,0.9,3.2,0C21.5,85,21.5,83.6,20.6,82.7z M22.5,73.6
	c-0.9,0.9-0.9,2.3,0,3.2s2.3,0.9,3.2,0c0.9-0.9,0.9-2.3,0-3.2S23.4,72.7,22.5,73.6z M-2.4,45c-4.8,0-9.1,2.9-10.9,7.3
	c-0.2,0.6,0,1.2,0.6,1.5c0.6,0.2,1.2,0,1.5-0.6c1.5-3.6,4.9-5.9,8.8-5.9c1.2,0,2.5,0.2,3.6,0.7l15.1,6.3c0.1,0.1,0.3,0.1,0.4,0.1
	c0.4,0,0.9-0.3,1-0.7c0.2-0.6,0-1.2-0.6-1.5l-15-6.3C0.7,45.3-0.8,45-2.4,45z M57.7,73.9l-22.3,9.3L24.1,56L12.9,83.1l-22.4-9.2
	c-4.6-1.9-8.1-5.4-10-10s-1.9-9.6,0-14.2c2.9-6.9,9.6-11.4,17.1-11.4c2.4,0,4.8,0.5,7.1,1.4l19.4,8l19.4-8c2.3-0.9,4.6-1.4,7.1-1.4
	c7.5,0,14.2,4.5,17.1,11.4C71.6,59.2,67.1,70,57.7,73.9z M21.2,51.4L3,43.9c-1.7-0.7-3.5-1.1-5.4-1.1c-5.7,0-10.8,3.4-13,8.7
	c-1.4,3.5-1.4,7.3,0,10.7c1.4,3.5,4.1,6.2,7.6,7.6l18.2,7.5L21.2,51.4z M63.6,51.4c-2.2-5.3-7.3-8.7-13-8.7c-1.8,0-3.6,0.4-5.4,1.1
	L27,51.3l10.7,25.9l18.2-7.5C63.1,66.8,66.5,58.6,63.6,51.4z M60,51.7c-0.6,0.2-0.8,0.9-0.6,1.5c2,4.9-0.3,10.4-5.2,12.5l-15,6.2
	c-0.6,0.2-0.8,0.9-0.6,1.5c0.2,0.4,0.6,0.7,1,0.7c0.1,0,0.3,0,0.4-0.1l15.1-6.3c6-2.5,8.9-9.4,6.4-15.4C61.2,51.7,60.6,51.5,60,51.7
	z"/>
</svg>
