<?xml version="1.0" encoding="utf-8"?>
<!-- Generator: Adobe Illustrator 19.0.0, SVG Export Plug-In . SVG Version: 6.00 Build 0)  -->
<svg version="1.1" id="Layer_1" xmlns="http://www.w3.org/2000/svg" xmlns:xlink="http://www.w3.org/1999/xlink" x="0px" y="0px"
	 viewBox="207 -239.5 1091 605.1" style="enable-background:new 207 -239.5 1091 605.1;" xml:space="preserve">
<style type="text/css">
	.st0{fill:#72716F;}
	.st1{fill:#F2CB30;}
	.st2{fill:#EAB531;}
	.st3{fill:#58595A;}
	.st4{fill:#F7DB5E;}
	.st5{fill:#3E3D40;}
</style>
<g id="BG">
</g>
<g id="Object">
	<g>
		<g id="XMLID_52_">
			<g id="XMLID_53_">
				<g id="XMLID_56_">
					<path class="st0" d="M839.5-82.3l4.7,17l42.1-11.6l-4.7-17C858.3-177.8,771.2-227.2,687.3-204S554-93.6,577.2-9.7l38.5,139.1
						l42.1-11.6L619.3-21.3C602.5-82,638.2-145.1,699-161.9S822.7-143,839.5-82.3z"/>
				</g>
				<g id="XMLID_54_">
					<path id="XMLID_55_" class="st1" d="M974.5,323.3c0,9.3-7.6,16.9-16.9,16.9H541.9c-9.3,0-16.9-7.6-16.9-16.9v-270
						c0-9.3,7.6-16.9,16.9-16.9h415.6c9.3,0,16.9,7.6,16.9,16.9L974.5,323.3L974.5,323.3z"/>
				</g>
			</g>
		</g>
		<path class="st2" d="M974.5,323.3V157.9C837.6,273.7,640.1,317.2,528.2,333.2c3.1,4.2,8,7,13.7,7h415.6
			C966.9,340.3,974.5,332.7,974.5,323.3z"/>
		<path class="st3" d="M786.9,142.5c0-20.5-16.6-37.1-37.1-37.1s-37.1,16.6-37.1,37.1c0,12.2,5.9,23,15.1,29.8l-11.8,84h67.8
			l-11.8-84C780.9,165.6,786.9,154.8,786.9,142.5z"/>
		<path class="st4" d="M541.4,68.4v58.1c1.5-24.7,13.4-78.4,87.7-78.4h-67.5C550.5,48.1,541.4,57.2,541.4,68.4z"/>
		<path class="st5" d="M715.8,256.3c0,0,50.3-14.2,56-84l11.8,84H715.8z"/>
	</g>
</g>
</svg>
