<?xml version="1.0" encoding="utf-8"?>
<!-- Generator: Adobe Illustrator 19.0.0, SVG Export Plug-In . SVG Version: 6.00 Build 0)  -->
<svg version="1.1" xmlns="http://www.w3.org/2000/svg" xmlns:xlink="http://www.w3.org/1999/xlink" x="0px" y="0px"
	 viewBox="0 0 500 310" style="enable-background:new 0 0 500 310;" xml:space="preserve">
<style type="text/css">
	.st0{fill-rule:evenodd;clip-rule:evenodd;fill:#F7931E;}
	.st1{fill-rule:evenodd;clip-rule:evenodd;fill:#126588;}
	.st2{fill:none;stroke:#000000;stroke-width:1.4998;stroke-linecap:round;stroke-linejoin:round;stroke-dasharray:2,4;}
	.st3{fill:none;stroke:#000000;stroke-miterlimit:10;}
	.st4{fill-rule:evenodd;clip-rule:evenodd;fill:#FFF100;}
</style>
<g id="BACKGROUND">
</g>
<g id="OBJECTS">
	<rect x="354.7" y="50" class="st0" width="68.3" height="246.1"/>
	<rect x="266.9" y="93.3" class="st1" width="68.3" height="202.8"/>
	<rect x="179" y="136.6" class="st0" width="68.3" height="159.5"/>
	<rect x="91.1" y="179.8" class="st1" width="68.3" height="116.3"/>
	<g>
		<path class="st2" d="M307.9,9.8C259.7,3.7,202.1,66.3,218,129c-24.1-37.5-85.8-13.7-86.5,28.5"/>
		<g>
			<path class="st3" d="M314.8,11.2c-3-1.8-6.7-4.6-8.8-7.3l1,5.8l-3,5.1C306.9,13.1,311.3,11.8,314.8,11.2z"/>
		</g>
	</g>
	<polygon class="st4" points="132.7,284.1 210.7,209.3 254.3,229 299.7,164.7 343.7,188 393.7,122.1 399.8,127 410.7,90.6 
		379.9,110.9 388.1,117.6 342.7,180.1 299,157 253.5,223.4 208.6,204.6 	"/>
</g>
<g id="DESIGNED_BY_FREEPIK">
</g>
</svg>
