<?xml version="1.0" encoding="utf-8"?>
<!-- Generator: Adobe Illustrator 19.0.0, SVG Export Plug-In . SVG Version: 6.00 Build 0)  -->
<svg version="1.1" xmlns="http://www.w3.org/2000/svg" xmlns:xlink="http://www.w3.org/1999/xlink" x="0px" y="0px"
	 viewBox="0 0 528.8 580.3" style="enable-background:new 0 0 528.8 580.3;" xml:space="preserve">
<style type="text/css">
	.st0{fill:#B9E7ED;}
	.st1{fill:#F2A753;}
	.st2{opacity:8.000000e-02;fill:#333333;}
	.st3{fill:#1D5A69;}
	.st4{fill:#43AB9B;}
	.st5{fill:none;}
</style>
<g id="Background">
</g>
<g id="Objects">
	<path class="st0" d="M509.7,349.7l-62.7-10c1.8,4.7,2.5,10,1.6,15.4c-2.6,16.2-17.8,27.3-34.1,24.7c-16.2-2.6-27.3-17.8-24.7-34.1
		c0.9-5.4,3.1-10.2,6.3-14.1l-62.4-9.9c-12.3-2-23.9,6.4-25.9,18.8l-10.3,64.7c-3-2-6.5-3.4-10.3-4c-14.1-2.3-27.4,7.4-29.7,21.5
		c-2.3,14.1,7.4,27.4,21.5,29.7c3.8,0.6,7.5,0.3,11-0.6l-10.3,64.7c-2,12.3,6.4,23.9,18.8,25.9l175.9,28c12.3,2,23.9-6.4,25.9-18.8
		l28-175.9C530.4,363.3,522.1,351.7,509.7,349.7z"/>
	<path class="st1" d="M480,44.2H301.9c-12.5,0-22.6,10.1-22.6,22.6v63.9c4.4-2.7,9.6-4.2,15.1-4.2c16.2,0,29.3,13.1,29.3,29.3
		s-13.1,29.3-29.3,29.3c-5.5,0-10.7-1.5-15.1-4.2v63.9c0,12.5,10.1,22.6,22.6,22.6h67.8c-3,4.2-4.8,9.4-4.8,15
		c0,14.3,11.6,25.9,25.9,25.9s25.9-11.6,25.9-25.9c0-5.6-1.8-10.7-4.8-15h68c12.5,0,22.6-10.1,22.6-22.6V66.8
		C502.6,54.3,492.5,44.2,480,44.2z"/>
	<path class="st2" d="M502.6,66.8c0-12.5-10.1-22.6-22.6-22.6h-3.8l-0.5,0.1c-0.3,0-0.5,0.1-0.8,0.1c-0.3,0-0.6,0.1-0.9,0.2
		L379.7,69c-5.9,1.5-9.4,7.5-7.9,13.3l0.8,3.2c1.5,5.9,7.5,9.4,13.3,7.9L441.7,79l0.3,1.3l0.2,1l-72.1,18.6
		c-5.9,1.5-9.4,7.5-7.9,13.3l0.8,3.2c0.1,0.3,0.2,0.6,0.3,1c0,0.1,0.1,0.2,0.1,0.3c0.1,0.2,0.2,0.5,0.3,0.7c0,0.1,0.1,0.2,0.1,0.3
		c0.1,0.3,0.3,0.6,0.5,0.8c0,0.1,0.1,0.1,0.1,0.2c0.1,0.2,0.3,0.4,0.4,0.6c0.1,0.1,0.1,0.2,0.2,0.3c0.1,0.2,0.3,0.3,0.4,0.5
		c0.1,0.1,0.2,0.2,0.2,0.3c0.2,0.2,0.4,0.4,0.6,0.6c0.1,0.1,0.2,0.2,0.3,0.3c0.1,0.1,0.3,0.2,0.4,0.3c0.1,0.1,0.3,0.2,0.4,0.3
		c0.1,0.1,0.2,0.2,0.4,0.2c0.3,0.2,0.5,0.3,0.8,0.5c0.1,0,0.2,0.1,0.3,0.1c0.2,0.1,0.3,0.2,0.5,0.2c0.1,0,0.2,0.1,0.3,0.1
		c0.2,0.1,0.4,0.1,0.5,0.2c0.1,0,0.2,0.1,0.3,0.1c0.4,0.1,0.8,0.2,1.1,0.3c0.1,0,0.1,0,0.2,0l0,0c1.5,0.2,3,0.2,4.5-0.2l72.1-18.6
		l0.5,1.9l-84.3,21.8c-5.9,1.5-9.4,7.5-7.9,13.3l0.8,3.2c1.5,5.9,7.5,9.4,13.3,7.9l84.3-21.8l0.6,2.3l-76.8,19.8
		c-5.9,1.5-9.4,7.5-7.9,13.3l0.8,3.2c1.5,5.9,7.5,9.4,13.3,7.9l94.4-24.4c0,0,0,0,0,0l22.8-5.9V66.8z"/>
	<path class="st3" d="M228.4,394c3.6-0.4,7.1,0,10.4,0.9l-6-61.5c-1.2-12.4-12.3-21.5-24.7-20.3l-67.8,6.7c2.7-4.6,4.1-10,3.5-15.7
		c-1.4-14.2-14.1-24.7-28.3-23.3c-14.2,1.4-24.7,14.1-23.3,28.3c0.6,5.7,2.9,10.8,6.5,14.8l-67.8,6.7c-12.4,1.2-21.5,12.3-20.3,24.7
		l17.4,177.3c1.2,12.4,12.3,21.5,24.7,20.3l177.3-17.4c12.4-1.2,21.5-12.3,20.3-24.7l-6-61.5c-3.1,1.5-6.4,2.5-10,2.9
		c-16,1.6-30.3-10.1-31.8-26.2S212.4,395.5,228.4,394z"/>
	<path class="st4" d="M255.8,131.9c-5.8-1-11.5,0-16.4,2.4l12-67.4c2.2-12.3-6-24-18.3-26.2L57.8,9.6c-12.3-2.2-24,6-26.2,18.3
		L0.4,203.2c-2.2,12.3,6,24,18.3,26.2L83.3,241c-2.1-4.8-2.8-10.3-1.8-15.9c2.7-15.2,17.2-25.3,32.4-22.6
		c15.2,2.7,25.3,17.2,22.6,32.4c-1,5.6-3.6,10.5-7.2,14.3l64.7,11.5c12.3,2.2,24-6,26.2-18.3l12-67.4c3.7,4,8.7,6.9,14.5,7.9
		c14.1,2.5,27.6-6.9,30.1-21C279.3,147.9,269.9,134.5,255.8,131.9z"/>
	<path class="st2" d="M116.7,129.4c4.8,3.6,11.7,2.6,15.3-2.2l2-2.6c3.6-4.8,2.6-11.7-2.2-15.3L53.6,50.9c0,0,0,0,0,0L30.6,33.7
		L9.5,152l40.7,30.3c4.9,3.6,11.7,2.6,15.3-2.2l2-2.6c3.6-4.8,2.6-11.7-2.2-15.3l-46.1-34.4l0.7-1l0.7-0.9l59.7,44.5
		c4.8,3.6,11.7,2.6,15.3-2.2l2-2.6c0.2-0.3,0.4-0.6,0.6-0.8c0.1-0.1,0.1-0.2,0.2-0.3c0.1-0.2,0.2-0.4,0.3-0.6c0-0.1,0.1-0.2,0.1-0.3
		c0.1-0.3,0.3-0.6,0.4-0.9c0-0.1,0-0.1,0.1-0.2c0.1-0.2,0.2-0.5,0.2-0.7c0-0.1,0.1-0.2,0.1-0.3c0-0.2,0.1-0.4,0.1-0.6
		c0-0.1,0-0.2,0.1-0.3c0-0.3,0.1-0.6,0.1-0.9c0-0.1,0-0.3,0-0.4c0-0.2,0-0.4,0-0.5c0-0.2,0-0.3,0-0.5c0-0.2,0-0.3,0-0.5
		c0-0.2-0.1-0.5-0.1-0.7c0-0.2-0.1-0.4-0.1-0.5c0-0.2-0.1-0.4-0.1-0.5c0-0.1-0.1-0.2-0.1-0.3c-0.1-0.2-0.1-0.4-0.2-0.5
		c0-0.1-0.1-0.2-0.1-0.3c-0.1-0.4-0.3-0.7-0.5-1c0-0.1-0.1-0.1-0.1-0.2l0,0c-0.7-1.3-1.7-2.5-3-3.4l-59.7-44.5l1.1-1.5l69.8,52
		c4.8,3.6,11.7,2.6,15.3-2.2l2-2.6c3.6-4.8,2.6-11.7-2.2-15.3l-69.8-52l1.4-1.9L116.7,129.4z"/>
	<rect x="-138" y="-106.7" class="st5" width="800" height="800"/>
</g>
<g id="Firma__x28_unir_a_object_x29_">
</g>
</svg>
