<?xml version="1.0" encoding="utf-8"?>
<!-- Generator: Adobe Illustrator 19.0.0, SVG Export Plug-In . SVG Version: 6.00 Build 0)  -->
<svg version="1.1" id="Layer_2" xmlns="http://www.w3.org/2000/svg" xmlns:xlink="http://www.w3.org/1999/xlink" x="0px" y="0px"
	 viewBox="0 0 1783.7 756.6" style="enable-background:new 0 0 1783.7 756.6;" xml:space="preserve">
<style type="text/css">
	.st0{fill:#0082D2;}
	.st1{fill:#00AAE1;}
	.st2{fill:#00D7E1;}
	.st3{fill:#00D2AA;}
	.st4{fill:#00AA87;}
	.st5{fill:#00AAB4;}
	.st6{fill:#008CB4;}
	.st7{fill:#0A62A5;}
	.st8{fill:#FFFFFF;}
	.st9{fill:#2E3F73;}
	.st10{fill:#455FAC;}
	.st11{fill:#7C98EB;}
	.st12{fill:#BECBF5;}
	.st13{fill:none;}
	.st14{font-family:'MarkerFelt-Wide';}
	.st15{font-size:60px;}
	.st16{opacity:0.69;}
	.st17{font-family:'ArialRoundedMTBold';}
	.st18{font-size:30px;}
	.st19{font-size:36px;}
	.st20{font-family:'ArialMT';}
	.st21{font-size:24px;}
</style>
<circle class="st0" cx="700" cy="100.9" r="58.1"/>
<circle class="st1" cx="700" cy="281.5" r="58.1"/>
<circle class="st2" cx="700" cy="462.2" r="58.1"/>
<circle class="st3" cx="700" cy="642.8" r="58.1"/>
<g>
	<g>
		<g>
			<g>
				<circle class="st4" cx="700" cy="711.1" r="2.6"/>
				<circle class="st4" cx="700" cy="574.6" r="2.6"/>
			</g>
			<g>
				<circle class="st4" cx="631.7" cy="642.8" r="2.6"/>
				<circle class="st4" cx="768.3" cy="642.8" r="2.6"/>
			</g>
		</g>
		<g>
			<g>
				<circle class="st4" cx="711.9" cy="710.1" r="2.6"/>
				<circle class="st4" cx="688.2" cy="575.6" r="2.6"/>
			</g>
			<g>
				<circle class="st4" cx="632.8" cy="654.7" r="2.6"/>
				<circle class="st4" cx="767.2" cy="631" r="2.6"/>
			</g>
		</g>
		<g>
			<g>
				<circle class="st4" cx="723.4" cy="707" r="2.6"/>
				<circle class="st4" cx="676.7" cy="578.7" r="2.6"/>
			</g>
			<g>
				<circle class="st4" cx="635.9" cy="666.2" r="2.6"/>
				<circle class="st4" cx="764.2" cy="619.5" r="2.6"/>
			</g>
		</g>
		<g>
			<g>
				<circle class="st4" cx="734.2" cy="702" r="2.6"/>
				<circle class="st4" cx="665.9" cy="583.7" r="2.6"/>
			</g>
			<g>
				<circle class="st4" cx="640.9" cy="677" r="2.6"/>
				<circle class="st4" cx="759.1" cy="608.7" r="2.6"/>
			</g>
		</g>
		<g>
			<g>
				<circle class="st4" cx="743.9" cy="695.1" r="2.6"/>
				<circle class="st4" cx="656.1" cy="590.5" r="2.6"/>
			</g>
			<g>
				<circle class="st4" cx="647.7" cy="686.7" r="2.6"/>
				<circle class="st4" cx="752.3" cy="599" r="2.6"/>
			</g>
		</g>
		<g>
			<g>
				<circle class="st4" cx="752.3" cy="686.7" r="2.6"/>
				<circle class="st4" cx="647.7" cy="599" r="2.6"/>
			</g>
			<g>
				<circle class="st4" cx="656.1" cy="695.1" r="2.6"/>
				<circle class="st4" cx="743.9" cy="590.5" r="2.6"/>
			</g>
		</g>
		<g>
			<g>
				<circle class="st4" cx="759.1" cy="677" r="2.6"/>
				<circle class="st4" cx="640.9" cy="608.7" r="2.6"/>
			</g>
			<g>
				<circle class="st4" cx="665.9" cy="702" r="2.6"/>
				<circle class="st4" cx="734.2" cy="583.7" r="2.6"/>
			</g>
		</g>
		<g>
			<g>
				<circle class="st4" cx="764.2" cy="666.2" r="2.6"/>
				<circle class="st4" cx="635.9" cy="619.5" r="2.6"/>
			</g>
			<g>
				<circle class="st4" cx="676.7" cy="707" r="2.6"/>
				<circle class="st4" cx="723.4" cy="578.7" r="2.6"/>
			</g>
		</g>
		<g>
			<g>
				<circle class="st4" cx="767.2" cy="654.7" r="2.6"/>
				<circle class="st4" cx="632.8" cy="631" r="2.6"/>
			</g>
			<g>
				<circle class="st4" cx="688.2" cy="710.1" r="2.6"/>
				<circle class="st4" cx="711.9" cy="575.6" r="2.6"/>
			</g>
		</g>
	</g>
</g>
<g>
	<g>
		<g>
			<g>
				<circle class="st5" cx="700" cy="530.4" r="2.6"/>
				<circle class="st5" cx="700" cy="393.9" r="2.6"/>
			</g>
			<g>
				<circle class="st5" cx="631.7" cy="462.2" r="2.6"/>
				<circle class="st5" cx="768.3" cy="462.2" r="2.6"/>
			</g>
		</g>
		<g>
			<g>
				<circle class="st5" cx="711.9" cy="529.4" r="2.6"/>
				<circle class="st5" cx="688.2" cy="394.9" r="2.6"/>
			</g>
			<g>
				<circle class="st5" cx="632.8" cy="474" r="2.6"/>
				<circle class="st5" cx="767.2" cy="450.3" r="2.6"/>
			</g>
		</g>
		<g>
			<g>
				<circle class="st5" cx="723.4" cy="526.3" r="2.6"/>
				<circle class="st5" cx="676.7" cy="398" r="2.6"/>
			</g>
			<g>
				<circle class="st5" cx="635.9" cy="485.5" r="2.6"/>
				<circle class="st5" cx="764.2" cy="438.8" r="2.6"/>
			</g>
		</g>
		<g>
			<g>
				<circle class="st5" cx="734.2" cy="521.3" r="2.6"/>
				<circle class="st5" cx="665.9" cy="403.1" r="2.6"/>
			</g>
			<g>
				<circle class="st5" cx="640.9" cy="496.3" r="2.6"/>
				<circle class="st5" cx="759.1" cy="428" r="2.6"/>
			</g>
		</g>
		<g>
			<g>
				<circle class="st5" cx="743.9" cy="514.5" r="2.6"/>
				<circle class="st5" cx="656.1" cy="409.9" r="2.6"/>
			</g>
			<g>
				<circle class="st5" cx="647.7" cy="506.1" r="2.6"/>
				<circle class="st5" cx="752.3" cy="418.3" r="2.6"/>
			</g>
		</g>
		<g>
			<g>
				<circle class="st5" cx="752.3" cy="506.1" r="2.6"/>
				<circle class="st5" cx="647.7" cy="418.3" r="2.6"/>
			</g>
			<g>
				<circle class="st5" cx="656.1" cy="514.5" r="2.6"/>
				<circle class="st5" cx="743.9" cy="409.9" r="2.6"/>
			</g>
		</g>
		<g>
			<g>
				<circle class="st5" cx="759.1" cy="496.3" r="2.6"/>
				<circle class="st5" cx="640.9" cy="428" r="2.6"/>
			</g>
			<g>
				<circle class="st5" cx="665.9" cy="521.3" r="2.6"/>
				<circle class="st5" cx="734.2" cy="403.1" r="2.6"/>
			</g>
		</g>
		<g>
			<g>
				<circle class="st5" cx="764.2" cy="485.5" r="2.6"/>
				<circle class="st5" cx="635.9" cy="438.8" r="2.6"/>
			</g>
			<g>
				<circle class="st5" cx="676.7" cy="526.3" r="2.6"/>
				<circle class="st5" cx="723.4" cy="398" r="2.6"/>
			</g>
		</g>
		<g>
			<g>
				<circle class="st5" cx="767.2" cy="474" r="2.6"/>
				<circle class="st5" cx="632.8" cy="450.3" r="2.6"/>
			</g>
			<g>
				<circle class="st5" cx="688.2" cy="529.4" r="2.6"/>
				<circle class="st5" cx="711.9" cy="394.9" r="2.6"/>
			</g>
		</g>
	</g>
</g>
<g>
	<g>
		<g>
			<g>
				<circle class="st6" cx="700" cy="349.8" r="2.6"/>
				<circle class="st6" cx="700" cy="213.2" r="2.6"/>
			</g>
			<g>
				<circle class="st6" cx="631.7" cy="281.5" r="2.6"/>
				<circle class="st6" cx="768.3" cy="281.5" r="2.6"/>
			</g>
		</g>
		<g>
			<g>
				<circle class="st6" cx="711.9" cy="348.7" r="2.6"/>
				<circle class="st6" cx="688.2" cy="214.3" r="2.6"/>
			</g>
			<g>
				<circle class="st6" cx="632.8" cy="293.4" r="2.6"/>
				<circle class="st6" cx="767.2" cy="269.7" r="2.6"/>
			</g>
		</g>
		<g>
			<g>
				<circle class="st6" cx="723.4" cy="345.7" r="2.6"/>
				<circle class="st6" cx="676.7" cy="217.4" r="2.6"/>
			</g>
			<g>
				<circle class="st6" cx="635.9" cy="304.9" r="2.6"/>
				<circle class="st6" cx="764.2" cy="258.2" r="2.6"/>
			</g>
		</g>
		<g>
			<g>
				<circle class="st6" cx="734.2" cy="340.6" r="2.6"/>
				<circle class="st6" cx="665.9" cy="222.4" r="2.6"/>
			</g>
			<g>
				<circle class="st6" cx="640.9" cy="315.6" r="2.6"/>
				<circle class="st6" cx="759.1" cy="247.4" r="2.6"/>
			</g>
		</g>
		<g>
			<g>
				<circle class="st6" cx="743.9" cy="333.8" r="2.6"/>
				<circle class="st6" cx="656.1" cy="229.2" r="2.6"/>
			</g>
			<g>
				<circle class="st6" cx="647.7" cy="325.4" r="2.6"/>
				<circle class="st6" cx="752.3" cy="237.6" r="2.6"/>
			</g>
		</g>
		<g>
			<g>
				<circle class="st6" cx="752.3" cy="325.4" r="2.6"/>
				<circle class="st6" cx="647.7" cy="237.6" r="2.6"/>
			</g>
			<g>
				<circle class="st6" cx="656.1" cy="333.8" r="2.6"/>
				<circle class="st6" cx="743.9" cy="229.2" r="2.6"/>
			</g>
		</g>
		<g>
			<g>
				<circle class="st6" cx="759.1" cy="315.6" r="2.6"/>
				<circle class="st6" cx="640.9" cy="247.4" r="2.6"/>
			</g>
			<g>
				<circle class="st6" cx="665.9" cy="340.6" r="2.6"/>
				<circle class="st6" cx="734.2" cy="222.4" r="2.6"/>
			</g>
		</g>
		<g>
			<g>
				<circle class="st6" cx="764.2" cy="304.9" r="2.6"/>
				<circle class="st6" cx="635.9" cy="258.2" r="2.6"/>
			</g>
			<g>
				<circle class="st6" cx="676.7" cy="345.7" r="2.6"/>
				<circle class="st6" cx="723.4" cy="217.4" r="2.6"/>
			</g>
		</g>
		<g>
			<g>
				<circle class="st6" cx="767.2" cy="293.4" r="2.6"/>
				<circle class="st6" cx="632.8" cy="269.7" r="2.6"/>
			</g>
			<g>
				<circle class="st6" cx="688.2" cy="348.7" r="2.6"/>
				<circle class="st6" cx="711.9" cy="214.3" r="2.6"/>
			</g>
		</g>
	</g>
</g>
<g>
	<g>
		<g>
			<g>
				<circle class="st7" cx="700" cy="169.1" r="2.6"/>
				<circle class="st7" cx="700" cy="32.6" r="2.6"/>
			</g>
			<g>
				<circle class="st7" cx="631.7" cy="100.9" r="2.6"/>
				<circle class="st7" cx="768.3" cy="100.9" r="2.6"/>
			</g>
		</g>
		<g>
			<g>
				<circle class="st7" cx="711.9" cy="168.1" r="2.6"/>
				<circle class="st7" cx="688.2" cy="33.6" r="2.6"/>
			</g>
			<g>
				<circle class="st7" cx="632.8" cy="112.7" r="2.6"/>
				<circle class="st7" cx="767.2" cy="89" r="2.6"/>
			</g>
		</g>
		<g>
			<g>
				<circle class="st7" cx="723.4" cy="165" r="2.6"/>
				<circle class="st7" cx="676.7" cy="36.7" r="2.6"/>
			</g>
			<g>
				<circle class="st7" cx="635.9" cy="124.2" r="2.6"/>
				<circle class="st7" cx="764.2" cy="77.5" r="2.6"/>
			</g>
		</g>
		<g>
			<g>
				<circle class="st7" cx="734.2" cy="160" r="2.6"/>
				<circle class="st7" cx="665.9" cy="41.7" r="2.6"/>
			</g>
			<g>
				<circle class="st7" cx="640.9" cy="135" r="2.6"/>
				<circle class="st7" cx="759.1" cy="66.7" r="2.6"/>
			</g>
		</g>
		<g>
			<g>
				<circle class="st7" cx="743.9" cy="153.2" r="2.6"/>
				<circle class="st7" cx="656.1" cy="48.6" r="2.6"/>
			</g>
			<g>
				<circle class="st7" cx="647.7" cy="144.7" r="2.6"/>
				<circle class="st7" cx="752.3" cy="57" r="2.6"/>
			</g>
		</g>
		<g>
			<g>
				<circle class="st7" cx="752.3" cy="144.7" r="2.6"/>
				<circle class="st7" cx="647.7" cy="57" r="2.6"/>
			</g>
			<g>
				<circle class="st7" cx="656.1" cy="153.2" r="2.6"/>
				<circle class="st7" cx="743.9" cy="48.6" r="2.6"/>
			</g>
		</g>
		<g>
			<g>
				<circle class="st7" cx="759.1" cy="135" r="2.6"/>
				<circle class="st7" cx="640.9" cy="66.7" r="2.6"/>
			</g>
			<g>
				<circle class="st7" cx="665.9" cy="160" r="2.6"/>
				<circle class="st7" cx="734.2" cy="41.7" r="2.6"/>
			</g>
		</g>
		<g>
			<g>
				<circle class="st7" cx="764.2" cy="124.2" r="2.6"/>
				<circle class="st7" cx="635.9" cy="77.5" r="2.6"/>
			</g>
			<g>
				<circle class="st7" cx="676.7" cy="165" r="2.6"/>
				<circle class="st7" cx="723.4" cy="36.7" r="2.6"/>
			</g>
		</g>
		<g>
			<g>
				<circle class="st7" cx="767.2" cy="112.7" r="2.6"/>
				<circle class="st7" cx="632.8" cy="89" r="2.6"/>
			</g>
			<g>
				<circle class="st7" cx="688.2" cy="168.1" r="2.6"/>
				<circle class="st7" cx="711.9" cy="33.6" r="2.6"/>
			</g>
		</g>
	</g>
</g>
<g>
	<g>
		<circle class="st7" cx="468.2" cy="100.9" r="2.6"/>
		<circle class="st7" cx="481.9" cy="100.9" r="2.6"/>
		<circle class="st7" cx="495.6" cy="100.9" r="2.6"/>
		<circle class="st7" cx="509.3" cy="100.9" r="2.6"/>
		<circle class="st7" cx="523" cy="100.9" r="2.6"/>
		<circle class="st7" cx="536.7" cy="100.9" r="2.6"/>
		<circle class="st7" cx="550.5" cy="100.9" r="2.6"/>
		<circle class="st7" cx="564.2" cy="100.9" r="2.6"/>
		<circle class="st7" cx="577.9" cy="100.9" r="2.6"/>
		<circle class="st7" cx="590.8" cy="100.9" r="2.6"/>
		<circle class="st7" cx="604.5" cy="100.9" r="2.6"/>
		<circle class="st7" cx="618.3" cy="100.9" r="2.6"/>
	</g>
</g>
<g>
	<g>
		<circle class="st4" cx="468.2" cy="642.8" r="2.6"/>
		<circle class="st4" cx="481.9" cy="642.8" r="2.6"/>
		<circle class="st4" cx="495.6" cy="642.8" r="2.6"/>
		<circle class="st4" cx="509.3" cy="642.8" r="2.6"/>
		<circle class="st4" cx="523" cy="642.8" r="2.6"/>
		<circle class="st4" cx="536.7" cy="642.8" r="2.6"/>
		<circle class="st4" cx="550.5" cy="642.8" r="2.6"/>
		<circle class="st4" cx="564.2" cy="642.8" r="2.6"/>
		<circle class="st4" cx="577.9" cy="642.8" r="2.6"/>
		<circle class="st4" cx="590.8" cy="642.8" r="2.6"/>
		<circle class="st4" cx="604.5" cy="642.8" r="2.6"/>
		<circle class="st4" cx="618.3" cy="642.8" r="2.6"/>
	</g>
</g>
<g>
	<g>
		<circle class="st6" cx="590.5" cy="281.5" r="2.6"/>
		<circle class="st6" cx="604.2" cy="281.5" r="2.6"/>
		<circle class="st6" cx="617.9" cy="281.5" r="2.6"/>
	</g>
</g>
<g>
	<g>
		<circle class="st5" cx="590.5" cy="462.2" r="2.6"/>
		<circle class="st5" cx="604.2" cy="462.2" r="2.6"/>
		<circle class="st5" cx="617.9" cy="462.2" r="2.6"/>
	</g>
</g>
<circle class="st7" cx="439.8" cy="100.9" r="14.7"/>
<circle class="st8" cx="439.8" cy="100.9" r="8.8"/>
<circle class="st6" cx="565.3" cy="281.5" r="14.7"/>
<circle class="st8" cx="565.3" cy="281.5" r="8.8"/>
<circle class="st9" cx="84.6" cy="296.6" r="8.8"/>
<circle class="st10" cx="141.2" cy="296.6" r="8.8"/>
<circle class="st11" cx="197.9" cy="296.6" r="8.8"/>
<circle class="st12" cx="254.5" cy="296.6" r="8.8"/>
<circle class="st5" cx="565.3" cy="462.2" r="14.7"/>
<circle class="st8" cx="565.3" cy="462.2" r="8.8"/>
<circle class="st4" cx="443.3" cy="642.8" r="14.7"/>
<circle class="st8" cx="443.3" cy="642.8" r="8.8"/>
<path d="M566.1,447.5c2,0.1,3.8,0.6,5.5,1.4c5.7-24.6,8.7-50.3,8.7-76.6c0-26.6-3.1-52.6-8.9-77.4c-1.7,0.8-3.6,1.2-5.5,1.3
	c5.7,24.5,8.7,50,8.7,76.1C574.6,398.2,571.7,423.3,566.1,447.5z"/>
<path d="M432.8,653.2c-1.3-1.3-2.4-2.9-3.2-4.7c-54.3,37.7-120.1,59.8-191,59.8c-50.3,0-100.4-11.4-145.5-33.1
	c0.1-0.5,0.1-0.9,0.1-1.4c0-4.9-4-8.8-8.8-8.8c-4.9,0-8.8,4-8.8,8.8c0,4.9,4,8.8,8.8,8.8c2.3,0,4.4-0.9,6-2.4
	c45.9,22.1,96.9,33.8,148.2,33.8C310.7,713.9,377.7,691.5,432.8,653.2z"/>
<path d="M558.5,475.2c-19.9,61.7-57.2,115.7-106.1,156.1c1.5,1.2,2.7,2.6,3.7,4.3c49.7-41.1,87.6-96,107.8-158.8
	C562,476.6,560.1,476.1,558.5,475.2z"/>
<g>
	<path d="M426.7,94.1c0.9-1.7,2.1-3.2,3.5-4.5c-54.7-37.2-120.6-58.9-191.6-58.9c-51.1,0-101.9,11.6-147.7,33.6
		c-1.6-1.8-3.9-2.9-6.5-2.9c-4.9,0-8.8,4-8.8,8.8c0,4.9,4,8.8,8.8,8.8c4.9,0,8.8-4,8.8-8.8c0-0.3-0.1-0.5-0.1-0.7
		c45.1-21.7,95.1-33.1,145.4-33.1C308.3,36.4,373,57.7,426.7,94.1z"/>
	<path d="M453.2,106.7c-0.8,1.8-1.9,3.3-3.2,4.7c49.8,40.5,87.9,94.9,108.2,157.2c1.6-0.9,3.5-1.5,5.4-1.7
		C542.9,203.4,504.1,147.9,453.2,106.7z"/>
</g>
<rect x="69" y="217.8" class="st13" width="388.9" height="54"/>
<text transform="matrix(1 0 0 1 69.022 267.3449)" class="st14 st15">ARG database</text>
<rect x="66.6" y="376.3" class="st13" width="368.4" height="217.1"/>
<text transform="matrix(1 0 0 1 66.6313 398.1552)" class="st16"><tspan x="0" y="0" class="st17 st18">ARGminer contains a </tspan><tspan x="0" y="36" class="st17 st18">collection of 24,095 ARG </tspan><tspan x="0" y="72" class="st17 st18">sequences distributed in </tspan><tspan x="0" y="108" class="st17 st18">different categories</tspan></text>
<rect x="823" y="50.5" class="st13" width="300.3" height="54"/>
<text transform="matrix(1 0 0 1 823.0234 80.235)" class="st0 st14 st19">Antibiotic Classes</text>
<rect x="823.3" y="228.6" class="st13" width="300.3" height="54"/>
<text transform="matrix(1 0 0 1 823.2891 258.3064)" class="st1 st14 st19">ARGs groups</text>
<rect x="821.7" y="409.2" class="st13" width="300.3" height="54"/>
<text transform="matrix(1 0 0 1 821.6583 438.9663)" class="st2 st14 st19">ARGs - plasmids</text>
<rect x="825" y="589.9" class="st13" width="300.3" height="54"/>
<text transform="matrix(1 0 0 1 825.04 619.6265)" class="st3 st14 st19">ARGs - pathogens</text>
<rect x="825.8" y="89" class="st13" width="321.1" height="121.7"/>
<text transform="matrix(1 0 0 1 825.842 106.185)"><tspan x="0" y="0" class="st20 st21">XXX different antibiotic </tspan><tspan x="0" y="28.8" class="st20 st21">categories (e.g. peptide, beta </tspan><tspan x="0" y="57.6" class="st20 st21">lactamase)</tspan></text>
<rect x="825.6" y="267.2" class="st13" width="321.1" height="121.7"/>
<text transform="matrix(1 0 0 1 825.6229 284.3402)"><tspan x="0" y="0" class="st20 st21">XXX ARGs, each one </tspan><tspan x="0" y="28.8" class="st20 st21">containing multiple </tspan><tspan x="0" y="57.6" class="st20 st21">sequences. Groups are also </tspan><tspan x="0" y="86.4" class="st20 st21">referred as gene names.</tspan></text>
<rect x="823.8" y="451.1" class="st13" width="321.1" height="121.7"/>
<text transform="matrix(1 0 0 1 823.7772 468.2393)"><tspan x="0" y="0" class="st20 st21">XXX ARGs that are carried by </tspan><tspan x="0" y="28.8" class="st20 st21">plasmids.</tspan></text>
<rect x="825.8" y="628.5" class="st13" width="321.1" height="121.7"/>
<text transform="matrix(1 0 0 1 825.842 645.6605)"><tspan x="0" y="0" class="st20 st21">XXX ARGs that are carried by </tspan><tspan x="0" y="28.8" class="st20 st21">pathogens.</tspan></text>
<circle class="st0" cx="1259.9" cy="99.6" r="58.1"/>
<circle class="st1" cx="1259.9" cy="280.3" r="58.1"/>
<circle class="st2" cx="1259.9" cy="460.9" r="58.1"/>
<circle class="st3" cx="1259.9" cy="641.6" r="58.1"/>
<g>
	<g>
		<g>
			<g>
				<circle class="st4" cx="1259.9" cy="709.9" r="2.6"/>
				<circle class="st4" cx="1259.9" cy="573.3" r="2.6"/>
			</g>
			<g>
				<circle class="st4" cx="1191.6" cy="641.6" r="2.6"/>
				<circle class="st4" cx="1328.2" cy="641.6" r="2.6"/>
			</g>
		</g>
		<g>
			<g>
				<circle class="st4" cx="1271.8" cy="708.8" r="2.6"/>
				<circle class="st4" cx="1248.1" cy="574.4" r="2.6"/>
			</g>
			<g>
				<circle class="st4" cx="1192.7" cy="653.4" r="2.6"/>
				<circle class="st4" cx="1327.1" cy="629.7" r="2.6"/>
			</g>
		</g>
		<g>
			<g>
				<circle class="st4" cx="1283.3" cy="705.7" r="2.6"/>
				<circle class="st4" cx="1236.6" cy="577.4" r="2.6"/>
			</g>
			<g>
				<circle class="st4" cx="1195.8" cy="664.9" r="2.6"/>
				<circle class="st4" cx="1324.1" cy="618.2" r="2.6"/>
			</g>
		</g>
		<g>
			<g>
				<circle class="st4" cx="1294" cy="700.7" r="2.6"/>
				<circle class="st4" cx="1225.8" cy="582.5" r="2.6"/>
			</g>
			<g>
				<circle class="st4" cx="1200.8" cy="675.7" r="2.6"/>
				<circle class="st4" cx="1319" cy="607.4" r="2.6"/>
			</g>
		</g>
		<g>
			<g>
				<circle class="st4" cx="1303.8" cy="693.9" r="2.6"/>
				<circle class="st4" cx="1216" cy="589.3" r="2.6"/>
			</g>
			<g>
				<circle class="st4" cx="1207.6" cy="685.5" r="2.6"/>
				<circle class="st4" cx="1312.2" cy="597.7" r="2.6"/>
			</g>
		</g>
		<g>
			<g>
				<circle class="st4" cx="1312.2" cy="685.5" r="2.6"/>
				<circle class="st4" cx="1207.6" cy="597.7" r="2.6"/>
			</g>
			<g>
				<circle class="st4" cx="1216" cy="693.9" r="2.6"/>
				<circle class="st4" cx="1303.8" cy="589.3" r="2.6"/>
			</g>
		</g>
		<g>
			<g>
				<circle class="st4" cx="1319" cy="675.7" r="2.6"/>
				<circle class="st4" cx="1200.8" cy="607.4" r="2.6"/>
			</g>
			<g>
				<circle class="st4" cx="1225.8" cy="700.7" r="2.6"/>
				<circle class="st4" cx="1294" cy="582.5" r="2.6"/>
			</g>
		</g>
		<g>
			<g>
				<circle class="st4" cx="1324.1" cy="664.9" r="2.6"/>
				<circle class="st4" cx="1195.8" cy="618.2" r="2.6"/>
			</g>
			<g>
				<circle class="st4" cx="1236.6" cy="705.7" r="2.6"/>
				<circle class="st4" cx="1283.3" cy="577.4" r="2.6"/>
			</g>
		</g>
		<g>
			<g>
				<circle class="st4" cx="1327.1" cy="653.4" r="2.6"/>
				<circle class="st4" cx="1192.7" cy="629.7" r="2.6"/>
			</g>
			<g>
				<circle class="st4" cx="1248.1" cy="708.8" r="2.6"/>
				<circle class="st4" cx="1271.8" cy="574.4" r="2.6"/>
			</g>
		</g>
	</g>
</g>
<g>
	<g>
		<g>
			<g>
				<circle class="st5" cx="1259.9" cy="529.2" r="2.6"/>
				<circle class="st5" cx="1259.9" cy="392.7" r="2.6"/>
			</g>
			<g>
				<circle class="st5" cx="1191.6" cy="460.9" r="2.6"/>
				<circle class="st5" cx="1328.2" cy="460.9" r="2.6"/>
			</g>
		</g>
		<g>
			<g>
				<circle class="st5" cx="1271.8" cy="528.2" r="2.6"/>
				<circle class="st5" cx="1248.1" cy="393.7" r="2.6"/>
			</g>
			<g>
				<circle class="st5" cx="1192.7" cy="472.8" r="2.6"/>
				<circle class="st5" cx="1327.1" cy="449.1" r="2.6"/>
			</g>
		</g>
		<g>
			<g>
				<circle class="st5" cx="1283.3" cy="525.1" r="2.6"/>
				<circle class="st5" cx="1236.6" cy="396.8" r="2.6"/>
			</g>
			<g>
				<circle class="st5" cx="1195.8" cy="484.3" r="2.6"/>
				<circle class="st5" cx="1324.1" cy="437.6" r="2.6"/>
			</g>
		</g>
		<g>
			<g>
				<circle class="st5" cx="1294" cy="520" r="2.6"/>
				<circle class="st5" cx="1225.8" cy="401.8" r="2.6"/>
			</g>
			<g>
				<circle class="st5" cx="1200.8" cy="495.1" r="2.6"/>
				<circle class="st5" cx="1319" cy="426.8" r="2.6"/>
			</g>
		</g>
		<g>
			<g>
				<circle class="st5" cx="1303.8" cy="513.2" r="2.6"/>
				<circle class="st5" cx="1216" cy="408.6" r="2.6"/>
			</g>
			<g>
				<circle class="st5" cx="1207.6" cy="504.8" r="2.6"/>
				<circle class="st5" cx="1312.2" cy="417" r="2.6"/>
			</g>
		</g>
		<g>
			<g>
				<circle class="st5" cx="1312.2" cy="504.8" r="2.6"/>
				<circle class="st5" cx="1207.6" cy="417" r="2.6"/>
			</g>
			<g>
				<circle class="st5" cx="1216" cy="513.2" r="2.6"/>
				<circle class="st5" cx="1303.8" cy="408.6" r="2.6"/>
			</g>
		</g>
		<g>
			<g>
				<circle class="st5" cx="1319" cy="495.1" r="2.6"/>
				<circle class="st5" cx="1200.8" cy="426.8" r="2.6"/>
			</g>
			<g>
				<circle class="st5" cx="1225.8" cy="520" r="2.6"/>
				<circle class="st5" cx="1294" cy="401.8" r="2.6"/>
			</g>
		</g>
		<g>
			<g>
				<circle class="st5" cx="1324.1" cy="484.3" r="2.6"/>
				<circle class="st5" cx="1195.8" cy="437.6" r="2.6"/>
			</g>
			<g>
				<circle class="st5" cx="1236.6" cy="525.1" r="2.6"/>
				<circle class="st5" cx="1283.3" cy="396.8" r="2.6"/>
			</g>
		</g>
		<g>
			<g>
				<circle class="st5" cx="1327.1" cy="472.8" r="2.6"/>
				<circle class="st5" cx="1192.7" cy="449.1" r="2.6"/>
			</g>
			<g>
				<circle class="st5" cx="1248.1" cy="528.2" r="2.6"/>
				<circle class="st5" cx="1271.8" cy="393.7" r="2.6"/>
			</g>
		</g>
	</g>
</g>
<g>
	<g>
		<g>
			<g>
				<circle class="st6" cx="1259.9" cy="348.5" r="2.6"/>
				<circle class="st6" cx="1259.9" cy="212" r="2.6"/>
			</g>
			<g>
				<circle class="st6" cx="1191.6" cy="280.3" r="2.6"/>
				<circle class="st6" cx="1328.2" cy="280.3" r="2.6"/>
			</g>
		</g>
		<g>
			<g>
				<circle class="st6" cx="1271.8" cy="347.5" r="2.6"/>
				<circle class="st6" cx="1248.1" cy="213" r="2.6"/>
			</g>
			<g>
				<circle class="st6" cx="1192.7" cy="292.1" r="2.6"/>
				<circle class="st6" cx="1327.1" cy="268.4" r="2.6"/>
			</g>
		</g>
		<g>
			<g>
				<circle class="st6" cx="1283.3" cy="344.4" r="2.6"/>
				<circle class="st6" cx="1236.6" cy="216.1" r="2.6"/>
			</g>
			<g>
				<circle class="st6" cx="1195.8" cy="303.6" r="2.6"/>
				<circle class="st6" cx="1324.1" cy="256.9" r="2.6"/>
			</g>
		</g>
		<g>
			<g>
				<circle class="st6" cx="1294" cy="339.4" r="2.6"/>
				<circle class="st6" cx="1225.8" cy="221.1" r="2.6"/>
			</g>
			<g>
				<circle class="st6" cx="1200.8" cy="314.4" r="2.6"/>
				<circle class="st6" cx="1319" cy="246.1" r="2.6"/>
			</g>
		</g>
		<g>
			<g>
				<circle class="st6" cx="1303.8" cy="332.6" r="2.6"/>
				<circle class="st6" cx="1216" cy="228" r="2.6"/>
			</g>
			<g>
				<circle class="st6" cx="1207.6" cy="324.1" r="2.6"/>
				<circle class="st6" cx="1312.2" cy="236.4" r="2.6"/>
			</g>
		</g>
		<g>
			<g>
				<circle class="st6" cx="1312.2" cy="324.1" r="2.6"/>
				<circle class="st6" cx="1207.6" cy="236.4" r="2.6"/>
			</g>
			<g>
				<circle class="st6" cx="1216" cy="332.6" r="2.6"/>
				<circle class="st6" cx="1303.8" cy="228" r="2.6"/>
			</g>
		</g>
		<g>
			<g>
				<circle class="st6" cx="1319" cy="314.4" r="2.6"/>
				<circle class="st6" cx="1200.8" cy="246.1" r="2.6"/>
			</g>
			<g>
				<circle class="st6" cx="1225.8" cy="339.4" r="2.6"/>
				<circle class="st6" cx="1294" cy="221.1" r="2.6"/>
			</g>
		</g>
		<g>
			<g>
				<circle class="st6" cx="1324.1" cy="303.6" r="2.6"/>
				<circle class="st6" cx="1195.8" cy="256.9" r="2.6"/>
			</g>
			<g>
				<circle class="st6" cx="1236.6" cy="344.4" r="2.6"/>
				<circle class="st6" cx="1283.3" cy="216.1" r="2.6"/>
			</g>
		</g>
		<g>
			<g>
				<circle class="st6" cx="1327.1" cy="292.1" r="2.6"/>
				<circle class="st6" cx="1192.7" cy="268.4" r="2.6"/>
			</g>
			<g>
				<circle class="st6" cx="1248.1" cy="347.5" r="2.6"/>
				<circle class="st6" cx="1271.8" cy="213" r="2.6"/>
			</g>
		</g>
	</g>
</g>
<g>
	<g>
		<g>
			<g>
				<circle class="st7" cx="1259.9" cy="167.9" r="2.6"/>
				<circle class="st7" cx="1259.9" cy="31.3" r="2.6"/>
			</g>
			<g>
				<circle class="st7" cx="1191.6" cy="99.6" r="2.6"/>
				<circle class="st7" cx="1328.2" cy="99.6" r="2.6"/>
			</g>
		</g>
		<g>
			<g>
				<circle class="st7" cx="1271.8" cy="166.8" r="2.6"/>
				<circle class="st7" cx="1248.1" cy="32.4" r="2.6"/>
			</g>
			<g>
				<circle class="st7" cx="1192.7" cy="111.5" r="2.6"/>
				<circle class="st7" cx="1327.1" cy="87.7" r="2.6"/>
			</g>
		</g>
		<g>
			<g>
				<circle class="st7" cx="1283.3" cy="163.8" r="2.6"/>
				<circle class="st7" cx="1236.6" cy="35.5" r="2.6"/>
			</g>
			<g>
				<circle class="st7" cx="1195.8" cy="123" r="2.6"/>
				<circle class="st7" cx="1324.1" cy="76.3" r="2.6"/>
			</g>
		</g>
		<g>
			<g>
				<circle class="st7" cx="1294" cy="158.7" r="2.6"/>
				<circle class="st7" cx="1225.8" cy="40.5" r="2.6"/>
			</g>
			<g>
				<circle class="st7" cx="1200.8" cy="133.7" r="2.6"/>
				<circle class="st7" cx="1319" cy="65.5" r="2.6"/>
			</g>
		</g>
		<g>
			<g>
				<circle class="st7" cx="1303.8" cy="151.9" r="2.6"/>
				<circle class="st7" cx="1216" cy="47.3" r="2.6"/>
			</g>
			<g>
				<circle class="st7" cx="1207.6" cy="143.5" r="2.6"/>
				<circle class="st7" cx="1312.2" cy="55.7" r="2.6"/>
			</g>
		</g>
		<g>
			<g>
				<circle class="st7" cx="1312.2" cy="143.5" r="2.6"/>
				<circle class="st7" cx="1207.6" cy="55.7" r="2.6"/>
			</g>
			<g>
				<circle class="st7" cx="1216" cy="151.9" r="2.6"/>
				<circle class="st7" cx="1303.8" cy="47.3" r="2.6"/>
			</g>
		</g>
		<g>
			<g>
				<circle class="st7" cx="1319" cy="133.7" r="2.6"/>
				<circle class="st7" cx="1200.8" cy="65.5" r="2.6"/>
			</g>
			<g>
				<circle class="st7" cx="1225.8" cy="158.7" r="2.6"/>
				<circle class="st7" cx="1294" cy="40.5" r="2.6"/>
			</g>
		</g>
		<g>
			<g>
				<circle class="st7" cx="1324.1" cy="123" r="2.6"/>
				<circle class="st7" cx="1195.8" cy="76.3" r="2.6"/>
			</g>
			<g>
				<circle class="st7" cx="1236.6" cy="163.8" r="2.6"/>
				<circle class="st7" cx="1283.3" cy="35.5" r="2.6"/>
			</g>
		</g>
		<g>
			<g>
				<circle class="st7" cx="1327.1" cy="111.5" r="2.6"/>
				<circle class="st7" cx="1192.7" cy="87.7" r="2.6"/>
			</g>
			<g>
				<circle class="st7" cx="1248.1" cy="166.8" r="2.6"/>
				<circle class="st7" cx="1271.8" cy="32.4" r="2.6"/>
			</g>
		</g>
	</g>
</g>
<rect x="1382.9" y="49.2" class="st13" width="300.3" height="54"/>
<text transform="matrix(1 0 0 1 1382.9182 78.9828)" class="st0 st14 st19">Inspected ARGs</text>
<rect x="1383.2" y="227.3" class="st13" width="300.3" height="54"/>
<text transform="matrix(1 0 0 1 1383.1838 257.0543)" class="st1 st14 st19">Total inspections </text>
<rect x="1381.6" y="408" class="st13" width="300.3" height="54"/>
<text transform="matrix(1 0 0 1 1381.553 437.7141)" class="st2 st14 st19">True ARGs</text>
<rect x="1384.9" y="588.6" class="st13" width="300.3" height="54"/>
<text transform="matrix(1 0 0 1 1384.9348 618.3744)" class="st3 st14 st19">Potential ARGs</text>
<rect x="1385.7" y="87.7" class="st13" width="321.1" height="121.7"/>
<text transform="matrix(1 0 0 1 1385.7367 104.9328)"><tspan x="0" y="0" class="st20 st21">XXX different antibiotic </tspan><tspan x="0" y="28.8" class="st20 st21">categories (e.g. peptide, beta </tspan><tspan x="0" y="57.6" class="st20 st21">lactamase)</tspan></text>
<rect x="1385.5" y="265.9" class="st13" width="321.1" height="121.7"/>
<text transform="matrix(1 0 0 1 1385.5177 283.0881)"><tspan x="0" y="0" class="st20 st21">In total XXX users have </tspan><tspan x="0" y="28.8" class="st20 st21">inspected different </tspan><tspan x="0" y="57.6" class="st20 st21">sequences.</tspan></text>
<rect x="1383.7" y="449.8" class="st13" width="321.1" height="121.7"/>
<text transform="matrix(1 0 0 1 1383.672 466.9871)"><tspan x="0" y="0" class="st20 st21">In total XXX genes were </tspan><tspan x="0" y="28.8" class="st20 st21">collected from the different </tspan><tspan x="0" y="57.6" class="st20 st21">curated databases.</tspan></text>
<rect x="1385.7" y="627.2" class="st13" width="321.1" height="121.7"/>
<text transform="matrix(1 0 0 1 1385.7368 644.4083)"><tspan x="0" y="0" class="st20 st21">XXX UniProt proteins have </tspan><tspan x="0" y="28.8" class="st20 st21">the potential of being an </tspan><tspan x="0" y="57.6" class="st20 st21">ARG. These genes are </tspan><tspan x="0" y="86.4" class="st20 st21">evaluated by the </tspan></text>
</svg>
