<?xml version="1.0" encoding="utf-8"?>
<!-- Generator: Adobe Illustrator 19.0.0, SVG Export Plug-In . SVG Version: 6.00 Build 0)  -->
<svg version="1.1" id="Layer_2" xmlns="http://www.w3.org/2000/svg" xmlns:xlink="http://www.w3.org/1999/xlink" x="0px" y="0px"
	 viewBox="1380.8 -338.9 1538.9 473.8" style="enable-background:new 1380.8 -338.9 1538.9 473.8;" xml:space="preserve">
<style type="text/css">
	.st0{fill:#B2B247;}
	.st1{fill:#989833;}
	.st2{fill:none;}
	.st3{font-family:'MicrosoftSansSerif';}
	.st4{font-size:36px;}
	.st5{fill:#002698;}
	.st6{fill:#0082D2;}
	.st7{fill:#008CB4;}
	.st8{fill:#0A62A5;}
	.st9{font-family:'ArialMT';}
	.st10{font-size:24px;}
	.st11{font-family:'Monaco';}
</style>
<circle class="st0" cx="1984" cy="-240.4" r="29"/>
<circle class="st1" cx="1988.6" cy="-9.2" r="29.1"/>
<g>
	<g>
		<g>
			<g>
				<circle class="st1" cx="1988.6" cy="25" r="1.3"/>
				<circle class="st1" cx="1988.6" cy="-43.3" r="1.3"/>
			</g>
			<g>
				<circle class="st1" cx="1954.5" cy="-9.2" r="1.3"/>
				<circle class="st1" cx="2022.8" cy="-9.2" r="1.3"/>
			</g>
		</g>
		<g>
			<g>
				<circle class="st1" cx="1994.6" cy="24.4" r="1.3"/>
				<circle class="st1" cx="1982.7" cy="-42.8" r="1.3"/>
			</g>
			<g>
				<circle class="st1" cx="1955" cy="-3.2" r="1.3"/>
				<circle class="st1" cx="2022.2" cy="-15.1" r="1.3"/>
			</g>
		</g>
		<g>
			<g>
				<circle class="st1" cx="2000.3" cy="22.9" r="1.3"/>
				<circle class="st1" cx="1977" cy="-41.2" r="1.3"/>
			</g>
			<g>
				<circle class="st1" cx="1956.6" cy="2.5" r="1.3"/>
				<circle class="st1" cx="2020.7" cy="-20.8" r="1.3"/>
			</g>
		</g>
		<g>
			<g>
				<circle class="st1" cx="2005.7" cy="20.4" r="1.3"/>
				<circle class="st1" cx="1971.6" cy="-38.7" r="1.3"/>
			</g>
			<g>
				<circle class="st1" cx="1959.1" cy="7.9" r="1.3"/>
				<circle class="st1" cx="2018.2" cy="-26.2" r="1.3"/>
			</g>
		</g>
		<g>
			<g>
				<circle class="st1" cx="2010.6" cy="17" r="1.3"/>
				<circle class="st1" cx="1966.7" cy="-35.3" r="1.3"/>
			</g>
			<g>
				<circle class="st1" cx="1962.5" cy="12.8" r="1.3"/>
				<circle class="st1" cx="2014.8" cy="-31.1" r="1.3"/>
			</g>
		</g>
		<g>
			<g>
				<circle class="st1" cx="2014.8" cy="12.8" r="1.3"/>
				<circle class="st1" cx="1962.5" cy="-31.1" r="1.3"/>
			</g>
			<g>
				<circle class="st1" cx="1966.7" cy="17" r="1.3"/>
				<circle class="st1" cx="2010.6" cy="-35.3" r="1.3"/>
			</g>
		</g>
		<g>
			<g>
				<circle class="st1" cx="2018.2" cy="7.9" r="1.3"/>
				<circle class="st1" cx="1959.1" cy="-26.2" r="1.3"/>
			</g>
			<g>
				<circle class="st1" cx="1971.6" cy="20.4" r="1.3"/>
				<circle class="st1" cx="2005.7" cy="-38.7" r="1.3"/>
			</g>
		</g>
		<g>
			<g>
				<circle class="st1" cx="2020.7" cy="2.5" r="1.3"/>
				<circle class="st1" cx="1956.6" cy="-20.8" r="1.3"/>
			</g>
			<g>
				<circle class="st1" cx="1977" cy="22.9" r="1.3"/>
				<circle class="st1" cx="2000.3" cy="-41.2" r="1.3"/>
			</g>
		</g>
		<g>
			<g>
				<circle class="st1" cx="2022.2" cy="-3.2" r="1.3"/>
				<circle class="st1" cx="1955" cy="-15.1" r="1.3"/>
			</g>
			<g>
				<circle class="st1" cx="1982.7" cy="24.4" r="1.3"/>
				<circle class="st1" cx="1994.6" cy="-42.8" r="1.3"/>
			</g>
		</g>
	</g>
</g>
<g>
	<g>
		<g>
			<g>
				<circle class="st0" cx="1984" cy="-206.2" r="1.3"/>
				<circle class="st0" cx="1984" cy="-274.5" r="1.3"/>
			</g>
			<g>
				<circle class="st0" cx="1949.9" cy="-240.3" r="1.3"/>
				<circle class="st0" cx="2018.2" cy="-240.3" r="1.3"/>
			</g>
		</g>
		<g>
			<g>
				<circle class="st0" cx="1990" cy="-206.7" r="1.3"/>
				<circle class="st0" cx="1978.1" cy="-274" r="1.3"/>
			</g>
			<g>
				<circle class="st0" cx="1950.4" cy="-234.4" r="1.3"/>
				<circle class="st0" cx="2017.6" cy="-246.3" r="1.3"/>
			</g>
		</g>
		<g>
			<g>
				<circle class="st0" cx="1995.7" cy="-208.3" r="1.3"/>
				<circle class="st0" cx="1972.4" cy="-272.4" r="1.3"/>
			</g>
			<g>
				<circle class="st0" cx="1952" cy="-228.7" r="1.3"/>
				<circle class="st0" cx="2016.1" cy="-252" r="1.3"/>
			</g>
		</g>
		<g>
			<g>
				<circle class="st0" cx="2001.1" cy="-210.8" r="1.3"/>
				<circle class="st0" cx="1967" cy="-269.9" r="1.3"/>
			</g>
			<g>
				<circle class="st0" cx="1954.5" cy="-223.3" r="1.3"/>
				<circle class="st0" cx="2013.6" cy="-257.4" r="1.3"/>
			</g>
		</g>
		<g>
			<g>
				<circle class="st0" cx="2006" cy="-214.2" r="1.3"/>
				<circle class="st0" cx="1962.1" cy="-266.5" r="1.3"/>
			</g>
			<g>
				<circle class="st0" cx="1957.9" cy="-218.4" r="1.3"/>
				<circle class="st0" cx="2010.2" cy="-262.3" r="1.3"/>
			</g>
		</g>
		<g>
			<g>
				<circle class="st0" cx="2010.2" cy="-218.4" r="1.3"/>
				<circle class="st0" cx="1957.9" cy="-262.3" r="1.3"/>
			</g>
			<g>
				<circle class="st0" cx="1962.1" cy="-214.2" r="1.3"/>
				<circle class="st0" cx="2006" cy="-266.5" r="1.3"/>
			</g>
		</g>
		<g>
			<g>
				<circle class="st0" cx="2013.6" cy="-223.3" r="1.3"/>
				<circle class="st0" cx="1954.5" cy="-257.4" r="1.3"/>
			</g>
			<g>
				<circle class="st0" cx="1967" cy="-210.8" r="1.3"/>
				<circle class="st0" cx="2001.1" cy="-269.9" r="1.3"/>
			</g>
		</g>
		<g>
			<g>
				<circle class="st0" cx="2016.1" cy="-228.7" r="1.3"/>
				<circle class="st0" cx="1952" cy="-252" r="1.3"/>
			</g>
			<g>
				<circle class="st0" cx="1972.4" cy="-208.3" r="1.3"/>
				<circle class="st0" cx="1995.7" cy="-272.4" r="1.3"/>
			</g>
		</g>
		<g>
			<g>
				<circle class="st0" cx="2017.6" cy="-234.4" r="1.3"/>
				<circle class="st0" cx="1950.4" cy="-246.3" r="1.3"/>
			</g>
			<g>
				<circle class="st0" cx="1978.1" cy="-206.7" r="1.3"/>
				<circle class="st0" cx="1990" cy="-274" r="1.3"/>
			</g>
		</g>
	</g>
</g>
<rect x="2044.8" y="-261.6" class="st2" width="300.3" height="54"/>
<rect x="2046.4" y="-26" class="st2" width="300.3" height="54"/>
<text transform="matrix(1 0 0 1 2046.3767 3.6784)" class="st1 st3 st4">Views</text>
<text transform="matrix(1 0 0 1 2045.0879 -233.107)" class="st0 st3 st4">ARG inspections</text>
<text transform="matrix(1 0 0 1 2457.7676 3.8725)" class="st5 st3 st4">Followers</text>
<circle class="st6" cx="2400.2" cy="-240.2" r="29"/>
<circle class="st5" cx="2400.2" cy="-1.7" r="29.1"/>
<g>
	<g>
		<g>
			<g>
				<circle class="st7" cx="2400.2" cy="32.4" r="1.3"/>
				<circle class="st7" cx="2400.2" cy="-35.9" r="1.3"/>
			</g>
			<g>
				<circle class="st7" cx="2366" cy="-1.7" r="1.3"/>
				<circle class="st7" cx="2434.3" cy="-1.7" r="1.3"/>
			</g>
		</g>
		<g>
			<g>
				<circle class="st7" cx="2406.1" cy="31.9" r="1.3"/>
				<circle class="st7" cx="2394.3" cy="-35.4" r="1.3"/>
			</g>
			<g>
				<circle class="st7" cx="2366.6" cy="4.2" r="1.3"/>
				<circle class="st7" cx="2433.8" cy="-7.7" r="1.3"/>
			</g>
		</g>
		<g>
			<g>
				<circle class="st7" cx="2411.9" cy="30.3" r="1.3"/>
				<circle class="st7" cx="2388.5" cy="-33.8" r="1.3"/>
			</g>
			<g>
				<circle class="st7" cx="2368.1" cy="9.9" r="1.3"/>
				<circle class="st7" cx="2432.3" cy="-13.4" r="1.3"/>
			</g>
		</g>
		<g>
			<g>
				<circle class="st7" cx="2417.2" cy="27.8" r="1.3"/>
				<circle class="st7" cx="2383.1" cy="-31.3" r="1.3"/>
			</g>
			<g>
				<circle class="st7" cx="2370.6" cy="15.3" r="1.3"/>
				<circle class="st7" cx="2429.7" cy="-18.8" r="1.3"/>
			</g>
		</g>
		<g>
			<g>
				<circle class="st7" cx="2422.1" cy="24.4" r="1.3"/>
				<circle class="st7" cx="2378.2" cy="-27.9" r="1.3"/>
			</g>
			<g>
				<circle class="st7" cx="2374" cy="20.2" r="1.3"/>
				<circle class="st7" cx="2426.3" cy="-23.7" r="1.3"/>
			</g>
		</g>
		<g>
			<g>
				<circle class="st7" cx="2426.3" cy="20.2" r="1.3"/>
				<circle class="st7" cx="2374" cy="-23.7" r="1.3"/>
			</g>
			<g>
				<circle class="st7" cx="2378.2" cy="24.4" r="1.3"/>
				<circle class="st7" cx="2422.1" cy="-27.9" r="1.3"/>
			</g>
		</g>
		<g>
			<g>
				<circle class="st7" cx="2429.7" cy="15.3" r="1.3"/>
				<circle class="st7" cx="2370.6" cy="-18.8" r="1.3"/>
			</g>
			<g>
				<circle class="st7" cx="2383.1" cy="27.8" r="1.3"/>
				<circle class="st7" cx="2417.2" cy="-31.3" r="1.3"/>
			</g>
		</g>
		<g>
			<g>
				<circle class="st7" cx="2432.3" cy="9.9" r="1.3"/>
				<circle class="st7" cx="2368.1" cy="-13.4" r="1.3"/>
			</g>
			<g>
				<circle class="st7" cx="2388.5" cy="30.3" r="1.3"/>
				<circle class="st7" cx="2411.9" cy="-33.8" r="1.3"/>
			</g>
		</g>
		<g>
			<g>
				<circle class="st7" cx="2433.8" cy="4.2" r="1.3"/>
				<circle class="st7" cx="2366.6" cy="-7.7" r="1.3"/>
			</g>
			<g>
				<circle class="st7" cx="2394.3" cy="31.9" r="1.3"/>
				<circle class="st7" cx="2406.1" cy="-35.4" r="1.3"/>
			</g>
		</g>
	</g>
</g>
<g>
	<g>
		<g>
			<g>
				<circle class="st8" cx="2400.2" cy="-206" r="1.3"/>
				<circle class="st8" cx="2400.2" cy="-274.3" r="1.3"/>
			</g>
			<g>
				<circle class="st8" cx="2366" cy="-240.2" r="1.3"/>
				<circle class="st8" cx="2434.3" cy="-240.2" r="1.3"/>
			</g>
		</g>
		<g>
			<g>
				<circle class="st8" cx="2406.1" cy="-206.6" r="1.3"/>
				<circle class="st8" cx="2394.3" cy="-273.8" r="1.3"/>
			</g>
			<g>
				<circle class="st8" cx="2366.6" cy="-234.2" r="1.3"/>
				<circle class="st8" cx="2433.8" cy="-246.1" r="1.3"/>
			</g>
		</g>
		<g>
			<g>
				<circle class="st8" cx="2411.9" cy="-208.1" r="1.3"/>
				<circle class="st8" cx="2388.5" cy="-272.2" r="1.3"/>
			</g>
			<g>
				<circle class="st8" cx="2368.1" cy="-228.5" r="1.3"/>
				<circle class="st8" cx="2432.3" cy="-251.8" r="1.3"/>
			</g>
		</g>
		<g>
			<g>
				<circle class="st8" cx="2417.2" cy="-210.6" r="1.3"/>
				<circle class="st8" cx="2383.1" cy="-269.7" r="1.3"/>
			</g>
			<g>
				<circle class="st8" cx="2370.6" cy="-223.1" r="1.3"/>
				<circle class="st8" cx="2429.7" cy="-257.2" r="1.3"/>
			</g>
		</g>
		<g>
			<g>
				<circle class="st8" cx="2422.1" cy="-214" r="1.3"/>
				<circle class="st8" cx="2378.2" cy="-266.3" r="1.3"/>
			</g>
			<g>
				<circle class="st8" cx="2374" cy="-218.2" r="1.3"/>
				<circle class="st8" cx="2426.3" cy="-262.1" r="1.3"/>
			</g>
		</g>
		<g>
			<g>
				<circle class="st8" cx="2426.3" cy="-218.2" r="1.3"/>
				<circle class="st8" cx="2374" cy="-262.1" r="1.3"/>
			</g>
			<g>
				<circle class="st8" cx="2378.2" cy="-214" r="1.3"/>
				<circle class="st8" cx="2422.1" cy="-266.3" r="1.3"/>
			</g>
		</g>
		<g>
			<g>
				<circle class="st8" cx="2429.7" cy="-223.1" r="1.3"/>
				<circle class="st8" cx="2370.6" cy="-257.2" r="1.3"/>
			</g>
			<g>
				<circle class="st8" cx="2383.1" cy="-210.6" r="1.3"/>
				<circle class="st8" cx="2417.2" cy="-269.7" r="1.3"/>
			</g>
		</g>
		<g>
			<g>
				<circle class="st8" cx="2432.3" cy="-228.5" r="1.3"/>
				<circle class="st8" cx="2368.1" cy="-251.8" r="1.3"/>
			</g>
			<g>
				<circle class="st8" cx="2388.5" cy="-208.1" r="1.3"/>
				<circle class="st8" cx="2411.9" cy="-272.2" r="1.3"/>
			</g>
		</g>
		<g>
			<g>
				<circle class="st8" cx="2433.8" cy="-234.2" r="1.3"/>
				<circle class="st8" cx="2366.6" cy="-246.1" r="1.3"/>
			</g>
			<g>
				<circle class="st8" cx="2394.3" cy="-206.6" r="1.3"/>
				<circle class="st8" cx="2406.1" cy="-273.8" r="1.3"/>
			</g>
		</g>
	</g>
</g>
<rect x="2453.6" y="-269.2" class="st2" width="300.3" height="54"/>
<text transform="matrix(1 0 0 1 2453.6489 -239.3819)" class="st6 st3 st4">Comments</text>
<rect x="2455.2" y="-25.7" class="st2" width="300.3" height="54"/>
<text transform="matrix(1 0 0 1 1646.2367 0.4723)" class="st5 st3 st4">Posts</text>
<circle class="st6" cx="1596.2" cy="-243.5" r="29"/>
<circle class="st5" cx="1594.9" cy="-12.3" r="29.1"/>
<g>
	<g>
		<g>
			<g>
				<circle class="st7" cx="1594.9" cy="21.8" r="1.3"/>
				<circle class="st7" cx="1594.9" cy="-46.4" r="1.3"/>
			</g>
			<g>
				<circle class="st7" cx="1560.7" cy="-12.3" r="1.3"/>
				<circle class="st7" cx="1629" cy="-12.3" r="1.3"/>
			</g>
		</g>
		<g>
			<g>
				<circle class="st7" cx="1600.8" cy="21.3" r="1.3"/>
				<circle class="st7" cx="1589" cy="-45.9" r="1.3"/>
			</g>
			<g>
				<circle class="st7" cx="1561.3" cy="-6.4" r="1.3"/>
				<circle class="st7" cx="1628.5" cy="-18.2" r="1.3"/>
			</g>
		</g>
		<g>
			<g>
				<circle class="st7" cx="1606.6" cy="19.8" r="1.3"/>
				<circle class="st7" cx="1583.2" cy="-44.4" r="1.3"/>
			</g>
			<g>
				<circle class="st7" cx="1562.8" cy="-0.6" r="1.3"/>
				<circle class="st7" cx="1627" cy="-24" r="1.3"/>
			</g>
		</g>
		<g>
			<g>
				<circle class="st7" cx="1611.9" cy="17.3" r="1.3"/>
				<circle class="st7" cx="1577.8" cy="-41.9" r="1.3"/>
			</g>
			<g>
				<circle class="st7" cx="1565.3" cy="4.8" r="1.3"/>
				<circle class="st7" cx="1624.4" cy="-29.4" r="1.3"/>
			</g>
		</g>
		<g>
			<g>
				<circle class="st7" cx="1616.8" cy="13.9" r="1.3"/>
				<circle class="st7" cx="1572.9" cy="-38.4" r="1.3"/>
			</g>
			<g>
				<circle class="st7" cx="1568.7" cy="9.6" r="1.3"/>
				<circle class="st7" cx="1621" cy="-34.2" r="1.3"/>
			</g>
		</g>
		<g>
			<g>
				<circle class="st7" cx="1621" cy="9.6" r="1.3"/>
				<circle class="st7" cx="1568.7" cy="-34.2" r="1.3"/>
			</g>
			<g>
				<circle class="st7" cx="1572.9" cy="13.9" r="1.3"/>
				<circle class="st7" cx="1616.8" cy="-38.4" r="1.3"/>
			</g>
		</g>
		<g>
			<g>
				<circle class="st7" cx="1624.4" cy="4.8" r="1.3"/>
				<circle class="st7" cx="1565.3" cy="-29.4" r="1.3"/>
			</g>
			<g>
				<circle class="st7" cx="1577.8" cy="17.3" r="1.3"/>
				<circle class="st7" cx="1611.9" cy="-41.9" r="1.3"/>
			</g>
		</g>
		<g>
			<g>
				<circle class="st7" cx="1627" cy="-0.6" r="1.3"/>
				<circle class="st7" cx="1562.8" cy="-24" r="1.3"/>
			</g>
			<g>
				<circle class="st7" cx="1583.2" cy="19.8" r="1.3"/>
				<circle class="st7" cx="1606.6" cy="-44.4" r="1.3"/>
			</g>
		</g>
		<g>
			<g>
				<circle class="st7" cx="1628.5" cy="-6.4" r="1.3"/>
				<circle class="st7" cx="1561.3" cy="-18.2" r="1.3"/>
			</g>
			<g>
				<circle class="st7" cx="1589" cy="21.3" r="1.3"/>
				<circle class="st7" cx="1600.8" cy="-45.9" r="1.3"/>
			</g>
		</g>
	</g>
</g>
<g>
	<g>
		<g>
			<g>
				<circle class="st8" cx="1596.2" cy="-209.3" r="1.3"/>
				<circle class="st8" cx="1596.2" cy="-277.6" r="1.3"/>
			</g>
			<g>
				<circle class="st8" cx="1562" cy="-243.5" r="1.3"/>
				<circle class="st8" cx="1630.3" cy="-243.5" r="1.3"/>
			</g>
		</g>
		<g>
			<g>
				<circle class="st8" cx="1602.1" cy="-209.9" r="1.3"/>
				<circle class="st8" cx="1590.3" cy="-277.1" r="1.3"/>
			</g>
			<g>
				<circle class="st8" cx="1562.6" cy="-237.5" r="1.3"/>
				<circle class="st8" cx="1629.8" cy="-249.4" r="1.3"/>
			</g>
		</g>
		<g>
			<g>
				<circle class="st8" cx="1607.9" cy="-211.4" r="1.3"/>
				<circle class="st8" cx="1584.5" cy="-275.5" r="1.3"/>
			</g>
			<g>
				<circle class="st8" cx="1564.1" cy="-231.8" r="1.3"/>
				<circle class="st8" cx="1628.3" cy="-255.1" r="1.3"/>
			</g>
		</g>
		<g>
			<g>
				<circle class="st8" cx="1613.2" cy="-213.9" r="1.3"/>
				<circle class="st8" cx="1579.1" cy="-273" r="1.3"/>
			</g>
			<g>
				<circle class="st8" cx="1566.6" cy="-226.4" r="1.3"/>
				<circle class="st8" cx="1625.7" cy="-260.5" r="1.3"/>
			</g>
		</g>
		<g>
			<g>
				<circle class="st8" cx="1618.1" cy="-217.3" r="1.3"/>
				<circle class="st8" cx="1574.2" cy="-269.6" r="1.3"/>
			</g>
			<g>
				<circle class="st8" cx="1570" cy="-221.5" r="1.3"/>
				<circle class="st8" cx="1622.3" cy="-265.4" r="1.3"/>
			</g>
		</g>
		<g>
			<g>
				<circle class="st8" cx="1622.3" cy="-221.5" r="1.3"/>
				<circle class="st8" cx="1570" cy="-265.4" r="1.3"/>
			</g>
			<g>
				<circle class="st8" cx="1574.2" cy="-217.3" r="1.3"/>
				<circle class="st8" cx="1618.1" cy="-269.6" r="1.3"/>
			</g>
		</g>
		<g>
			<g>
				<circle class="st8" cx="1625.7" cy="-226.4" r="1.3"/>
				<circle class="st8" cx="1566.6" cy="-260.5" r="1.3"/>
			</g>
			<g>
				<circle class="st8" cx="1579.1" cy="-213.9" r="1.3"/>
				<circle class="st8" cx="1613.2" cy="-273" r="1.3"/>
			</g>
		</g>
		<g>
			<g>
				<circle class="st8" cx="1628.3" cy="-231.8" r="1.3"/>
				<circle class="st8" cx="1564.1" cy="-255.1" r="1.3"/>
			</g>
			<g>
				<circle class="st8" cx="1584.5" cy="-211.4" r="1.3"/>
				<circle class="st8" cx="1607.9" cy="-275.5" r="1.3"/>
			</g>
		</g>
		<g>
			<g>
				<circle class="st8" cx="1629.8" cy="-237.5" r="1.3"/>
				<circle class="st8" cx="1562.6" cy="-249.4" r="1.3"/>
			</g>
			<g>
				<circle class="st8" cx="1590.3" cy="-209.9" r="1.3"/>
				<circle class="st8" cx="1602.1" cy="-277.1" r="1.3"/>
			</g>
		</g>
	</g>
</g>
<rect x="1642.1" y="-254.7" class="st2" width="300.3" height="54"/>
<text transform="matrix(1 0 0 1 1642.1183 -234.9072)" class="st6 st3 st4">YOUR score</text>
<rect x="1643.7" y="-29.1" class="st2" width="300.3" height="54"/>
<rect x="1644.9" y="-224.7" class="st2" width="283.2" height="111.2"/>
<text transform="matrix(1 0 0 1 1644.9363 -207.5214)"><tspan x="0" y="0" class="st9 st10">Your score is measured </tspan><tspan x="0" y="28.8" class="st9 st10">as the number curated </tspan><tspan x="0" y="57.6" class="st9 st10">ARGs that have been ac</tspan><tspan x="261.5" y="57.6" class="st9 st10">-</tspan><tspan x="0" y="86.4" class="st9 st10">cepted by ARGminer team</tspan></text>
<rect x="1646.2" y="16" class="st2" width="283.2" height="111.2"/>
<text transform="matrix(1 0 0 1 1646.2362 33.1481)"><tspan x="0" y="0" class="st9 st10">Number of posts you have </tspan><tspan x="0" y="28.8" class="st9 st10">submitted to ARGminer </tspan><tspan x="0" y="57.6" class="st9 st10">blog</tspan></text>
<rect x="2045.1" y="-222.8" class="st2" width="283.2" height="111.2"/>
<text transform="matrix(1 0 0 1 2045.0875 -205.6139)"><tspan x="0" y="0" class="st9 st10">Number of genes that you </tspan><tspan x="0" y="28.8" class="st9 st10">have inspected in the AR</tspan><tspan x="266.8" y="28.8" class="st9 st10">-</tspan><tspan x="0" y="57.6" class="st9 st10">Gminer icuration section.</tspan></text>
<rect x="2046.4" y="17.8" class="st2" width="283.2" height="111.2"/>
<text transform="matrix(1 0 0 1 2046.3875 34.9481)"><tspan x="0" y="0" class="st9 st10">How many views have </tspan><tspan x="0" y="28.8" class="st9 st10">your questions obtained. </tspan><tspan x="0" y="57.6" class="st9 st10">This measures your </tspan><tspan x="0" y="86.4" class="st9 st10">impact on the ARG com</tspan><tspan x="254.8" y="86.4" class="st9 st10">-</tspan></text>
<rect x="2453.9" y="-230.5" class="st2" width="283.2" height="111.2"/>
<text transform="matrix(1 0 0 1 2453.9304 -213.2887)"><tspan x="0" y="0" class="st9 st10">How many people inter</tspan><tspan x="245.5" y="0" class="st9 st10">-</tspan><tspan x="0" y="28.8" class="st9 st10">acts with your posts/com</tspan><tspan x="262.8" y="28.8" class="st9 st10">-</tspan><tspan x="0" y="57.6" class="st9 st10">ments. </tspan></text>
<rect x="2455.2" y="15.5" class="st2" width="283.2" height="111.2"/>
<text transform="matrix(1 0 0 1 2455.2305 32.6483)"><tspan x="0" y="0" class="st9 st10">How many people follow </tspan><tspan x="0" y="28.8" class="st9 st10">your activity</tspan></text>
<text transform="matrix(1 0 0 1 1642.1184 -287.7149)" class="st11 st4">XXXXXXXXXX</text>
<text transform="matrix(1 0 0 1 2044.7878 -287.365)" class="st11 st4">XXXXXXXXXX</text>
<text transform="matrix(1 0 0 1 2453.6311 -288.4898)" class="st11 st4">XXXXXXXXXX</text>
<text transform="matrix(1 0 0 1 1646.2368 -47.8215)" class="st11 st4">XXXXXXXXXX</text>
<text transform="matrix(1 0 0 1 2044.7878 -42.1466)" class="st11 st4">XXXXXXXXXX</text>
<text transform="matrix(1 0 0 1 2453.6311 -39.8213)" class="st11 st4">XXXXXXXXXX</text>
</svg>
