<svg xmlns:dc="http://purl.org/dc/elements/1.1/" xmlns:cc="http://creativecommons.org/ns#" xmlns:rdf="http://www.w3.org/1999/02/22-rdf-syntax-ns#" xmlns:svg="http://www.w3.org/2000/svg" xmlns="http://www.w3.org/2000/svg" xmlns:sodipodi="http://sodipodi.sourceforge.net/DTD/sodipodi-0.dtd" xmlns:inkscape="http://www.inkscape.org/namespaces/inkscape" version="1.1" x="0px" y="0px" viewBox="0 0 100 125"><g transform="translate(0,-952.36218)"><path style="text-indent:0;text-transform:none;direction:ltr;block-progression:tb;baseline-shift:baseline;color:#000000;enable-background:accumulate;" d="m 50.000001,957.36219 c -24.8291,0 -44.9999995,20.17101 -44.9999995,45.00001 0,24.8291 20.1708995,45 44.9999995,45 24.8291,0 44.999998,-20.1709 44.999998,-45 0,-24.829 -20.170897,-45 -44.999998,-45 z m 0,4 c 22.6673,0 40.999998,18.33279 40.999998,41.00001 0,22.6673 -18.332697,41 -40.999998,41 -22.6673,0 -40.9999995,-18.3327 -40.9999995,-41 0,-22.66722 18.3326995,-41 40.9999995,-41 z m -27.0953,18.75432 c -0.095,0.91473 0.5279,1.85323 1.4078,2.12068 l 16,6 c 0.9958,0.42976 2.2971,-0.12958 2.6705,-1.1479 0.3734,-1.01833 -0.2579,-2.28626 -1.2955,-2.6021 l -16,-6 c -1.2367,-0.45489 -2.6587,0.14668 -2.7828,1.62932 z m 51.4078,-1.62932 -16,6 c -1.0376,0.31584 -1.668899,1.58377 -1.2955,2.6021 0.3734,1.01832 1.6747,1.57766 2.6705,1.1479 l 16,-6 c 0.9091,-0.28812 1.5262,-1.29767 1.3682,-2.23814 -0.4807,-1.66657 -1.5488,-1.8814 -2.7432,-1.51186 z m -40.3125,8.875 c -3.8661,0 -7,3.13403 -7,7 0,3.86597 3.1339,7.00001 7,7.00001 3.866,0 7,-3.13404 7,-7.00001 0,-3.86597 -3.134,-7 -7,-7 z m 32,0 c -3.8661,0 -7,3.13403 -7,7 0,3.86597 3.1339,7.00001 7,7.00001 3.866,0 7,-3.13404 7,-7.00001 0,-3.86597 -3.134,-7 -7,-7 z m -16,23.00001 c -9.3036,0 -17.5741,4.2262 -22.5938,10.7812 -0.6381,0.8345 -0.4595,2.1744 0.3751,2.8126 0.8345,0.6381 2.1744,0.4594 2.8125,-0.3751 4.2336,-5.5288 11.3162,-9.2187 19.4062,-9.2187 8.09,0 15.172701,3.6899 19.4062,9.2187 0.6381,0.8345 1.978,1.0132 2.8125,0.3751 0.8346,-0.6382 1.0132,-1.9781 0.3751,-2.8126 -5.0197,-6.555 -13.2902,-10.7812 -22.5938,-10.7812 z" fill="#000000" fill-opacity="1" stroke="none" marker="none" visibility="visible" display="inline" overflow="visible"/></g><text x="0" y="115" fill="#000000" font-size="5px" font-weight="bold" font-family="'Helvetica Neue', Helvetica, Arial-Unicode, Arial, Sans-serif">Created by Barracuda</text><text x="0" y="120" fill="#000000" font-size="5px" font-weight="bold" font-family="'Helvetica Neue', Helvetica, Arial-Unicode, Arial, Sans-serif">from the Noun Project</text></svg>