<svg xmlns="http://www.w3.org/2000/svg" xmlns:xlink="http://www.w3.org/1999/xlink" version="1.1" x="0px" y="0px" viewBox="0 0 100 125" enable-background="new 0 0 100 100" xml:space="preserve"><rect fill="none" width="100" height="100"/><path d="M56.618,68.7c-0.876,0.876-2.295,0.876-3.171,0c-0.878-0.875-0.878-2.294,0-3.17c0.876-0.876,2.295-0.876,3.171,0  C57.493,66.406,57.493,67.825,56.618,68.7z M47.822,74.327c-0.875,0.875-0.875,2.294,0.001,3.17c0.875,0.875,2.294,0.875,3.17,0  c0.875-0.876,0.875-2.295,0-3.17C50.117,73.446,48.698,73.451,47.822,74.327z M57.415,74.327c-0.876,0.871-0.876,2.294,0,3.17  c0.875,0.875,2.296,0.875,3.17,0c0.875-0.876,0.878-2.295,0-3.17C59.709,73.446,58.29,73.451,57.415,74.327z M46.51,66.231  c-0.876-0.876-2.295-0.876-3.17,0c-0.875,0.875-0.876,2.294,0,3.174c0.876,0.876,2.294,0.871,3.17-0.004  C47.386,68.529,47.386,67.106,46.51,66.231z M48.42,57.093c-0.875,0.876-0.876,2.295,0,3.17c0.877,0.881,2.295,0.876,3.171,0  c0.874-0.871,0.876-2.294,0-3.17C50.714,56.218,49.296,56.218,48.42,57.093z M23.511,28.572c-4.78,0-9.05,2.855-10.881,7.268  c-0.236,0.574,0.035,1.23,0.606,1.467c0.567,0.241,1.229-0.035,1.465-0.608c1.482-3.577,4.94-5.885,8.81-5.885  c1.248,0,2.473,0.245,3.641,0.727l15.101,6.257c0.14,0.057,0.286,0.083,0.429,0.083c0.439,0,0.857-0.258,1.036-0.692  c0.236-0.569-0.035-1.226-0.606-1.462L28.01,29.469C26.568,28.874,25.055,28.572,23.511,28.572z M83.58,57.435l-22.348,9.252  L50.005,39.588L38.778,66.687l-22.351-9.256c-4.563-1.888-8.119-5.442-10.009-10.01c-1.89-4.562-1.89-9.589,0-14.155  c2.875-6.936,9.585-11.419,17.094-11.419c2.431,0,4.811,0.473,7.073,1.41l19.421,8.048l19.419-8.048  c2.264-0.937,4.644-1.41,7.073-1.41c7.512,0,14.222,4.483,17.096,11.419C97.495,42.692,93.003,53.533,83.58,57.435z M47.076,34.942  l-18.208-7.544c-1.715-0.709-3.518-1.068-5.357-1.068c-5.689,0-10.772,3.393-12.952,8.652c-1.432,3.459-1.432,7.268,0,10.723  c1.433,3.459,4.125,6.152,7.583,7.583l18.209,7.54L47.076,34.942z M89.452,34.982c-2.179-5.259-7.262-8.652-12.954-8.652  c-1.837,0-3.641,0.359-5.357,1.068l-18.205,7.544l10.723,25.886l18.21-7.535C89.003,50.337,92.405,42.123,89.452,34.982z   M85.916,35.231c-0.571,0.236-0.843,0.893-0.606,1.467c2.008,4.855-0.307,10.442-5.157,12.452l-15.102,6.253  c-0.571,0.236-0.843,0.893-0.606,1.462c0.177,0.434,0.596,0.692,1.035,0.692c0.145,0,0.289-0.026,0.43-0.084l15.101-6.252  c5.994-2.483,8.852-9.383,6.371-15.382C87.145,35.267,86.487,34.995,85.916,35.231z"/><text x="0" y="115" fill="#000000" font-size="5px" font-weight="bold" font-family="'Helvetica Neue', Helvetica, Arial-Unicode, Arial, Sans-serif">Created by hunotika</text><text x="0" y="120" fill="#000000" font-size="5px" font-weight="bold" font-family="'Helvetica Neue', Helvetica, Arial-Unicode, Arial, Sans-serif">from the Noun Project</text></svg>