<svg xmlns="http://www.w3.org/2000/svg" xmlns:xlink="http://www.w3.org/1999/xlink" version="1.1" x="0px" y="0px" viewBox="0 0 100 125" enable-background="new 0 0 100 100" xml:space="preserve"><g display="none"><rect x="-857.382" y="-488.38" display="inline" fill="#000000" stroke="#000000" stroke-width="0.4634" stroke-miterlimit="10" width="1226.941" height="1582.379"/></g><g><path d="M91.707,41.911c-1.385-1.189-2.581-2.216-3.303-4.438c-0.722-2.222-0.357-3.756,0.063-5.531   c0.554-2.335,1.243-5.24-1.42-8.907c-2.664-3.667-5.641-3.909-8.032-4.104c-1.819-0.148-3.391-0.276-5.28-1.649   s-2.497-2.828-3.2-4.512c-0.924-2.214-2.074-4.97-6.385-6.371c-4.307-1.403-6.859,0.153-8.909,1.401   c-1.559,0.949-2.904,1.77-5.241,1.77c-2.336,0-3.682-0.82-5.24-1.77c-2.049-1.247-4.6-2.803-8.91-1.401   c-4.311,1.4-5.46,4.156-6.384,6.37c-0.703,1.685-1.311,3.139-3.2,4.512s-3.461,1.501-5.28,1.649   c-2.392,0.195-5.368,0.437-8.031,4.104c-2.664,3.667-1.975,6.572-1.421,8.907c0.421,1.775,0.785,3.309,0.063,5.531   c-0.722,2.222-1.918,3.249-3.303,4.438c-1.82,1.563-4.087,3.509-4.087,8.041c0,4.532,2.267,6.478,4.087,8.041   c1.385,1.189,2.581,2.216,3.303,4.437c0.722,2.222,0.357,3.756-0.063,5.531c-0.554,2.335-1.243,5.241,1.421,8.907   c2.663,3.666,5.64,3.908,8.031,4.103c1.819,0.148,3.39,0.276,5.28,1.649c1.89,1.373,2.497,2.828,3.2,4.512   c0.924,2.214,2.074,4.97,6.384,6.371c1.426,0.463,2.626,0.651,3.67,0.651c2.277,0,3.811-0.892,5.31-1.763   c1.379-0.802,2.806-1.631,5.252-2.065c2.267-0.399,3.583,0.449,5.255,1.525c2.077,1.338,4.665,3.002,8.814,1.652   c4.311-1.4,5.461-4.156,6.385-6.371c0.703-1.684,1.311-3.139,3.2-4.512c1.89-1.374,3.461-1.501,5.28-1.649   c2.392-0.195,5.368-0.437,8.032-4.103c2.663-3.667,1.974-6.572,1.42-8.907c-0.421-1.775-0.785-3.309-0.063-5.531   c0.722-2.221,1.918-3.248,3.303-4.437c1.82-1.563,4.086-3.509,4.086-8.041C95.793,45.42,93.527,43.474,91.707,41.911z    M88.914,54.74c-1.556,1.336-3.492,3-4.586,6.365c-1.094,3.365-0.505,5.849-0.031,7.845c0.509,2.144,0.789,3.325-0.717,5.398   c-1.507,2.073-2.717,2.172-4.912,2.351c-2.045,0.166-4.589,0.374-7.452,2.454c-2.862,2.08-3.846,4.436-4.636,6.329   c-0.849,2.033-1.316,3.153-3.754,3.945c-2.215,0.719-3.329,0.005-5.171-1.181c-1.964-1.264-4.41-2.837-8.322-2.142   c-3.195,0.567-5.116,1.684-6.659,2.581c-1.917,1.114-2.791,1.62-5.5,0.741c-2.437-0.792-2.904-1.912-3.753-3.945   c-0.79-1.893-1.772-4.249-4.636-6.329s-5.408-2.288-7.452-2.454c-2.196-0.179-3.405-0.277-4.911-2.351   c-1.507-2.073-1.227-3.254-0.718-5.398c0.474-1.996,1.063-4.48-0.031-7.845c-1.094-3.366-3.03-5.029-4.587-6.365   c-1.671-1.436-2.592-2.226-2.592-4.789c0-2.563,0.921-3.354,2.592-4.789c1.557-1.336,3.493-3,4.587-6.365s0.505-5.849,0.031-7.845   c-0.509-2.144-0.789-3.324,0.718-5.397c1.506-2.074,2.716-2.172,4.911-2.351c2.045-0.167,4.589-0.374,7.452-2.454   s3.846-4.436,4.636-6.329c0.849-2.033,1.316-3.153,3.753-3.945c2.439-0.791,3.476-0.161,5.356,0.986   c1.751,1.067,3.932,2.395,7.47,2.395c3.539,0,5.72-1.328,7.471-2.395c1.882-1.146,2.921-1.775,5.355-0.985   c2.438,0.792,2.905,1.912,3.754,3.945c0.79,1.893,1.773,4.249,4.636,6.329c2.863,2.08,5.407,2.287,7.451,2.454   c2.196,0.179,3.406,0.277,4.913,2.351c1.506,2.073,1.226,3.254,0.717,5.397c-0.474,1.996-1.063,4.479,0.031,7.845   s3.03,5.029,4.586,6.365c1.672,1.435,2.592,2.226,2.592,4.789S90.586,53.305,88.914,54.74z"/><path d="M27.276,42.266l5.384-9.568c0.867-1.541,0.316-3.511-1.225-4.378l-0.297-0.167c-1.541-0.867-3.511-0.316-4.378,1.225   l-5.384,9.568c-0.867,1.541-0.316,3.511,1.225,4.378l0.297,0.167C24.439,44.358,26.409,43.807,27.276,42.266z"/><path d="M53.264,53.958l0.267-0.211c1.387-1.096,1.625-3.128,0.529-4.515l-6.807-8.614c-1.096-1.387-3.128-1.625-4.515-0.529   l-0.267,0.211c-1.387,1.096-1.625,3.128-0.529,4.516l6.807,8.614C49.844,54.816,51.876,55.054,53.264,53.958z"/><path d="M29.656,56.594c-1.096-1.387-3.128-1.625-4.515-0.529l-0.267,0.211c-1.387,1.096-1.625,3.128-0.529,4.516l6.807,8.614   c1.096,1.387,3.128,1.625,4.515,0.529l0.267-0.211c1.387-1.096,1.625-3.128,0.529-4.515L29.656,56.594z"/><path d="M60.451,24.179c-0.713-1.618-2.62-2.359-4.238-1.646l-0.312,0.137c-1.618,0.713-2.359,2.62-1.646,4.238l4.425,10.047   c0.713,1.618,2.62,2.359,4.238,1.646l0.312-0.137c1.618-0.713,2.359-2.62,1.646-4.238L60.451,24.179z"/><path d="M80.018,49.972c-1.233-1.267-3.279-1.294-4.546-0.061l-7.866,7.658c-1.267,1.233-1.294,3.279-0.061,4.546l0.237,0.244   c1.233,1.267,3.279,1.294,4.546,0.061l7.866-7.659c1.267-1.233,1.294-3.279,0.061-4.546L80.018,49.972z"/><path d="M62.417,70.568l-10.7-2.46c-1.723-0.396-3.457,0.69-3.853,2.413l-0.076,0.332c-0.396,1.723,0.69,3.457,2.413,3.853   l10.7,2.46c1.723,0.396,3.457-0.69,3.853-2.413l0.076-0.332C65.226,72.698,64.14,70.964,62.417,70.568z"/></g><text x="0" y="115" fill="#000000" font-size="5px" font-weight="bold" font-family="'Helvetica Neue', Helvetica, Arial-Unicode, Arial, Sans-serif">Created by Oksana Latysheva</text><text x="0" y="120" fill="#000000" font-size="5px" font-weight="bold" font-family="'Helvetica Neue', Helvetica, Arial-Unicode, Arial, Sans-serif">from the Noun Project</text></svg>