<?xml version="1.0" encoding="utf-8"?>
<!-- Generator: Adobe Illustrator 19.0.0, SVG Export Plug-In . SVG Version: 6.00 Build 0)  -->
<svg version="1.1" id="Layer_1" xmlns="http://www.w3.org/2000/svg" xmlns:xlink="http://www.w3.org/1999/xlink" x="0px" y="0px"
	 viewBox="-152.7 25.4 92 158" style="enable-background:new -152.7 25.4 92 158;" xml:space="preserve">
<style type="text/css">
	.st0{fill:#091115;}
	.st1{fill:#CB2027;}
	.st2{fill:#384CA0;}
	.st3{fill:none;}
	.st4{font-family:'Arial-BoldMT';}
	.st5{font-size:6px;}
	.st6{font-family:'ArialMT';}
	.st7{font-size:10px;}
</style>
<g>
	<path class="st0" d="M-105.1,102.6h-2.9c-0.5-2.1-1.3-4.2-2.5-6l2.1-2.1c0.7-0.7,1.1-1.6,1.1-2.6s-0.4-1.9-1.1-2.6
		c-1.4-1.4-3.8-1.4-5.2,0l-2.1,2.1c-1.8-1.2-3.9-2-6-2.5V86c0-2.1-1.7-3.7-3.7-3.7s-3.7,1.6-3.7,3.7v2.9c-2.1,0.5-4.2,1.3-6,2.5
		l-2.1-2.1c-1.4-1.4-3.8-1.4-5.2,0c-0.7,0.7-1,1.6-1,2.6s0.4,1.9,1.1,2.6l2.1,2.1c-1.2,1.8-2,3.9-2.5,6h-3c-2.1,0-3.7,1.7-3.7,3.7
		s1.6,3.7,3.7,3.7h2.9c0.5,2.1,1.3,4.2,2.5,6l-2.1,2.1c-0.7,0.7-1,1.6-1,2.6s0.3,1.9,1,2.6c1.4,1.4,3.8,1.4,5.2,0l2.1-2.1
		c1.8,1.2,3.9,2,6,2.5v2.9c0,2,1.6,3.7,3.7,3.7c2.1,0,3.7-1.6,3.7-3.7v-2.9c2.1-0.5,4.2-1.3,6-2.5l2.1,2.1c1.4,1.4,3.8,1.4,5.2,0
		c0.7-0.7,1.1-1.6,1.1-2.6s-0.4-1.9-1.1-2.6l-2.1-2.1c1.2-1.8,2-3.9,2.5-6h2.9c2,0,3.7-1.6,3.7-3.7
		C-101.4,104.2-103,102.6-105.1,102.6z M-105.1,108h-3.8c-0.5,0-0.9,0.4-1,0.8c-0.4,2.4-1.3,4.7-2.8,6.7c-0.3,0.4-0.2,0.9,0.1,1.3
		l2.7,2.7c0.3,0.3,0.5,0.7,0.5,1.2c0,0.4-0.2,0.9-0.5,1.2c-0.6,0.6-1.7,0.6-2.4,0l-2.7-2.7c-0.3-0.3-0.9-0.4-1.3-0.1
		c-2,1.4-4.3,2.4-6.7,2.8c-0.5,0.1-0.8,0.5-0.8,1v3.8c0,0.9-0.8,1.7-1.7,1.7s-1.7-0.8-1.7-1.7v-3.8c0-0.5-0.4-0.9-0.8-1
		c-2.4-0.4-4.7-1.3-6.7-2.8c-0.2-0.1-0.4-0.2-0.6-0.2c-0.3,0-0.5,0.1-0.7,0.3l-2.7,2.7c-0.6,0.6-1.7,0.6-2.4,0
		c-0.2-0.4-0.3-0.8-0.3-1.2s0.2-0.9,0.5-1.2l2.7-2.7c0.3-0.3,0.4-0.9,0.1-1.3c-1.4-2-2.4-4.3-2.8-6.7c-0.1-0.5-0.5-0.8-1-0.8h-3.8
		c-0.9,0-1.7-0.8-1.7-1.7s0.8-1.7,1.7-1.7h3.8c0.5,0,0.9-0.4,1-0.8c0.4-2.4,1.3-4.7,2.8-6.7c0.3-0.4,0.2-0.9-0.1-1.3l-2.7-2.7
		c-0.4-0.3-0.5-0.7-0.5-1.2s0.2-0.9,0.5-1.2c0.6-0.6,1.7-0.6,2.4,0l2.7,2.7c0.3,0.3,0.9,0.4,1.3,0.1c2-1.4,4.3-2.4,6.7-2.8
		c0.5-0.1,0.8-0.5,0.8-1V86c-0.1-0.9,0.7-1.7,1.6-1.7c0.9,0,1.7,0.8,1.7,1.7v3.8c0,0.5,0.4,0.9,0.8,1c2.4,0.4,4.7,1.3,6.7,2.8
		c0.4,0.3,0.9,0.2,1.3-0.1l2.7-2.7c0.6-0.6,1.7-0.6,2.4,0c0.3,0.3,0.4,0.7,0.4,1.1s-0.2,0.9-0.5,1.2l-2.7,2.7
		c-0.3,0.3-0.4,0.9-0.1,1.3c1.4,2,2.4,4.3,2.8,6.7c0.1,0.5,0.5,0.8,1,0.8h3.8c0.9,0,1.7,0.8,1.7,1.7S-104.2,108-105.1,108z"/>
	<path class="st0" d="M-128.9,108.4c-2.5,0-4.5,2-4.5,4.5s2,4.5,4.5,4.5c2.5,0,4.5-2,4.5-4.5S-126.4,108.4-128.9,108.4z
		 M-128.9,115.4c-1.4,0-2.5-1.1-2.5-2.5s1.1-2.5,2.5-2.5c1.4,0,2.5,1.1,2.5,2.5S-127.5,115.4-128.9,115.4z"/>
	<path class="st0" d="M-121.9,101.8c2.5,0,4.5-2,4.5-4.5s-2-4.5-4.5-4.5s-4.5,2-4.5,4.5S-124.4,101.8-121.9,101.8z M-121.9,94.9
		c1.4,0,2.5,1.1,2.5,2.5c0,1.4-1.1,2.5-2.5,2.5c-1.4,0-2.5-1.1-2.5-2.5C-124.4,96-123.3,94.9-121.9,94.9z"/>
	<path class="st0" d="M-118.7,111c-0.4,0.4-0.4,1,0,1.4c1,1,1,2.5,0,3.5c-0.4,0.4-0.4,1,0,1.4c0.2,0.2,0.5,0.3,0.7,0.3
		c0.3,0,0.5-0.1,0.7-0.3c1.7-1.7,1.7-4.6,0-6.3C-117.7,110.7-118.4,110.7-118.7,111z"/>
	<path class="st0" d="M-125.9,103.6c-0.6,0-1,0.4-1,1c0,0.6,0.4,1,1,1c1.4,0,2.5,1.1,2.5,2.5c0,0.6,0.4,1,1,1c0.6,0,1-0.4,1-1
		C-121.4,105.6-123.4,103.6-125.9,103.6z"/>
	<path class="st0" d="M-130,99c0.2,0.2,0.5,0.3,0.7,0.3c0.3,0,0.5-0.1,0.7-0.3c0.4-0.4,0.4-1,0-1.4c-1.7-1.7-4.6-1.7-6.3,0
		c-0.4,0.4-0.4,1,0,1.4c0.4,0.4,1,0.4,1.4,0C-132.5,98-131,98-130,99z"/>
	<path class="st0" d="M-136.2,102.8c-1.4,1.8-1.1,4.6-1.1,4.9c0.1,0.5,0.5,0.9,1,0.9h0.1c0.5-0.1,0.9-0.6,0.9-1.1
		c-0.1-0.6-0.1-2.5,0.6-3.4c0.3-0.4,0.3-1.1-0.2-1.4C-135.3,102.3-135.9,102.3-136.2,102.8z"/>
	<path class="st0" d="M-115.3,102c-0.4-0.3-1.1-0.3-1.4,0.2c-0.3,0.4-0.3,1.1,0.2,1.4c0.5,0.4,1.8,1.7,2,2.9c0.1,0.5,0.5,0.9,1,0.9
		h0.1c0.5-0.1,0.9-0.6,0.9-1.1C-112.9,104-115.1,102.2-115.3,102z"/>
</g>
<g>
	<path class="st1" d="M-105,50h-2.9c-0.5-2.1-1.3-4.2-2.5-6l2.1-2.1c0.7-0.7,1.1-1.6,1.1-2.6s-0.4-1.9-1.1-2.6
		c-1.4-1.4-3.8-1.4-5.2,0l-2.1,2.1c-1.8-1.2-3.9-2-6-2.5v-2.9c0-2.1-1.7-3.7-3.7-3.7s-3.7,1.6-3.7,3.7v2.9c-2.1,0.5-4.2,1.3-6,2.5
		l-2.1-2.1c-1.4-1.4-3.8-1.4-5.2,0c-0.7,0.7-1,1.6-1,2.6s0.4,1.9,1.1,2.6l2.1,2.1c-1.2,1.8-2,3.9-2.5,6h-3c-2.1,0-3.7,1.7-3.7,3.7
		s1.6,3.7,3.7,3.7h2.9c0.5,2.1,1.3,4.2,2.5,6l-2.1,2.1c-0.7,0.7-1,1.6-1,2.6s0.3,1.9,1,2.6c1.4,1.4,3.8,1.4,5.2,0l2.1-2.1
		c1.8,1.2,3.9,2,6,2.5V74c0,2,1.6,3.7,3.7,3.7s3.7-1.6,3.7-3.7v-2.9c2.1-0.5,4.2-1.3,6-2.5l2.1,2.1c1.4,1.4,3.8,1.4,5.2,0
		c0.7-0.7,1.1-1.6,1.1-2.6s-0.4-1.9-1.1-2.6l-2.1-2.1c1.2-1.8,2-3.9,2.5-6h2.9c2,0,3.7-1.6,3.7-3.7C-101.3,51.6-102.9,50-105,50z
		 M-105,55.4h-3.8c-0.5,0-0.9,0.4-1,0.8c-0.4,2.4-1.3,4.7-2.8,6.7c-0.3,0.4-0.2,0.9,0.1,1.3l2.7,2.7c0.3,0.3,0.5,0.7,0.5,1.2
		c0,0.4-0.2,0.9-0.5,1.2c-0.6,0.6-1.7,0.6-2.4,0l-2.7-2.7c-0.3-0.3-0.9-0.4-1.3-0.1c-2,1.4-4.3,2.4-6.7,2.8c-0.5,0.1-0.8,0.5-0.8,1
		v3.8c0,0.9-0.8,1.7-1.7,1.7s-1.7-0.8-1.7-1.7v-3.8c0-0.5-0.4-0.9-0.8-1c-2.4-0.4-4.7-1.3-6.7-2.8c-0.2-0.1-0.4-0.2-0.6-0.2
		c-0.3,0-0.5,0.1-0.7,0.3l-2.7,2.7c-0.6,0.6-1.7,0.6-2.4,0c-0.2-0.4-0.3-0.8-0.3-1.2c0-0.4,0.2-0.9,0.5-1.2l2.7-2.7
		c0.3-0.3,0.4-0.9,0.1-1.3c-1.4-2-2.4-4.3-2.8-6.7c-0.1-0.5-0.5-0.8-1-0.8h-3.8c-0.9,0-1.7-0.8-1.7-1.7c0-0.9,0.8-1.7,1.7-1.7h3.8
		c0.5,0,0.9-0.4,1-0.8c0.4-2.4,1.3-4.7,2.8-6.7c0.3-0.4,0.2-0.9-0.1-1.3l-2.7-2.7c-0.4-0.3-0.5-0.7-0.5-1.2s0.2-0.9,0.5-1.2
		c0.6-0.6,1.7-0.6,2.4,0l2.7,2.7c0.3,0.3,0.9,0.4,1.3,0.1c2-1.4,4.3-2.4,6.7-2.8c0.5-0.1,0.8-0.5,0.8-1v-3.7
		c-0.1-0.9,0.7-1.7,1.6-1.7s1.7,0.8,1.7,1.7v3.8c0,0.5,0.4,0.9,0.8,1c2.4,0.4,4.7,1.3,6.7,2.8c0.4,0.3,0.9,0.2,1.3-0.1l2.7-2.7
		c0.6-0.6,1.7-0.6,2.4,0c0.3,0.3,0.4,0.7,0.4,1.1s-0.2,0.9-0.5,1.2l-2.7,2.7c-0.3,0.3-0.4,0.9-0.1,1.3c1.4,2,2.4,4.3,2.8,6.7
		c0.1,0.5,0.5,0.8,1,0.8h3.8c0.9,0,1.7,0.8,1.7,1.7S-104.1,55.4-105,55.4z"/>
	<path class="st1" d="M-135.6,44.8c0,0.4,0.2,0.7,0.5,0.8l6.1,2.4c0.4,0.2,0.9-0.1,1-0.5c0.1-0.4-0.1-0.9-0.5-1l-6.1-2.4
		C-135,43.9-135.6,44.2-135.6,44.8z"/>
	<path class="st1" d="M-116.1,44.1l-6.1,2.4c-0.4,0.1-0.6,0.6-0.5,1c0.1,0.4,0.6,0.6,1,0.5l6.1-2.4c0.3-0.1,0.6-0.5,0.5-0.9
		C-115.3,44.1-115.7,44-116.1,44.1z"/>
	<ellipse class="st1" cx="-131.4" cy="50.5" rx="2.7" ry="2.8"/>
	<ellipse class="st1" cx="-119.3" cy="50.5" rx="2.7" ry="2.8"/>
	<path class="st1" d="M-125.4,56.9c-3.5,0-6.7,1.7-8.6,4.3c-0.2,0.3-0.2,0.9,0.1,1.1c0.3,0.3,0.8,0.2,1.1-0.2
		c1.6-2.2,4.3-3.7,7.4-3.7s5.8,1.5,7.4,3.7c0.2,0.3,0.7,0.4,1.1,0.2c0.3-0.3,0.4-0.8,0.1-1.1C-118.7,58.6-121.8,56.9-125.4,56.9z"/>
</g>
<g>
	<path class="st2" d="M-105.1,153.3h-2.9c-0.5-2.1-1.3-4.2-2.5-6l2.1-2.1c0.7-0.7,1.1-1.6,1.1-2.6s-0.4-1.9-1.1-2.6
		c-1.4-1.4-3.8-1.4-5.2,0l-2.1,2.1c-1.8-1.2-3.9-2-6-2.5v-2.9c0-2.1-1.7-3.7-3.7-3.7s-3.7,1.6-3.7,3.7v2.9c-2.1,0.5-4.2,1.3-6,2.5
		l-2.1-2.1c-1.4-1.4-3.8-1.4-5.2,0c-0.7,0.7-1,1.6-1,2.6s0.4,1.9,1.1,2.6l2.1,2.1c-1.2,1.8-2,3.9-2.5,6h-3c-2.1,0-3.7,1.7-3.7,3.7
		s1.6,3.7,3.7,3.7h2.9c0.5,2.1,1.3,4.2,2.5,6l-2.1,2.1c-0.7,0.7-1,1.6-1,2.6s0.3,1.9,1,2.6c1.4,1.4,3.8,1.4,5.2,0l2.1-2.1
		c1.8,1.2,3.9,2,6,2.5v2.9c0,2,1.6,3.7,3.7,3.7s3.7-1.6,3.7-3.7v-2.9c2.1-0.5,4.2-1.3,6-2.5l2.1,2.1c1.4,1.4,3.8,1.4,5.2,0
		c0.7-0.7,1.1-1.6,1.1-2.6s-0.4-1.9-1.1-2.6l-2.1-2.1c1.2-1.8,2-3.9,2.5-6h2.9c2,0,3.7-1.6,3.7-3.7
		C-101.4,154.9-103,153.3-105.1,153.3z M-105.1,158.7h-3.8c-0.5,0-0.9,0.4-1,0.8c-0.4,2.4-1.3,4.7-2.8,6.7c-0.3,0.4-0.2,0.9,0.1,1.3
		l2.7,2.7c0.3,0.3,0.5,0.7,0.5,1.2c0,0.4-0.2,0.9-0.5,1.2c-0.6,0.6-1.7,0.6-2.4,0l-2.7-2.7c-0.3-0.3-0.9-0.4-1.3-0.1
		c-2,1.4-4.3,2.4-6.7,2.8c-0.5,0.1-0.8,0.5-0.8,1v3.8c0,0.9-0.8,1.7-1.7,1.7s-1.7-0.8-1.7-1.7v-3.8c0-0.5-0.4-0.9-0.8-1
		c-2.4-0.4-4.7-1.3-6.7-2.8c-0.2-0.1-0.4-0.2-0.6-0.2c-0.3,0-0.5,0.1-0.7,0.3l-2.7,2.7c-0.6,0.6-1.7,0.6-2.4,0
		c-0.2-0.4-0.3-0.8-0.3-1.2c0-0.4,0.2-0.9,0.5-1.2l2.7-2.7c0.3-0.3,0.4-0.9,0.1-1.3c-1.4-2-2.4-4.3-2.8-6.7c-0.1-0.5-0.5-0.8-1-0.8
		h-3.8c-0.9,0-1.7-0.8-1.7-1.7c0-0.9,0.8-1.7,1.7-1.7h3.8c0.5,0,0.9-0.4,1-0.8c0.4-2.4,1.3-4.7,2.8-6.7c0.3-0.4,0.2-0.9-0.1-1.3
		l-2.7-2.7c-0.4-0.3-0.5-0.7-0.5-1.2s0.2-0.9,0.5-1.2c0.6-0.6,1.7-0.6,2.4,0l2.7,2.7c0.3,0.3,0.9,0.4,1.3,0.1c2-1.4,4.3-2.4,6.7-2.8
		c0.5-0.1,0.8-0.5,0.8-1v-3.7c-0.1-0.9,0.7-1.7,1.6-1.7s1.7,0.8,1.7,1.7v3.8c0,0.5,0.4,0.9,0.8,1c2.4,0.4,4.7,1.3,6.7,2.8
		c0.4,0.3,0.9,0.2,1.3-0.1l2.7-2.7c0.6-0.6,1.7-0.6,2.4,0c0.3,0.3,0.4,0.7,0.4,1.1c0,0.4-0.2,0.9-0.5,1.2l-2.7,2.7
		c-0.3,0.3-0.4,0.9-0.1,1.3c1.4,2,2.4,4.3,2.8,6.7c0.1,0.5,0.5,0.8,1,0.8h3.8c0.9,0,1.7,0.8,1.7,1.7
		C-103.4,157.9-104.2,158.7-105.1,158.7z"/>
	<ellipse class="st2" cx="-132.3" cy="151.3" rx="2.7" ry="2.7"/>
	<ellipse class="st2" cx="-119.2" cy="151.3" rx="2.7" ry="2.7"/>
	<path class="st2" d="M-133.4,160.5c-0.6,0-1.1,0.5-1,1.1c0,0.2,0.1,0.4,0.2,0.6c1.9,2.6,5,4.2,8.5,4.2s6.6-1.7,8.5-4.2
		c0.4-0.5,0.2-1.2-0.2-1.5c-0.5-0.3-1.2-0.2-1.5,0.2l0,0c-1.5,2-3.9,3.3-6.7,3.3c-2.8,0-5.3-1.3-6.7-3.3
		C-132.7,160.6-133.1,160.5-133.4,160.5z"/>
</g>
<rect x="-95.3" y="55" class="st3" width="30" height="4.4"/>
<text transform="matrix(1 0 0 1 -95.3207 59.3416)" class="st4 st5">Resistant</text>
<rect x="-95" y="107.9" class="st3" width="30" height="4.8"/>
<text transform="matrix(1 0 0 1 -94.9729 112.2328)" class="st4 st5">Unknown</text>
<rect x="-98" y="161.2" class="st3" width="34.2" height="4.4"/>
<text transform="matrix(1 0 0 1 -97.9729 165.5419)" class="st4 st5">Susceptible</text>
<rect x="-84.4" y="152.8" class="st3" width="9.1" height="7.4"/>
<text transform="matrix(1 0 0 1 -84.4153 159.9213)" class="st6 st7">0</text>
<rect x="-84.4" y="99.2" class="st3" width="9.1" height="7.4"/>
<text transform="matrix(1 0 0 1 -84.4153 106.3852)" class="st6 st7">0</text>
<rect x="-84.9" y="46.4" class="st3" width="9.1" height="7.4"/>
<text transform="matrix(1 0 0 1 -84.8812 53.5447)" class="st6 st7">0</text>
</svg>
