<?xml version="1.0" encoding="utf-8"?>
<!-- Generator: Adobe Illustrator 19.0.0, SVG Export Plug-In . SVG Version: 6.00 Build 0)  -->
<svg version="1.1" id="Layer_1" xmlns="http://www.w3.org/2000/svg" xmlns:xlink="http://www.w3.org/1999/xlink" x="0px" y="0px"
	 viewBox="-166.7 -44.8 253.6 199.1" style="enable-background:new -166.7 -44.8 253.6 199.1;" xml:space="preserve">
<g>
	<path d="M-34.2,50h-2.9c-0.5-2.1-1.3-4.2-2.5-6l2.1-2.1c0.7-0.7,1.1-1.6,1.1-2.6s-0.4-1.9-1.1-2.6c-1.4-1.4-3.8-1.4-5.2,0l-2.1,2.1
		c-1.8-1.2-3.9-2-6-2.5v-2.9c0-2.1-1.7-3.7-3.7-3.7s-3.7,1.6-3.7,3.7v2.9c-2.1,0.5-4.2,1.3-6,2.5l-2.1-2.1c-1.4-1.4-3.8-1.4-5.2,0
		c-0.7,0.7-1,1.6-1,2.6s0.4,1.9,1.1,2.6l2.1,2.1c-1.2,1.8-2,3.9-2.5,6h-3c-2.1,0-3.7,1.7-3.7,3.7s1.6,3.7,3.7,3.7h2.9
		c0.5,2.1,1.3,4.2,2.5,6l-2.1,2.1c-0.7,0.7-1,1.6-1,2.6s0.3,1.9,1,2.6c1.4,1.4,3.8,1.4,5.2,0l2.1-2.1c1.8,1.2,3.9,2,6,2.5V74
		c0,2,1.6,3.7,3.7,3.7c2.1,0,3.7-1.6,3.7-3.7v-2.9c2.1-0.5,4.2-1.3,6-2.5l2.1,2.1c1.4,1.4,3.8,1.4,5.2,0c0.7-0.7,1.1-1.6,1.1-2.6
		s-0.4-1.9-1.1-2.6l-2.1-2.1c1.2-1.8,2-3.9,2.5-6h2.9c2,0,3.7-1.6,3.7-3.7C-30.5,51.6-32.1,50-34.2,50z M-34.2,55.4H-38
		c-0.5,0-0.9,0.4-1,0.8c-0.4,2.4-1.3,4.7-2.8,6.7c-0.3,0.4-0.2,0.9,0.1,1.3l2.7,2.7c0.3,0.3,0.5,0.7,0.5,1.2c0,0.4-0.2,0.9-0.5,1.2
		c-0.6,0.6-1.7,0.6-2.4,0l-2.7-2.7c-0.3-0.3-0.9-0.4-1.3-0.1c-2,1.4-4.3,2.4-6.7,2.8c-0.5,0.1-0.8,0.5-0.8,1v3.8
		c0,0.9-0.8,1.7-1.7,1.7s-1.7-0.8-1.7-1.7v-3.8c0-0.5-0.4-0.9-0.8-1c-2.4-0.4-4.7-1.3-6.7-2.8c-0.2-0.1-0.4-0.2-0.6-0.2
		c-0.3,0-0.5,0.1-0.7,0.3l-2.7,2.7c-0.6,0.6-1.7,0.6-2.4,0c-0.2-0.4-0.3-0.8-0.3-1.2s0.2-0.9,0.5-1.2l2.7-2.7
		c0.3-0.3,0.4-0.9,0.1-1.3c-1.4-2-2.4-4.3-2.8-6.7c-0.1-0.5-0.5-0.8-1-0.8h-3.8c-0.9,0-1.7-0.8-1.7-1.7c0-0.9,0.8-1.7,1.7-1.7h3.8
		c0.5,0,0.9-0.4,1-0.8c0.4-2.4,1.3-4.7,2.8-6.7c0.3-0.4,0.2-0.9-0.1-1.3l-2.7-2.7c-0.4-0.3-0.5-0.7-0.5-1.2s0.2-0.9,0.5-1.2
		c0.6-0.6,1.7-0.6,2.4,0l2.7,2.7c0.3,0.3,0.9,0.4,1.3,0.1c2-1.4,4.3-2.4,6.7-2.8c0.5-0.1,0.8-0.5,0.8-1v-3.7
		c-0.1-0.9,0.7-1.7,1.6-1.7c0.9,0,1.7,0.8,1.7,1.7v3.8c0,0.5,0.4,0.9,0.8,1c2.4,0.4,4.7,1.3,6.7,2.8c0.4,0.3,0.9,0.2,1.3-0.1
		l2.7-2.7c0.6-0.6,1.7-0.6,2.4,0c0.3,0.3,0.4,0.7,0.4,1.1c0,0.4-0.2,0.9-0.5,1.2l-2.7,2.7c-0.3,0.3-0.4,0.9-0.1,1.3
		c1.4,2,2.4,4.3,2.8,6.7c0.1,0.5,0.5,0.8,1,0.8h3.8c0.9,0,1.7,0.8,1.7,1.7S-33.3,55.4-34.2,55.4z"/>
	<path d="M-58,55.8c-2.5,0-4.5,2-4.5,4.5c0,2.5,2,4.5,4.5,4.5s4.5-2,4.5-4.5C-53.5,57.8-55.5,55.8-58,55.8z M-58,62.8
		c-1.4,0-2.5-1.1-2.5-2.5c0-1.4,1.1-2.5,2.5-2.5c1.4,0,2.5,1.1,2.5,2.5C-55.5,61.7-56.6,62.8-58,62.8z"/>
	<path d="M-51,49.2c2.5,0,4.5-2,4.5-4.5s-2-4.5-4.5-4.5s-4.5,2-4.5,4.5S-53.5,49.2-51,49.2z M-51,42.3c1.4,0,2.5,1.1,2.5,2.5
		c0,1.4-1.1,2.5-2.5,2.5c-1.4,0-2.5-1.1-2.5-2.5C-53.5,43.4-52.4,42.3-51,42.3z"/>
	<path d="M-47.8,58.4c-0.4,0.4-0.4,1,0,1.4c1,1,1,2.5,0,3.5c-0.4,0.4-0.4,1,0,1.4c0.2,0.2,0.5,0.3,0.7,0.3c0.3,0,0.5-0.1,0.7-0.3
		c1.7-1.7,1.7-4.6,0-6.3C-46.8,58.1-47.5,58.1-47.8,58.4z"/>
	<path d="M-55,51c-0.6,0-1,0.4-1,1c0,0.6,0.4,1,1,1c1.4,0,2.5,1.1,2.5,2.5c0,0.6,0.4,1,1,1c0.6,0,1-0.4,1-1C-50.5,53-52.5,51-55,51z
		"/>
	<path d="M-59.1,46.4c0.2,0.2,0.5,0.3,0.7,0.3c0.3,0,0.5-0.1,0.7-0.3c0.4-0.4,0.4-1,0-1.4c-1.7-1.7-4.6-1.7-6.3,0
		c-0.4,0.4-0.4,1,0,1.4c0.4,0.4,1,0.4,1.4,0C-61.6,45.4-60.1,45.4-59.1,46.4z"/>
	<path d="M-65.3,50.2c-1.4,1.8-1.1,4.6-1.1,4.9c0.1,0.5,0.5,0.9,1,0.9h0.1c0.5-0.1,0.9-0.6,0.9-1.1c-0.1-0.6-0.1-2.5,0.6-3.4
		c0.3-0.4,0.3-1.1-0.2-1.4C-64.4,49.7-65,49.7-65.3,50.2z"/>
	<path d="M-44.4,49.4c-0.4-0.3-1.1-0.3-1.4,0.2c-0.3,0.4-0.3,1.1,0.2,1.4c0.5,0.4,1.8,1.7,2,2.9c0.1,0.5,0.5,0.9,1,0.9h0.1
		c0.5-0.1,0.9-0.6,0.9-1.1C-42,51.4-44.2,49.6-44.4,49.4z"/>
	<path d="M30.8,50h-2.9c-0.5-2.1-1.3-4.2-2.5-6l2.1-2.1c0.7-0.7,1.1-1.6,1.1-2.6s-0.4-1.9-1.1-2.6c-1.4-1.4-3.8-1.4-5.2,0l-2.1,2.1
		c-1.8-1.2-3.9-2-6-2.5v-2.9c0-2.1-1.7-3.7-3.7-3.7s-3.7,1.6-3.7,3.7v2.9c-2.1,0.5-4.2,1.3-6,2.5l-2.1-2.1c-1.4-1.4-3.8-1.4-5.2,0
		c-0.7,0.7-1,1.6-1,2.6s0.4,1.9,1.1,2.6l2.1,2.1c-1.2,1.8-2,3.9-2.5,6h-3c-2.1,0-3.7,1.7-3.7,3.7s1.6,3.7,3.7,3.7h2.9
		c0.5,2.1,1.3,4.2,2.5,6l-2.1,2.1c-0.7,0.7-1,1.6-1,2.6s0.3,1.9,1,2.6c1.4,1.4,3.8,1.4,5.2,0l2.1-2.1c1.8,1.2,3.9,2,6,2.5V74
		c0,2,1.6,3.7,3.7,3.7s3.7-1.6,3.7-3.7v-2.9c2.1-0.5,4.2-1.3,6-2.5l2.1,2.1c1.4,1.4,3.8,1.4,5.2,0c0.7-0.7,1.1-1.6,1.1-2.6
		s-0.4-1.9-1.1-2.6l-2.1-2.1c1.2-1.8,2-3.9,2.5-6h2.9c2,0,3.7-1.6,3.7-3.7C34.5,51.6,32.9,50,30.8,50z M30.8,55.4H27
		c-0.5,0-0.9,0.4-1,0.8c-0.4,2.4-1.3,4.7-2.8,6.7c-0.3,0.4-0.2,0.9,0.1,1.3l2.7,2.7c0.3,0.3,0.5,0.7,0.5,1.2c0,0.4-0.2,0.9-0.5,1.2
		c-0.6,0.6-1.7,0.6-2.4,0l-2.7-2.7c-0.3-0.3-0.9-0.4-1.3-0.1c-2,1.4-4.3,2.4-6.7,2.8c-0.5,0.1-0.8,0.5-0.8,1v3.8
		c0,0.9-0.8,1.7-1.7,1.7S8.7,75,8.7,74.1v-3.8c0-0.5-0.4-0.9-0.8-1c-2.4-0.4-4.7-1.3-6.7-2.8c-0.2-0.1-0.4-0.2-0.6-0.2
		c-0.3,0-0.5,0.1-0.7,0.3l-2.7,2.7c-0.6,0.6-1.7,0.6-2.4,0c-0.2-0.4-0.3-0.8-0.3-1.2s0.2-0.9,0.5-1.2l2.7-2.7
		c0.3-0.3,0.4-0.9,0.1-1.3c-1.4-2-2.4-4.3-2.8-6.7c-0.1-0.5-0.5-0.8-1-0.8h-3.8c-0.9,0-1.7-0.8-1.7-1.7c0-0.9,0.8-1.7,1.7-1.7H-6
		c0.5,0,0.9-0.4,1-0.8c0.4-2.4,1.3-4.7,2.8-6.7c0.3-0.4,0.2-0.9-0.1-1.3L-5,40.5c-0.4-0.3-0.5-0.7-0.5-1.2s0.2-0.9,0.5-1.2
		c0.6-0.6,1.7-0.6,2.4,0l2.7,2.7c0.3,0.3,0.9,0.4,1.3,0.1c2-1.4,4.3-2.4,6.7-2.8c0.5-0.1,0.8-0.5,0.8-1v-3.7
		c-0.1-0.9,0.7-1.7,1.6-1.7s1.7,0.8,1.7,1.7v3.8c0,0.5,0.4,0.9,0.8,1c2.4,0.4,4.7,1.3,6.7,2.8c0.4,0.3,0.9,0.2,1.3-0.1l2.7-2.7
		c0.6-0.6,1.7-0.6,2.4,0c0.3,0.3,0.4,0.7,0.4,1.1c0,0.4-0.2,0.9-0.5,1.2l-2.7,2.7c-0.3,0.3-0.4,0.9-0.1,1.3c1.4,2,2.4,4.3,2.8,6.7
		c0.1,0.5,0.5,0.8,1,0.8h3.8c0.9,0,1.7,0.8,1.7,1.7S31.7,55.4,30.8,55.4z"/>
	<path d="M-101,50h-2.9c-0.5-2.1-1.3-4.2-2.5-6l2.1-2.1c0.7-0.7,1.1-1.6,1.1-2.6s-0.4-1.9-1.1-2.6c-1.4-1.4-3.8-1.4-5.2,0l-2.1,2.1
		c-1.8-1.2-3.9-2-6-2.5v-2.9c0-2.1-1.7-3.7-3.7-3.7s-3.7,1.6-3.7,3.7v2.9c-2.1,0.5-4.2,1.3-6,2.5l-2.1-2.1c-1.4-1.4-3.8-1.4-5.2,0
		c-0.7,0.7-1,1.6-1,2.6s0.4,1.9,1.1,2.6l2.1,2.1c-1.2,1.8-2,3.9-2.5,6h-3c-2.1,0-3.7,1.7-3.7,3.7s1.6,3.7,3.7,3.7h2.9
		c0.5,2.1,1.3,4.2,2.5,6l-2.1,2.1c-0.7,0.7-1,1.6-1,2.6s0.3,1.9,1,2.6c1.4,1.4,3.8,1.4,5.2,0l2.1-2.1c1.8,1.2,3.9,2,6,2.5V74
		c0,2,1.6,3.7,3.7,3.7c2.1,0,3.7-1.6,3.7-3.7v-2.9c2.1-0.5,4.2-1.3,6-2.5l2.1,2.1c1.4,1.4,3.8,1.4,5.2,0c0.7-0.7,1.1-1.6,1.1-2.6
		s-0.4-1.9-1.1-2.6l-2.1-2.1c1.2-1.8,2-3.9,2.5-6h2.9c2,0,3.7-1.6,3.7-3.7C-97.3,51.6-98.9,50-101,50z M-101,55.4h-3.8
		c-0.5,0-0.9,0.4-1,0.8c-0.4,2.4-1.3,4.7-2.8,6.7c-0.3,0.4-0.2,0.9,0.1,1.3l2.7,2.7c0.3,0.3,0.5,0.7,0.5,1.2c0,0.4-0.2,0.9-0.5,1.2
		c-0.6,0.6-1.7,0.6-2.4,0l-2.7-2.7c-0.3-0.3-0.9-0.4-1.3-0.1c-2,1.4-4.3,2.4-6.7,2.8c-0.5,0.1-0.8,0.5-0.8,1v3.8
		c0,0.9-0.8,1.7-1.7,1.7s-1.7-0.8-1.7-1.7v-3.8c0-0.5-0.4-0.9-0.8-1c-2.4-0.4-4.7-1.3-6.7-2.8c-0.2-0.1-0.4-0.2-0.6-0.2
		c-0.3,0-0.5,0.1-0.7,0.3l-2.7,2.7c-0.6,0.6-1.7,0.6-2.4,0c-0.2-0.4-0.3-0.8-0.3-1.2s0.2-0.9,0.5-1.2l2.7-2.7
		c0.3-0.3,0.4-0.9,0.1-1.3c-1.4-2-2.4-4.3-2.8-6.7c-0.1-0.5-0.5-0.8-1-0.8h-3.8c-0.9,0-1.7-0.8-1.7-1.7c0-0.9,0.8-1.7,1.7-1.7h3.8
		c0.5,0,0.9-0.4,1-0.8c0.4-2.4,1.3-4.7,2.8-6.7c0.3-0.4,0.2-0.9-0.1-1.3l-2.7-2.7c-0.4-0.3-0.5-0.7-0.5-1.2s0.2-0.9,0.5-1.2
		c0.6-0.6,1.7-0.6,2.4,0l2.7,2.7c0.3,0.3,0.9,0.4,1.3,0.1c2-1.4,4.3-2.4,6.7-2.8c0.5-0.1,0.8-0.5,0.8-1v-3.7
		c-0.1-0.9,0.7-1.7,1.6-1.7c0.9,0,1.7,0.8,1.7,1.7v3.8c0,0.5,0.4,0.9,0.8,1c2.4,0.4,4.7,1.3,6.7,2.8c0.4,0.3,0.9,0.2,1.3-0.1
		l2.7-2.7c0.6-0.6,1.7-0.6,2.4,0c0.3,0.3,0.4,0.7,0.4,1.1c0,0.4-0.2,0.9-0.5,1.2l-2.7,2.7c-0.3,0.3-0.4,0.9-0.1,1.3
		c1.4,2,2.4,4.3,2.8,6.7c0.1,0.5,0.5,0.8,1,0.8h3.8c0.9,0,1.7,0.8,1.7,1.7S-100.1,55.4-101,55.4z"/>
</g>
</svg>
