<svg xmlns="http://www.w3.org/2000/svg" xmlns:xlink="http://www.w3.org/1999/xlink" version="1.1" x="0px" y="0px" viewBox="0 0 44 55" style="enable-background:new 0 0 44 44;" xml:space="preserve"><g><g><circle cx="13" cy="17" r="1"/><circle cx="19" cy="21" r="1"/><circle cx="17" cy="9" r="1"/><path d="M15,22c-2.2,0-4,1.8-4,4s1.8,4,4,4s4-1.8,4-4S17.2,22,15,22z M15,28c-1.1,0-2-0.9-2-2s0.9-2,2-2s2,0.9,2,2S16.1,28,15,28z    "/><path d="M13.1,13.4c0.2,0.4,0.5,0.6,0.9,0.6c0.2,0,0.3,0,0.4-0.1c0.5-0.2,0.7-0.8,0.4-1.3l-1-2c-0.2-0.5-0.8-0.7-1.3-0.4    c-0.5,0.2-0.7,0.8-0.4,1.3L13.1,13.4z"/><path d="M17.1,14.7l-1,3c-0.2,0.5,0.1,1.1,0.6,1.3c0.1,0,0.2,0.1,0.3,0.1c0.4,0,0.8-0.3,0.9-0.7l1-3c0.2-0.5-0.1-1.1-0.6-1.3    C17.8,13.9,17.2,14.2,17.1,14.7z"/><path d="M39,25c-0.6,0-1,0.4-1,1c0,2.2-1.8,4-4,4c-3.9,0-7,3.1-7,7c0,2.8-2.2,5-5,5s-5-2.2-5-5v-0.1c0.9-0.1,1.8-0.3,2.6-0.7    l1,1.8c0.2,0.3,0.5,0.5,0.9,0.5c0.2,0,0.3,0,0.5-0.1c0.5-0.3,0.6-0.9,0.4-1.4l-1-1.8c0.7-0.5,1.4-1.2,1.9-1.9l1.8,1    c0.2,0.1,0.3,0.1,0.5,0.1c0.3,0,0.7-0.2,0.9-0.5c0.3-0.5,0.1-1.1-0.4-1.4l-1.8-1c0.4-0.9,0.6-1.9,0.7-2.9l2.4-0.8    c0.5-0.2,0.8-0.7,0.6-1.3c-0.2-0.5-0.7-0.8-1.3-0.6L25,26.6V24h2c0.6,0,1-0.4,1-1s-0.4-1-1-1h-2v-4.3l2.3-0.8    c0.5-0.2,0.8-0.7,0.6-1.3c-0.2-0.5-0.7-0.8-1.3-0.6L25,15.6V13h2c0.6,0,1-0.4,1-1s-0.4-1-1-1h-2.1c-0.1-0.9-0.3-1.8-0.7-2.6l1.8-1    c0.5-0.3,0.6-0.9,0.4-1.4c-0.3-0.5-0.9-0.6-1.4-0.4l-1.8,1c-0.5-0.7-1.2-1.4-1.9-1.9l1-1.8c0.3-0.5,0.1-1.1-0.4-1.4    c-0.5-0.3-1.1-0.1-1.4,0.4l-1,1.8c-0.8-0.4-1.7-0.6-2.6-0.7V1c0-0.6-0.4-1-1-1s-1,0.4-1,1v2.1c-1,0.1-1.9,0.4-2.8,0.8l-2-2.1    c-0.4-0.4-1-0.4-1.4,0c-0.4,0.4-0.4,1,0,1.4l1.7,1.8C9.8,5.4,9.3,6,8.8,6.7L7,5.6C6.5,5.4,5.9,5.5,5.6,6C5.3,6.5,5.5,7.1,6,7.4    l1.8,1C7.4,9.2,7.2,10.1,7.1,11H5c-0.6,0-1,0.4-1,1s0.4,1,1,1h2v3.3l-2.3,0.8c-0.5,0.2-0.8,0.7-0.6,1.3C4.2,18.7,4.6,19,5,19    c0.1,0,0.2,0,0.3-0.1L7,18.4V22H5c-0.6,0-1,0.4-1,1s0.4,1,1,1h2v2.6l-1.7-0.6c-0.5-0.2-1.1,0.1-1.3,0.6c-0.2,0.5,0.1,1.1,0.6,1.3    L7,28.7c0.1,1,0.3,2,0.7,2.9l-1.8,1c-0.5,0.3-0.6,0.9-0.4,1.4c0.2,0.3,0.5,0.5,0.9,0.5c0.2,0,0.3,0,0.5-0.1l1.8-1    c0.6,0.8,1.2,1.4,2,2l-1.2,2.8c-0.2,0.5,0,1.1,0.5,1.3c0.1,0.1,0.3,0.1,0.4,0.1c0.4,0,0.8-0.2,0.9-0.6l1.1-2.6    c0.8,0.3,1.6,0.5,2.5,0.6V37c0,3.9,3.1,7,7,7s7-3.1,7-7c0-2.8,2.2-5,5-5c3.3,0,6-2.7,6-6C40,25.4,39.6,25,39,25z M9,28V12    c0-3.9,3.1-7,7-7s7,3.1,7,7v16c0,3.9-3.1,7-7,7S9,31.9,9,28z"/></g></g><text x="0" y="59" fill="#000000" font-size="5px" font-weight="bold" font-family="'Helvetica Neue', Helvetica, Arial-Unicode, Arial, Sans-serif">Created by Dmitry Mirolyubov</text><text x="0" y="64" fill="#000000" font-size="5px" font-weight="bold" font-family="'Helvetica Neue', Helvetica, Arial-Unicode, Arial, Sans-serif">from the Noun Project</text></svg>