<?xml version="1.0" encoding="utf-8"?>
<!-- Generator: Adobe Illustrator 19.0.0, SVG Export Plug-In . SVG Version: 6.00 Build 0)  -->
<svg version="1.1" id="Layer_1" xmlns="http://www.w3.org/2000/svg" xmlns:xlink="http://www.w3.org/1999/xlink" x="0px" y="0px"
	 viewBox="-27 1.6 100 100.7" style="enable-background:new -27 1.6 100 100.7;" xml:space="preserve">
<style type="text/css">
	.st0{fill:#3958A7;}
</style>
<path class="st0" d="M23,4.7c-0.5,0-1,0-1.5,0l-0.1-1.5C1.2,4.9-13.2,14.5-21.4,31.6l0,0l-3.2-0.9l2,8c-1.2,4.1-1.8,8.4-1.8,12.9
	c0,25.9,21.2,46.9,47.4,46.9c26.1,0,47.4-21,47.4-46.9S49.1,4.7,23,4.7z M-4.3,13.1l2,0.3v0l-1.3-1.6l0.8-0.5l0.8,1.9h0l0.8-1.9
	l0.8,0.5l-1.3,1.7v0l2-0.3V14l-2-0.3v0l1.3,1.6l-0.8,0.5L-2,14h0l-0.9,1.9l-0.8-0.5l1.3-1.6v0l-2,0.3L-4.3,13.1L-4.3,13.1z
	 M-15.6,33.3C-8.3,18.5,4.2,10.5,21.9,8.9l-0.1-1c0.4,0,0.8,0,1.2,0c24.3,0,44.1,19.6,44.1,43.7S47.3,95.3,23,95.3
	s-44.1-19.6-44.1-43.7c0-3.9,0.5-7.6,1.5-11.2l6.9-6.3C-12.7,34.1-15.2,33.4-15.6,33.3z M23,97.6c-25.6,0-46.5-20.6-46.5-46
	c0-3.8,0.5-7.5,1.4-11.1l0.4,1.7l0.8-0.7c-0.8,3.2-1.2,6.6-1.2,10.1c0,24.6,20.2,44.6,45,44.6s45-20,45-44.6S47.8,7,23,7
	c-0.4,0-0.9,0-1.3,0l-0.1-1.4c0.5,0,1,0,1.4,0c25.6,0,46.5,20.6,46.5,46S48.6,97.6,23,97.6z"/>
</svg>
