<?xml version="1.0" encoding="utf-8"?>
<!-- Generator: Adobe Illustrator 19.0.0, SVG Export Plug-In . SVG Version: 6.00 Build 0)  -->
<svg version="1.1" id="Layer_1" xmlns="http://www.w3.org/2000/svg" xmlns:xlink="http://www.w3.org/1999/xlink" x="0px" y="0px"
	 viewBox="-55 36.6 44 46.5" style="enable-background:new -55 36.6 44 46.5;" xml:space="preserve">
<style type="text/css">
	.st0{fill:#3E60AC;}
</style>
<path class="st0" d="M-15.7,62.6c-0.6,0-1,0.4-1,1c0,2.2-1.8,4-4,4c-3.9,0-7,3.1-7,7c0,2.8-2.2,5-5,5s-5-2.2-5-5v-0.1
	c0.9-0.1,1.8-0.3,2.6-0.7l1,1.8c0.2,0.3,0.5,0.5,0.9,0.5c0.2,0,0.3,0,0.5-0.1c0.5-0.3,0.6-0.9,0.4-1.4l-1-1.8
	c0.7-0.5,1.4-1.2,1.9-1.9l1.8,1c0.2,0.1,0.3,0.1,0.5,0.1c0.3,0,0.7-0.2,0.9-0.5c0.3-0.5,0.1-1.1-0.4-1.4l-1.8-1
	c0.4-0.9,0.6-1.9,0.7-2.9l2.4-0.8c0.5-0.2,0.8-0.7,0.6-1.3c-0.2-0.5-0.7-0.8-1.3-0.6l-1.7,0.7v-2.6h2c0.6,0,1-0.4,1-1
	c0-0.6-0.4-1-1-1h-2v-4.3l2.3-0.8c0.5-0.2,0.8-0.7,0.6-1.3c-0.2-0.5-0.7-0.8-1.3-0.6l-1.6,0.6v-2.6h2c0.6,0,1-0.4,1-1
	c0-0.6-0.4-1-1-1h-2.1c-0.1-0.9-0.3-1.8-0.7-2.6l1.8-1c0.5-0.3,0.6-0.9,0.4-1.4c-0.3-0.5-0.9-0.6-1.4-0.4l-1.8,1
	c-0.5-0.7-1.2-1.4-1.9-1.9l1-1.8c0.3-0.5,0.1-1.1-0.4-1.4c-0.5-0.3-1.1-0.1-1.4,0.4l-1,1.8c-0.8-0.4-1.7-0.6-2.6-0.7v-2
	c0-0.6-0.4-1-1-1c-0.6,0-1,0.4-1,1v2.1c-1,0.1-1.9,0.4-2.8,0.8l-2-2.1c-0.4-0.4-1-0.4-1.4,0c-0.4,0.4-0.4,1,0,1.4l1.7,1.8
	c-0.6,0.4-1.1,1-1.6,1.7l-1.8-1.1c-0.5-0.2-1.1-0.1-1.4,0.4c-0.3,0.5-0.1,1.1,0.4,1.4l1.8,1c-0.4,0.8-0.6,1.7-0.7,2.6h-2.1
	c-0.6,0-1,0.4-1,1c0,0.6,0.4,1,1,1h2v3.3l-2.3,0.8c-0.5,0.2-0.8,0.7-0.6,1.3c0.1,0.3,0.5,0.6,0.9,0.6c0.1,0,0.2,0,0.3-0.1l1.7-0.5
	v3.6h-2c-0.6,0-1,0.4-1,1c0,0.6,0.4,1,1,1h2v2.6l-1.7-0.6c-0.5-0.2-1.1,0.1-1.3,0.6s0.1,1.1,0.6,1.3l2.4,0.8c0.1,1,0.3,2,0.7,2.9
	l-1.8,1c-0.5,0.3-0.6,0.9-0.4,1.4c0.2,0.3,0.5,0.5,0.9,0.5c0.2,0,0.3,0,0.5-0.1l1.8-1c0.6,0.8,1.2,1.4,2,2l-1.2,2.8
	c-0.2,0.5,0,1.1,0.5,1.3c0.1,0.1,0.3,0.1,0.4,0.1c0.4,0,0.8-0.2,0.9-0.6l1.1-2.6c0.8,0.3,1.6,0.5,2.5,0.6l0,0c0,3.9,3.1,7,7,7
	s7-3.1,7-7c0-2.8,2.2-5,5-5c3.3,0,6-2.7,6-6C-14.7,63-15.1,62.6-15.7,62.6z M-45.7,65.6v-16c0-3.9,3.1-7,7-7s7,3.1,7,7v16
	c0,3.9-3.1,7-7,7S-45.7,69.5-45.7,65.6z"/>
<ellipse class="st0" cx="-42.6" cy="52.8" rx="1.6" ry="1.7"/>
<ellipse class="st0" cx="-34.8" cy="52.8" rx="1.6" ry="1.7"/>
<path class="st0" d="M-43.3,57c-0.4,0-0.6,0.3-0.6,0.7c0,0.1,0,0.3,0.1,0.4c1.1,1.6,3,2.6,5.1,2.6c2.1,0,4-1,5.1-2.6
	c0.2-0.3,0.1-0.7-0.1-0.9c-0.3-0.2-0.7-0.1-0.9,0.2l0,0c-0.9,1.2-2.4,2.1-4,2.1c-1.7,0-3.2-0.8-4-2.1C-42.9,57.1-43.1,57-43.3,57z"
	/>
</svg>
