<svg xmlns:dc="http://purl.org/dc/elements/1.1/" xmlns:cc="http://creativecommons.org/ns#" xmlns:rdf="http://www.w3.org/1999/02/22-rdf-syntax-ns#" xmlns:svg="http://www.w3.org/2000/svg" xmlns="http://www.w3.org/2000/svg" xmlns:sodipodi="http://sodipodi.sourceforge.net/DTD/sodipodi-0.dtd" xmlns:inkscape="http://www.inkscape.org/namespaces/inkscape" version="1.1" x="0px" y="0px" viewBox="0 0 100 125"><g transform="translate(0,-952.36218)"><path style="text-indent:0;text-transform:none;direction:ltr;block-progression:tb;baseline-shift:baseline;color:#000000;enable-background:accumulate;" d="m 49.999997,970.3622 c -17.64936,0 -32,14.35067 -32,32 0,17.6494 14.35064,32 32,32 17.649351,0 32.000005,-14.3506 32.000005,-32 0,-17.64934 -14.350654,-32 -32.000005,-32 z m 0,4 c 15.487571,0 28.000001,12.51244 28.000001,28 0,15.4877 -12.51243,28 -28.000001,28 -15.48758,0 -28,-12.5123 -28,-28 0,-15.48756 12.51242,-28 28,-28 z m -12,13 c -2.7615,0 -5,2.23857 -5,4.99996 0,2.7615 2.2385,5 5,5 2.7615,0 5,-2.2385 5,-5 0,-2.76139 -2.2385,-4.99996 -5,-4.99996 z m 24,0 c -2.7615,0 -5,2.23857 -5,4.99996 0,2.7615 2.2385,5 5,5 2.7615,0 5.000001,-2.2385 5.000001,-5 0,-2.76139 -2.238501,-4.99996 -5.000001,-4.99996 z m -26.09375,21.9688 a 2.0002,2.0002 0 0 0 -1.53125,3.1875 c 3.45997,4.7443 9.18994,7.8437 15.625,7.8437 6.43506,0 12.16503,-3.0994 15.625001,-7.8437 a 2.003491,2.003491 0 1 0 -3.250001,-2.3438 c -2.70883,3.7144 -7.214259,6.1875 -12.375,6.1875 -5.16074,0 -9.66617,-2.4731 -12.375,-6.1875 a 2.0002,2.0002 0 0 0 -1.71875,-0.8437 z" fill="#000000" fill-opacity="1" stroke="none" marker="none" visibility="visible" display="inline" overflow="visible"/></g><text x="0" y="115" fill="#000000" font-size="5px" font-weight="bold" font-family="'Helvetica Neue', Helvetica, Arial-Unicode, Arial, Sans-serif">Created by Barracuda</text><text x="0" y="120" fill="#000000" font-size="5px" font-weight="bold" font-family="'Helvetica Neue', Helvetica, Arial-Unicode, Arial, Sans-serif">from the Noun Project</text></svg>