<svg xmlns="http://www.w3.org/2000/svg" data-name="Layer 1" viewBox="0 0 100 125" x="0px" y="0px"><title>_</title><path d="M50,4A46,46,0,1,0,96,50,46.05,46.05,0,0,0,50,4Zm0,88A42,42,0,1,1,92,50,42,42,0,0,1,50,92ZM64.59,54.35l-6.41-6.41,6.41-6.41a2,2,0,1,1,2.83,2.83l-3.59,3.59,3.59,3.59A2,2,0,0,1,64.59,54.35Zm-32-2.83,3.59-3.59-3.59-3.59a2,2,0,0,1,2.83-2.83l6.41,6.41-6.41,6.41A2,2,0,0,1,32.59,51.52ZM74.69,74.7a2,2,0,0,1-2.75.66l-8.42-5.18L50,78.69,36.49,70.18l-8.42,5.18A2,2,0,0,1,26,72l10.54-6.49L50,74l13.49-8.49L74,72A2,2,0,0,1,74.69,74.7Z"/><text x="0" y="115" fill="#000000" font-size="5px" font-weight="bold" font-family="'Helvetica Neue', Helvetica, Arial-Unicode, Arial, Sans-serif">Created by pxLens</text><text x="0" y="120" fill="#000000" font-size="5px" font-weight="bold" font-family="'Helvetica Neue', Helvetica, Arial-Unicode, Arial, Sans-serif">from the Noun Project</text></svg>