<?xml version="1.0" encoding="utf-8"?>
<!-- Generator: Adobe Illustrator 19.0.0, SVG Export Plug-In . SVG Version: 6.00 Build 0)  -->
<svg version="1.1" id="Layer_1" xmlns="http://www.w3.org/2000/svg" xmlns:xlink="http://www.w3.org/1999/xlink" x="0px" y="0px"
	 viewBox="-14 10.6 74.4 78.9" style="enable-background:new -14 10.6 74.4 78.9;" xml:space="preserve">
<style type="text/css">
	.st0{display:none;}
	.st1{display:inline;fill:none;stroke:#000000;stroke-width:4;stroke-linecap:round;stroke-linejoin:round;stroke-miterlimit:10;}
</style>
<g class="st0">
	<polygon class="st1" points="5,22.7 23,12.6 41,22.7 41,43 23,53.1 5,43 	"/>
	<line class="st1" x1="23" y1="76.6" x2="23" y2="52.6"/>
	<line class="st1" x1="12.9" y1="81.5" x2="19" y2="87.6"/>
	<polyline class="st1" points="58.4,71.5 43.6,56.7 22.8,75.8 	"/>
	<polyline class="st1" points="-12,71.5 2.8,56.7 21.7,73.9 	"/>
	<polyline class="st1" points="-1,83.6 3,69.6 23,78.1 43,69.6 47,83.6 	"/>
	<line class="st1" x1="23" y1="77.6" x2="13.9" y2="81.6"/>
	<line class="st1" x1="33" y1="81.5" x2="26.9" y2="87.6"/>
	<line class="st1" x1="22.9" y1="77.6" x2="32.1" y2="81.6"/>
	<line class="st1" x1="13" y1="27.6" x2="23" y2="21.6"/>
	<line class="st1" x1="13" y1="35.6" x2="30" y2="25.6"/>
</g>
<g>
	<g>
		<path d="M59.8,70.1L45,55.3c-0.8-0.8-2-0.8-2.8-0.1L25,71.1V54.3l17-9.6c0.6-0.4,1-1,1-1.7V22.7c0-0.7-0.4-1.4-1-1.7L24,10.9
			c-0.6-0.3-1.4-0.3-2,0L4,21c-0.6,0.4-1,1-1,1.7V43c0,0.7,0.4,1.4,1,1.7l17,9.6v16.3L4.2,55.2c-0.8-0.7-2-0.7-2.8,0.1l-14.8,14.8
			c-0.8,0.8-0.8,2,0,2.8s2,0.8,2.8,0L2.9,59.4l16.3,14.8L3.8,67.7c-0.5-0.2-1.1-0.2-1.6,0S1.3,68.4,1.1,69l-4,14
			c-0.3,1.1,0.3,2.2,1.4,2.5s2.2-0.3,2.5-1.4l3.4-11.8l13.1,5.5l-4.1,1.8c-0.7-0.2-1.4,0-1.9,0.5c-0.8,0.8-0.8,2,0,2.8l6.1,6.1
			c0.4,0.4,0.9,0.6,1.4,0.6s1-0.2,1.4-0.6c0.8-0.8,0.8-2,0-2.8l-3.7-3.7l5.7-2.5c0.3,0.1,0.7,0.1,1,0l5.7,2.5l-3.7,3.7
			c-0.8,0.8-0.8,2,0,2.8c0.4,0.4,0.9,0.6,1.4,0.6s1-0.2,1.4-0.6l6.1-6.1c0.8-0.8,0.8-2,0-2.8c-0.5-0.5-1.3-0.7-1.9-0.5l-3.9-1.7
			l13.1-5.6L45,84.1c0.3,0.9,1.1,1.5,1.9,1.5c0.2,0,0.4,0,0.6-0.1c1.1-0.3,1.7-1.4,1.4-2.5l-4-14c-0.2-0.6-0.5-1-1.1-1.3
			c-0.5-0.2-1.1-0.3-1.6,0l-14.3,6.1l15.6-14.4L57,72.9c0.8,0.8,2,0.8,2.8,0S60.6,70.9,59.8,70.1z M7,23.9l16-9l16,9v17.9l-15.7,8.8
			c-0.1,0-0.2,0-0.3,0s-0.2,0-0.3,0L7,41.8V23.9z"/>
		<path d="M13,29.6c0.4,0,0.7-0.1,1-0.3l10-6c0.9-0.6,1.3-1.8,0.7-2.7s-1.8-1.3-2.7-0.7l-10,6c-0.9,0.6-1.3,1.8-0.7,2.7
			C11.7,29.3,12.3,29.6,13,29.6z"/>
		<path d="M31,27.3c1-0.6,1.3-1.8,0.7-2.7c-0.6-1-1.8-1.3-2.7-0.7l-17,10c-1,0.6-1.3,1.8-0.7,2.7c0.4,0.6,1,1,1.7,1
			c0.3,0,0.7-0.1,1-0.3L31,27.3z"/>
	</g>
</g>
</svg>
