<?xml version="1.0" encoding="utf-8"?>
<!-- Generator: Adobe Illustrator 19.0.0, SVG Export Plug-In . SVG Version: 6.00 Build 0)  -->
<svg version="1.1" id="Layer_1" xmlns="http://www.w3.org/2000/svg" xmlns:xlink="http://www.w3.org/1999/xlink" x="0px" y="0px"
	 viewBox="-152.7 25.4 47.6 48" style="enable-background:new -152.7 25.4 47.6 48;" xml:space="preserve">
<style type="text/css">
	.st0{fill:#0D101C;}
</style>
<path class="st0" d="M-108.9,45.7h-2.9c-0.5-2.1-1.3-4.2-2.5-6l2.1-2.1c0.7-0.7,1.1-1.6,1.1-2.6s-0.4-1.9-1.1-2.6
	c-1.4-1.4-3.8-1.4-5.2,0l-2.1,2.1c-1.8-1.2-3.9-2-6-2.5v-2.9c0-2.1-1.7-3.7-3.7-3.7s-3.7,1.6-3.7,3.7V32c-2.1,0.5-4.2,1.3-6,2.5
	l-2.1-2.1c-1.4-1.4-3.8-1.4-5.2,0c-0.7,0.7-1,1.6-1,2.6s0.4,1.9,1.1,2.6l2.1,2.1c-1.2,1.8-2,3.9-2.5,6h-3c-2.1,0-3.7,1.7-3.7,3.7
	s1.6,3.7,3.7,3.7h2.9c0.5,2.1,1.3,4.2,2.5,6l-2.1,2.1c-0.7,0.7-1,1.6-1,2.6c0,1,0.3,1.9,1,2.6c1.4,1.4,3.8,1.4,5.2,0l2.1-2.1
	c1.8,1.2,3.9,2,6,2.5v2.9c0,2,1.6,3.7,3.7,3.7c2.1,0,3.7-1.6,3.7-3.7v-2.9c2.1-0.5,4.2-1.3,6-2.5l2.1,2.1c1.4,1.4,3.8,1.4,5.2,0
	c0.7-0.7,1.1-1.6,1.1-2.6c0-1-0.4-1.9-1.1-2.6l-2.1-2.1c1.2-1.8,2-3.9,2.5-6h2.9c2,0,3.7-1.6,3.7-3.7
	C-105.2,47.3-106.8,45.7-108.9,45.7z M-108.9,51.1h-3.8c-0.5,0-0.9,0.4-1,0.8c-0.4,2.4-1.3,4.7-2.8,6.7c-0.3,0.4-0.2,0.9,0.1,1.3
	l2.7,2.7c0.3,0.3,0.5,0.7,0.5,1.2c0,0.4-0.2,0.9-0.5,1.2c-0.6,0.6-1.7,0.6-2.4,0l-2.7-2.7c-0.3-0.3-0.9-0.4-1.3-0.1
	c-2,1.4-4.3,2.4-6.7,2.8c-0.5,0.1-0.8,0.5-0.8,1v3.8c0,0.9-0.8,1.7-1.7,1.7c-0.9,0-1.7-0.8-1.7-1.7V66c0-0.5-0.4-0.9-0.8-1
	c-2.4-0.4-4.7-1.3-6.7-2.8c-0.2-0.1-0.4-0.2-0.6-0.2c-0.3,0-0.5,0.1-0.7,0.3l-2.7,2.7c-0.6,0.6-1.7,0.6-2.4,0
	c-0.2-0.4-0.3-0.8-0.3-1.2c0-0.4,0.2-0.9,0.5-1.2l2.7-2.7c0.3-0.3,0.4-0.9,0.1-1.3c-1.4-2-2.4-4.3-2.8-6.7c-0.1-0.5-0.5-0.8-1-0.8
	h-3.8c-0.9,0-1.7-0.8-1.7-1.7c0-0.9,0.8-1.7,1.7-1.7h3.8c0.5,0,0.9-0.4,1-0.8c0.4-2.4,1.3-4.7,2.8-6.7c0.3-0.4,0.2-0.9-0.1-1.3
	l-2.7-2.7c-0.4-0.3-0.5-0.7-0.5-1.2s0.2-0.9,0.5-1.2c0.6-0.6,1.7-0.6,2.4,0l2.7,2.7c0.3,0.3,0.9,0.4,1.3,0.1c2-1.4,4.3-2.4,6.7-2.8
	c0.5-0.1,0.8-0.5,0.8-1v-3.7c-0.1-0.9,0.7-1.7,1.6-1.7c0.9,0,1.7,0.8,1.7,1.7v3.8c0,0.5,0.4,0.9,0.8,1c2.4,0.4,4.7,1.3,6.7,2.8
	c0.4,0.3,0.9,0.2,1.3-0.1l2.7-2.7c0.6-0.6,1.7-0.6,2.4,0c0.3,0.3,0.4,0.7,0.4,1.1c0,0.4-0.2,0.9-0.5,1.2l-2.7,2.7
	c-0.3,0.3-0.4,0.9-0.1,1.3c1.4,2,2.4,4.3,2.8,6.7c0.1,0.5,0.5,0.8,1,0.8h3.8c0.9,0,1.7,0.8,1.7,1.7S-108,51.1-108.9,51.1z"/>
<path class="st0" d="M-126.2,44.9l3.3-3l3.3,3c0.4,0.4,0.4,1,0,1.3s-1,0.4-1.4,0l-1.8-1.7l-1.8,1.7c-0.4,0.3-1.1,0.3-1.4-0.1
	C-126.5,45.8-126.5,45.2-126.2,44.9z"/>
<path class="st0" d="M-133.3,46.2l-1.8-1.7l-1.8,1.7c-0.4,0.4-1,0.4-1.4,0c-0.4-0.4-0.4-1,0-1.3l3.3-3l3.3,3c0.4,0.4,0.3,1-0.1,1.3
	C-132.3,46.5-132.9,46.5-133.3,46.2z"/>
<path class="st0" d="M-117.5,57.8c-0.3,0.5-0.8,0.6-1.3,0.3l-3.9-2.6l-6.3,4.3l-6.3-4.3l-3.9,2.6c-0.5,0.2-1,0-1.2-0.6
	c-0.2-0.4-0.1-0.9,0.3-1.2l4.9-3.3l6.3,4.3l6.3-4.3l4.9,3.3C-117.4,56.7-117.3,57.4-117.5,57.8z"/>
</svg>
