<?xml version="1.0" encoding="utf-8"?>
<!-- Generator: Adobe Illustrator 19.0.0, SVG Export Plug-In . SVG Version: 6.00 Build 0)  -->
<svg version="1.1" id="Layer_1" xmlns="http://www.w3.org/2000/svg" xmlns:xlink="http://www.w3.org/1999/xlink" x="0px" y="0px"
	 viewBox="-9 -16.4 48 48" style="enable-background:new -9 -16.4 48 48;" xml:space="preserve">
<style type="text/css">
	.st0{fill:#091115;}
</style>
<g>
	<path class="st0" d="M35.3,3.9h-2.9c-0.5-2.1-1.3-4.2-2.5-6L32-4.2c0.7-0.7,1.1-1.6,1.1-2.6S32.7-8.7,32-9.4
		c-1.4-1.4-3.8-1.4-5.2,0l-2.1,2.1c-1.8-1.2-3.9-2-6-2.5v-2.9c0-2.1-1.7-3.7-3.7-3.7s-3.7,1.6-3.7,3.7v2.9c-2.1,0.5-4.2,1.3-6,2.5
		L3.2-9.4c-1.4-1.4-3.8-1.4-5.2,0c-0.7,0.7-1,1.6-1,2.6s0.4,1.9,1.1,2.6l2.1,2.1c-1.2,1.8-2,3.9-2.5,6h-3C-7.4,3.9-9,5.6-9,7.6
		s1.6,3.7,3.7,3.7h2.9c0.5,2.1,1.3,4.2,2.5,6L-2,19.4C-2.7,20.1-3,21-3,22s0.3,1.9,1,2.6c1.4,1.4,3.8,1.4,5.2,0l2.1-2.1
		c1.8,1.2,3.9,2,6,2.5v2.9c0,2,1.6,3.7,3.7,3.7s3.7-1.6,3.7-3.7V25c2.1-0.5,4.2-1.3,6-2.5l2.1,2.1c1.4,1.4,3.8,1.4,5.2,0
		c0.7-0.7,1.1-1.6,1.1-2.6s-0.4-1.9-1.1-2.6l-2.1-2.1c1.2-1.8,2-3.9,2.5-6h2.9c2,0,3.7-1.6,3.7-3.7C39,5.5,37.4,3.9,35.3,3.9z
		 M35.3,9.3h-3.8c-0.5,0-0.9,0.4-1,0.8c-0.4,2.4-1.3,4.7-2.8,6.7c-0.3,0.4-0.2,0.9,0.1,1.3l2.7,2.7c0.3,0.3,0.5,0.7,0.5,1.2
		c0,0.4-0.2,0.9-0.5,1.2c-0.6,0.6-1.7,0.6-2.4,0l-2.7-2.7c-0.3-0.3-0.9-0.4-1.3-0.1c-2,1.4-4.3,2.4-6.7,2.8c-0.5,0.1-0.8,0.5-0.8,1
		V28c0,0.9-0.8,1.7-1.7,1.7s-1.7-0.8-1.7-1.7v-3.8c0-0.5-0.4-0.9-0.8-1c-2.4-0.4-4.7-1.3-6.7-2.8c-0.2-0.1-0.4-0.2-0.6-0.2
		c-0.3,0-0.5,0.1-0.7,0.3l-2.7,2.7c-0.6,0.6-1.7,0.6-2.4,0C-0.9,22.8-1,22.4-1,22c0-0.4,0.2-0.9,0.5-1.2l2.7-2.7
		c0.3-0.3,0.4-0.9,0.1-1.3c-1.4-2-2.4-4.3-2.8-6.7c-0.1-0.5-0.5-0.8-1-0.8h-3.8C-6.2,9.3-7,8.5-7,7.6s0.8-1.7,1.7-1.7h3.8
		c0.5,0,0.9-0.4,1-0.8c0.4-2.4,1.3-4.7,2.8-6.7C2.6-2,2.5-2.5,2.2-2.9l-2.7-2.7C-0.9-5.9-1-6.3-1-6.8S-0.8-7.7-0.5-8
		c0.6-0.6,1.7-0.6,2.4,0l2.7,2.7C4.9-5,5.5-4.9,5.9-5.2c2-1.4,4.3-2.4,6.7-2.8c0.5-0.1,0.8-0.5,0.8-1v-3.7c-0.1-0.9,0.7-1.7,1.6-1.7
		s1.7,0.8,1.7,1.7v3.8c0,0.5,0.4,0.9,0.8,1c2.4,0.4,4.7,1.3,6.7,2.8c0.4,0.3,0.9,0.2,1.3-0.1l2.7-2.7c0.6-0.6,1.7-0.6,2.4,0
		C30.9-7.6,31-7.2,31-6.8s-0.2,0.9-0.5,1.2l-2.7,2.7c-0.3,0.3-0.4,0.9-0.1,1.3c1.4,2,2.4,4.3,2.8,6.7c0.1,0.5,0.5,0.8,1,0.8h3.8
		c0.9,0,1.7,0.8,1.7,1.7S36.2,9.3,35.3,9.3z"/>
	<path class="st0" d="M11.5,9.7C9,9.7,7,11.7,7,14.2s2,4.5,4.5,4.5s4.5-2,4.5-4.5S14,9.7,11.5,9.7z M11.5,16.7
		c-1.4,0-2.5-1.1-2.5-2.5s1.1-2.5,2.5-2.5c1.4,0,2.5,1.1,2.5,2.5S12.9,16.7,11.5,16.7z"/>
	<path class="st0" d="M18.5,3.1c2.5,0,4.5-2,4.5-4.5s-2-4.5-4.5-4.5S14-3.9,14-1.4S16,3.1,18.5,3.1z M18.5-3.8
		c1.4,0,2.5,1.1,2.5,2.5s-1.1,2.5-2.5,2.5S16,0.1,16-1.3S17.1-3.8,18.5-3.8z"/>
	<path class="st0" d="M21.7,12.3c-0.4,0.4-0.4,1,0,1.4c1,1,1,2.5,0,3.5c-0.4,0.4-0.4,1,0,1.4c0.2,0.2,0.5,0.3,0.7,0.3
		c0.3,0,0.5-0.1,0.7-0.3c1.7-1.7,1.7-4.6,0-6.3C22.7,12,22,12,21.7,12.3z"/>
	<path class="st0" d="M14.5,4.9c-0.6,0-1,0.4-1,1s0.4,1,1,1C15.9,6.9,17,8,17,9.4c0,0.6,0.4,1,1,1s1-0.4,1-1C19,6.9,17,4.9,14.5,4.9
		z"/>
	<path class="st0" d="M10.4,0.3c0.2,0.2,0.5,0.3,0.7,0.3c0.3,0,0.5-0.1,0.7-0.3c0.4-0.4,0.4-1,0-1.4c-1.7-1.7-4.6-1.7-6.3,0
		c-0.4,0.4-0.4,1,0,1.4s1,0.4,1.4,0C7.9-0.7,9.4-0.7,10.4,0.3z"/>
	<path class="st0" d="M4.2,4.1C2.8,5.9,3.1,8.7,3.1,9c0.1,0.5,0.5,0.9,1,0.9h0.1c0.5-0.1,0.9-0.6,0.9-1.1C5,8.2,5,6.3,5.7,5.4
		C6,5,6,4.3,5.5,4C5.1,3.6,4.5,3.6,4.2,4.1z"/>
	<path class="st0" d="M25.1,3.3C24.7,3,24,3,23.7,3.5c-0.3,0.4-0.3,1.1,0.2,1.4c0.5,0.4,1.8,1.7,2,2.9c0.1,0.5,0.5,0.9,1,0.9H27
		c0.5-0.1,0.9-0.6,0.9-1.1C27.5,5.3,25.3,3.5,25.1,3.3z"/>
</g>
</svg>
