<?xml version="1.0" encoding="utf-8"?>
<!-- Generator: Adobe Illustrator 19.0.0, SVG Export Plug-In . SVG Version: 6.00 Build 0)  -->
<svg version="1.1" id="Layer_1" xmlns="http://www.w3.org/2000/svg" xmlns:xlink="http://www.w3.org/1999/xlink" x="0px" y="0px"
	 viewBox="-22.2 5 90 89.9" style="enable-background:new -22.2 5 90 89.9;" xml:space="preserve">
<g transform="translate(0.000000,1262.000000) scale(0.100000,-0.100000)">
	<path d="M230.4,12569.6c-20.6-1.9-35.9-7.6-41.5-15.6c-1.6-2.2-2.1-4.2-2.4-7.3c-0.6-8.2,3.8-13.8,14.8-18.9c4.7-2.1,5.8-3,6.5-5
		c1-2.8,6.7-29.7,6.4-30.1c-0.1-0.1-5-0.5-10.9-0.9c-28.3-2-57.8-7.3-84.4-15.5c-5.1-1.6-7.3-1.9-7.5-1.3
		c-0.7,1.9-5.5,26.3-5.9,30.2l-0.5,4.2l4.8,5c3,3,5.8,6.7,7.2,9.7c2,4.2,2.3,5.3,2,9.2c-0.4,6.1-2.9,9.6-8.5,12.5
		c-4.1,2-4.7,2.1-14.3,2.1c-8.4-0.1-11.1-0.4-17.2-2.1c-38.6-10.6-68-34.4-62.7-50.6c1.4-4.2,3.4-6.6,7.3-8.7
		c4.1-2.2,12.3-3.7,17.1-3l3.3,0.4l3.7-4.5c2.1-2.5,6.7-8.9,10.5-14.2l6.8-9.7l-7.9-4.1c-22.6-11.6-44.3-25.8-64-42
		c-4-3.3-8.2-6.7-9.3-7.6l-2.1-1.7l-5.1,8c-2.9,4.4-6.7,10.7-8.7,14l-3.5,6.1l2.8,6.5c9.1,21.4-1.7,35-22.3,27.8
		c-22.3-7.8-51.3-36.9-59.2-59.3c-3.5-10.2-1.8-19.1,4.7-23.1c5.8-3.6,12.2-3.6,22.1,0.4l4.8,1.9l5.3-3.2c4.1-2.4,22-14.1,23.4-15.2
		c0.1-0.1-2.1-3-5-6.4c-14.9-17.9-30.2-41-42.6-64.5l-5-9.5l-2.1,1.1c-4.2,2.2-23.4,13.9-26.7,16.4l-3.3,2.4l-0.9,7.2
		c-1,8.5-3.5,14.3-7.8,17.7c-2.6,2-3.4,2.2-8.1,2.2c-6.8,0-9.8-1.4-16.1-7.8c-18.9-18.7-33.1-64.4-26.6-85.3
		c3.1-10.1,11.1-14.6,20-11.4c4.7,1.6,9.5,5.3,13.6,10.5l3.8,4.8l5.5-0.4c5.6-0.4,29.8-3.4,30.2-3.7c0.1-0.1-0.5-2.1-1.3-4.5
		c-7-20.2-14.4-58.1-15.9-81.1c-0.7-10.3-1-11.9-2.4-11.9c-1.6,0-22.2,4.7-27.6,6.2c-3.9,1.2-4.2,1.4-5.1,4.4
		c-3.6,12.3-11.5,20.5-19.6,20.5c-4.6,0-7.8-1.5-11.5-5.3c-17.2-17.7-17.5-80.4-0.7-99.6c5.4-6.2,13.2-7.6,19.7-3.6
		c4.1,2.6,8.5,8.5,10.6,14.5l1.6,4.2l5.7,1.6c6.4,1.8,28.9,6.3,29.2,5.9c0.1-0.1,0.9-6.2,1.8-13.4c2.7-21.4,7.7-44.2,14.8-67.2
		c1-3.4,1.2-4.7,0.6-5c-1.3-0.4-23.4-3.1-30.2-3.7l-5.5-0.4l-2.1,3c-7.4,10.7-18.7,15.7-26.5,11.9c-7-3.4-10.2-10.8-10.1-24.2
		c0-24.2,14.5-60.3,29.6-73.9c6.7-6,14.9-8,20.6-5c5.8,3,8.7,8.5,10,19.1l0.8,7l4.4,3.2c5.2,3.6,28.5,17.7,28.8,17.3
		c0.1-0.1,2.4-4.4,5-9.5c11.2-21.4,25.3-42.6,41.8-62.8l6.1-7.6l-11.6-7.8c-6.4-4.2-13.4-8.6-15.4-9.6l-3.7-1.9l-4.8,1.9
		c-6.6,2.7-12.9,3.7-16.7,2.6c-13-3.6-15.1-17.5-5.2-35.2c10.9-19.6,35.6-42.3,53.3-49c21.4-8.1,33.1,5.3,23.7,27.3l-2.8,6.5
		l3.5,6.1c2.9,5,14,22.5,14.8,23.4c0.1,0.1,4.5-3.2,9.8-7.4c21.4-17.4,44.1-32.2,66.3-43.3c3.9-2,7.2-3.9,7.2-4.2
		c0-1.2-14.6-21.7-19.2-26.9l-2.4-2.7l-6.8-0.1c-8.5-0.2-13.5-1.9-17.4-5.6c-7.4-7.3-5.5-17.7,5.4-28.6
		c21.5-21.5,67.4-36.8,84.9-28.2c5.6,2.7,8.1,6.3,8.5,12.4c0.3,3.9,0,5-2.1,9.3c-1.6,3.1-4.1,6.7-7.1,9.6c-2.6,2.6-4.7,5.3-4.7,6.1
		c0,2.9,6.3,35.4,7,36.3c0.1,0.1,4.1-1,8.9-2.4c26.8-7.9,52.8-12.7,80.7-14.7c11.2-0.8,12.7-1,12.7-2.2c0-1.9-5-25.7-6.3-30.1
		c-1.1-3.9-1.2-3.9-7.2-6.7c-7.3-3.4-10.9-6.4-13.1-11c-2.3-4.7-1.8-10.8,1-15c10.6-15.4,57.4-21.1,88.4-10.8
		c6.7,2.2,10.7,4.6,14.5,8.2c3.5,3.5,4.8,6.6,4.8,11.1c0,8.4-6.9,15.2-19.6,19.5c-3.4,1.1-3.8,1.5-5,4.9c-1.1,3.3-5.8,23.5-6.9,30.1
		c-0.6,3.3-1.5,2.9,12.2,4.7c20.7,2.7,45.2,8.5,66.4,15.6c6.7,2.2,12.3,3.9,12.4,3.8c0.7-0.6,7-28.4,7.4-32.5
		c0.5-4.4,0.5-4.4-2.5-7.5c-6.9-7.1-10-15-8.3-21.3c1.3-4.7,5.8-9.1,11-10.7c19.3-5.7,61.2,9.6,81.5,30c11,11,13.2,21.5,5.9,28.8
		c-4.2,4.2-9,5.6-19.1,5.6c-8.1,0-8.3,0-10.6,2.2c-3.9,3.7-20.2,25.7-19.5,26.3c0.4,0.3,4,2.5,8.1,4.8c23,13.3,44.2,28.5,63.1,45.6
		c6.4,5.7,7.8,6.7,8.7,5.9c1.8-1.9,17.2-25.5,19.9-30.4l2.7-4.9l-1.8-4.2c-5.5-12.1-3.4-23.4,5.1-27.3c11.7-5.3,31.9,4.2,52.2,24.5
		c18.4,18.5,28.8,38.1,26,49.4c-3,11.9-16.1,15-31.4,7.2c-3.1-1.6-3.9-1.7-5.5-1c-3,1.3-12.9,7.5-24.7,15.1l-10.8,7.1l7.9,10.5
		c13.3,17.6,23.6,34,33.9,53.7c5.3,10.1,5.6,10.5,7.1,9.7c4.9-2.6,24.5-14.6,28.3-17.3l4.5-3.2l0.4-6.2c0.4-7.9,2.7-13.8,6.4-17.1
		c14.3-13,35.1,6.2,47.8,44.1c8.3,24.8,8.2,45.2-0.1,53.4c-3.4,3.3-5.8,4.3-10.4,4.3c-6.4-0.1-13.5-4.5-19.1-11.9l-2.9-3.8l-7.8,0.4
		c-7.5,0.4-29.6,3.3-30.2,3.9c-0.1,0.1,0.7,3.7,2,7.9c5.8,19.1,10.4,41.2,12.9,61c0.9,7.3,1.7,13.5,1.8,13.6
		c0.4,0.6,31.7-6.5,35.9-8.2c1.5-0.6,2.3-1.8,3.3-4.7c4.1-12.4,11.5-19.8,20-19.7c7.8,0.1,15.9,9.5,19.7,23
		c3,10.7,3.8,17.2,3.8,32.6c0,15.3-0.7,21.7-3.8,32.6c-3.8,13.7-12.1,23-20.5,23c-6.1,0-12.8-5.4-16.6-13.7c-1.3-2.9-2.7-5.7-3-6.3
		c-0.7-1.6-7.2-3.3-23.5-6.6c-9.5-1.9-14-2.5-14.3-2c-0.3,0.4-0.6,2.6-0.6,4.7c-0.1,17-6.2,53.4-13.4,78.7
		c-1.6,5.8-2.8,10.7-2.7,10.9c0.6,0.7,21.3,3.3,29,3.7l8.1,0.4l2.8-3.7c7.3-9.8,17.5-14.2,25.1-11c3.4,1.5,7.5,6.4,9.1,11
		c1.9,5.4,1.9,20.7,0,29.5c-7.3,34.2-25,62.1-40.7,64.3c-9.9,1.4-17.1-7-18-21.1l-0.4-6.2l-4.5-3.2c-4.3-3.1-28-17.5-28.8-17.5
		c-0.1,0-2.5,4.4-5.3,9.7c-10,19.6-21.8,38.8-34.8,55.8c-3.9,5.2-7.1,9.6-7,9.7c1,1,26.8,17.3,30.6,19.4l4.7,2.6l6.4-2.8
		c15-6.4,26.3-3.3,29.1,8.1c2.8,11.3-7.2,30.5-25.2,48.7c-17,17.1-33.1,26.7-45.1,26.7c-8.4,0-13.6-3.8-15.6-11.3
		c-1.2-4.4-0.1-11.2,2.6-17.3l1.9-4.2l-2.7-4.8c-2-3.6-17.7-27.9-19.2-29.7c-0.1-0.1-3.3,2.5-7.1,5.9
		c-20.4,18.5-47.1,37.7-68.4,49.2c-2.1,1.1-3.9,2.3-3.9,2.6c0,0.7,14.3,19.6,17.6,23.4l2.7,3h8.5c10.4,0.1,15.1,1.4,19.3,5.6
		c7.3,7.3,5.1,17.8-5.9,28.8c-20.4,20.4-62.1,35.7-81.5,29.9c-5.2-1.6-9.8-6-11-10.7c-1.7-6.2,1.4-14.2,8.3-21.3
		c3-3.1,3-3.1,2.5-7.4c-0.4-3.6-6.2-29.9-6.7-30.5c-0.1-0.1-3.4,1-7.5,2.5c-20,7.3-52.1,15-74.3,17.9l-10.1,1.3l2.1,9.7
		c2.4,11.6,5,21.7,5.8,23.4c0.4,0.7,2.1,1.6,3.8,2.2c12.1,3.6,19.8,11.3,19.8,19.6c0,8.8-6.6,15.2-20.5,19.7
		C264.2,12569,244.9,12570.9,230.4,12569.6z M251.5,12553.3c13.2-1.2,27.1-5.1,27.9-7.9c0.3-0.9-6.6-4.2-11.5-5.5
		c-1.8-0.4-4-1.3-4.8-1.9c-4.7-3-26.9-3.9-38.2-1.5c-3.4,0.7-7.4,1.9-8.8,2.7c-1.5,0.7-3,1.4-3.3,1.4c-1.6,0-9.3,4-9.1,4.7
		c1.2,3.6,20.3,8.1,36,8.5C241.5,12553.9,246.9,12553.6,251.5,12553.3z M101.8,12529.8c-2-3.2-13.6-14.2-17.7-16.9
		c-5.9-3.9-14-7.7-21.3-10.1c-9.8-3.3-30.1-4.6-30.1-2c0,1.5,8.9,9.6,15.1,13.6c15.8,10.3,35.3,17.2,49.2,17.3l6.1,0.1
		L101.8,12529.8z M237.5,12525.4c4.7-0.2,10.9-0.1,13.9,0.2c4.7,0.6,5.3,0.6,5-0.4c-1.2-3.9-3.1-12.2-5.3-21.9l-2.4-11.1l-8.8,0.3
		c-4.8,0.1-8.9,0.3-8.9,0.4c0,0-1.5,6.8-3.1,15c-1.7,8.2-3.4,15.9-3.8,17c-0.7,2-0.7,2,2,1.5
		C227.7,12526,232.8,12525.6,237.5,12525.4z M385.2,12522.4c11.2-2.3,26.1-8.7,37.9-16.4c6.1-4,15.5-12.6,15.5-14.2
		c0-1.4-3.4-1.7-10.1-1c-3.5,0.4-7.7,0.8-9.1,0.8c-7.6,0.1-24.8,7.4-34.6,14.8c-4,3-15.7,15.3-15.7,16.5
		C369.1,12524,379,12523.7,385.2,12522.4z M89.6,12502.3c0-1.1,1.4-8.7,3-16.9c1.7-8.2,3.1-15.3,3.2-15.9c0-0.6-2.9-2.2-7.7-4.2
		c-4.3-1.8-7.8-3.3-7.8-3.3c-0.1,0-4,5.4-8.7,12.1c-4.7,6.6-9.5,13.2-10.6,14.6l-2.1,2.5l7.1,2.3c7.3,2.4,16.6,6.5,20.4,9.1
		C89.2,12504.7,89.6,12504.7,89.6,12502.3z M383.4,12495.5c4.4-3,14-7.7,20.6-10.1l5.7-2l-6.1-7.5c-3.3-4.2-8.1-10.5-10.7-14.1
		c-2.6-3.6-5-6.4-5.3-6.3c-0.7,0.3-15.1,6.7-15.4,6.9c-0.1,0.1,1.2,5.6,2.8,12.3s3.3,14.6,3.8,17.6c0.4,2.9,1,5.3,1.2,5.3
		S381.7,12496.7,383.4,12495.5z M264.1,12458.1c36.8-4.5,67.8-13,100.6-27.7c94.9-42.3,165.1-126.8,190-228.2
		c6.4-26.2,8.8-45.1,9.4-73.8c0.7-38.2-2.9-66.5-12.7-100.7c-14.3-49.4-39.1-94.4-73.6-133.1c-41.7-46.9-99.6-82.8-161.1-99.7
		c-77.3-21.4-158.5-14.8-231.6,18.9c-50.8,23.4-96.4,60.6-129.7,105.6c-36.8,49.7-59.2,108.8-65.1,171c-1.4,14.8-1.6,44.3-0.4,58.6
		c6.8,80.1,41.3,155,97.6,211.7c56.6,56.9,131.3,91.6,212.2,98.5C211.9,12460.1,252.3,12459.5,264.1,12458.1z M-45.7,12446.4
		c0-0.9-1.3-4.3-2.9-7.6c-1.6-3.3-3.5-7.4-4.4-9.3c-2.1-4.6-10.2-14.6-15.8-19.5c-5.5-4.9-14.3-10.8-16.8-11.4
		c-1-0.2-3.3-1.2-5.2-2.1c-1.8-1-4.6-2-6.1-2.4c-2.5-0.7-2.8-0.6-2.8,0.7c0,0.7,0.8,3.3,1.8,5.6c7.3,16.6,30.2,39.3,46.2,46
		C-46.6,12448.4-45.7,12448.4-45.7,12446.4z M524,12438.7c15.1-7.3,34.5-26.4,42.4-41.9c1.6-3,3-6.5,3.3-7.6
		c0.4-1.8,0.2-2.1-1.2-2.1c-0.9,0-4.3,1.3-7.6,2.9c-3.3,1.6-7.8,3.7-10,4.7c-8.9,4.2-24.3,20.1-28.8,29.8c-3.2,6.8-5.8,13.2-6.4,15
		C515.2,12442.1,517.6,12441.8,524,12438.7z M-46.3,12414c1.1-1.9,5.2-8.5,9.1-14.6l7.1-11l-6.3-6.3l-6.3-6.2l-12.4,8.2
		c-6.8,4.5-13.5,8.7-14.8,9.5l-2.3,1.3l4.5,3.5c4.7,3.6,18.3,17.4,18.3,18.6C-49.4,12418.5-48.2,12417.4-46.3,12414z M520.3,12409.5
		c1.5-2.1,6.4-7.3,11-11.7l8.4-8l-3.7-2.1c-3-1.6-18.3-11.5-30.5-19.5c-1.4-1-1.9-0.6-6.5,4.5l-5,5.5l9.5,14.3
		c5.3,7.9,10.4,15.7,11.3,17.4c1,1.8,2,3.2,2.3,3.2C517.4,12413.1,518.8,12411.5,520.3,12409.5z M-155.7,12309.9
		c1.3-11.6,0.1-23.3-3.5-34c-2.6-7.6-7.7-17.6-10.4-20.3c-1.3-1.2-3.8-4.3-5.8-6.8c-4.1-5.3-6.4-7.3-7.5-6.2
		c-1.1,1.1-0.7,14.5,0.7,21.1c2.7,13,9.1,29.2,15.6,39.5c3.1,4.7,8.3,10.5,9.5,10.5C-156.4,12313.8-155.9,12312.3-155.7,12309.9z
		 M617.7,12306.5c13.2-14.8,24.8-50.1,21.6-66l-0.4-2.3l-2.1,1.5c-1.1,0.7-3.5,3.3-5.3,5.7s-4.2,5.3-5.5,6.6
		c-5.2,5.2-11.8,21.4-14,33.8c-1.5,8.4-0.8,25.1,1,25.1C613.4,12310.8,615.5,12308.8,617.7,12306.5z M-140.4,12284.7
		c2.7-1.8,9.8-6.2,16-9.9l11.2-6.6l-1.1-2.7c-0.6-1.4-2-4.8-3-7.6c-1.3-3.1-2.4-5-3.1-5c-0.6,0-7.1,0.8-14.4,1.9
		c-7.3,1-14.7,1.9-16.4,1.9c-5.3,0-5.6,0.4-3.6,4.4c2.4,4.8,6.8,17.5,7.9,23c0.4,2.4,1,4.4,1.3,4.2
		C-145.4,12288.2-143.1,12286.5-140.4,12284.7z M603.3,12280c1.5-6.5,4.6-15.6,7-20.5c1.2-2.4,2.1-4.5,2.1-4.9s-2.7-0.9-6.1-1.2
		c-3.4-0.3-11.9-1.3-19-2.3s-13-1.8-13.1-1.6c-0.5,0.5-5.5,13.6-5.5,14.3c0,0.5,3.3,2.8,7.2,5.2c11.7,6.8,23.7,14.4,24.3,15.2
		C601.2,12285.8,602.3,12284.2,603.3,12280z M-194.8,12150.1c1-1.9,2.1-5,2.7-6.8c0.5-1.9,1.5-4.5,2.2-5.9
		c4.3-8.4,3.8-37.7-0.7-46.6c-0.7-1.5-1.9-4.3-2.6-6.4c-0.7-2-1.8-4.7-2.6-5.9l-1.4-2.1l-2,3.9c-6.1,12.2-8,37.8-4.1,57
		c1.7,8.5,4.8,16.4,6.4,16.4C-196.7,12153.7-195.8,12152.1-194.8,12150.1z M657.4,12145.3c7.1-18.1,7-50.3-0.3-66.9
		c-1-2.1-2.1-4-2.5-4.3c-1-0.7-3.2,3.6-5.2,10.2c-0.9,2.8-1.9,5.6-2.4,6.1c-1.4,1.7-2.8,12.4-2.9,21.5c0,9.9,1.6,20.8,3.6,24.8
		c0.7,1.4,1.8,3.9,2.3,5.6c0.5,1.6,1.6,4.2,2.4,5.8C654.2,12151.5,655.2,12150.9,657.4,12145.3z M-170.1,12128.5
		c3.1-0.8,9.7-2.3,14.6-3.3c4.9-1,9.6-2.1,10.6-2.3c1.6-0.4,1.6-0.7,1.6-9.2v-8.8l-8.7-1.6c-7.9-1.5-22.5-4.7-25.4-5.6
		c-1.1-0.3-1.1,0.1-0.5,3.2c0.9,4.3,1,24.1,0.3,27.6c-0.5,2.2-0.4,2.4,0.7,2.1C-176.3,12130.2-173.2,12129.3-170.1,12128.5z
		 M635.1,12125.7c-0.4-2.4-0.6-9.9-0.4-16.6l0.2-12.4l-1.8,0.7c-2,0.7-15.5,3.9-28.2,6.6l-8,1.6v8c0,7.7,0.1,8.1,1.7,8.5
		c0.9,0.2,7.6,1.6,14.9,3c7.3,1.4,15,3.1,17,3.6C636.1,12130.3,635.9,12130.5,635.1,12125.7z M639.7,11993.5
		c0.1-10.4-4.3-28.1-10.3-41.1c-5.4-11.8-15.4-25.1-16.9-22.7c-1.3,2.1-1.5,18.1-0.4,24.6c2.1,12.4,9,28.9,14,33.7
		c1.3,1.3,3.5,3.9,5.1,6.1c1.5,2.2,3.8,4.7,5.1,5.9l2.4,2l0.4-1.8C639.4,11999.2,639.6,11996.1,639.7,11993.5z M-178.8,11995.3
		c1.5-1.6,3.6-4.2,4.8-5.8c1.2-1.6,3.2-4,4.4-5.3c2.6-2.7,8.2-13.9,10.6-21.1c0.9-2.7,2.1-7.5,2.7-10.7c1.8-9.1,1.3-26.4-0.7-26.4
		c-1.3,0-6.4,5.8-9.5,10.5c-9.7,15.3-16.7,37.2-16.9,52.6C-183.5,11999-183,11999.7-178.8,11995.3z M587.2,11988.8
		c7.1-1,15.8-2.1,19.2-2.4l6.4-0.4l-2.4-5c-2.6-5.5-6.7-17.7-7.4-22.3c-0.3-1.6-0.7-3.1-1-3.3c-0.3-0.1-3.3,1.5-6.7,3.8
		c-3.4,2.2-11.1,7-17.1,10.5c-9.8,5.7-10.8,6.4-10.2,7.9c0.3,0.8,1.3,3.4,2.2,5.6c0.9,2.2,1.9,4.8,2.3,5.8c0.4,0.9,0.9,1.6,1.2,1.6
		C574.1,11990.6,580.1,11989.8,587.2,11988.8z M-112.3,11972.3c0-0.1-5.9-3.6-13.1-7.9c-7.2-4.3-14.8-9-16.9-10.4l-3.7-2.5l-2,7.9
		c-1,4.4-3.3,11-5,14.9c-1.6,3.9-3.1,7.3-3.2,7.8c-0.1,0.4,2.9,1,6.5,1.3c3.7,0.4,12.1,1.3,18.9,2.3l12.2,1.6l3.2-7.4
		C-113.7,11975.8-112.3,11972.4-112.3,11972.3z M513.9,11866.3c6-3.9,14.3-9.2,18.4-11.7l7.5-4.6l-5.7-5
		c-5.8-5.2-11.8-11.6-14.9-15.8c-0.9-1.3-1.8-2.4-2.1-2.4s-1.5,1.7-2.6,3.8c-1.2,2.1-6.3,9.9-11.3,17.4c-5.1,7.6-9.4,14.2-9.7,14.8
		c-0.2,0.7,1.5,3,4.3,5.9c2.5,2.7,4.7,4.8,4.9,4.8S507.9,11870.2,513.9,11866.3z M-35.9,11842.5c-3.6-5.6-7.9-12.4-9.5-15
		s-3-5-3.1-5.1c-0.1-0.2-0.8,0.4-1.5,1.5c-2.2,3.3-13.8,14.8-18.1,18.1l-4.2,3.2l5.7,3.3c3.1,1.9,10.1,6.3,15.3,10l9.6,6.6l6.2-6.1
		l6.2-6.2L-35.9,11842.5z M569.9,11851.1c-1-3.9-6.5-13.9-10.1-18.8c-6.3-8.5-18.8-20.3-27.4-26.2c-7.1-4.7-15.4-8.5-16.4-7.4
		c-1.1,1,6.2,17.5,10.4,23.3c7.2,10.1,20.3,21.9,26.5,24c1.4,0.4,5.1,2.2,8.2,3.8C567.6,11853.2,570.6,11853.6,569.9,11851.1z
		 M-91.7,11843.7c2.6-1.2,5-2.1,5.5-2.1c1.6,0,10.7-6,16.3-10.8c6.4-5.5,14.5-15.3,16.9-20.4c0.9-1.9,2.9-6,4.4-9.3
		c2.8-5.9,3.6-9.3,2.1-9.3c-1.4,0-8.1,3-11.9,5.3c-10.6,6.4-22.6,17.4-30.7,28.2c-5.5,7.4-10.6,16.9-10.6,19.8
		C-99.7,11847.2-98.8,11847-91.7,11843.7z M393.6,11777.1c3.4-4.7,8.4-11.3,11.1-14.6l4.9-6l-5.6-2c-6.7-2.4-16.2-7-20.7-10.2
		c-1.8-1.3-3.3-2.1-3.4-1.9c-0.1,0.1-0.7,2.7-1.2,5.7s-2.4,11.3-4.1,18.5c-1.8,7.2-3,13.1-2.7,13.3c0.3,0.1,3.7,1.6,7.5,3.4
		c3.8,1.8,7.2,3,7.5,2.7C387.2,11785.8,390.2,11781.7,393.6,11777.1z M96,11771.2c-0.2-1.5-1.8-9.2-3.4-17.1c-1.7-7.9-3-15.3-3-16.5
		s-0.1-2.1-0.3-2.1c-0.2,0-2.3,1.2-4.7,2.6c-5.1,3-14.7,7.1-21.3,9l-4.6,1.3l4.6,5.9c2.5,3.3,7.6,10.4,11.3,15.8l6.8,9.7l7.5-3
		l7.5-3L96,11771.2z M249.6,11743.9c1.2-6,5.9-26.5,6.7-29.2c0.4-1-0.2-1-5-0.4c-5.3,0.7-19.7,0.3-25.1-0.7l-2.8-0.5l1.1,3.6
		c0.6,2,2.2,9.6,3.7,17c1.4,7.3,2.8,14.1,3,15c0.4,1.6,0.7,1.6,8.8,1.6h8.4L249.6,11743.9z M437.8,11749c0.9-0.6,0.7-1.1-0.9-3.3
		c-8.2-10.8-33.1-24.2-52.3-28.3c-5.8-1.2-15.5-1.5-15.5-0.4c0,1.2,11.8,13.6,15.7,16.5c7.8,5.9,19.2,11.3,29.4,13.9
		c3.1,0.8,6.2,1.3,7,1c0.8-0.2,3.3-0.1,5.5,0.3C432.2,11749.7,436.5,11749.8,437.8,11749z M58.4,11738.4c6.6-1.7,15.1-5.3,22.5-9.6
		c5.4-3,18.3-14.7,20.9-18.7l1.3-2.1h-5.8c-10.8,0-22.8,3.5-37.6,10.8c-14.5,7.1-29.4,19.1-26.3,21.1
		C35.1,11741.1,52.2,11740,58.4,11738.4z M257.1,11703.6c2.4-0.4,5.1-1.3,6-1.8c0.8-0.5,3-1.4,4.8-1.9c5-1.3,11.8-4.6,11.5-5.5
		c-0.4-1.4-6.7-4.1-13.2-5.6c-14.3-3.4-35.1-3.4-49.4,0c-6.4,1.6-12.7,4.2-13.2,5.6c-0.2,0.7,7.5,4.7,9.1,4.7c0.4,0,1.8,0.6,3.3,1.4
		C223.6,11704.6,243.4,11706.1,257.1,11703.6z"/>
	<path d="M226.3,12438.8c-4.4-1.6-7.1-4-9.2-8.2c-4.5-9.3,0.3-20,10.4-22.7c15.5-4.2,26.8,14.6,15.8,26.5
		C238.8,12439.2,232.1,12440.9,226.3,12438.8z"/>
	<path d="M158.5,12432.2c-12.2-4.4-14.3-21.2-3.6-28.5c9.6-6.5,22-1.7,25,9.7c1.8,6.8-2.4,15.2-9.3,18.3
		C167.2,12433.3,162.1,12433.5,158.5,12432.2z"/>
	<path d="M291.8,12429.5c-10.6-5-12.4-18.8-3.5-26.8c8.9-8.1,23.5-3.3,26.2,8.7C317.3,12424.2,303.7,12435,291.8,12429.5z"/>
	<path d="M92.5,12409.7c-5.3-2.7-8.2-6.9-8.7-12.4c-0.8-10.2,6-17.9,15.8-17.9c17.1,0.1,22.8,22.8,7.7,30.3
		C102,12412.3,97.7,12412.3,92.5,12409.7z"/>
	<path d="M357.8,12406.9c-11.6-3.1-15.5-19-6.7-27.3c4.9-4.6,12.9-5.7,18.9-2.6c4,2.1,7.8,7.5,8.4,11.9
		C380,12400.3,369,12410,357.8,12406.9z"/>
	<path d="M35.2,12374.7c-5.8-2.7-9.2-8.2-9.2-14.9c0-4.7,1.3-7.9,4.5-11c3.3-3.3,6.6-4.6,11.5-4.6c7.2,0,13.5,4.7,15.5,11.7
		C61.3,12369,47.6,12380.5,35.2,12374.7z"/>
	<path d="M244.4,12375c-4.4-1.9-6-6.9-3.7-11.5c2.1-4.1,8.4-5,12.2-1.9c4.5,3.8,3.5,11.1-1.8,13.3
		C248,12376.3,247.4,12376.3,244.4,12375z"/>
	<path d="M202.9,12374.5c-2.9-0.9-5.3-4.4-5.3-7.9c0-3.6,4.1-7.6,7.7-7.6c5.3,0,8.6,3.1,8.6,8.3c0,3.2-1.8,5.6-4.9,7
		C206.1,12375.5,206.2,12375.5,202.9,12374.5z"/>
	<path d="M411.3,12368.5c-3.9-1.9-7-6.1-8.2-11c-2.7-11,8.3-22,19.1-19.3c7.6,1.9,12.1,6.9,12.6,14.1c0.4,5.3-0.7,8.9-3.8,12.4
		C426.3,12370.1,417.8,12371.8,411.3,12368.5z"/>
	<path d="M283.6,12363.5c-3.1-1.9-4.4-5.8-3.3-9.4c2.4-7.2,13.5-7.1,15.5,0.1C297.8,12361.5,289.8,12367.5,283.6,12363.5z"/>
	<path d="M160.9,12358.7c-2-2-2.5-3.1-2.5-5.5c0-6.1,6.1-9.9,11.5-7.3c7.7,3.6,5,15.3-3.5,15.3
		C164,12361.2,162.9,12360.7,160.9,12358.7z"/>
	<path d="M197.9,12342c-3.3-1-7.8-5.1-9.3-8.5c-2.7-5.9-1.3-13.8,3.3-18.3c1-1.1,14.5-9,29.9-17.7c15.3-8.7,29.1-16.5,30.5-17.3
		l2.5-1.6l-2.5-0.6c-1.4-0.4-11.1-1-21.4-1.3c-10.4-0.4-23.7-1-29.6-1.5c-26.6-1.8-41.6-10.3-45.6-25.9
		c-3.3-13.3,4.3-27.4,21.8-40.4c2.7-1.9,13.5-8.7,24-15c23.4-14,26.5-16.1,32.2-21.5c3.5-3.2,4.3-4.3,3.5-4.7
		c-0.6-0.4-11-1.6-23.2-2.9l-22.3-2.2l-5.4,5.4c-5.8,5.8-9.4,7.9-16.6,9.8c-21.2,5.5-42.5-11.4-42.5-33.7c0-9.5,3.3-17.3,10-24.2
		c11.1-11.3,26.4-13.7,40.8-6.5c4.6,2.3,11.3,8.8,13.7,13.3c2,3.9-0.1,3.3,25.7,5.9c10.8,1,22,2.4,25.1,3
		c10.4,2.2,17.3,5.7,22.9,11.9c4.9,5.3,7,10.8,7,18.1c-0.1,10.2-4.4,18.5-14.9,28.9c-7.7,7.6-14.2,12.1-37.9,26.3
		c-18.4,11.1-25.8,16-28.3,18.8c-1.3,1.6-1.3,1.6,0.7,2c1.2,0.3,2.7,0.7,3.3,0.9c0.6,0.2,12.8,0.8,27,1.3
		c33.8,1.3,42.6,2.7,54.1,8.2c14.9,7.2,20.9,21.3,14.6,34.7c-2.9,6.1-8.7,12.4-16,17.4c-3,2-19.2,11.4-36,20.9
		c-28.7,16.2-30.9,17.3-34.8,17.6C202,12342.6,199.2,12342.3,197.9,12342z M169.1,12160.8c7.3-3.4,11-9,11-16.8
		c0-7.3-3.8-13.5-10.4-16.8c-4-2-12.1-1.9-16.1,0.2c-14.7,7.9-12.6,29.5,3.3,34.4C160.6,12163,165.3,12162.6,169.1,12160.8z"/>
	<path d="M314.4,12335.6c-6.3-5.3-1.3-15.6,6.8-14.1c3.7,0.7,6.4,4.2,6.4,8c0,2.4-0.5,3.5-2.5,5.5
		C321.9,12338.3,317.8,12338.5,314.4,12335.6z"/>
	<path d="M132.3,12330.1c-5.8-4.5-3.8-13.4,3.3-14.5c5-0.8,9.5,3.3,9.5,8.7c0,3.6-4.1,7.3-8,7.3
		C135.3,12331.6,133.4,12331,132.3,12330.1z"/>
	<path d="M-11.7,12328c-11-3.9-14.5-17.1-6.9-25.9c6.9-8.1,20.3-6.7,25.8,2.5C14.8,12317.7,2.5,12332.9-11.7,12328z"/>
	<path d="M458.9,12319.8c-15.5-7-10-30.7,7-30.7c13.1,0,20.5,14.2,13.1,25.2C474.7,12320.8,466.1,12323.1,458.9,12319.8z"/>
	<path d="M334.6,12299.1c-1.5-0.9-2.7-2.5-3.3-4.1c-2.4-7.2,5-13.3,11.8-9.7c2.7,1.4,3.7,3.2,3.7,7c0,2.5-0.4,3.6-2.5,5.6
		C341.4,12300.9,338.3,12301.3,334.6,12299.1z"/>
	<path d="M116.2,12293.3c-3.6-1.3-5.9-6.2-4.9-10.3c1.8-7.4,12.8-7.3,15.2,0.1C128.6,12289.4,122.4,12295.6,116.2,12293.3z"/>
	<path d="M-47.2,12271.5c-4-1-8.3-4.4-10.4-8.5c-5.4-10.5,1.1-22.4,12.6-23.2c10.1-0.7,17.7,6.3,17.7,16.5c0,6.3-5.2,13-11.4,14.9
		C-42.6,12272.4-43.5,12272.4-47.2,12271.5z"/>
	<path d="M494.8,12262.2c-6.5-2.8-11.2-10.9-10-17.2c2.5-13.6,18-18.8,27.4-9.4c5.3,5.3,6.1,13.5,2.1,20.2
		C510.3,12262.2,501.5,12265.1,494.8,12262.2z"/>
	<path d="M348.7,12259.8c-2.7-1.2-4.7-4.4-4.7-7.9c0-3.9,2-6.6,5.5-7.8c5.6-1.9,11.8,4.3,10.1,9.9
		C357.9,12258.7,352.7,12261.5,348.7,12259.8z"/>
	<path d="M101.5,12251.1c-4.2-3.5-3.7-10.2,1-13c8.7-5.3,16.9,7.1,9,13.6C109,12253.7,104.2,12253.4,101.5,12251.1z"/>
	<path d="M320,12234c-9.5-3.5-20.3-16.8-24.6-30.5c-1.6-4.8-1.8-6.7-1.5-12.4c0.6-11.6,5.7-23.6,14-32.7c6.5-7.1,12.3-8.3,17.7-3.5
		c5.8,5.3,8.3,12.7,11.5,34.3c2.3,15.7,2.7,31,1,36C335.1,12233.8,328.3,12237.2,320,12234z"/>
	<path d="M361,12219.1c-2.9-0.9-4.7-2.2-5.6-4.1c-3.5-6.7,2.7-14,9.8-11.7c2.9,1,5.5,4.4,5.5,7.3
		C370.6,12215.7,365.2,12220.5,361,12219.1z"/>
	<path d="M90.8,12210.7c-4.7-3.6-4-11.3,1.2-13.7c8.9-4.2,16,7.7,8.4,13.9C98.2,12212.8,93.2,12212.6,90.8,12210.7z"/>
	<path d="M-69.8,12207.9c-3.6-0.9-6.7-2.8-9.1-5.6c-10.1-12.2,1.6-30.4,16.6-25.9c15.6,4.7,15.8,26.5,0.3,31.1
		C-66.3,12208.6-66.5,12208.6-69.8,12207.9z"/>
	<path d="M515.1,12197.1c-15.6-7.3-10-30.8,7.4-30.8c8.9,0,17.1,9.6,15.5,18.3C535.9,12196,525.2,12201.9,515.1,12197.1z"/>
	<path d="M370.9,12178.1c-6.7-2.7-6.7-12.2,0-15.5c1.6-0.8,2.7-0.8,4.9-0.1c3.8,1.1,5.8,3.9,5.8,7.8c0,3.7-1.6,6.2-4.9,7.6
		C374,12179,373.1,12179,370.9,12178.1z"/>
	<path d="M80.9,12171.1c-5.2-2.2-6.7-8.9-2.9-12.9c2.6-2.7,5-3.3,8.3-2.3c3.5,1.2,5.5,4,5.5,7.7s-1.6,6.2-4.9,7.6
		C84,12172.4,83.9,12172.4,80.9,12171.1z"/>
	<path d="M-79.2,12140.3c-3.6-1-8.7-5.5-10.3-9.1c-4.8-10.6,3-22.8,14.6-22.8c17,0,22.5,23,7.3,30.7
		C-70.6,12140.6-75.8,12141.1-79.2,12140.3z"/>
	<path d="M383.2,12140.2c-6.7-3.6-6.1-12.6,0.9-15.3c2.4-0.9,3-0.8,5.5,0.4c4,2,5.8,5.8,4.5,9.6
		C392.5,12139.4,387,12142.2,383.2,12140.2z"/>
	<path d="M520.6,12135.7c-4-2.1-7.8-7.5-8.4-11.9c-1.3-8.2,4.2-16.2,12.5-18.4c9.3-2.5,19.7,5.9,19.7,15.9c0,5.9-4,12.2-9.2,14.6
		C530.8,12138,524.7,12137.8,520.6,12135.7z"/>
	<path d="M65.5,12130.8c-2.7-1.7-4.4-5.7-3.6-9c1.4-6.5,11.2-8.1,14.6-2.2C80.8,12127,72.6,12135.3,65.5,12130.8z"/>
	<path d="M269.9,12123.9c-8.1-1.9-18.4-9.9-21.7-16.8c-0.8-1.7-1.8-3.1-2.1-3.1c-5.5-0.1-46.7-4.8-50.9-5.9
		c-15.3-3.8-24.8-12.5-27.1-24.6c-1-5.8,0.1-12.2,3.4-19.1c2.2-4.6,4.1-7,10.9-13.7c9.4-9.4,14.6-13,39.3-27.8
		c17.1-10.2,28.5-17.9,28.5-19.2c0-1.4-10.1-2.4-31.1-3c-12-0.4-25.1-1.1-29.1-1.6c-27.7-3-43-14-42.9-30.7
		c0.1-9.6,5-17.9,15.2-25.7c6.4-4.9,66-38.9,70.9-40.4c6.7-2.1,15.3,1.6,18.4,8.1c3,6.3,1.5,15-3.4,19.2c-1.3,1-15.8,9.5-32.2,18.8
		c-23.1,13-29.7,17.1-28.6,17.6c2.4,0.9,18.8,2,36.8,2.4c30.3,0.7,42.9,4,52.8,13.5c12.7,12.2,11.1,30-4.1,45
		c-6.7,6.5-12.3,10.5-35.1,24.2c-11.6,7-23.4,14.6-26.3,16.8c-5.5,4.2-9.8,8.2-9.2,8.8c0.5,0.4,14.2,2.1,32.5,3.8l13.8,1.3l5.1-5.2
		c8.1-8.2,15.5-11,27.1-10.5c5.7,0.2,7.6,0.7,11.8,2.7c9.7,4.5,16.1,11.9,19.1,21.8c2,6.6,1.7,15.9-0.7,22.2
		c-5.2,13.4-18.1,22.2-32.5,22C275.1,12124.6,271.3,12124.3,269.9,12123.9z M288.2,12105.9c2.2-1.4,4.4-3.6,5.8-5.9
		c2-3.3,2.2-4.3,2.2-9.7s-0.2-6.4-2.2-9.7c-1.6-2.4-3.5-4.4-6.3-6c-3.5-2.2-4.7-2.4-9-2.4c-11.1,0-18.5,7.3-18.5,18.2
		c-0.1,10.9,7.9,18.4,19.1,18C283.7,12108.1,285.2,12107.7,288.2,12105.9z"/>
	<path d="M393.4,12098.1c-4.4-4.4-1.9-12.7,4.3-13.9c5.8-1.1,10.9,4.4,9.2,10.2c-1.2,3.9-3.9,5.9-8,5.9
		C396.2,12100.3,395.2,12099.9,393.4,12098.1z"/>
	<path d="M55.9,12090.7c-3.6-1.5-5.8-6.2-4.7-10.2c1.9-7.3,13.2-7.3,15.3,0.1C68.4,12087.4,62.2,12093.3,55.9,12090.7z"/>
	<path d="M110.5,12082.4c-4.4-2.2-12.1-10.7-14.9-16.4c-1.3-2.5-2.7-6.7-3.1-9.3c-1-5.7-0.2-9.6,3.8-19.9
		c10.5-26.2,25.4-34.8,30.9-17.9c2.3,7,3.3,16.5,3.3,33.8c0.1,13.8-0.1,16.5-1.3,19.6C125.5,12082.6,118.5,12086.3,110.5,12082.4z"
		/>
	<path d="M-71.9,12072.5c-10.3-2.7-15.1-13.6-10.2-23.2c5.2-10.1,18.9-11.6,26.5-2.9c6.7,7.6,4.1,20.3-5,24.7
		C-65,12073.3-67.6,12073.6-71.9,12072.5z"/>
	<path d="M514.8,12069.1c-7.6-3.2-11.8-11.9-9.6-19.9c1.3-5,6.6-9.9,11.8-11.1c17.2-3.9,27.2,19.1,12.7,29.2c-2.7,1.9-4,2.3-8.1,2.4
		C518.8,12069.8,515.8,12069.5,514.8,12069.1z"/>
	<path d="M400.4,12058.1c-4.7-2-6.4-9.3-3-13c5-5.7,14.3-2,14.1,5.7C411.4,12056,405.2,12060.1,400.4,12058.1z"/>
	<path d="M52.6,12048.2c-1-0.5-2.4-2.2-3.3-3.8c-1.2-2.4-1.3-3.2-0.5-5.7c1-3.5,4.4-5.9,8.1-5.9s7.5,4,7.5,8.2
		c0,2.5-0.4,3.6-2.5,5.6C59.2,12049.4,56,12049.9,52.6,12048.2z"/>
	<path d="M344.8,12045c-6-1.6-10.9-4.5-17.1-10.5c-7.5-7.1-10.6-12.8-10.7-19.5c0-6.9,3.3-13.4,10.3-20.5
		c9.5-9.5,19.2-11.2,26.2-4.5c4.8,4.6,7.3,11.7,10.9,30.5c1.8,9.1,1.8,10.8,1.1,14.3c-1.1,5.1-5,9.2-9.8,10.4
		C351.3,12046.4,349.7,12046.3,344.8,12045z"/>
	<path d="M395.1,12015.6c-7.2-4-4.3-15.3,3.9-15.3c5.9,0,9.9,7.1,7,12.5C404.4,12016,398.6,12017.5,395.1,12015.6z"/>
	<path d="M-51.1,12008.1c-6.8-2.5-10.3-7-10.8-13.8c-0.4-5.3,0.7-8.9,3.8-12.4c9.8-11.1,27.9-4.2,27.9,10.8
		C-30.2,12003.4-41.4,12011.7-51.1,12008.1z"/>
	<path d="M58.8,12006.2c-6.5-4.1-3.6-14.9,3.9-14.9c5.2,0,8.4,3.2,8.4,8.5C71.1,12005.7,63.8,12009.5,58.8,12006.2z"/>
	<path d="M493.1,12005.1c-6.8-2.4-10.9-8.3-10.9-15.4c0.1-17.6,24-22.5,30.8-6.2c2.6,6.3,0.8,14.1-4.2,18.5
		C504.1,12005.9,498.6,12007,493.1,12005.1z"/>
	<path d="M380.2,11974.3c-3.7-3.6-3.8-8.2-0.4-11.6c6.3-6.4,16.4,0.9,12.9,9.3C390.8,11976.8,383.8,11978.1,380.2,11974.3z"/>
	<path d="M75,11967.6c-3.6-1.5-5.4-6.7-3.5-10.7c2.9-5.9,11.7-6.5,14.3-0.7c1.7,3.6,1.1,7-1.6,9.7
		C81.5,11968.4,78.6,11969,75,11967.6z"/>
	<path d="M-15.7,11950.3c-7.4-2.7-11.2-8.6-10.7-16.3c0.9-14.6,17.9-20.5,27.8-9.8c5.2,5.6,5.5,13.9,1,20.4
		C-1.3,11949.7-9.9,11952.4-15.7,11950.3z"/>
	<path d="M455.2,11946.9c-3.6-1.6-7.3-5.7-8.5-9.3c-1.4-4.3-0.7-10.9,1.7-14.2c6.1-8.7,17.5-9.8,24.8-2.4
		c10.3,10.3,3.3,27.4-11.1,27.4C460,11948.3,456.9,11947.7,455.2,11946.9z"/>
	<path d="M357.6,11938.4c-2-2-2.5-3.1-2.5-5.5c0-8.5,11.6-11.3,15.2-3.6c2.7,5.5-1.2,11.6-7.2,11.6
		C360.7,11940.9,359.6,11940.4,357.6,11938.4z"/>
	<path d="M99.4,11933.1c-3.1-1.3-5-5.2-4.4-8.7c1.3-6.7,10.4-9,14.4-3.9c3.1,3.9,1.3,10.7-3.3,12.6
		C103.1,11934.5,102.4,11934.5,99.4,11933.1z"/>
	<path d="M328.6,11910.5c-2.8-1.7-3.9-3.6-3.9-6.7c0-5,3.3-8.2,8.4-8.2c4,0,7.9,4,7.9,8.2c0,4-4.2,8.2-8.3,8.2
		C331.7,11912,330,11911.3,328.6,11910.5z"/>
	<path d="M131.2,11905.6c-2.3-1.1-4.7-4.9-4.7-7.3c0-1.9,2-5.3,3.8-6.6c2.5-1.8,7.5-1.6,9.8,0.5
		C147.3,11898.4,139.6,11909.8,131.2,11905.6z"/>
	<path d="M30,11901.1c-9.8-5.1-12.3-17-5.2-25.2c8.2-9.6,24.3-6.1,27.7,6.1c1.9,7-1.6,15.3-8.1,18.7
		C40.6,11902.7,33.5,11903,30,11901.1z"/>
	<path d="M408.7,11899.7c-6.2-2.3-10.7-8.8-10.7-15.5c0-15,18.4-21.6,28.3-10c7.6,9,3.4,22.8-8,25.9
		C414.4,11901.1,412.3,11901,408.7,11899.7z"/>
	<path d="M292.4,11890.2c-5.2-2.4-6.1-9.6-1.6-13.3c3.4-2.9,7.5-2.7,10.7,0.6c2.1,2.1,2.5,3.1,2.5,5.6
		C304,11888.9,298,11892.7,292.4,11890.2z"/>
	<path d="M170.5,11887.5c-7.9-2.2-7.8-12.9,0.1-15.5c1.8-0.7,3-0.6,5,0.3C185,11876.1,180.3,11890.1,170.5,11887.5z"/>
	<path d="M252.3,11878.9c-3.6-1.9-5.6-6-4.4-9.5c1.2-3.6,3.9-5.6,7.8-5.6c3.9,0,6.7,2.1,7.8,5.9c1,3.3,0,6.2-3,8.3
		C257.5,11880,255.1,11880.3,252.3,11878.9z"/>
	<path d="M210.4,11877.9c-2.7-1-4.7-4.4-4.7-7.6c0-2.4,0.5-3.5,2.6-5.6c2.4-2.4,2.9-2.6,6-2.2c4,0.4,6.7,2.7,7.4,6.2
		C222.8,11875.2,216.5,11880.3,210.4,11877.9z"/>
	<path d="M86.5,11864c-6.9-3.6-10.1-11.1-8.1-18.7c1.9-7.2,10.9-12.8,18.4-11.5c7.9,1.3,13.9,9,13.2,17.1
		c-0.7,8.5-7.9,15.2-16.1,15.2C91.6,11866,89.3,11865.4,86.5,11864z"/>
	<path d="M349.1,11862.5c-9.9-5.2-11.7-17.6-3.7-25.4c12.2-11.8,31.4,0.1,26.6,16.5C369.1,11863,358.2,11867.3,349.1,11862.5z"/>
	<path d="M150.4,11841.2c-6.4-3.3-10.2-11.2-8.4-17.9c4.7-17.4,30.5-15.9,31.7,1.9c0.4,5.3-0.7,9-3.8,12.5
		C165.1,11843.2,157.3,11844.6,150.4,11841.2z"/>
	<path d="M286.3,11841.1c-1.4-0.6-3.8-2.4-5.4-3.9c-10.1-9.8-2.6-27.1,11.6-27c4.8,0,8.3,1.4,11.5,4.7c8.1,8,5.3,21.8-5.3,26.2
		C295.2,11842.6,289.7,11842.6,286.3,11841.1z"/>
	<path d="M222,11834.8c-11.6-2-16.8-15.3-9.9-25.2c5.5-8.1,18.6-8.6,25.1-1.1c3,3.5,4.1,7.1,3.8,12.4
		C240.3,11830.3,231.8,11836.5,222,11834.8z"/>
</g>
</svg>
