<?xml version="1.0" encoding="utf-8"?>
<!-- Generator: Adobe Illustrator 19.0.0, SVG Export Plug-In . SVG Version: 6.00 Build 0)  -->
<svg version="1.1" id="Layer_1" xmlns="http://www.w3.org/2000/svg" xmlns:xlink="http://www.w3.org/1999/xlink" x="0px" y="0px"
	 viewBox="13.4 0.9 139.2 108" style="enable-background:new 13.4 0.9 139.2 108;" xml:space="preserve">
<style type="text/css">
	.st0{stroke:#FFF;stroke-miterlimit:10;}
</style>
<g>
	<path d="M64,52c0.4,0.3,1,0.4,1.5,0.3c0.5-0.1,1-0.4,1.3-0.8l4.9-6.8c0.8-1.1,2-1.9,3.3-2.1s2.7,0.1,3.8,0.9
		c5,3.6,9.8,7.4,14.4,11.5c4.6,4,9,8.3,13.3,12.8c0.5,0.5,1.1,0.7,1.8,0.6c0.3,0,0.6-0.2,0.8-0.3c0.8-0.6,1.1-1.7,0.6-2.5
		c-7.5-14.7-17.9-27.4-30.7-37.8l2-2.8c0.6-0.9,0.4-2.1-0.5-2.8l-7.5-5.4c-0.9-0.6-2.2-0.4-2.8,0.5l-2,2.8
		c-13.9-8.9-29.2-14.6-45.5-17c-1-0.1-1.9,0.5-2.2,1.4c-0.3,1,0.2,2,1.1,2.4c5.6,2.6,11.1,5.4,16.4,8.5c5.3,3.1,10.5,6.5,15.5,10
		c2.3,1.7,2.8,4.9,1.2,7.2l-4.9,6.8c-0.6,0.9-0.4,2.1,0.5,2.8l8.9,6.4L25.2,96.3c-0.8,1.1-2.5,1.4-3.6,0.6c-1.2-0.8-1.4-2.5-0.6-3.6
		l31-43.3c0.6-0.9,0.4-2.1-0.5-2.8c-0.9-0.6-2.1-0.4-2.8,0.5l-31,43.3c-2.1,3-1.4,7.1,1.5,9.2c1.4,1,3.2,1.4,4.9,1.2
		c1.7-0.3,3.3-1.2,4.3-2.7L62.5,51L64,52z"/>
	<path d="M71.4,19l4.2,3l-0.8,1.1c-0.3-0.2-0.6-0.4-0.9-0.7c-0.8-0.6-1.5-1.1-2.3-1.7c-0.3-0.2-0.6-0.5-0.9-0.7L71.4,19z"/>
	<path d="M56.9,32.7l5.1-7.2c0.6-0.9,0.4-2.1-0.5-2.8c-0.9-0.6-2.1-0.4-2.8,0.5l-0.7,1c-0.6-1.7-1.7-3.2-3.3-4.3
		C49.8,16.3,44.4,12.9,39,9.7c-0.9-0.5-1.8-1.1-2.7-1.6c10.8,3.1,21,7.9,30.5,14.1c2.5,1.7,5,3.4,7.3,5.3l0,0
		c9,7,16.7,15.2,23.1,24.4c-0.8-0.7-1.6-1.4-2.3-2.1c-4.7-4.1-9.7-8.1-14.7-11.7c-1.5-1.1-3.3-1.7-5.1-1.7l0.7-1
		c0.6-0.9,0.4-2.1-0.5-2.8c-0.9-0.6-2.1-0.4-2.8,0.5l-5.1,7.2l-3.7,5.2l-1.5-1.1c0,0,0,0,0,0s0,0,0,0l-8.9-6.4L56.9,32.7z"/>
</g>
<path d="M51.8,43c-3.6,4.2-6.3,13.1-9.5,19.8c-0.6,1.3-2.9,2.3-3.2,3.7c-0.3,1.7-1.8,2.7-3.1,3.7c-6.4,5.2-11.1,13.1-14,20.8
	c-1.5-0.2-1.6,0.9-2.2,2.3c-0.6,1.4-0.3,3.2,0.9,4.2c1.6-1.3,4,1.9,5.7,0.8c0.8-0.5,1.5-3.6,2-4.3c5.6-8.4,10.5-17.4,17.8-24.5
	c2.1-2,4.3-3.8,6.1-6.1c1.4-1.8,2.4-3.9,3.4-6c2.1-4.3,4.2-8.6,5.2-13.2c-2.9-0.3-4-1.4-6.9-1.7"/>
<ellipse cx="111.3" cy="75.1" rx="4.4" ry="4.4">
	<animateTransform
		attributeName="transform"
		attributeType="XML"
		type="translate"
		dur="3s"
		values="0,5;0,-5;0,5"
		repeatCount="indefinite"
		begin=".3"
	/>
	<animate
		attributeName="opacity"
		dur="2s"
		values="1;0"
		repeatCount="indefinite"
	/>

</ellipse>
<ellipse class="st0" cx="119.9" cy="67.1" rx="3.5" ry="3.5">
	<animateTransform
		attributeName="transform"
		attributeType="XML"
		type="translate"
		dur="2s"
		values="0,5;0,-5;0,5"
		repeatCount="indefinite"
		begin="0.1"
	/>
	<animate
		attributeName="opacity"
		dur="2.2s"
		values="1;0"
		repeatCount="indefinite"
	/>

</ellipse>
<ellipse class="st0" cx="113.5" cy="59.3" rx="2.2" ry="2.2">
	<animateTransform
		attributeName="transform"
		attributeType="XML"
		type="translate"
		dur="1s"
		values="0,5;0,-5;0,5"
		repeatCount="indefinite"
		begin="0.5"
	/>
	<animate
		attributeName="opacity"
		dur="2s"
		values="1;0"
		repeatCount="indefinite"
	/>

</ellipse>
<ellipse cx="100.1" cy="73.3" rx="2.8" ry="2.6">
	<animateTransform
		attributeName="transform"
		attributeType="XML"
		type="translate"
		dur="3.1s"
		values="0,5;0,-5;0,5"
		repeatCount="indefinite"
		begin="0.23"
	/>
	<animate
		attributeName="opacity"
		dur="2s"
		values="1;0"
		repeatCount="indefinite"
	/>

</ellipse>
<ellipse cx="96.3" cy="66" rx="2.2" ry="2.2">
	<animateTransform
		attributeName="transform"
		attributeType="XML"
		type="translate"
		dur="1s"
		values="0,5;0,-5;0,5"
		repeatCount="indefinite"
		begin="0.3"
	/>
	<animate
		attributeName="opacity"
		dur="2s"
		values="1;0"
		repeatCount="indefinite"
	/>

</ellipse>
<ellipse class="st0" cx="125.6" cy="60.6" rx="2.2" ry="2.2">
	<animateTransform
		attributeName="transform"
		attributeType="XML"
		type="translate"
		dur="1.5s"
		values="0,5;0,-5;0,5"
		repeatCount="indefinite"
		begin="0.25"
	/>
	<animate
		attributeName="opacity"
		dur="2s"
		values="1;0"
		repeatCount="indefinite"
	/>

</ellipse>
<ellipse class="st0" cx="113.2" cy="48.5" rx="1.5" ry="1.5">
	<animateTransform
		attributeName="transform"
		attributeType="XML"
		type="translate"
		dur="2.5s"
		values="0,5;0,-5;0,5"
		repeatCount="indefinite"
		begin="0.15"
	/>
	<animate
		attributeName="opacity"
		dur="2s"
		values="1;0"
		repeatCount="indefinite"
	/>

</ellipse>
<ellipse cx="87.6" cy="67.4" rx="1.5" ry="1.5">
	<animateTransform
		attributeName="transform"
		attributeType="XML"
		type="translate"
		dur="1.8s"
		values="0,5;0,-5;0,5"
		repeatCount="indefinite"
		begin="0.4"
	/>
	<animate
		attributeName="opacity"
		dur="2s"
		values="1;0"
		repeatCount="indefinite"
	/>

</ellipse>


<path d="M68,71.4c-2.2,2.5-2,5.5-1.9,6.7c0.2,2.4,1.2,4.4,3.4,7.4c0.9,1.2,2.1,2.7,9.1,9.4c1.9,1.8,4.8,4.5,8.8,7.6
	c2.6,2,3.2,2.3,3.7,2.5c3.9,1.6,9.4,0.9,12.6-2.6c0.5-0.6,2.4-2.6,2.3-5.4c0-2.7-1.9-4.7-3.8-6.6c-5.5-5.5-7.7-6.8-11.6-10.5
	c-4-3.8-6.8-7.1-11.7-9.8c-0.7-0.4-2.3-1.3-4.5-1.3C73.9,68.7,70.4,68.7,68,71.4z M89.6,82.6c2.7,1.8,5.1,3.6,7.1,5
	c0,0,3.2,2.4,6.5,6.1c0.8,0.9,1.8,2,1.8,3.5c0,1.3-0.7,2.3-1.4,3.2c-2.4,3.1-5.9,3.8-6.2,3.9c-2.7,0.5-4.9-0.3-6-0.8
	c-1.5-0.6-2.6-1.4-5.2-3.7c-1.7-1.5-3.9-3.7-6.4-6.4c0.5-0.5,1.2-1.4,2.1-2.5c1.5-1.9,1.4-2.2,2.3-3.1c1.4-1.4,2.2-1.2,3.5-2.5
	C88.8,84.4,89.3,83.4,89.6,82.6z"/>
<path d="M113.3,106.2c3.3,0.7,6-1,8.9-2.8c1.4-0.9,2.1-1.5,7-6c2.4-2.2,3.6-3.3,5.5-5c7.5-6.8,9-7.9,11.3-11
	c3.1-4.2,3.2-6.2,3.2-7.2c-0.1-3.6-2.7-5.9-3-6.2c-3.1-2.7-7.1-2.2-8.5-2c-1.3,0.2-3.6,0.7-8.2,4.2c-3.5,2.6-4.1,3.8-8.6,8.3
	c-3.6,3.6-6.2,5.7-10.6,10.5c-2.1,2.3-3.5,4-3.9,6.5c-0.5,3.4,1,6,1.3,6.4C108.1,102.7,110,105.5,113.3,106.2z M126.4,75.7
	c1.2-1.1,3-2.6,5.3-4.2c3.6-2.6,5.4-3.8,7.5-3.9c3-0.1,5.2,1.7,5.5,2c0.6,0.5,2.5,2,2.8,4.5c0.3,2.3-0.8,4.1-2.2,6.2
	c-1.3,2-2.6,3.2-5,5.4c-2.8,2.6-5.2,4.7-6.9,6.2c-0.6-0.6-1.2-1.2-1.8-1.8c2.3-2.5,4.3-4.3,5.8-5.6c1.4-1.2,2.9-2.4,4.5-4.5
	c0.8-1.1,1.4-2,1.7-2.6c-1,0.5-2.5,1.3-4.1,2.4c-2.8,1.9-4.7,3.6-5.9,4.7c-1.1,1-2.4,2.3-3.9,4c-1.1-1.3-2.3-2.7-3.4-4
	c-1.3-1.6-2.7-3.2-3.9-4.8C123.4,78.6,124.7,77.2,126.4,75.7z"/>
</svg>
