<?xml version="1.0" encoding="utf-8"?>
<!-- Generator: Adobe Illustrator 19.0.0, SVG Export Plug-In . SVG Version: 6.00 Build 0)  -->
<svg version="1.1" id="Layer_1" xmlns="http://www.w3.org/2000/svg" xmlns:xlink="http://www.w3.org/1999/xlink" x="0px" y="0px"
	 viewBox="0 0 282.1 87" style="enable-background:new 0 0 282.1 87;" xml:space="preserve">
<style type="text/css">
	.st0{fill:#1D3667;}
	.st1{font-family:'Ayuthaya';}
	.st2{font-size:12px;}
	.st3{fill:#272E6F;}
	.st4{fill:#33469D;}
	.st5{fill:none;stroke:#010101;stroke-width:2.2583;}
	.st6{fill:#010101;}
	.st7{fill:#D93B26;stroke:#D93B26;stroke-width:0.6233;}
	.st8{fill:#CA9AC6;stroke:#D93B26;stroke-width:0.5284;}
	.st9{fill:#37499F;stroke:#D93B26;stroke-width:0.5284;}
	.st10{fill:none;stroke:#010101;stroke-width:3.0111;}
	.st11{fill:#ECF3D1;stroke:#000000;stroke-width:1.2466;stroke-linecap:round;}
	.st12{fill:#88C769;stroke:#000000;stroke-width:1.2466;stroke-linecap:round;}
	.st13{fill:#EAF3DA;stroke:#000000;stroke-width:1.2466;stroke-linecap:round;}
</style>
<path id="XMLID_16_" class="st0" d="M5.9,23.7c-2.2,2.5-2,5.5-1.9,6.7c0.2,2.4,1.2,4.4,3.4,7.4c0.9,1.2,2.1,2.7,9.1,9.4
	c1.9,1.8,4.8,4.5,8.8,7.6c2.6,2,3.2,2.3,3.7,2.5c3.9,1.6,9.4,0.9,12.6-2.6c0.5-0.6,2.4-2.6,2.3-5.4c0-2.7-1.9-4.7-3.8-6.6
	c-5.5-5.5-7.7-6.8-11.6-10.5c-4-3.8-6.8-7.1-11.7-9.8c-0.7-0.4-2.3-1.3-4.5-1.3C11.8,21,8.3,21,5.9,23.7z M27.5,34.9
	c2.7,1.8,5.1,3.6,7.1,5c0,0,3.2,2.4,6.5,6.1c0.8,0.9,1.8,2,1.8,3.5c0,1.3-0.7,2.3-1.4,3.2c-2.4,3.1-5.9,3.8-6.2,3.9
	c-2.7,0.5-4.9-0.3-6-0.8c-1.5-0.6-2.6-1.4-5.2-3.7c-1.7-1.5-3.9-3.7-6.4-6.4c0.5-0.5,1.2-1.4,2.1-2.5c1.5-1.9,1.4-2.2,2.3-3.1
	c1.4-1.4,2.2-1.2,3.5-2.5C26.7,36.7,27.2,35.7,27.5,34.9z"/>
<text id="XMLID_192_" transform="matrix(1 0 0 1 12.3333 71.1872)" class="st1 st2">Class</text>
<text id="XMLID_194_" transform="matrix(1 -7.439448e-03 7.439448e-03 1 193.5806 78.7318)" class="st1 st2">Mechanism</text>
<text id="XMLID_1_" transform="matrix(1 0 0 1 103.7443 59.5106)" class="st1 st2">Gene</text>
<path id="path4310" class="st3" d="M208.4,47.2c-0.7-0.1-1.3-0.4-1.9-0.6c-0.9-0.4-1.7-0.8-2.6-1.3c-0.5-0.3-1-0.5-1.5-0.8
	c-0.9-0.7-1.8-1.5-2.7-2.3c-0.3-0.3-0.7-0.6-1-1c-0.5-0.7-1.1-1.5-1.6-2.3c-0.4-0.8-0.7-1.6-1-2.4c-0.2-0.6-0.5-1.2-0.6-1.9
	c-0.2-1-0.5-2.1-0.6-3.1c0-0.5-0.1-1-0.1-1.5c0-0.7,0.2-1.5,0.2-2.2c0.1-0.7,0.2-1.4,0.4-2c0.1-0.5,0.3-0.9,0.5-1.3
	c0.3-0.7,0.6-1.4,0.9-2c0.2-0.5,0.5-1,0.7-1.5c0.4-0.7,0.9-1.3,1.4-2c0.8-1,1.9-1.8,2.9-2.6c0.6-0.4,1.3-0.9,1.9-1.3
	c0.5-0.3,1-0.5,1.5-0.6c0.5-0.1,1-0.2,1.5-0.1c0.5,0.2,1,0.4,1.5,0.7c0.6,0.3,1.2,0.8,1.7,1.3c0.3,0.3,0.5,0.6,0.6,1
	c0.1,0.5,0.2,1.1,0.2,1.7c-0.1,0.6-0.3,1.2-0.4,1.8c-0.1,0.4-0.1,0.9,0.2,1.2c0.3,0.4,0.7,0.6,1.1,0.9c0.8,0.5,1.6,0.9,2.4,1.3
	c0.8,0.4,1.5,0.7,2.3,1.1c0.6,0.2,1.2,0.4,1.8,0.5c0.4,0.1,0.9,0.1,1.3-0.1c1.2-0.4,2.3-1,3.4-1.5c0.3-0.2,0.7-0.4,1.1-0.4
	c0.4,0,0.8,0.2,1.1,0.5c0.3,0.3,0.5,0.8,0.6,1.3c0.3,0.8,0.4,1.7,0.4,2.6c0.1,0.5,0,1-0.1,1.5c-0.1,0.5-0.1,1-0.3,1.4
	c-0.1,0.5-0.3,0.9-0.4,1.4c-0.1,0.4,0,0.8-0.1,1.3c0,0.4-0.2,0.8-0.5,1.1c-0.3,0.3-0.7,0.5-1.1,0.7c-0.6,0.3-1.2,0.7-1.8,1
	c-0.4,0.3-0.7,0.7-0.9,1.2c-0.2,0.5-0.1,1-0.1,1.5c0,0.7,0.1,1.4,0.1,2.1c0,0.5-0.2,1-0.6,1.2c-0.4,0.2-0.8,0.3-1.2,0.4
	c-0.4,0.2-0.9,0.1-1.3,0.2c-0.5,0-1,0.2-1.5,0.3c-0.4,0.1-0.7,0.4-1,0.7c-0.3,0.3-0.6,0.6-0.9,1c-0.3,0.4-0.5,0.8-0.8,1.1
	c-0.4,0.2-0.8,0.4-1.2,0.6c-0.5,0.1-1,0.3-1.5,0.3c-0.9,0.1-1.7,0.2-2.6,0.2C208.5,47.2,208.4,47.2,208.4,47.2L208.4,47.2z"/>
<path id="path4312" class="st4" d="M198.3,47.2c0.7-0.1,1.3-0.4,1.9-0.6c0.9-0.4,1.7-0.8,2.6-1.3c0.5-0.3,1-0.5,1.5-0.8
	c0.9-0.7,1.8-1.5,2.7-2.3c0.3-0.3,0.7-0.6,1-1c0.5-0.7,1.1-1.5,1.6-2.3c0.4-0.8,0.7-1.6,1-2.4c0.2-0.6,0.5-1.2,0.6-1.9
	c0.2-1,0.5-2.1,0.6-3.1c0-0.5,0.1-1,0.1-1.5c0-0.7-0.2-1.5-0.2-2.2c-0.1-0.7-0.2-1.4-0.4-2c-0.1-0.5-0.3-0.9-0.5-1.3
	c-0.3-0.7-0.6-1.4-0.9-2c-0.2-0.5-0.5-1-0.7-1.5c-0.4-0.7-0.9-1.3-1.4-2c-0.8-1-1.9-1.8-2.9-2.6c-0.6-0.4-1.3-0.9-1.9-1.3
	c-0.5-0.3-1-0.5-1.5-0.6c-0.5-0.1-1-0.2-1.5-0.1c-0.5,0.2-1,0.4-1.5,0.7c-0.6,0.3-1.2,0.8-1.7,1.3c-0.3,0.3-0.5,0.6-0.6,1
	c-0.1,0.5-0.2,1.1-0.2,1.7c0.1,0.6,0.3,1.2,0.4,1.8c0.1,0.4,0.1,0.9-0.2,1.2c-0.3,0.4-0.7,0.6-1.1,0.9c-0.8,0.5-1.6,0.9-2.4,1.3
	c-0.8,0.4-1.5,0.7-2.3,1.1c-0.6,0.2-1.2,0.4-1.8,0.5c-0.4,0.1-0.9,0.1-1.3-0.1c-1.2-0.4-2.3-1-3.4-1.5c-0.3-0.2-0.7-0.4-1.1-0.4
	c-0.4,0-0.8,0.2-1.1,0.5c-0.3,0.3-0.5,0.8-0.6,1.3c-0.3,0.8-0.4,1.7-0.4,2.6c-0.1,0.5,0,1,0.1,1.5c0.1,0.5,0.1,1,0.3,1.4
	c0.1,0.5,0.3,0.9,0.4,1.4c0.1,0.4,0,0.8,0.1,1.3c0,0.4,0.2,0.8,0.5,1.1c0.3,0.3,0.7,0.5,1.1,0.7c0.6,0.3,1.2,0.7,1.8,1
	c0.4,0.3,0.7,0.7,0.9,1.2c0.2,0.5,0.1,1,0.1,1.5c0,0.7-0.1,1.4-0.1,2.1c0,0.5,0.2,1,0.6,1.2c0.4,0.2,0.8,0.3,1.2,0.4
	c0.4,0.2,0.9,0.1,1.3,0.2c0.5,0,1,0.2,1.5,0.3c0.4,0.1,0.7,0.4,1,0.7c0.3,0.3,0.6,0.6,0.9,1c0.3,0.4,0.5,0.8,0.8,1.1
	c0.4,0.2,0.8,0.4,1.2,0.6c0.5,0.1,1,0.3,1.5,0.3c0.9,0.1,1.7,0.2,2.6,0.2C198.1,47.2,198.2,47.2,198.3,47.2z"/>
<path id="path4322" class="st5" d="M276.8,31.8H238"/>
<path id="path4324" class="st5" d="M276.8,39.7H238"/>
<path id="path4326" class="st5" d="M276.8,31.8c-13.9,0.7-20-5-21.3-12.7"/>
<path id="path4328" class="st6" d="M278.3,31.7l-5.1,3.1l0-6.3L278.3,31.7z"/>
<path id="path4330" class="st6" d="M236.7,39.7l5.1,3.1l0-6.3L236.7,39.7z"/>
<path id="path4348" class="st7" d="M252.6,10.3l1.6-3.4l3.5,0.6l0.6,3.8l-3.2,1.7L252.6,10.3z"/>
<path id="path4350" class="st8" d="M248.9,11.3l3.5-1l2.6,2.8l-1,3.8l-3.5,1l-2.6-2.8L248.9,11.3z"/>
<path id="path4326-1" class="st5" d="M276.1,39.7c-13.9-0.7-20,5-21.3,12.7"/>
<path id="path4348-5" class="st7" d="M252.4,56.8l-1.6-3.4l-3.5,0.6l-0.6,3.8l3.2,1.7L252.4,56.8z"/>
<path id="path4350-6" class="st9" d="M256,57.8l-3.5-1l-2.6,2.8l1,3.8l3.5,1l2.6-2.8L256,57.8z"/>
<path id="path4328-6" class="st6" d="M253.2,54.9l-0.2-6.3l5.2,3L253.2,54.9z"/>
<g id="layer1" transform="translate(11.02699,0.51232248)">
	<path id="path2985-3_2_" class="st10" d="M121.9,36.9"/>
</g>
<path id="rect3817" class="st11" d="M71.3,29.6h31.3V45H71.3V29.6z"/>
<path id="rect3819" class="st12" d="M102.3,29.6h31.3V45h-31.3V29.6z"/>
<path id="rect3821" class="st13" d="M133.6,29.6H165V45h-31.3V29.6z"/>
<text id="XMLID_68_" transform="matrix(1 0 0 1 103.5666 40.8136)" class="st1 st2">mdtG</text>
</svg>
