<?xml version="1.0" encoding="utf-8"?>
<!-- Generator: Adobe Illustrator 19.0.0, SVG Export Plug-In . SVG Version: 6.00 Build 0)  -->
<svg version="1.1" id="Layer_1" xmlns="http://www.w3.org/2000/svg" xmlns:xlink="http://www.w3.org/1999/xlink" x="0px" y="0px"
	 viewBox="0 0 282.1 144.3" style="enable-background:new 0 0 282.1 144.3;" xml:space="preserve">
<style type="text/css">
	.st0{fill:#7D287D;}
	.st1{fill:#038181;}
	.st2{fill:#ED2224;stroke:#010101;stroke-width:1.25;stroke-miterlimit:2;}
	.st3{font-family:'Ayuthaya';}
	.st4{font-size:12px;}
</style>
<path id="path4501" inkscape:connector-curvature="0" class="st0" d="M18.1,45.5l2.3-3.2l2.1-2.9l2.1-2.5l2.3-2.5l2.6-2.5l2.4-1.7
	l2.6-2l4.5-2.6l4.1-1.6l5.5-1.9l5.5-1.2l6.5-0.5l5.7,0.2l7.1,1.2l5.7,1.6l4.7-10.9l-5.3-1.9l-5.9-1.2l-4.5-0.7l-6-0.3l-6-0.1
	l-4.9,0.8l-5.3,1.4l-6.4,1.9l-5.3,2.4l-6,3.6l-2.4,1.4l-3.8,2.9l-3.2,3l-2.5,2.7L14,30.9l-2.2,3l-1.7,2.4l-1.9,2.8"/>
<path id="path4499" inkscape:connector-curvature="0" class="st1" d="M23.8,118.7l7.4-9.1l3.1,2.1l4.5,2.6l4.1,1.6l5.5,1.9l5.5,1.2
	l6.5,0.5l5.7-0.2l7.1-1.2l5.7-1.6l4.5,11.2l-5.2,1.6l-5.9,1.2l-4.5,0.7l-6,0.3l-6.2-0.5l-4.3-0.3l-5.7-1.2l-6.4-1.9l-5.3-2.4l-6-3.6
	l-2.4-1.4L23.8,118.7z"/>
<path id="path4497" inkscape:connector-curvature="0" class="st2" d="M122.9,73.5c0.6-9.9-1.3-19.9-5.4-29.1c-1-2.3-2-4.1-3.3-6.3
	l-4.5,2.6L112,46l-5.8,2.7c5,10.5,6.1,22.4,3.2,33.7l5,1.2l1.7-5.4l6.1,0.9C122.8,77.2,122.8,75,122.9,73.5L122.9,73.5z"/>
<text id="XMLID_114_" transform="matrix(1 0 0 1 84.5334 72.144)" class="st3 st4">ARG</text>
</svg>
