<svg xmlns="http://www.w3.org/2000/svg" width="612" height="612" viewBox="0 0 612 612"><path fill="#732728" d="M355.35 195.567c-68.974-32.907-69.765-85.82-69.765-85.82a74.838 74.838 0 0 1-.625 8.405c.761 12.263-40.816 124.088 1.416 150.063 56.009 34.47 45.859-10.222 39.483 49.422-6.866 64.302 26.165 115.347-50.69 110.963-73.657-4.204-128.623-58.463-127.744-128.203-3.527 12.049-5.574 25.243-5.574 39.954 0 93.187 77.391 159.524 172.954 154.788 94.131-4.666 147.681-73.25 147.681-152.423-.001-73.445-34.469-112.491-107.136-147.149z"/><path fill="#DC3F3F" d="M396.626 238.347c-43.96-50.029-94.461-44.113-111.041-128.6-8.93 70.502-112.904 104.476-138.161 190.65-2.477 7.532-3.869 15.182-4.359 22.826l-.248.1c-9.962 112.97 112.438 172.058 206.751 130.34 79.882-35.325 112.269-141.08 47.058-215.316z"/><path fill="#5A1D1A" d="M246.704 401.493c.437 7.479-5.503 13.896-13.23 14.339-7.727.431-14.344-5.268-14.77-12.747-.424-7.473 5.492-13.896 13.23-14.326 7.739-.443 14.357 5.255 14.77 12.734z"/><path fill="#FFF" d="M239.697 398.645c.177 2.913-2.153 5.414-5.155 5.586-3.008.176-5.597-2.053-5.75-4.967-.177-2.914 2.141-5.409 5.137-5.58 3.025-.171 5.614 2.046 5.768 4.961z"/><path fill="#5A1D1A" d="M349.552 387.119c.425 7.479-5.509 13.891-13.241 14.339-7.733.43-14.345-5.273-14.775-12.753-.425-7.473 5.503-13.89 13.241-14.32 7.733-.448 14.344 5.255 14.775 12.734z"/><path fill="#FFF" d="M342.539 384.271c.152 2.913-2.147 5.414-5.161 5.586-3.014.176-5.592-2.06-5.745-4.973-.177-2.914 2.141-5.403 5.144-5.574 3.007-.171 5.585 2.046 5.762 4.961z"/></svg>
