<?xml version="1.0" encoding="utf-8"?>
<!-- Generator: Adobe Illustrator 19.0.0, SVG Export Plug-In . SVG Version: 6.00 Build 0)  -->
<svg version="1.1" xmlns="http://www.w3.org/2000/svg" xmlns:xlink="http://www.w3.org/1999/xlink" x="0px" y="0px"
	 viewBox="0 0 155.5 127.3" style="enable-background:new 0 0 155.5 127.3;" xml:space="preserve">
<style type="text/css">
	.st0{fill:#FFFFFF;}
	.st1{fill:#D6953E;}
	.st2{fill:#B57B35;}
	.st3{fill:#285C77;}
	.st4{fill:#868689;}
	.st5{fill:#6D6D6D;}
	.st6{fill:#C5C4D7;}
	.st7{fill:#A5A5AD;}
	.st8{fill:#172F47;}
	.st9{fill:#202739;}
	.st10{fill:#A7A6BB;}
	.st11{fill:#FEFEFE;}
	.st12{fill:#FD7C3A;}
	.st13{fill:#004DB9;}
	.st14{fill:#D3D3D3;}
	.st15{fill:#ADADAD;}
	.st16{fill:#E4E4EF;}
	.st17{fill:#897762;}
	.st18{fill:#331D0B;}
	.st19{fill:#635140;}
	.st20{fill:#EDAC7C;}
	.st21{fill:#F7A588;}
	.st22{fill:#CF9166;}
	.st23{fill:#B57223;}
	.st24{fill:#39748E;}
	.st25{fill:#77BFD8;}
</style>
<g id="BACKGROUND">
	<rect id="XMLID_1_" x="-176" y="-122.7" class="st0" width="500" height="500"/>
</g>
<g id="OBJECTS">
	<g id="XMLID_3_">
		<g id="XMLID_4_">
			<polygon id="XMLID_5_" class="st1" points="-60.9,151.8 -25.4,68.2 -25.4,51.7 -67.9,151.8 			"/>
			<polygon id="XMLID_6_" class="st2" points="-30.5,67.2 -25.4,68.2 -25.4,51.7 -31.5,66.1 -32.5,68.6 			"/>
		</g>
		<g id="XMLID_7_">
			<path class="st3" d="M131.3-32.4l-14.1,13.1l4.9,7.4c1,1.5,1.1,3.4,0.3,5.1c0,0,0,0,0,0.1c-0.8,1.6-2.3,2.8-4.1,3.1l-8.8,1.2
				l-0.7,19.2l8.7,1.8c1.8,0.4,3.2,1.7,3.8,3.3c0,0,0,0,0,0.1c0.6,1.7,0.4,3.6-0.7,5l-5.4,7l6.5,7.1l6.5,7.1l7.4-4.9
				c1.5-1,3.4-1.1,5.1-0.3c0,0,0,0,0.1,0c1.6,0.8,2.8,2.3,3.1,4.1l1.2,8.8l19.2,0.7l1.8-8.7c0.4-1.8,1.7-3.2,3.3-3.8c0,0,0,0,0.1,0
				c1.7-0.6,3.6-0.4,5,0.7l7,5.4l14.1-13.1l-4.9-7.4c-1-1.5-1.1-3.4-0.3-5.1c0,0,0,0,0-0.1c0.8-1.6,2.3-2.8,4.1-3.1l8.8-1.2L204,1
				l-8.7-1.8c-1.8-0.4-3.2-1.7-3.8-3.3c0,0,0,0,0-0.1c-0.6-1.7-0.4-3.6,0.7-5l5.4-7l-6.5-7.1l-6.5-7l-7.4,4.9
				c-1.5,1-3.4,1.1-5.1,0.3c0,0,0,0-0.1,0c-1.6-0.8-2.8-2.3-3.1-4.1l-1.2-8.8l-19.2-0.7l-1.8,8.7c-0.4,1.8-1.7,3.2-3.3,3.8
				c0,0,0,0-0.1,0c-1.7,0.6-3.6,0.4-5-0.7L131.3-32.4z M177.2-10.5c10.7,11.5,10,29.5-1.5,40.1c-11.5,10.7-29.5,10-40.1-1.5
				c-10.7-11.5-10-29.5,1.5-40.1C148.6-22.7,166.5-22,177.2-10.5z"/>
			<path class="st1" d="M219-10l-6.2,5.8l2.1,3.3c0.4,0.7,0.5,1.5,0.1,2.2c0,0,0,0,0,0c-0.3,0.7-1,1.2-1.8,1.3l-3.9,0.5l-0.3,8.5
				l3.8,0.8c0.8,0.2,1.4,0.7,1.7,1.5c0,0,0,0,0,0c0.3,0.7,0.2,1.6-0.3,2.2l-2.4,3.1l2.9,3.1l2.9,3.1l3.3-2.1
				c0.7-0.4,1.5-0.5,2.2-0.1c0,0,0,0,0,0c0.7,0.3,1.2,1,1.3,1.8l0.5,3.9l8.5,0.3l0.8-3.8c0.2-0.8,0.7-1.4,1.5-1.7c0,0,0,0,0,0
				c0.7-0.3,1.6-0.2,2.2,0.3l3.1,2.4l6.2-5.8l-2.1-3.3c-0.4-0.7-0.5-1.5-0.1-2.2c0,0,0,0,0,0c0.3-0.7,1-1.2,1.8-1.3l3.9-0.5l0.3-8.5
				l-3.8-0.8c-0.8-0.2-1.4-0.7-1.7-1.5c0,0,0,0,0,0c-0.3-0.7-0.2-1.6,0.3-2.2l2.4-3.1L245.4-6l-2.9-3.1L239.2-7
				c-0.7,0.4-1.5,0.5-2.2,0.1c0,0,0,0,0,0c-0.7-0.3-1.2-1-1.3-1.8l-0.5-3.9l-8.5-0.3L225.8-9c-0.2,0.8-0.7,1.4-1.5,1.7c0,0,0,0,0,0
				c-0.7,0.3-1.6,0.2-2.2-0.3L219-10z M239.3-0.4c4.7,5.1,4.4,13-0.7,17.7s-13,4.4-17.7-0.7c-4.7-5.1-4.4-13,0.7-17.7
				C226.6-5.7,234.5-5.5,239.3-0.4z"/>
			<path class="st1" d="M70.5-60.3l-9.2,8.5l3.2,4.8c0.6,1,0.7,2.2,0.2,3.3c0,0,0,0,0,0c-0.5,1.1-1.5,1.8-2.6,2l-5.7,0.8l-0.5,12.5
				l5.6,1.2c1.2,0.2,2.1,1.1,2.5,2.2c0,0,0,0,0,0c0.4,1.1,0.3,2.3-0.5,3.3L60-17.2l4.3,4.6L68.5-8l4.8-3.2c1-0.6,2.2-0.7,3.3-0.2
				c0,0,0,0,0,0c1.1,0.5,1.8,1.5,2,2.6l0.8,5.7l12.5,0.5l1.2-5.6c0.2-1.2,1.1-2.1,2.2-2.5c0,0,0,0,0,0c1.1-0.4,2.3-0.3,3.3,0.5
				l4.6,3.5l9.2-8.5l-3.2-4.8c-0.6-1-0.7-2.2-0.2-3.3c0,0,0,0,0,0c0.5-1.1,1.5-1.8,2.6-2l5.7-0.8l0.5-12.5l-5.6-1.2
				c-1.2-0.2-2.1-1.1-2.5-2.2c0,0,0,0,0,0c-0.4-1.1-0.3-2.3,0.5-3.3l3.5-4.6l-4.3-4.6l-4.3-4.6l-4.8,3.2c-1,0.6-2.2,0.7-3.3,0.2
				c0,0,0,0,0,0c-1.1-0.5-1.8-1.5-2-2.6L94.2-64l-12.5-0.5l-1.2,5.6c-0.2,1.2-1.1,2.1-2.2,2.5c0,0,0,0,0,0c-1.1,0.4-2.3,0.3-3.3-0.5
				L70.5-60.3z M100.3-46.1c6.9,7.5,6.5,19.1-1,26.1c-7.5,6.9-19.1,6.5-26.1-1c-6.9-7.5-6.5-19.1,1-26.1
				C81.7-54,93.4-53.6,100.3-46.1z"/>
		</g>
		<g id="XMLID_8_">
			<g id="XMLID_9_">
				<path id="XMLID_206_" class="st4" d="M-86.7,160.4h321.5c2.4,0,4.3-1.9,4.3-4.3l0,0c0-2.4-1.9-4.3-4.3-4.3H-86.7
					c-2.4,0-4.3,1.9-4.3,4.3l0,0C-91,158.4-89.1,160.4-86.7,160.4z"/>
				<path id="XMLID_10_" class="st5" d="M-90.7,157.8c0.7,1.5,2.2,2.6,4,2.6h321.5c1.8,0,3.3-1.1,4-2.6H-90.7z"/>
			</g>
			<rect id="XMLID_42_" x="8" y="147.2" class="st6" width="119.3" height="4.5"/>
			<rect id="XMLID_270_" x="20.1" y="147.2" class="st7" width="119.3" height="4.5"/>
		</g>
		<g id="XMLID_15_">
			<path id="XMLID_520_" class="st8" d="M163.3,119.8H-14.3c-3.9,0-7-3.1-7-7V7c0-3.9,3.1-7,7-7h177.6c3.9,0,7,3.1,7,7v105.8
				C170.3,116.7,167.1,119.8,163.3,119.8z"/>
			<rect x="73.1" y="17.9" class="st9" width="2.6" height="83.8"/>
			<path id="XMLID_16_" class="st10" d="M170.3,12.6V6.5c0-3.6-2.9-6.5-6.5-6.5H-14.9c-3.6,0-6.5,2.9-6.5,6.5v6.1H170.3z"/>
			<g id="XMLID_18_">
				<g id="XMLID_19_">
					<rect x="89.6" y="61.4" class="st11" width="26.3" height="4.5"/>
					<rect x="89.6" y="70.2" class="st12" width="32.8" height="4.5"/>
					<rect x="125.8" y="70.2" class="st11" width="16.2" height="4.5"/>
					<rect x="89.6" y="79" class="st11" width="12.9" height="4.5"/>
					<rect x="107" y="79" class="st11" width="48.5" height="4.5"/>
					<rect x="122.1" y="61.4" class="st13" width="15.1" height="4.5"/>
				</g>
				<g id="XMLID_20_">
					<rect x="89.6" y="20.2" class="st11" width="26.3" height="4.5"/>
					<rect x="89.6" y="29" class="st12" width="32.8" height="4.5"/>
					<rect x="125.8" y="29" class="st11" width="16.2" height="4.5"/>
					<rect x="89.6" y="37.8" class="st11" width="12.9" height="4.5"/>
					<rect x="107" y="37.8" class="st11" width="48.5" height="4.5"/>
					<rect x="122.1" y="20.2" class="st13" width="15.1" height="4.5"/>
				</g>
			</g>
			<g id="XMLID_29_">
				<g id="XMLID_36_">
					<rect x="0.1" y="61.4" class="st11" width="26.3" height="4.5"/>
					<rect x="0.1" y="70.2" class="st12" width="32.8" height="4.5"/>
					<rect x="36.2" y="70.2" class="st11" width="16.2" height="4.5"/>
					<rect x="0.1" y="79" class="st11" width="12.9" height="4.5"/>
					<rect x="17.4" y="79" class="st11" width="48.5" height="4.5"/>
					<rect x="32.6" y="61.4" class="st13" width="15.1" height="4.5"/>
				</g>
				<g id="XMLID_37_">
					<rect x="0.1" y="20.2" class="st11" width="26.3" height="4.5"/>
					<rect x="0.1" y="29" class="st12" width="32.8" height="4.5"/>
					<rect x="36.2" y="29" class="st11" width="16.2" height="4.5"/>
					<rect x="0.1" y="37.8" class="st11" width="12.9" height="4.5"/>
					<rect x="17.4" y="37.8" class="st11" width="48.5" height="4.5"/>
					<rect x="32.6" y="20.2" class="st13" width="15.1" height="4.5"/>
				</g>
			</g>
			<g id="XMLID_327_">
				<path id="XMLID_52_" class="st4" d="M160.9,123.9H-12c-7.4,0-13.4-6-13.4-13.4V9.4C-25.4,2-19.3-4-12-4h172.8
					c7.4,0,13.4,6,13.4,13.4v101C174.3,117.8,168.3,123.9,160.9,123.9z M-12,4c-3,0-5.4,2.4-5.4,5.4v83.1c0,3,2.4,5.4,5.4,5.4h172.8
					c3,0,5.4-2.4,5.4-5.4V9.4c0-3-2.4-5.4-5.4-5.4H-12z"/>
			</g>
			<path id="XMLID_45_" class="st14" d="M156.7,101.5l0.4-1.7c1.1-4.8-0.5-9.8-4-13.1v0c-3.6-3.3-8.7-4.5-13.3-3l-0.8,0.3l10.3,9.6
				l-1.6,6.9l-6.7,2.1l-10.3-9.6l-0.2,0.8c-1.1,4.8,0.5,9.8,4,13.1l0,0c3.6,3.3,8.7,4.5,13.3,3l1.7-0.5l15.1,14
				c3.6-1,6.6-3.6,8.3-6.9L156.7,101.5z"/>
			<g id="XMLID_55_">
				<path id="XMLID_56_" class="st5" d="M160.9,2.1H-12c-3,0-5.4,2.4-5.4,5.4v2c0-3,2.4-5.4,5.4-5.4h172.8c3,0,5.4,2.4,5.4,5.4v-2
					C166.2,4.5,163.8,2.1,160.9,2.1z"/>
				<path id="XMLID_57_" class="st5" d="M160.9,121.9H-12c-7.4,0-13.4-6-13.4-13.4v2c0,7.4,6,13.4,13.4,13.4h172.8
					c7.4,0,13.4-6,13.4-13.4v-2C174.3,115.9,168.3,121.9,160.9,121.9z"/>
			</g>
			<circle id="XMLID_58_" class="st11" cx="155.5" cy="8.5" r="2"/>
			<circle id="XMLID_60_" class="st9" cx="148.5" cy="8.5" r="2"/>
			<circle id="XMLID_61_" class="st12" cx="141.5" cy="8.5" r="2"/>
		</g>
		<g id="XMLID_63_">
			<polygon id="XMLID_64_" class="st1" points="-31.2,151.8 12.1,49.8 6.2,47.3 -38.2,151.8 			"/>
			<path class="st1" d="M-30.9,68.8L-30.9,68.8c0-1.8,1.4-3.2,3.2-3.2H0V72h-27.7C-29.4,72-30.9,70.6-30.9,68.8z"/>
			<rect x="-39.6" y="88.6" class="st1" width="30.8" height="6.5"/>
			<rect x="-49.5" y="111.6" class="st1" width="31.5" height="6.5"/>
			<rect x="-58.8" y="134.6" class="st1" width="30.5" height="6.5"/>
		</g>
		<g id="XMLID_65_">
			<path id="XMLID_66_" class="st15" d="M194.6,143.4l-34.5-49l0.7-1.6c2.1-4.4,1.6-9.6-1.2-13.6c-2.8-4-7.5-6.2-12.4-5.8l-0.9,0.1
				l8.1,11.5l-3,6.4l-7,0.6l-8.1-11.5l-0.4,0.8c-2.1,4.4-1.6,9.6,1.2,13.6c2.8,4,7.5,6.2,12.4,5.8l1.7-0.2l34.5,49
				c1.7,2.4,5,3,7.4,1.3C195.7,149.2,196.3,145.9,194.6,143.4z"/>
			<path class="st4" d="M189.4,145.4L189.4,145.4c-1.2,0.8-2.8,0.5-3.7-0.6l-28.9-41.1c-0.8-1.2-0.5-2.8,0.6-3.7l0,0
				c1.2-0.8,2.8-0.5,3.7,0.6l28.9,41.1C190.9,142.9,190.6,144.5,189.4,145.4z"/>
		</g>
	</g>
	<g id="XMLID_67_">
		<path id="XMLID_68_" class="st16" d="M246,268.9H-98c-3.1,0-5.6-2.5-5.6-5.6l0,0c0-3.1,2.5-5.6,5.6-5.6h344c3.1,0,5.6,2.5,5.6,5.6
			l0,0C251.6,266.4,249.1,268.9,246,268.9z"/>
		<path id="XMLID_70_" class="st6" d="M140.3,268.9H7.8c-3.1,0-5.6-2.5-5.6-5.6l0,0c0-3.1,2.5-5.6,5.6-5.6h132.5
			c3.1,0,5.6,2.5,5.6,5.6l0,0C145.9,266.4,143.4,268.9,140.3,268.9z"/>
	</g>
	<g id="XMLID_72_">
		<path class="st17" d="M73.1,166.8h31.7c0.5,0,1.1,0,1.6,0.1c10.8,1.1,18,11.8,15.4,22.3l-13,60.4H90.3l9-57.3H73.1V166.8z"/>
		<path class="st18" d="M90.3,249.7h15.6c0,0,16.6,1.6,16.6,12.5H90.3V249.7z"/>
		<path id="XMLID_73_" class="st17" d="M75,166.8H43.2c-0.5,0-1.1,0-1.6,0.1c-10.8,1.1-18,11.8-15.4,22.3l13,60.4h18.7l-9-57.3H75
			V166.8z"/>
		<path id="XMLID_74_" class="st19" d="M101.2,249.7c0.1-0.2,0.1-0.4,0.2-0.6c2.2-7.1,4.2-24.1,6.2-31.3c2.2-7.7,4.2-15.4,5.7-23.2
			c0.3-1.6,0.6-3.2,0.8-4.8c0.1-0.7,0.2-1.2,0.2-1.4c0.1-0.8,0.2-1.7,0.3-2.5c0-0.2,0-0.4,0.1-0.6H73.1v7.2h26.1l-9,57.3H101.2z"/>
		<path id="XMLID_75_" class="st19" d="M75,185.2H35c0.2,0.8,0.4,1.6,0.6,2.4c1.8,6.9,4,13.7,6.3,20.4c2.2,6.6,4.5,13.2,6.2,19.9
			c1,4,1.7,17.8,2.7,21.7h7l-9-57.3H75V185.2z"/>
		<g id="XMLID_534_">
			<g id="XMLID_535_">
				<g id="XMLID_537_">
					<g id="XMLID_570_">
						<path id="XMLID_573_" class="st20" d="M55.7,61c0,0-4-6.3-8.5-2.8C42.6,61.6,47.5,74,55.7,72L55.7,61z"/>
						<path id="XMLID_572_" class="st21" d="M55.7,65.2l0,5.6c-7,0.6-10.1-9.4-6.7-10.5C51.7,59.5,54.5,63.2,55.7,65.2z"/>
						<path id="XMLID_571_" class="st22" d="M47.7,62.3c0,0,0,0,0-0.1c0-0.1,0.1-0.2,0.1-0.3c0.1-0.3,0.3-0.7,0.7-0.9
							c0.1-0.1,0.2-0.1,0.3-0.2c0.1,0,0.1,0,0.2-0.1l0,0l0,0c0,0,0,0,0,0l0,0l0,0l0,0l0.1,0c0.1,0,0.1,0,0.2,0c0.1,0,0.1,0,0.2,0
							c0.1,0,0.1,0,0.2,0c0.1,0,0.1,0,0.2,0c0.6,0.1,1.1,0.4,1.7,0.7c0.3,0.2,0.5,0.4,0.8,0.6c0.3,0.2,0.5,0.4,0.7,0.6
							c0.5,0.4,0.9,0.9,1.2,1.2c0.7,0.8,1.2,1.3,1.2,1.3s-0.1-0.2-0.2-0.5c-0.1-0.3-0.3-0.7-0.6-1.2c-0.1-0.2-0.3-0.5-0.5-0.7
							c-0.2-0.3-0.4-0.5-0.6-0.8c-0.4-0.5-1-1-1.6-1.4c-0.3-0.2-0.7-0.4-1-0.5c-0.4-0.1-0.7-0.2-1.1-0.3c-0.1,0-0.2,0-0.3,0
							c-0.1,0-0.2,0-0.3,0c-0.1,0-0.2,0-0.3,0c-0.1,0-0.2,0-0.2,0.1L49,60l-0.1,0l-0.1,0c-0.1,0-0.2,0.1-0.2,0.1
							c-0.1,0.1-0.3,0.2-0.4,0.3c-0.2,0.2-0.3,0.5-0.4,0.7c-0.1,0.2-0.1,0.4-0.1,0.6c0,0.2,0,0.3,0,0.4
							C47.7,62.2,47.7,62.3,47.7,62.3z"/>
					</g>
					<g id="XMLID_566_">
						<path id="XMLID_569_" class="st20" d="M97.8,64.7c0,0,5-5.5,8.9-1.3c3.9,4.2-3,15.5-10.8,12.1L97.8,64.7z"/>
						<path id="XMLID_568_" class="st21" d="M97.1,68.8l-1,5.6c6.8,1.8,11.5-7.6,8.4-9.2C102.1,63.9,98.6,67,97.1,68.8z"/>
						<path id="XMLID_567_" class="st22" d="M105.5,67.3c0,0,0,0,0-0.1c0-0.1,0-0.2-0.1-0.3c-0.1-0.3-0.2-0.7-0.5-1
							c-0.1-0.1-0.2-0.1-0.3-0.2c-0.1,0-0.1-0.1-0.2-0.1l0,0l0,0c0,0,0,0,0,0l0,0l0,0l0,0l-0.1,0c-0.1,0-0.1,0-0.2-0.1
							c-0.1,0-0.1,0-0.2,0c-0.1,0-0.1,0-0.2,0c-0.1,0-0.1,0-0.2,0c-0.6,0-1.2,0.2-1.8,0.4c-0.3,0.1-0.6,0.3-0.9,0.4
							c-0.3,0.2-0.6,0.3-0.8,0.5c-0.5,0.4-1,0.7-1.4,1c-0.8,0.6-1.4,1.1-1.4,1.1s0.1-0.2,0.3-0.4c0.2-0.3,0.4-0.6,0.8-1
							c0.2-0.2,0.4-0.4,0.6-0.6c0.2-0.2,0.5-0.4,0.7-0.7c0.5-0.4,1.1-0.8,1.8-1.2c0.3-0.1,0.7-0.3,1.1-0.3c0.4-0.1,0.8-0.1,1.1-0.1
							c0.1,0,0.2,0,0.3,0c0.1,0,0.2,0,0.3,0.1c0.1,0,0.2,0.1,0.3,0.1c0.1,0,0.2,0.1,0.2,0.1l0.1,0.1l0.1,0l0.1,0
							c0.1,0,0.1,0.1,0.2,0.2c0.1,0.1,0.2,0.2,0.3,0.4c0.2,0.3,0.2,0.5,0.3,0.7c0,0.2,0,0.4,0,0.6c0,0.2,0,0.3-0.1,0.4
							C105.5,67.2,105.5,67.3,105.5,67.3z"/>
					</g>
					<path id="XMLID_565_" class="st20" d="M69.2,81l11.4,0c0,0,0.5,17.9,0.5,17.9c0,0-0.8,3.6-5.9,3.7c-5.1,0.1-6.3-3.6-6.3-3.6
						C69,98.8,69.2,81,69.2,81z"/>
					<path id="XMLID_79_" class="st22" d="M69.2,81l11.4,0c0,0,0.5,17.9,0.5,17.9c0,0-0.8,3.6-5.9,3.7c-5.1,0.1-6.3-3.6-6.3-3.6
						C69,98.8,69.2,81,69.2,81z"/>
					<path id="XMLID_563_" class="st22" d="M69.9,83.8l11.4,1c0,0-0.1,2.3-0.1,4.2c0,0.3-3.3,0.5-3.7,0.5c-2.8,0.2-5.5-0.4-8.2-1.3
						C69.6,86.3,69.9,83.8,69.9,83.8z"/>
					<path id="XMLID_561_" class="st22" d="M53.3,55.7c1-7.9,5-15.1,13.1-17.5c4.1-1.2,8.5-1.3,12.8-0.8c4.2,0.4,8.7,1.1,12.5,3
						c6.8,3.3,5.5,6.9,5.6,14.2c0,0.7,4.5,4.6,4.4,5.3c-0.1,1.6-0.1,3.3-0.3,4.9c-0.5,3.7-1.4,7.3-2.9,10.7
						c-1.8,4.1-4.6,7.8-8.4,10.4c-2.1,1.5-4.6,2.5-7.1,3.2c-4.2,1.1-8.1,1.2-12.2,0.1c-2.8-0.8-5.5-2-7.9-3.6
						c-4-2.8-6.8-6.8-8.4-11.3c-1.3-3.8-1.8-7.8-1.8-11.8c0-2.2,0.2-4.4,0.6-6.5C53.3,55.9,53.3,55.8,53.3,55.7z"/>
					<g id="XMLID_538_">
						<path id="XMLID_539_" class="st22" d="M52.9,56c0,0-0.1-3.1,0.2-7.1C52.8,52.9,52.9,56,52.9,56z"/>
					</g>
					<path id="XMLID_574_" class="st23" d="M57.4,39.8c7.2-10.8,45.5-14,48,22.3c1.8,26.4-28.1,29.7-42.5,23.5
						C38.4,75,50.2,50.5,57.4,39.8z"/>
				</g>
				<path id="XMLID_536_" class="st23" d="M52.5,66.9c0,0-3.4-1-5.3-8.7C45.9,53,47.4,42,53.8,36.7c3.8-3.1,4.8-1.7,4.8-1.7
					s1-3.7,8.1-6.8c23.4-10.1,29.4,0.9,32.7,10c4.5,12.4,2.3,21.7-22.2,13.7c-9.9-3.2-16.2-4.8-16.2-4.8s0.1,3.2-1.9,7.7
					c-2,4.5-6.7,9.5-6.7,9.5"/>
			</g>
		</g>
		<path id="XMLID_78_" class="st13" d="M118.9,136.7l-13.7-31.1c-2-4.5-7.2-7.4-13.1-7.4H75.9h-1.8H57.8c-5.9,0-11.1,3-13.1,7.4
			L31,136.7c-3.2,7.2,3.5,14.8,13.1,14.8h30h1.8h30C115.4,151.5,122.1,143.9,118.9,136.7z"/>
		<path class="st24" d="M95.2,184.1H55.4c-7.8,0-14.1-6.3-14.1-14.1v-52.2c0-7.8,6.3-14.1,14.1-14.1h39.8c7.8,0,14.1,6.3,14.1,14.1
			V170C109.3,177.8,103,184.1,95.2,184.1z"/>
		<path class="st3" d="M91.9,179.1H58.7c-7.8,0-14.1-6.3-14.1-14.1v-47.3c0-7.8,6.3-14.1,14.1-14.1h33.2c7.8,0,14.1,6.3,14.1,14.1
			v47.3C106,172.8,99.7,179.1,91.9,179.1z"/>
		<path class="st24" d="M90.9,94.5H57.7c-7.8,0-14.1-6.3-14.1-14.1V68.7c0-7.8,6.3-14.1,14.1-14.1h33.2c7.8,0,14.1,6.3,14.1,14.1
			v11.7C105,88.2,98.7,94.5,90.9,94.5z"/>
		<path id="XMLID_80_" class="st3" d="M89.8,91.1h-31c-6.3,0-11.4-5.1-11.4-11.4V67.4c0-6.3,5.1-11.4,11.4-11.4h31
			c6.3,0,11.4,5.1,11.4,11.4v12.2C101.2,86,96.1,91.1,89.8,91.1z"/>
		<ellipse class="st3" cx="74" cy="194.7" rx="39.8" ry="9.4"/>
		<path id="XMLID_81_" class="st24" d="M43.6,188.7c7.3,0.8,18.2,1.3,30.4,1.3s23.1-0.5,30.4-1.3c-7.3-2-18.2-3.3-30.4-3.3
			S50.9,186.6,43.6,188.7z"/>
		<path id="XMLID_82_" class="st25" d="M34.9,196.5c3.6,4.3,19.7,7.5,39,7.5s35.4-3.2,39-7.5H34.9z"/>
		<path id="XMLID_85_" class="st9" d="M79.8,250.6H68.1v-95.7c0-3.2,2.6-5.8,5.8-5.8l0,0c3.2,0,5.8,2.6,5.8,5.8V250.6z"/>
		<path id="XMLID_88_" class="st9" d="M78.1,150.5h-8.2v-82c0-2.3,1.8-4.1,4.1-4.1l0,0c2.3,0,4.1,1.8,4.1,4.1V150.5z"/>
		<path id="XMLID_89_" class="st18" d="M57.8,249.7H42.2c0,0-16.6,1.6-16.6,12.5h32.1V249.7z"/>
		<g id="XMLID_90_">
			<g id="XMLID_91_">
				<path id="XMLID_92_" class="st9" d="M73.5,202.7c-0.2,0-16.4,1.4-34.2-3.9c-12.8-3.8-11.2-30.3-9.1-42.9c5-0.2,8.9-1.3,8.9-2.7
					c0-1.5-4.7-2.7-10.5-2.7c-5.8,0-10.5,1.2-10.5,2.7c0,1.2,3.2,2.3,7.7,2.6c-1.6,9.9-5.1,41.4,12.1,46.5
					c12.2,3.6,23.6,4.3,30.2,4.3c3.5,0,5.7-0.2,6-0.2L73.5,202.7z"/>
			</g>
			<g id="XMLID_94_">
				<path class="st9" d="M76.2,202.7c0.2,0,16.4,1.4,34.2-3.9c12.8-3.8,11.2-30.3,9.1-42.9c-5-0.2-8.9-1.3-8.9-2.7
					c0-1.5,4.7-2.7,10.5-2.7c5.8,0,10.5,1.2,10.5,2.7c0,1.2-3.2,2.3-7.7,2.6c1.6,9.9,5.1,41.4-12.1,46.5
					c-12.2,3.6-23.6,4.3-30.2,4.3c-3.5,0-5.7-0.2-6-0.2L76.2,202.7z"/>
			</g>
		</g>
		<circle id="XMLID_95_" class="st9" cx="74" cy="257.4" r="6.9"/>
		<circle id="XMLID_96_" class="st9" cx="74" cy="151.5" r="6.9"/>
		<g id="XMLID_97_">
			<circle id="XMLID_98_" class="st9" cx="51.3" cy="257.4" r="6.9"/>
			<circle id="XMLID_99_" class="st9" cx="96.6" cy="257.4" r="6.9"/>
		</g>
		<rect x="53.2" y="249.7" class="st9" width="41.6" height="4.8"/>
	</g>
</g>
<g id="DESIGNED_BY_FREEPIK">
</g>
</svg>
