<svg xmlns="http://www.w3.org/2000/svg" xmlns:xlink="http://www.w3.org/1999/xlink" version="1.1" x="0px" y="0px" viewBox="0 0 60 72.5" enable-background="new 0 0 60 58" xml:space="preserve"><g><circle cx="44" cy="39" r="1.5"/><circle cx="46" cy="56" r="1.5"/><circle cx="21" cy="48" r="1.5"/><circle cx="37" cy="42" r="1.5"/><circle cx="52" cy="47" r="1.5"/><circle cx="15" cy="56" r="1.5"/><path d="M17.07,11.9c-1.89-1.89-4.4-2.93-7.07-2.93s-5.18,1.04-7.07,2.93C1.04,13.79,0,16.3,0,18.97c0,2.67,1.04,5.18,2.93,7.07   L18.49,41.6l14.14-14.14L17.07,11.9z M4.34,24.63C2.83,23.12,2,21.11,2,18.97c0-2.14,0.83-4.15,2.34-5.66   c1.51-1.51,3.52-2.34,5.66-2.34s4.15,0.83,5.66,2.34L29.8,27.46L18.49,38.77L4.34,24.63z"/><path d="M57.07,2.93C55.18,1.04,52.67,0,50,0s-5.18,1.04-7.07,2.93L27.37,18.49l14.14,14.14l15.56-15.56   C58.96,15.18,60,12.67,60,10S58.96,4.82,57.07,2.93z M55.66,15.66L41.51,29.8L30.2,18.49L44.34,4.34C45.85,2.83,47.86,2,50,2   s4.15,0.83,5.66,2.34S58,7.86,58,10S57.17,14.15,55.66,15.66z"/><path d="M40,35c0-2.21-1.79-4-4-4s-4,1.79-4,4s1.79,4,4,4S40,37.21,40,35z M34,35c0-1.1,0.9-2,2-2s2,0.9,2,2s-0.9,2-2,2   S34,36.1,34,35z"/><path d="M29,39c-2.21,0-4,1.79-4,4s1.79,4,4,4s4-1.79,4-4S31.21,39,29,39z M29,45c-1.1,0-2-0.9-2-2s0.9-2,2-2s2,0.9,2,2   S30.1,45,29,45z"/><path d="M39,45c-2.21,0-4,1.79-4,4s1.79,4,4,4s4-1.79,4-4S41.21,45,39,45z M39,51c-1.1,0-2-0.9-2-2s0.9-2,2-2s2,0.9,2,2   S40.1,51,39,51z"/><path d="M29,50c-2.21,0-4,1.79-4,4s1.79,4,4,4s4-1.79,4-4S31.21,50,29,50z M29,56c-1.1,0-2-0.9-2-2s0.9-2,2-2s2,0.9,2,2   S30.1,56,29,56z"/></g><text x="0" y="73" fill="#000000" font-size="5px" font-weight="bold" font-family="'Helvetica Neue', Helvetica, Arial-Unicode, Arial, Sans-serif">Created by Oliviu Stoian</text><text x="0" y="78" fill="#000000" font-size="5px" font-weight="bold" font-family="'Helvetica Neue', Helvetica, Arial-Unicode, Arial, Sans-serif">from the Noun Project</text></svg>