<?xml version="1.0" encoding="utf-8"?>
<!-- Generator: Adobe Illustrator 19.0.0, SVG Export Plug-In . SVG Version: 6.00 Build 0)  -->
<svg version="1.1" xmlns="http://www.w3.org/2000/svg" xmlns:xlink="http://www.w3.org/1999/xlink" x="0px" y="0px"
	 viewBox="0 0 271.9 186.5" style="enable-background:new 0 0 271.9 186.5;" xml:space="preserve">
<style type="text/css">
	.st0{fill:#375163;}
	.st1{fill:url(#SVGID_1_);}
	.st2{clip-path:url(#SVGID_3_);}
	.st3{fill:none;}
	.st4{fill:#5C7E7E;}
	.st5{font-family:'Gotham-Book';}
	.st6{font-size:24.9413px;}
	.st7{opacity:0.4;fill:#FFFFFF;}
	.st8{fill:#B7A290;}
	.st9{fill:#957C6B;}
	.st10{fill:#38302D;}
	.st11{fill:#201C1C;}
	.st12{fill:#E0C1AD;}
	.st13{fill:#C08C72;}
	.st14{fill:#B7795F;}
	.st15{fill:#FFFFFF;}
	.st16{fill:#F1E3D9;}
	.st17{opacity:0.6;fill:#C7E0DF;}
	.st18{fill:#292626;}
	.st19{fill:#2B2929;}
	.st20{fill:#1A1919;}
	.st21{fill:#95624E;}
	.st22{fill:#A64D2E;}
	.st23{fill:#7F3520;}
	.st24{fill:#CCA795;}
	.st25{fill:#3F3F44;}
	.st26{opacity:0.4;fill:#314EAA;}
	.st27{fill:#777A82;}
	.st28{fill:#37383B;}
	.st29{fill:#2C2D2F;}
	.st30{fill:#3D3E41;}
	.st31{fill:#252628;}
	.st32{fill:#333438;}
</style>
<g id="BACKGROUND">
	<rect x="-145.5" y="-167.9" class="st0" width="500" height="500"/>
</g>
<g id="OBJECTS">
	<g id="Firework">
	</g>
	<g>
		<radialGradient id="SVGID_1_" cx="106.1842" cy="76.7179" r="198.8781" gradientUnits="userSpaceOnUse">
			<stop  offset="0" style="stop-color:#223061"/>
			<stop  offset="0.9821" style="stop-color:#223061"/>
		</radialGradient>
		<path class="st1" d="M-113.3,120.3C-113.3-0.9-15-99.2,106.2-99.2S325.7-0.9,325.7,120.3c0,49.7-16.5,95.5-44.3,132.3H-69
			C-96.8,215.8-113.3,170-113.3,120.3z"/>
		<g>
			<defs>
				<path id="SVGID_2_" d="M-113.3,120.3C-113.3-0.9-15-99.2,106.2-99.2S325.7-0.9,325.7,120.3c0,49.7-16.5,95.5-44.3,132.3H-69
					C-96.8,215.8-113.3,170-113.3,120.3z"/>
			</defs>
			<clipPath id="SVGID_3_">
				<use xlink:href="#SVGID_2_"  style="overflow:visible;"/>
			</clipPath>
			<g class="st2">
				<rect x="-155.4" y="-97.1" class="st3" width="591.3" height="396.7"/>
				<text transform="matrix(1 0 0 1 -155.3786 -79.3871)"><tspan x="0" y="0" class="st4 st5 st6">0010110010101000110001010001100101010100100100</tspan><tspan x="0" y="29.9" class="st4 st5 st6">1010010010010010100100100101001010010100100110</tspan><tspan x="0" y="59.9" class="st4 st5 st6">0111001010101001100010100101010010101000101001</tspan><tspan x="0" y="89.8" class="st4 st5 st6">010010110010101001</tspan><tspan x="0" y="119.7" class="st4 st5 st6">0010110010101000110001010001100101010100100100</tspan><tspan x="0" y="149.6" class="st4 st5 st6">1010010010010010100100100101001010010100100110</tspan><tspan x="0" y="179.6" class="st4 st5 st6">0111001010101001100010100101010010101000101001</tspan><tspan x="0" y="209.5" class="st4 st5 st6">010010110010101001</tspan><tspan x="0" y="239.4" class="st4 st5 st6">0010110010101000110001010001100101010100100100</tspan><tspan x="0" y="269.4" class="st4 st5 st6">1010010010010010100100100101001010010100100110</tspan><tspan x="0" y="299.3" class="st4 st5 st6">0111001010101001100010100101010010101000101001</tspan><tspan x="0" y="329.2" class="st4 st5 st6">010010110010101001</tspan></text>
			</g>
		</g>
		<path class="st7" d="M107.7-99.1L-69.4,87.1l186.3,115.2L324.3,95.7C312.1-13.4,219.9-98.4,107.7-99.1z"/>
		<path class="st8" d="M253.2,90.3c0,0,43.8,0,46.2,0c9.1,0,26.7,13.2,16.6,57.8s-24.7,104.4-24.7,104.4H130.5l36.3-162.2H253.2z"/>
		<path class="st9" d="M240.2,225.4c-2.8,1.1-8,0-8,0c-0.9,7.2-4,24.7-4,24.7H191l23-146.9l24.1-12.8h20.3c0,0,1,0,2.8,0
			c-7.5,9.5-20.1,20.1-31.3,27.1c-1.1,5.4-4.7,21.7-4.7,21.7c10.1-3,43.6-15.3,42.2,9.6C265.9,171.8,256.6,193.7,240.2,225.4z"/>
		<path class="st9" d="M299.4,90.3c9.1,0,26.7,13.2,16.6,57.8s-24.7,104.4-24.7,104.4h-40.1c0,0,14.5-61.5,25.9-110.6
			C288.6,92.9,293.2,90.3,299.4,90.3z"/>
		<g>
			<g>
				<path class="st10" d="M237.9,4.7c7.4-0.1,29.1,1.7,32.6,13.7c2.6,10.9,1.4,32.7-3.2,47.3c-3.2,8.8-37.9,44.4-51.7,46
					c2-16.9,3.4-76.4,3.4-76.4L237.9,4.7z"/>
				<path class="st11" d="M215.7,111.6c0.4-3.1,0.7-7.6,1-12.9l20.2-35.3C238,58.6,240,50.8,240,49c6.8,2.2,10.9,14.5,13,24.3
					c3.3,0.5,10.4-3,14.3-7.6C264.2,74.5,229.4,110,215.7,111.6z"/>
				<path class="st12" d="M181.4,114.5l39.6-12.6l-8.7,40.5c-16,14.3-23.1,16.5-26,14.4l0,0c-6.3-3.5-4-15-1.2-19L181.4,114.5z"/>
				<path class="st13" d="M185.3,138.8l-3.9-24.2l39.6-12.6l-2,9.2C212,123.5,198.6,137.8,185.3,138.8z"/>
				<path class="st12" d="M139.6,43c0.9,16,1,36-2,53.4c5.3,15.8,36,31,54.2,25c17-6.6,28.2-15.8,32.9-22.9
					c5.3,6,19.6,4.1,25.8-17.5c2.4-9.4-4.8-21.3-20.6-16.5c1.7-8.4-6.3-38.3-6.3-38.3s-45.7-7.3-76.2,0.6
					C142,29,139.3,36.6,139.6,43z"/>
				<path class="st14" d="M172.6,90.2c-3.1-3-7.5-5.2-11.9-3.5c-2.4,0.8,0.5,4.9,0.5,4.9c1.1,1.5,8,1.6,11.9,0.6
					C173.8,91.7,172.6,90.2,172.6,90.2z"/>
				<path class="st13" d="M140.7,47.1l-1.1-3.8c0-0.1,0-0.2,0-0.3c-0.3-6.4,2.4-14,7.9-16.2c30.5-7.8,76.2-0.6,76.2-0.6
					s7.9,29.9,6.3,38.3c1.3,6.1-4.1,21.8-6.8,24c1.1-3.9,1.2-16.4,0.6-22.4c-1-7-2.8-17.1-4.9-24.8c-4.2,1.2-14.3,2.5-27.6,0.8
					C166.1,35.7,151.5,40.6,140.7,47.1z"/>
				<path class="st10" d="M235.2,3.9c0.8-6.2,5.8-14.5,5.8-14.5c4.2-3.3,20.3-1.2,30.7,8.5c-7.9-2.2-28.6-1.5-34.4,9.4
					C234.5,7.7,235.2,3.9,235.2,3.9z"/>
				<path class="st13" d="M208.8,61.4l-24.6,3.9C185.5,65.7,204.1,67.2,208.8,61.4z"/>
				<circle class="st13" cx="196.3" cy="67.3" r="5.7"/>
				<path class="st10" d="M184.1,65.3c0.9-2.3,7.2-5.1,13.9-5.5c3.5-0.2,8.7,1.2,10.7,1.6L184.1,65.3z"/>
				<circle class="st10" cx="194.9" cy="66.6" r="5.7"/>
				<path class="st13" d="M144.4,60.8c0.3,1.5,1,2.9,4.5,4.3c2.7,1,10.6,3,10.6,3L144.4,60.8z"/>
				
					<ellipse transform="matrix(-0.9646 0.2636 -0.2636 -0.9646 317.2784 90.5835)" class="st13" cx="152.6" cy="66.6" rx="3.3" ry="4.6"/>
				<path class="st10" d="M144.4,60.8c7.1-4.5,11.9,4.3,15.1,7.3L144.4,60.8z"/>
				
					<ellipse transform="matrix(-0.9646 0.2636 -0.2636 -0.9646 315.2728 89.0748)" class="st10" cx="151.7" cy="65.7" rx="3.3" ry="4.6"/>
				<path class="st13" d="M247.2,82.7c0.7-4.3,0.9-11.9-14.4-11.3c-1.1,1.3-2.9,5.3-2.9,5.3c4-0.6,13.1-3.1,15.3,1.5
					c0.5,1.5,1.1,4.4,1.2,6.7C246.9,84.1,247.2,82.7,247.2,82.7z"/>
				<path class="st13" d="M231.6,76.3c1.3,1,7.5,7.5-2.5,10c3.7,0.4,12.4-2.6,7-10.8C234.2,74.7,231.6,76.3,231.6,76.3z"/>
				<path class="st15" d="M165.4,74.5c-1.2,2.2-4.4,7.5-4.7,8.1c-0.2,0.8,5.9,1.7,6.6,0.3c0.8-1.7,0.8-9,0.8-9.8
					C167.9,72,166.4,72.7,165.4,74.5z"/>
				<g>
					<path class="st16" d="M184.6,62.5c0.5-0.9,1.2-1.6,2-2.3c0.8-0.6,1.6-1.2,2.4-1.7c0.9-0.5,1.7-0.9,2.7-1.3
						c0.9-0.4,1.9-0.7,2.9-0.8c-1.7,1-3.4,2-5,3l-2.5,1.5C186.2,61.4,185.4,61.9,184.6,62.5z"/>
				</g>
				<g>
					<path class="st16" d="M160,66.9c-0.3-0.6-0.7-1.2-1.1-1.7c-0.4-0.5-0.9-1.1-1.3-1.6c-0.4-0.5-0.9-1-1.4-1.6
						c-0.5-0.5-1-1-1.5-1.5c0.7,0.3,1.2,0.7,1.8,1.2c0.6,0.4,1.1,1,1.5,1.5c0.5,0.5,0.9,1.1,1.2,1.7C159.6,65.6,159.9,66.2,160,66.9
						z"/>
				</g>
				<g>
					<path class="st3" d="M161.1,64c0.2,2.8,0,5.2-0.6,7.3c0,0.1-0.1,0.1-0.1,0.2l-0.8,2l0,0c-1.3,2.5-3.5,4.3-6.3,5
						c-1.6,0.4-3.2,0.5-4.9,0.3c-3.6-0.7-6.4-2.6-8.3-5.7c0,0,0-0.1,0-0.1c0-1.3,1.6-15.2,1.6-15.2s0-0.1,0-0.3
						C150.6,55.9,157.9,61.2,161.1,64z"/>
					<path class="st3" d="M140,73.1c0,0,0,0.1,0,0.1c-0.6-0.9-1.1-1.9-1.5-3c-1.6-4-1.8-8.3-1.8-11c1.2-0.6,2.4-1,3.5-1.3l-0.7-2.5
						l0,0l0.7,2.5c0.5-0.1,0.9-0.2,1.4-0.3c0,0.2,0,0.3,0,0.3S140,71.8,140,73.1z"/>
					<path class="st3" d="M192.9,57.1c7.3-2,14.7-1.7,22.1,0.9c0.3,2.5,0.5,6.7-0.7,10.8c-1.8,6-6,9.8-12.7,11.6
						c-0.4,0.1-0.8,0.2-1.2,0.3c-4.5,0.6-10.7,0.6-15.1-3.3c-1.8-1.5-3.1-3.6-4-6.1l0.1-0.1L181,71c-0.8-2.2-1.2-4.7-1.4-7.5
						C182.3,61.6,186.9,58.7,192.9,57.1z"/>
					<polygon class="st3" points="139.2,54.1 139.1,53.7 139.2,54.1 					"/>
					<path class="st13" d="M140,73.3c0,1.1-0.3,4.5-0.4,6.2c2.1,1.8,4.7,3.1,8,3.8c2.3,0.3,4.6,0.2,6.8-0.4
						c4.5-1.2,8.3-4.4,10.1-9.8c0.6-1.3,1.7-2,3.4-2.4c3.7-0.7,8.1,1.1,8.8,1.9l0.6,0.7C181,82.9,190,86.6,201.1,85
						c0.5-0.1,1.1-0.3,1.6-0.4c11.8-3.2,15.7-11.7,16.6-19c1.6-0.1,3.5-0.3,4.2-0.6c1.1-0.3,4.5-6.2,3.2-8.9
						c-2.3-1.2-11.7-3.9-18.5-4.3l0,0c-6.1-0.9-11.7-0.3-16.5,1.1c-7.6,2.1-13.4,5.9-16.5,8.5c0,2.1,0.1,4.1,0.4,5.9
						c-2.6-0.9-5.9-1.4-8.6-0.9c-0.6,0.1-1.1,0.3-1.6,0.4c0-1.5,0-3.1-0.2-4.8c-3.7-3.7-12.2-10.3-23-8.9c-0.2,1.6-0.5,3.7-0.6,4.5
						c9-1.7,16.2,3.5,19.4,6.4c0.2,2.8,0,5.2-0.6,7.3c0,0.1-0.1,0.1-0.1,0.2l-0.8,2l0,0c-1.3,2.5-3.5,4.3-6.3,5
						c-1.6,0.4-3.2,0.5-4.9,0.3C144.6,78.2,141.9,76.3,140,73.3z M179.7,63.5c2.6-1.9,7.2-4.7,13.2-6.4c7.3-2,14.7-1.7,22.1,0.9
						c0.3,2.5,0.5,6.7-0.7,10.8c-1.8,6-6,9.8-12.7,11.6c-0.4,0.1-0.8,0.2-1.2,0.3c-4.5,0.6-10.7,0.6-15.1-3.3
						c-1.8-1.5-3.1-3.6-4-6.1l0.1-0.1L181,71C180.3,68.8,179.8,66.3,179.7,63.5z"/>
				</g>
				<path class="st13" d="M182.2,52c-1.2,0.3-2.5-0.1-3-1.3c-1-2.2-0.5-5.7,2.9-7.1c5.4-2.4,28.9-4.3,40.9,12.3
					C218.7,53.5,204.7,45.6,182.2,52z"/>
				<path class="st10" d="M180.3,50.9c-0.9,0.3-2,0.1-2.5-0.7c-1.5-2.1-1.3-6,2.2-7.7c5.3-2.6,28.7-5.6,41.4,10.4
					C217,50.6,202.6,43.4,180.3,50.9z"/>
				<path class="st13" d="M161.2,45.2c-5.3-2.6-20-3.1-23,4.9c0.2,1.1,1.7,1.4,3.1,0.7c2.4-1.6,11.3-1.5,21.8,1.7
					C164.9,52.3,165.4,47.5,161.2,45.2z"/>
				<polygon class="st10" points="221.3,31.6 221.3,31.6 221.3,31.6 				"/>
				<path class="st10" d="M230.3,64.3c1-5.8-0.3-14.1-1.9-19.5c4.1-4.6,7-9,9-13.2l11.2,12.1c0,0-7.6,17.2-11.7,19.7
					c-1,5.7-10.3,21.7-12.2,22.6C224.7,86,229.4,68.8,230.3,64.3z"/>
				<path class="st11" d="M226.8,63.8c-0.1-7.3-5.6-32.2-5.6-32.2l16.7-26.9c3.5,7.2,4.5,16.3-0.6,26.9c-2,4.2-4.9,8.6-9,13.2
					c1.6,5.4,3,13.7,1.9,19.5c-0.9,4.5-5.6,21.8-5.6,21.8S226.1,71.4,226.8,63.8z"/>
				<path class="st10" d="M236.8,1.1c2.7,6.8,7.4,20.2-14.9,33.5c-12.6,2.7-26.2,1.1-44.3-3.8c-7.6-2-22.5-3.3-31.2,0.6
					c-2.3,4.7-6.3,37.8-6.4,39.6c-10.9-13.2-24-36-27-49.2c0.8-7.3,7.7-26.2,7.7-26.2c3.6-5.7,49.1-28.7,70.9-32.5
					C202.4-39.1,219.7-34.8,236.8,1.1z"/>
				<g>
					<path class="st11" d="M218.6,16.6c0.8,0.2,1.7,0.4,2.5,0.5C220.3,17,219.5,16.8,218.6,16.6z"/>
				</g>
				<path class="st11" d="M113.1,21.8c0.4-3.4,2.1-9.4,3.8-14.7C131.3-5.2,158.4-7.1,169.1,0c23.2,17.7,36.4,19.3,50.1,19.7
					c-23.7,4-43.3-4.6-58.7-10.7c-18.9-6.9-41.8,9.7-45.7,18.6C114.1,25.6,113.5,23.6,113.1,21.8z"/>
				<path class="st11" d="M130.7,47.4c3.6-17.4,14.3-19.1,27.2-18.4l0,0c-4.2,0.2-8.2,1-11.5,2.4c-1.9,3.9-4.9,26.8-6,35.9l0,0
					C140.4,67.4,131,50.8,130.7,47.4z"/>
				<path class="st10" d="M162.7,44c-5.1-3-19.8-4.5-23.2,3.2c0.2,1.1,1.6,1.5,3,0.9c2.5-1.4,11.4-0.7,21.7,3.3
					C166.1,51.3,166.8,46.5,162.7,44z"/>
				<g>
					<path class="st11" d="M244.6,52.3c-1.9,3.2-5.1,10.3-7.8,11.1c1.9-4.2,3.1-12.6,3.1-14.4C241.3,49.4,243.4,50.7,244.6,52.3z"/>
				</g>
				<path class="st17" d="M215.6,56.1c0,0-23.3-8.6-40,6.6c1.2,6.9,5.8,20.4,21.2,18.2C207.9,78.7,216.1,72.3,215.6,56.1z"/>
				<path class="st17" d="M160.9,62.6c-3.6-3.5-14.4-12.1-27.6-5.4c-0.4,5.5,1.5,18.8,12,21.6C150.7,79.8,161.3,77.7,160.9,62.6z"/>
				<circle class="st15" cx="186.5" cy="61.9" r="7.6"/>
				<circle class="st15" cx="139.4" cy="61" r="6.3"/>
				<g>
					<polygon class="st18" points="137.1,52.5 137.1,52.5 137.1,52.5 					"/>
					<path class="st19" d="M129.2,65.6c0.3,0.2,1.1,0.3,1.9,0.3c1.4,7,5.3,14.2,14.5,16c2.3,0.3,4.6,0.2,6.8-0.4
						c4.5-1.2,8.3-4.4,10.1-9.8c0.6-1.3,1.7-2.1,3.4-2.4c3.7-0.7,8.1,1.1,8.8,1.9l0.6,0.7c3.8,9.7,12.8,13.5,23.9,11.8
						c0.5-0.1,1.1-0.3,1.6-0.4c11.8-3.2,15.7-11.7,16.6-19c1.6-0.1,3.5-0.3,4.2-0.6c1.1-0.3,4.5-6.2,3.2-8.9
						c-2.3-1.2-11.7-3.9-18.5-4.3l0,0c-6.1-0.9-11.7-0.3-16.5,1.1c-7.6,2.1-13.4,5.9-16.5,8.5c0,2.1,0.1,4.1,0.4,5.9
						c-2.6-0.9-5.9-1.4-8.6-0.9c-0.6,0.1-1.1,0.3-1.6,0.4c0-1.5,0-3.1-0.2-4.8c-4.1-4.1-13.9-11.6-26.1-8.3l0,0l0.1,0.4h0l-0.1-0.4
						c-1.4,0.4-2.9,0.9-4.4,1.7c-2.9,1-5.3,2.1-6.2,2.8C125.6,59.7,128.3,65.4,129.2,65.6z M179.2,70.1l-0.1-0.1l-0.1-0.2
						c-0.8-2.2-1.2-4.7-1.4-7.5c2.6-1.9,7.2-4.7,13.2-6.4c7.3-2,14.7-1.7,22.1,0.9c0.3,2.5,0.5,6.7-0.7,10.8c-1.8,6-6,9.8-12.7,11.6
						c-0.4,0.1-0.8,0.2-1.2,0.3c-4.5,0.6-10.7,0.6-15.1-3.3C181.5,74.7,180.1,72.6,179.2,70.1z M134.7,58.1c1.2-0.6,2.4-1,3.5-1.3
						l-0.7-2.5l0,0l0.7,2.5c9.6-2.6,17.5,3.1,20.8,6.1c0.2,2.8,0,5.2-0.6,7.3c0,0.1-0.1,0.1-0.1,0.2l-0.8,2l0,0
						c-1.3,2.5-3.5,4.3-6.3,5c-1.6,0.4-3.2,0.5-4.9,0.3c-4.7-1-7.9-3.8-9.8-8.7C134.9,65,134.7,60.8,134.7,58.1z"/>
				</g>
				<polygon class="st11" points="137.1,52.5 137.1,52.5 137.1,52.5 				"/>
				<polygon class="st11" points="135.2,51.9 135.2,51.9 135.2,51.9 				"/>
				<g>
					<path class="st20" d="M187.1,78.5c-2-0.5-4-1.5-5.7-2.9c-1.8-1.5-3.1-3.6-4-6.1l0-0.1l-0.1-0.2c-0.8-2.2-1.2-4.7-1.4-7.5
						c2.6-1.9,7.2-4.7,13.2-6.4c7.3-2,14.7-1.7,22.1,0.9c0,0,0,0,0,0c-6.7-2-13.5-2.1-20.2-0.3c-6,1.6-10.6,4.5-13.2,6.4
						c0.1,2.8,0.6,5.3,1.4,7.5l0.1,0.2l0.1,0.1c0.9,2.5,2.3,4.6,4,6.1C184.4,77.3,185.7,78,187.1,78.5z"/>
					<path class="st20" d="M163.2,64.6c-0.6,0.1-1.1,0.3-1.6,0.4c0-1.5,0-3.1-0.2-4.8c-2.2-2.3-6.3-5.6-11.5-7.5
						c6.1,1.8,10.8,5.6,13.4,8.1c0.2,1.3,0.2,2.5,0.2,3.7C163.4,64.5,163.3,64.5,163.2,64.6z"/>
					<path class="st20" d="M143.7,76.9c-4.3-1.1-7.3-3.9-9.1-8.5c-1.6-4-1.8-8.3-1.8-11c1.2-0.6,2.4-1,3.5-1.3l-0.7-2.5l0,0l0.7,2.5
						c0.5-0.1,1.1-0.3,1.6-0.4l0.3,1c-1.2,0.3-2.4,0.8-3.5,1.3c0,2.7,0.2,7,1.8,11C138,72.9,140.4,75.5,143.7,76.9z"/>
					<path class="st20" d="M138.3,56.7l-0.3-1c3.9-0.7,7.5-0.1,10.6,1.1C145.5,56,142,55.7,138.3,56.7z"/>
					<path class="st20" d="M129.2,65.4c0,0.1,0,0.2,0.1,0.3c0,0-0.1,0-0.1,0c-0.1,0-0.2-0.1-0.4-0.3
						C128.9,65.3,129.1,65.3,129.2,65.4z"/>
					<path class="st20" d="M197.3,83.2c0.5-0.1,1.1-0.3,1.6-0.4c11.8-3.2,15.7-11.7,16.6-19c1.6-0.1,3.5-0.3,4.2-0.6
						c1.1-0.3,4.5-6.2,3.2-8.9c-0.4-0.2-1-0.5-1.8-0.7c1.7,0.5,3,1,3.7,1.4c1.3,2.7-2.1,8.6-3.2,8.9c-0.7,0.2-2.6,0.4-4.2,0.6
						c-0.9,7.4-4.8,15.8-16.6,19c-0.5,0.1-1,0.3-1.6,0.4c-5,0.7-9.5,0.4-13.4-1.1C189.2,83.6,193.1,83.8,197.3,83.2z"/>
					<path class="st20" d="M143.7,81.4c2.3,0.3,4.6,0.2,6.8-0.4c4.5-1.2,8.3-4.4,10.1-9.8c0.6-1.3,1.7-2.1,3.4-2.4
						c2.5-0.5,5.4,0.2,7.2,1c-1.6-0.4-3.5-0.7-5.3-0.3c-1.7,0.3-2.8,1.1-3.4,2.4c-1.8,5.3-5.6,8.5-10.1,9.8
						c-2.2,0.6-4.5,0.7-6.8,0.4c-1.2-0.2-2.3-0.6-3.3-1C142.7,81.1,143.2,81.3,143.7,81.4z"/>
				</g>
				
					<ellipse transform="matrix(-0.9646 0.2636 -0.2636 -0.9646 413.666 90.3576)" class="st15" cx="200.8" cy="72.9" rx="2.9" ry="2"/>
				
					<ellipse transform="matrix(-0.9646 0.2636 -0.2636 -0.9646 311.0658 102.8253)" class="st15" cx="148.6" cy="72.3" rx="2.3" ry="1.6"/>
				<path class="st15" d="M220.2,56.6c-0.7-0.4-2.2-0.8-3.2-0.7c-0.6,0.3,0,3.1,0,3.1c0.4,0.4,2.4,0,2.5-0.1
					C220,58.5,220.5,57.6,220.2,56.6z"/>
				<path class="st15" d="M128.1,58.5c0.5-0.3,1.6-0.6,2.3-0.6c0.4,0.2,0.1,2.3,0.1,2.3c-0.3,0.3-1.8,0-1.9,0
					C128.3,59.9,127.9,59.2,128.1,58.5z"/>
				<g>
					<g>
						<path class="st13" d="M183,107.3c-0.5,0.5-1.1,0.9-1.7,1.2c-0.6,0.3-1.3,0.5-2,0.6c-0.7,0.1-1.4,0.2-2.1,0.2
							c-0.7,0-1.4-0.1-2.1-0.5l2-0.5c0.6-0.2,1.3-0.3,1.9-0.4C180.3,107.7,181.6,107.5,183,107.3z"/>
					</g>
					<g>
						<path class="st21" d="M186.5,105.6c-0.7-0.6-1.5-0.9-2.3-1.1c-0.8-0.2-1.7-0.3-2.5-0.3c-1.7-0.1-3.4-0.1-5.2,0
							c-3.5,0.1-7,0.3-10.6,0.3c1.6-0.8,3.4-1.3,5.2-1.7c1.8-0.4,3.6-0.6,5.4-0.6c1.8,0,3.6,0.1,5.5,0.5c0.9,0.2,1.8,0.5,2.6,1
							C185.3,104.1,186.1,104.7,186.5,105.6z"/>
					</g>
				</g>
			</g>
		</g>
		<path class="st22" d="M235,132.5c-15.7,1.8-21.5,4.5-21.5,4.5c-5.1,9-16.6,17.3-27.7,14.6c-3.1-1-3.9-7.5-0.5-12.9l-0.5-2.8
			c-2-0.7-5.5-1.9-7.4-2.3c-1.3,2.5-26.3,49.6-26.3,49.6c-2.4,10.3-23.9,66.9-23.9,66.9h87.9l15.9-80.5L235,132.5z"/>
		<path class="st23" d="M209.5,152.3l18,35l-9.7,49.1c-8.3,6.6-23.9,8.5-23.9,8.5h-60.4c0,0,10.2-6.3,9.2-17.4
			c8.1-2.1,38.6-17.4,44.4-21.6c0,0-1.3-2.5-1.9-3.6C188.3,195.1,203,165.8,209.5,152.3z"/>
		<path class="st24" d="M177.5,133.6c-7.4-3.1-30,10.3-39.6,21.4c-11.1,8.8-46.8,41.1-53.5,45.5c-8.6,5.1-37.5,32.9-63.8,34.3
			c0.5,6,4.7,5.1,4.7,5.1l45.9-1.5c26.1-9.9,75.9-49.4,80-55.1C158.1,171.5,177.5,133.6,177.5,133.6z"/>
		<path class="st22" d="M177.5,133.6c-7.4-2.3-26.2,5-52.9,30.4c-4.5,4.2-21,19.3-21,19.3c4,8.1,15,21.3,23.7,22.5
			c22.7-20.2,23.9-22.7,23.9-22.7S175,146.7,177.5,133.6z"/>
		<path class="st23" d="M151.2,183.2c2.3-7,11.3-25.7,11.3-25.7c-10.9,12.2-18.7,30.3-45.6,44.8c0.8,3.6,5.8,6.5,5.8,6.5
			C127.3,205.9,145.8,189.6,151.2,183.2z"/>
		<path class="st25" d="M131.2,244.9c-2.1-17.4-54.6-33.4-57.6,0C80.2,244.9,131.2,244.9,131.2,244.9z"/>
		<path class="st12" d="M223.8,135.1c-19.5,17.7-25,59.1-33.2,74.1c-8.6,6.4-45.4,17.2-52.4,18.5c-1.9,0.3-4,0.4-6,0.3
			c-9-3.4-17.9-6.9-23.2-7.8c-3.6-0.6-17.2-2.7-19.2-2.4c-2.4,0.3-10,9.2-10,9.2c0.7,1.7,3.7,2.4,7.1,0c2.1-1.5,3.6-2.9,3.6-2.9
			c2.9,0.5,6.1,1.1,6.1,1.1c-2.2,0.9-9.5,5.1-10,5.5c-1.6,1.2-6.3,5.4-6.3,5.4c-1.5,1.5,0.6,2.8,2.9,2c2.5-0.8,7.4-4.1,7.4-4.1
			c-0.9,0.6-4.6,4.3-5.1,5.5c-0.7,1.3-0.2,4.3,4.9,0.7c3-2.2,6.7-4.8,6.7-4.8c1-0.8,5-2.2,5-2.2c1.7-0.4,2.3-0.5,2.3-0.5
			c-2.7,1.2-6.3,4.3-6.3,4.3c-1,1-3.5,4.6-3.5,4.6c0.2,1.2,2.7,1.9,5.8-1.1c2.4-2.3,7.4-3.8,9.3-4.1c1.8-0.2,6.2,4.9,8,5.8
			c2.4,1.1,4.7,2,12.8,0.9c3.9,0.2,5.5,0.2,8.9,0.5c17.6,0.7,69-4.3,75.3-12.4c6.4-6.8,35.4-56.4,39.1-72.7
			C257,134.2,235.2,131,223.8,135.1z"/>
		<path class="st22" d="M223.8,135.1c9.5-4.3,36.1-7.5,30.3,26.5c-2.5,10.8-24,57-24,57c-7.7,1.4-27-0.3-40.6-14.7
			C194.7,191.4,204.5,148.6,223.8,135.1z"/>
		<g>
			<path class="st26" d="M90.5,233.8c-0.3,0.2-0.8,0.7-1.5,1.3L90.5,233.8z"/>
			<path class="st26" d="M90.5,233.8c1.5-1,5.3-3.2,5.3-3.2c1.6-0.7,2.6-1.4,2.6-1.4c-1.4,0.2-3.2,0.7-4.4,1
				c-2.7,1.3-7.8,4.6-8.6,5.2c-0.9,0.5-4,2.5-5.5,2.2c0.5,0.6,1.8,0.8,3.1,0.3C85.6,237.1,90.5,233.8,90.5,233.8z"/>
			<path class="st26" d="M102,233c1.7-0.4,2.3-0.5,2.3-0.5c1-0.3,2-0.6,2-0.6c-1.2-0.3-2.6-0.5-3.8-0.3c-1.6,0.3-3,0.2-6.1,2.1
				c-1.4,1.2-8.2,7.7-10.5,7.9c0.8,0.2,2.1-0.1,4.3-1.6c3-2.2,6.7-4.8,6.7-4.8C98.1,234.4,102,233,102,233z"/>
		</g>
		<path class="st15" d="M126.2,31.6c5.9-6.6,21.8-17.2,55.2-4c-14.9-2.5-46.7-7.4-54.9,14.4c4.5,8.2,7.6,11.5,7.6,11.5
			c-1.5,0.6-4.7,3.2-4.2,4.9c0.5,1.7,2.2,16.7,13.3,20.5c-0.6,8.5-2.3,17.5-2.3,17.5c5.5,6.9,19.2,23.5,46,26
			c0.1,7.4-0.5,19.9-0.5,19.9l-1.2-3.6c-3.1-0.2-17.8-4.1-35.1,15.6s-71.9,62-71.9,62S54.7,232,37,239.4l-11.8,0.4
			c0,0-4.2,0.9-4.7-5.1c26.3-1.4,55.2-29.1,63.8-34.3c2.8-1.8,10.6-8.5,19.6-16.3c-0.1-0.3-0.3-0.5-0.4-0.8c0,0,16.6-15.1,21-19.3
			c23.1-21.9,40.2-30.4,49.2-30.8c1.5-0.1,2.7,0,3.7,0.4c1.9,0.4,5.3,1.7,7.4,2.3l-2.1-13.2c-0.1,0-0.1,0-0.2,0c-0.2,0-0.5,0-0.7,0
			c-0.8,0-1.6-0.1-2.5-0.1c-0.6,0-1.1-0.1-1.7-0.2c-0.9-0.1-1.7-0.2-2.6-0.4c-2.8-0.5-5.7-1.3-8.5-2.3c-0.2-0.1-0.3-0.1-0.5-0.2
			c-0.2-0.1-0.5-0.2-0.7-0.3c-1.1-0.4-2.2-0.9-3.4-1.3c-2.5-1.1-5-2.3-7.3-3.7c-0.2-0.1-0.3-0.2-0.5-0.3c-4.9-3-9.2-6.5-12.3-10.2
			c0,0,0,0,0,0c-1.1-1.4-2.1-2.8-2.9-4.3c0,0,0,0,0-0.1c-0.2-0.4-0.5-0.9-0.7-1.4c0,0,0-0.1-0.1-0.1c-0.2-0.4-0.3-0.9-0.5-1.3
			c0-0.1-0.1-0.1-0.1-0.2c0,0,0,0,0,0c0,0,0,0,0,0c0,0,0,0,0,0l0,0c0.2-1.3,0.4-2.6,0.6-3.9c0.1-0.4,0.1-0.7,0.2-1.1
			c0.1-1,0.3-2,0.4-3c0-0.1,0-0.2,0-0.4c0-0.2,0.1-0.5,0.1-0.7c0.2-2.1,0.4-4.3,0.6-6.5c0,0,0,0,0-0.1c0-0.4,0-0.8,0.1-1.1
			c-5-3.1-7.4-8.4-8.5-13.7c-0.8-0.1-1.6-0.2-1.9-0.3c-0.1,0-0.1-0.1-0.2-0.1c-0.1-0.1-0.1-0.1-0.2-0.2c0,0,0,0,0,0l0,0
			c-1.1-1.3-3.1-6-2.3-8.3c0.5-0.4,1.4-0.8,2.6-1.4c-4.2-6.6-8.1-13.8-11.1-20.3c0,0,0,0,0,0c-0.4-0.8-0.7-1.6-1.1-2.4
			c0,0,0-0.1-0.1-0.1c-0.3-0.7-0.6-1.4-0.9-2.2c0-0.1-0.1-0.1-0.1-0.2c-0.3-0.7-0.5-1.4-0.8-2.1c0-0.1-0.1-0.2-0.1-0.4
			c-0.2-0.6-0.4-1.2-0.6-1.9c0-0.1,0-0.1-0.1-0.2c-0.2-0.6-0.4-1.3-0.6-1.9c0-0.1-0.1-0.3-0.1-0.4c0-0.1-0.1-0.3-0.1-0.4
			c0,0,0,0,0,0c-0.1-0.5-0.2-0.9-0.3-1.4c0-0.2,0.1-0.5,0.1-0.7c0-0.1,0-0.2,0-0.3c0-0.2,0.1-0.3,0.1-0.5c0-0.1,0-0.2,0.1-0.3
			c0-0.2,0.1-0.3,0.1-0.5c0-0.1,0-0.2,0.1-0.4c0-0.2,0.1-0.3,0.1-0.5c0,0,0-0.1,0-0.1c0-0.1,0-0.2,0.1-0.3c0-0.2,0.1-0.3,0.1-0.5
			c0-0.1,0.1-0.3,0.1-0.4c0-0.2,0.1-0.3,0.1-0.5c0-0.1,0.1-0.3,0.1-0.4c0-0.2,0.1-0.4,0.1-0.5c0-0.2,0.1-0.3,0.1-0.5
			c0-0.2,0.1-0.3,0.1-0.5c0-0.2,0.1-0.3,0.1-0.5c0-0.2,0.1-0.3,0.1-0.5c0-0.2,0.1-0.3,0.1-0.5c0.1-0.2,0.1-0.4,0.2-0.5
			c0-0.2,0.1-0.3,0.1-0.5c0-0.2,0.1-0.3,0.2-0.5c0.1-0.2,0.1-0.4,0.2-0.5c0-0.2,0.1-0.3,0.2-0.5c0-0.1,0.1-0.3,0.1-0.4
			c0,0,0-0.1,0-0.1c0.1-0.2,0.1-0.3,0.2-0.5c0.1-0.2,0.1-0.4,0.2-0.5c0.1-0.2,0.1-0.3,0.2-0.5c0.1-0.4,0.3-0.8,0.4-1.2
			c0-0.1,0.1-0.2,0.1-0.3v0c0.1-0.4,0.2-0.7,0.4-1.1c0.2-0.7,0.5-1.4,0.7-2.1c0.3-1,0.7-2,1-2.8c0.2-0.7,0.4-1.3,0.6-1.8
			c0.8-2.2,1.3-3.6,1.3-3.6c0.5-0.8,1.8-1.9,3.8-3.3c0.2-0.2,0.4-0.3,0.7-0.5c1.2-0.8,2.6-1.7,4.1-2.6c0.4-0.3,0.9-0.5,1.3-0.8
			c1.3-0.7,2.7-1.5,4.1-2.3c0.5-0.3,1-0.5,1.5-0.8c0.6-0.4,1.3-0.7,2-1.1c1.3-0.7,2.7-1.4,4.1-2.1c0.7-0.4,1.4-0.7,2.2-1.1
			c1-0.5,2.1-1,3.1-1.5c1-0.5,2.1-1,3.2-1.5c0.5-0.2,0.9-0.4,1.4-0.6c0.7-0.3,1.4-0.7,2.2-1c0.7-0.3,1.4-0.6,2-0.9
			c3.3-1.5,6.6-2.9,9.9-4.2c0.5-0.2,0.9-0.4,1.4-0.6c8.9-3.6,17.5-6.4,23.9-7.5c0,0,0,0,0,0c0.5-0.1,1-0.2,1.5-0.3
			c0.1,0,0.2,0,0.3,0c0.5-0.1,1.1-0.1,1.6-0.2c0,0,0,0,0,0c1.2-0.1,2.4-0.1,3.7,0.1l0,0c-22.8,7.2-49.5,21.5-65.2,31.3
			C129.2,0.2,124,23,126.2,31.6z"/>
		<g>
			<path class="st27" d="M-60.4,210.2h186.3c4.9,0,8.9-4,8.9-8.9V87.1c0-4.9-4-8.9-8.9-8.9H-60.4c-4.9,0-8.9,4-8.9,8.9v114.1
				C-69.4,206.2-65.4,210.2-60.4,210.2z"/>
			<path class="st25" d="M-72.5,210.2h186.3c4.9,0,8.9-4,8.9-8.9V87.1c0-4.9-4-8.9-8.9-8.9H-72.5c-4.9,0-8.9,4-8.9,8.9v114.1
				C-81.5,206.2-77.5,210.2-72.5,210.2z"/>
			<path class="st28" d="M-39.2,183.3h99.7c3.8,0,6.9-3.1,6.9-6.9v-56.7c0-3.8-3.1-6.9-6.9-6.9h-99.7c-3.8,0-6.9,3.1-6.9,6.9v56.7
				C-46,180.3-43,183.3-39.2,183.3z"/>
			<path class="st29" d="M-49.8,183.9h99.7c3.8,0,6.9-3.1,6.9-6.9v-56.7c0-3.8-3.1-6.9-6.9-6.9h-99.7c-3.8,0-6.9,3.1-6.9,6.9v56.7
				C-56.7,180.9-53.6,183.9-49.8,183.9z"/>
			<rect x="-18.1" y="133.1" class="st30" width="36.2" height="101.6"/>
			<rect x="-18.1" y="133.1" class="st31" width="28.1" height="101.6"/>
			<rect x="-38.3" y="234.7" class="st27" width="112.9" height="9.8"/>
			<rect x="-56.4" y="234.7" class="st32" width="112.9" height="9.8"/>
		</g>
		<rect x="-98.5" y="244.5" class="st9" width="412.8" height="16.1"/>
		<path class="st26" d="M86.9,226.9c2.1-1.5,3.6-2.9,3.6-2.9c2.9,0.5,6.1,1.1,6.1,1.1c1.1-0.4,3.5-1.3,3.5-1.3
			c-1.6-0.6-9.6-2.3-9.6-2.3c-2,1.5-7.2,6.8-9.2,6.7C82.7,228.7,84.7,228.5,86.9,226.9z"/>
		<g>
			<path class="st26" d="M219,111.1l0.1-0.4c4.2-1.6,9.6-5.1,15.1-9.6c4.3-1,9-4.3,12.7-11.2c10.2-9.8,18.9-20.1,20.4-24.3
				c4.6-14.6,5.7-36.4,3.2-47.3c-3.3-11.3-23-13.5-31.3-13.7c7.4-8.4,25.3-8.8,32.5-6.8c-10.4-9.7-26.5-11.8-30.7-8.5
				c0,0-3.1,5.2-4.8,10.4c-13.5-27.8-27.1-36.1-37.5-37.1h0l0,0c-1.3-0.1-2.5-0.1-3.7-0.1c0,0,0,0,0,0c-0.6,0-1.1,0.1-1.6,0.2
				c-0.1,0-0.2,0-0.3,0c-0.5,0.1-1,0.2-1.5,0.3c0,0,0,0,0,0c-6.5,1.1-15,3.9-23.9,7.5c-0.5,0.2-0.9,0.4-1.4,0.6
				c-3.3,1.3-6.6,2.8-9.9,4.2c-0.7,0.3-1.4,0.6-2,0.9c-0.7,0.3-1.4,0.7-2.2,1c-0.5,0.2-0.9,0.4-1.4,0.6c-1.1,0.5-2.1,1-3.2,1.5
				c-1,0.5-2.1,1-3.1,1.5c-0.7,0.4-1.4,0.7-2.2,1.1c-0.9,0.4-1.7,0.9-2.6,1.3c14.5-0.3,30.8,4.9,53.7,21.2
				c8.1,7.1,36,20.2,44.4,13.7c-1.6,6.3-11,19-29.1,17.6c1.8,5.3,0.6,74.9-29.4,86.6c0.8,0.1,1.7,0.1,2.5,0.1c0.2,0,0.5,0,0.7,0
				c0.1,0,0.1,0,0.2,0c2.7,0,5.4-0.2,9.1-1.3c1.7,6.2,4.7,17.2,2.5,30.9c11.1-4.2,24.9-9.4,32.7,0c5.9,7.1-25.8,60.4-25.8,60.4
				c4.2,2.7,7.6,3.4,7.6,3.4c2.6,0.9,7.6,2.4,14.3,2.8c2.8,0.1,5.3,0,7.1-0.3c0,0,21.5-46.2,24-57c4.9-28.4-13-30.8-24.5-28.3
				c-11.7,1.7-16.2,3.8-16.2,3.8L219,111.1L219,111.1z"/>
			<path class="st26" d="M148.1,239.2c-2.2,0-12.9,0.4-17.2-0.5c-4.2,0.7-6.7,1.6-13.7-1.3c-3-1.8-6.7-4.3-10.5-2.3
				c-2.1,0.9-5.1,1.7-7.2,4.1c-0.9,1.2-2.9,3.1-3.9,3.1c1,0.3,2.8,0,4.8-2c2.4-2.3,7.4-3.8,9.3-4.1c1.8-0.2,6.2,4.9,8,5.8
				c2.4,1.1,4.7,2,12.8,0.9c3.9,0.2,5.5,0.2,8.9,0.5c17.6,0.7,69-4.3,75.3-12.4c1.6-1.7,4.6-6.1,8.4-12.1
				c-6.7-0.4-11.7-1.9-14.3-2.8C204,223,190.1,237.8,148.1,239.2z"/>
		</g>
	</g>
</g>
<g id="DESIGNED_BY_FREEPIK">
</g>
</svg>
