<?xml version="1.0" encoding="utf-8"?>
<!-- Generator: Adobe Illustrator 19.0.0, SVG Export Plug-In . SVG Version: 6.00 Build 0)  -->
<svg version="1.1" xmlns="http://www.w3.org/2000/svg" xmlns:xlink="http://www.w3.org/1999/xlink" x="0px" y="0px"
	 viewBox="0 0 370 397.5" style="enable-background:new 0 0 370 397.5;" xml:space="preserve">
<style type="text/css">
	.st0{fill:#FFFFFF;}
	.st1{fill:#D6953E;}
	.st2{fill:#B57B35;}
	.st3{fill:#285C77;}
	.st4{fill:#868689;}
	.st5{fill:#6D6D6D;}
	.st6{fill:#C5C4D7;}
	.st7{fill:#A5A5AD;}
	.st8{fill:#172F47;}
	.st9{fill:#202739;}
	.st10{fill:#A7A6BB;}
	.st11{fill:#FEFEFE;}
	.st12{fill:#FD7C3A;}
	.st13{fill:#004DB9;}
	.st14{fill:#D3D3D3;}
	.st15{fill:#ADADAD;}
	.st16{fill:#E4E4EF;}
	.st17{fill:#897762;}
	.st18{fill:#331D0B;}
	.st19{fill:#635140;}
	.st20{fill:#EDAC7C;}
	.st21{fill:#F7A588;}
	.st22{fill:#CF9166;}
	.st23{fill:#B57223;}
	.st24{fill:#39748E;}
	.st25{fill:#77BFD8;}
</style>
<g id="BACKGROUND">
	<rect id="XMLID_1_" x="-65" class="st0" width="500" height="500"/>
</g>
<g id="OBJECTS">
	<g id="XMLID_3_">
		<g id="XMLID_4_">
			<polygon id="XMLID_5_" class="st1" points="50.1,274.5 85.6,190.9 85.6,174.4 43.1,274.5 			"/>
			<polygon id="XMLID_6_" class="st2" points="80.5,189.9 85.6,190.9 85.6,174.4 79.5,188.8 78.4,191.3 			"/>
		</g>
		<g id="XMLID_7_">
			<path class="st3" d="M242.3,90.4l-14.1,13.1l4.9,7.4c1,1.5,1.1,3.4,0.3,5.1c0,0,0,0,0,0.1c-0.8,1.6-2.3,2.8-4.1,3.1l-8.8,1.2
				l-0.7,19.2l8.7,1.8c1.8,0.4,3.2,1.7,3.8,3.3c0,0,0,0,0,0.1c0.6,1.7,0.4,3.6-0.7,5l-5.4,7l6.5,7.1l6.5,7.1l7.4-4.9
				c1.5-1,3.4-1.1,5.1-0.3c0,0,0,0,0.1,0c1.6,0.8,2.8,2.3,3.1,4.1l1.2,8.8l19.2,0.7l1.8-8.7c0.4-1.8,1.7-3.2,3.3-3.8c0,0,0,0,0.1,0
				c1.7-0.6,3.6-0.4,5,0.7l7,5.4l14.1-13.1l-4.9-7.4c-1-1.5-1.1-3.4-0.3-5.1c0,0,0,0,0-0.1c0.8-1.6,2.3-2.8,4.1-3.1l8.8-1.2
				l0.7-19.2l-8.7-1.8c-1.8-0.4-3.2-1.7-3.8-3.3c0,0,0,0,0-0.1c-0.6-1.7-0.4-3.6,0.7-5l5.4-7l-6.5-7.1l-6.5-7.1l-7.4,4.9
				c-1.5,1-3.4,1.1-5.1,0.3c0,0,0,0-0.1,0c-1.6-0.8-2.8-2.3-3.1-4.1l-1.2-8.8L259.5,84l-1.8,8.7c-0.4,1.8-1.7,3.2-3.3,3.8
				c0,0,0,0-0.1,0c-1.7,0.6-3.6,0.4-5-0.7L242.3,90.4z M288.2,112.2c10.7,11.5,10,29.5-1.5,40.1c-11.5,10.7-29.5,10-40.1-1.5
				c-10.7-11.5-10-29.5,1.5-40.1C259.5,100.1,277.5,100.7,288.2,112.2z"/>
			<path class="st1" d="M329.9,112.7l-6.2,5.8l2.1,3.3c0.4,0.7,0.5,1.5,0.1,2.2c0,0,0,0,0,0c-0.3,0.7-1,1.2-1.8,1.3l-3.9,0.5
				l-0.3,8.5l3.8,0.8c0.8,0.2,1.4,0.7,1.7,1.5c0,0,0,0,0,0c0.3,0.7,0.2,1.6-0.3,2.2l-2.4,3.1l2.9,3.1l2.9,3.1l3.3-2.1
				c0.7-0.4,1.5-0.5,2.2-0.1c0,0,0,0,0,0c0.7,0.3,1.2,1,1.3,1.8l0.5,3.9l8.5,0.3l0.8-3.8c0.2-0.8,0.7-1.4,1.5-1.7c0,0,0,0,0,0
				c0.7-0.3,1.6-0.2,2.2,0.3l3.1,2.4l6.2-5.8l-2.1-3.3c-0.4-0.7-0.5-1.5-0.1-2.2c0,0,0,0,0,0c0.3-0.7,1-1.2,1.8-1.3l3.9-0.5l0.3-8.5
				l-3.8-0.8c-0.8-0.2-1.4-0.7-1.7-1.5c0,0,0,0,0,0c-0.3-0.7-0.2-1.6,0.3-2.2l2.4-3.1l-2.9-3.1l-2.9-3.1l-3.3,2.1
				c-0.7,0.4-1.5,0.5-2.2,0.1c0,0,0,0,0,0c-0.7-0.3-1.2-1-1.3-1.8l-0.5-3.9l-8.5-0.3l-0.8,3.8c-0.2,0.8-0.7,1.4-1.5,1.7c0,0,0,0,0,0
				c-0.7,0.3-1.6,0.2-2.2-0.3L329.9,112.7z M350.2,122.4c4.7,5.1,4.4,13-0.7,17.7c-5.1,4.7-13,4.4-17.7-0.7
				c-4.7-5.1-4.4-13,0.7-17.7C337.6,117,345.5,117.3,350.2,122.4z"/>
			<path class="st1" d="M181.5,62.5l-9.2,8.5l3.2,4.8c0.6,1,0.7,2.2,0.2,3.3c0,0,0,0,0,0c-0.5,1.1-1.5,1.8-2.6,2l-5.7,0.8l-0.5,12.5
				l5.6,1.2c1.2,0.2,2.1,1.1,2.5,2.2c0,0,0,0,0,0c0.4,1.1,0.3,2.3-0.5,3.3l-3.5,4.6l4.3,4.6l4.3,4.6l4.8-3.2c1-0.6,2.2-0.7,3.3-0.2
				c0,0,0,0,0,0c1.1,0.5,1.8,1.5,2,2.6l0.8,5.7l12.5,0.5l1.2-5.6c0.2-1.2,1.1-2.1,2.2-2.5c0,0,0,0,0,0c1.1-0.4,2.3-0.3,3.3,0.5
				l4.6,3.5l9.2-8.5l-3.2-4.8c-0.6-1-0.7-2.2-0.2-3.3c0,0,0,0,0,0c0.5-1.1,1.5-1.8,2.6-2l5.7-0.8l0.5-12.5l-5.6-1.2
				c-1.2-0.2-2.1-1.1-2.5-2.2c0,0,0,0,0,0c-0.4-1.1-0.3-2.3,0.5-3.3l3.5-4.6l-4.3-4.6l-4.3-4.6l-4.8,3.2c-1,0.6-2.2,0.7-3.3,0.2
				c0,0,0,0,0,0c-1.1-0.5-1.8-1.5-2-2.6l-0.8-5.7l-12.5-0.5l-1.2,5.6c-0.2,1.2-1.1,2.1-2.2,2.5c0,0,0,0,0,0
				c-1.1,0.4-2.3,0.3-3.3-0.5L181.5,62.5z M211.3,76.7c6.9,7.5,6.5,19.1-1,26.1c-7.5,6.9-19.1,6.5-26.1-1c-6.9-7.5-6.5-19.1,1-26.1
				C192.7,68.8,204.4,69.2,211.3,76.7z"/>
		</g>
		<g id="XMLID_8_">
			<g id="XMLID_9_">
				<path id="XMLID_206_" class="st4" d="M24.3,283.1h321.5c2.4,0,4.3-1.9,4.3-4.3l0,0c0-2.4-1.9-4.3-4.3-4.3H24.3
					c-2.4,0-4.3,1.9-4.3,4.3l0,0C19.9,281.2,21.9,283.1,24.3,283.1z"/>
				<path id="XMLID_10_" class="st5" d="M20.3,280.5c0.7,1.5,2.2,2.6,4,2.6h321.5c1.8,0,3.3-1.1,4-2.6H20.3z"/>
			</g>
			<rect id="XMLID_42_" x="119" y="269.9" class="st6" width="119.3" height="4.5"/>
			<rect id="XMLID_270_" x="131.1" y="269.9" class="st7" width="119.3" height="4.5"/>
		</g>
		<g id="XMLID_15_">
			<path id="XMLID_520_" class="st8" d="M274.2,242.6H96.6c-3.9,0-7-3.1-7-7V129.8c0-3.9,3.1-7,7-7h177.6c3.9,0,7,3.1,7,7v105.8
				C281.2,239.4,278.1,242.6,274.2,242.6z"/>
			<rect x="184.1" y="140.7" class="st9" width="2.6" height="83.8"/>
			<path id="XMLID_16_" class="st10" d="M281.2,135.3v-6.1c0-3.6-2.9-6.5-6.5-6.5H96.1c-3.6,0-6.5,2.9-6.5,6.5v6.1H281.2z"/>
			<g id="XMLID_18_">
				<g id="XMLID_19_">
					<rect x="200.6" y="184.2" class="st11" width="26.3" height="4.5"/>
					<rect x="200.6" y="192.9" class="st12" width="32.8" height="4.5"/>
					<rect x="236.7" y="192.9" class="st11" width="16.2" height="4.5"/>
					<rect x="200.6" y="201.7" class="st11" width="12.9" height="4.5"/>
					<rect x="218" y="201.7" class="st11" width="48.5" height="4.5"/>
					<rect x="233.1" y="184.2" class="st13" width="15.1" height="4.5"/>
				</g>
				<g id="XMLID_20_">
					<rect x="200.6" y="143" class="st11" width="26.3" height="4.5"/>
					<rect x="200.6" y="151.8" class="st12" width="32.8" height="4.5"/>
					<rect x="236.7" y="151.8" class="st11" width="16.2" height="4.5"/>
					<rect x="200.6" y="160.6" class="st11" width="12.9" height="4.5"/>
					<rect x="218" y="160.6" class="st11" width="48.5" height="4.5"/>
					<rect x="233.1" y="143" class="st13" width="15.1" height="4.5"/>
				</g>
			</g>
			<g id="XMLID_29_">
				<g id="XMLID_36_">
					<rect x="111" y="184.2" class="st11" width="26.3" height="4.5"/>
					<rect x="111" y="192.9" class="st12" width="32.8" height="4.5"/>
					<rect x="147.2" y="192.9" class="st11" width="16.2" height="4.5"/>
					<rect x="111" y="201.7" class="st11" width="12.9" height="4.5"/>
					<rect x="128.4" y="201.7" class="st11" width="48.5" height="4.5"/>
					<rect x="143.5" y="184.2" class="st13" width="15.1" height="4.5"/>
				</g>
				<g id="XMLID_37_">
					<rect x="111" y="143" class="st11" width="26.3" height="4.5"/>
					<rect x="111" y="151.8" class="st12" width="32.8" height="4.5"/>
					<rect x="147.2" y="151.8" class="st11" width="16.2" height="4.5"/>
					<rect x="111" y="160.6" class="st11" width="12.9" height="4.5"/>
					<rect x="128.4" y="160.6" class="st11" width="48.5" height="4.5"/>
					<rect x="143.5" y="143" class="st13" width="15.1" height="4.5"/>
				</g>
			</g>
			<g id="XMLID_327_">
				<path id="XMLID_52_" class="st4" d="M271.9,246.6H99c-7.4,0-13.4-6-13.4-13.4v-101c0-7.4,6-13.4,13.4-13.4h172.8
					c7.4,0,13.4,6,13.4,13.4v101C285.3,240.6,279.2,246.6,271.9,246.6z M99,126.8c-3,0-5.4,2.4-5.4,5.4v83.1c0,3,2.4,5.4,5.4,5.4
					h172.8c3,0,5.4-2.4,5.4-5.4v-83.1c0-3-2.4-5.4-5.4-5.4H99z"/>
			</g>
			<path id="XMLID_45_" class="st14" d="M267.7,224.2l0.4-1.7c1.1-4.8-0.5-9.8-4-13.1v0c-3.6-3.3-8.7-4.5-13.3-3l-0.8,0.3l10.3,9.6
				l-1.6,6.9l-6.7,2.1l-10.3-9.6l-0.2,0.8c-1.1,4.8,0.5,9.8,4,13.1l0,0c3.6,3.3,8.7,4.5,13.3,3l1.7-0.5l15.1,14
				c3.6-1,6.6-3.6,8.3-6.9L267.7,224.2z"/>
			<g id="XMLID_55_">
				<path id="XMLID_56_" class="st5" d="M271.9,124.8H99c-3,0-5.4,2.4-5.4,5.4v2c0-3,2.4-5.4,5.4-5.4h172.8c3,0,5.4,2.4,5.4,5.4v-2
					C277.2,127.2,274.8,124.8,271.9,124.8z"/>
				<path id="XMLID_57_" class="st5" d="M271.9,244.6H99c-7.4,0-13.4-6-13.4-13.4v2c0,7.4,6,13.4,13.4,13.4h172.8
					c7.4,0,13.4-6,13.4-13.4v-2C285.3,238.6,279.2,244.6,271.9,244.6z"/>
			</g>
			<circle id="XMLID_58_" class="st11" cx="266.5" cy="131.2" r="2"/>
			<circle id="XMLID_60_" class="st9" cx="259.5" cy="131.2" r="2"/>
			<circle id="XMLID_61_" class="st12" cx="252.4" cy="131.2" r="2"/>
		</g>
		<g id="XMLID_63_">
			<polygon id="XMLID_64_" class="st1" points="79.8,274.5 123.1,172.6 117.2,170 72.8,274.5 			"/>
			<path class="st1" d="M80.1,191.5L80.1,191.5c0-1.8,1.4-3.2,3.2-3.2H111v6.5H83.3C81.5,194.7,80.1,193.3,80.1,191.5z"/>
			<rect x="71.4" y="211.3" class="st1" width="30.8" height="6.5"/>
			<rect x="61.5" y="234.3" class="st1" width="31.5" height="6.5"/>
			<rect x="52.1" y="257.3" class="st1" width="30.5" height="6.5"/>
		</g>
		<g id="XMLID_65_">
			<path id="XMLID_66_" class="st15" d="M305.6,266.2l-34.5-49l0.7-1.6c2.1-4.4,1.6-9.6-1.2-13.6c-2.8-4-7.5-6.2-12.4-5.8l-0.9,0.1
				l8.1,11.5l-3,6.4l-7,0.6l-8.1-11.5l-0.4,0.8c-2.1,4.4-1.6,9.6,1.2,13.6c2.8,4,7.5,6.2,12.4,5.8l1.7-0.2l34.5,49
				c1.7,2.4,5,3,7.4,1.3S307.3,268.6,305.6,266.2z"/>
			<path class="st4" d="M300.4,268.1L300.4,268.1c-1.2,0.8-2.8,0.5-3.7-0.6l-28.9-41.1c-0.8-1.2-0.5-2.8,0.6-3.7l0,0
				c1.2-0.8,2.8-0.5,3.7,0.6l28.9,41.1C301.9,265.6,301.6,267.3,300.4,268.1z"/>
		</g>
	</g>
	<g id="XMLID_67_">
		<path id="XMLID_68_" class="st16" d="M357,391.7H13c-3.1,0-5.6-2.5-5.6-5.6l0,0c0-3.1,2.5-5.6,5.6-5.6h344c3.1,0,5.6,2.5,5.6,5.6
			l0,0C362.6,389.2,360.1,391.7,357,391.7z"/>
		<path id="XMLID_70_" class="st6" d="M251.2,391.7H118.8c-3.1,0-5.6-2.5-5.6-5.6l0,0c0-3.1,2.5-5.6,5.6-5.6h132.5
			c3.1,0,5.6,2.5,5.6,5.6l0,0C256.9,389.2,254.3,391.7,251.2,391.7z"/>
	</g>
	<g id="XMLID_72_">
		<path class="st17" d="M184.1,289.6h31.7c0.5,0,1.1,0,1.6,0.1c10.8,1.1,18,11.8,15.4,22.3l-13,60.4h-18.7l9-57.3h-26.1V289.6z"/>
		<path class="st18" d="M201.3,372.4h15.6c0,0,16.6,1.6,16.6,12.5h-32.1V372.4z"/>
		<path id="XMLID_73_" class="st17" d="M185.9,289.6h-31.7c-0.5,0-1.1,0-1.6,0.1c-10.8,1.1-18,11.8-15.4,22.3l13,60.4h18.7l-9-57.3
			h26.1V289.6z"/>
		<path id="XMLID_74_" class="st19" d="M212.2,372.4c0.1-0.2,0.1-0.4,0.2-0.6c2.2-7.1,4.2-24.1,6.2-31.3c2.2-7.7,4.2-15.4,5.7-23.2
			c0.3-1.6,0.6-3.2,0.8-4.8c0.1-0.7,0.2-1.2,0.2-1.4c0.1-0.8,0.2-1.7,0.3-2.5c0-0.2,0-0.4,0.1-0.6h-41.5v7.2h26.1l-9,57.3H212.2z"/>
		<path id="XMLID_75_" class="st19" d="M185.9,307.9H146c0.2,0.8,0.4,1.6,0.6,2.4c1.8,6.9,4,13.7,6.3,20.4
			c2.2,6.6,4.5,13.2,6.2,19.9c1,4,1.7,17.8,2.7,21.7h7l-9-57.3h26.1V307.9z"/>
		<g id="XMLID_534_">
			<g id="XMLID_535_">
				<g id="XMLID_537_">
					<g id="XMLID_570_">
						<path id="XMLID_573_" class="st20" d="M166.7,183.8c0,0-4-6.3-8.5-2.8c-4.5,3.4,0.3,15.8,8.5,13.8L166.7,183.8z"/>
						<path id="XMLID_572_" class="st21" d="M166.7,187.9l0,5.6c-7,0.6-10.1-9.4-6.7-10.5C162.7,182.3,165.5,186,166.7,187.9z"/>
						<path id="XMLID_571_" class="st22" d="M158.7,185c0,0,0,0,0-0.1c0-0.1,0.1-0.2,0.1-0.3c0.1-0.3,0.3-0.7,0.7-0.9
							c0.1-0.1,0.2-0.1,0.3-0.2c0.1,0,0.1,0,0.2-0.1l0,0l0,0c0,0,0,0,0,0l0,0l0,0l0,0l0.1,0c0.1,0,0.1,0,0.2,0c0.1,0,0.1,0,0.2,0
							c0.1,0,0.1,0,0.2,0c0.1,0,0.1,0,0.2,0c0.6,0.1,1.1,0.4,1.7,0.7c0.3,0.2,0.5,0.4,0.8,0.6c0.3,0.2,0.5,0.4,0.7,0.6
							c0.5,0.4,0.9,0.9,1.2,1.2c0.7,0.8,1.2,1.3,1.2,1.3s-0.1-0.2-0.2-0.5c-0.1-0.3-0.3-0.7-0.6-1.2c-0.1-0.2-0.3-0.5-0.5-0.7
							c-0.2-0.3-0.4-0.5-0.6-0.8c-0.4-0.5-1-1-1.6-1.4c-0.3-0.2-0.7-0.4-1-0.5c-0.4-0.1-0.7-0.2-1.1-0.3c-0.1,0-0.2,0-0.3,0
							c-0.1,0-0.2,0-0.3,0c-0.1,0-0.2,0-0.3,0c-0.1,0-0.2,0-0.2,0.1l-0.1,0l-0.1,0l-0.1,0c-0.1,0-0.2,0.1-0.2,0.1
							c-0.1,0.1-0.3,0.2-0.4,0.3c-0.2,0.2-0.3,0.5-0.4,0.7c-0.1,0.2-0.1,0.4-0.1,0.6c0,0.2,0,0.3,0,0.4
							C158.7,185,158.7,185,158.7,185z"/>
					</g>
					<g id="XMLID_566_">
						<path id="XMLID_569_" class="st20" d="M208.8,187.4c0,0,5-5.5,8.9-1.3c3.9,4.2-3,15.5-10.8,12.1L208.8,187.4z"/>
						<path id="XMLID_568_" class="st21" d="M208.1,191.5l-1,5.6c6.8,1.8,11.5-7.6,8.4-9.2C213.1,186.6,209.6,189.8,208.1,191.5z"/>
						<path id="XMLID_567_" class="st22" d="M216.5,190c0,0,0,0,0-0.1c0-0.1,0-0.2-0.1-0.3c-0.1-0.3-0.2-0.7-0.5-1
							c-0.1-0.1-0.2-0.1-0.3-0.2c-0.1,0-0.1-0.1-0.2-0.1l0,0l0,0c0,0,0,0,0,0l0,0l0,0l0,0l-0.1,0c-0.1,0-0.1,0-0.2-0.1
							c-0.1,0-0.1,0-0.2,0c-0.1,0-0.1,0-0.2,0c-0.1,0-0.1,0-0.2,0c-0.6,0-1.2,0.2-1.8,0.4c-0.3,0.1-0.6,0.3-0.9,0.4
							c-0.3,0.2-0.6,0.3-0.8,0.5c-0.5,0.4-1,0.7-1.4,1c-0.8,0.6-1.4,1.1-1.4,1.1s0.1-0.2,0.3-0.4c0.2-0.3,0.4-0.6,0.8-1
							c0.2-0.2,0.4-0.4,0.6-0.6c0.2-0.2,0.5-0.4,0.7-0.7c0.5-0.4,1.1-0.8,1.8-1.2c0.3-0.1,0.7-0.3,1.1-0.3c0.4-0.1,0.8-0.1,1.1-0.1
							c0.1,0,0.2,0,0.3,0c0.1,0,0.2,0,0.3,0.1c0.1,0,0.2,0.1,0.3,0.1c0.1,0,0.2,0.1,0.2,0.1l0.1,0.1l0.1,0l0.1,0
							c0.1,0,0.1,0.1,0.2,0.2c0.1,0.1,0.2,0.2,0.3,0.4c0.2,0.3,0.2,0.5,0.3,0.7c0,0.2,0,0.4,0,0.6c0,0.2,0,0.3-0.1,0.4
							C216.5,190,216.5,190,216.5,190z"/>
					</g>
					<path id="XMLID_565_" class="st20" d="M180.2,203.8l11.4,0c0,0,0.5,17.9,0.5,17.9c0,0-0.8,3.6-5.9,3.7
						c-5.1,0.1-6.3-3.6-6.3-3.6C179.9,221.6,180.2,203.8,180.2,203.8z"/>
					<path id="XMLID_79_" class="st22" d="M180.2,203.8l11.4,0c0,0,0.5,17.9,0.5,17.9c0,0-0.8,3.6-5.9,3.7c-5.1,0.1-6.3-3.6-6.3-3.6
						C179.9,221.6,180.2,203.8,180.2,203.8z"/>
					<path id="XMLID_563_" class="st22" d="M180.9,206.6l11.4,1c0,0-0.1,2.3-0.1,4.2c0,0.3-3.3,0.5-3.7,0.5
						c-2.8,0.2-5.5-0.4-8.2-1.3C180.6,209,180.9,206.6,180.9,206.6z"/>
					<path id="XMLID_561_" class="st22" d="M164.3,178.5c1-7.9,5-15.1,13.1-17.5c4.1-1.2,8.5-1.3,12.8-0.8c4.2,0.4,8.7,1.1,12.5,3
						c6.8,3.3,5.5,6.9,5.6,14.2c0,0.7,4.5,4.6,4.4,5.3c-0.1,1.6-0.1,3.3-0.3,4.9c-0.5,3.7-1.4,7.3-2.9,10.7
						c-1.8,4.1-4.6,7.8-8.4,10.4c-2.1,1.5-4.6,2.5-7.1,3.2c-4.2,1.1-8.1,1.2-12.2,0.1c-2.8-0.8-5.5-2-7.9-3.6
						c-4-2.8-6.8-6.8-8.4-11.3c-1.3-3.8-1.8-7.8-1.8-11.8c0-2.2,0.2-4.4,0.6-6.5C164.3,178.6,164.3,178.6,164.3,178.5z"/>
					<g id="XMLID_538_">
						<path id="XMLID_539_" class="st22" d="M163.9,178.7c0,0-0.1-3.1,0.2-7.1C163.8,175.7,163.9,178.7,163.9,178.7z"/>
					</g>
					<path id="XMLID_574_" class="st23" d="M168.4,162.5c7.2-10.8,45.5-14,48,22.3c1.8,26.4-28.1,29.7-42.5,23.5
						C149.4,197.7,161.2,173.3,168.4,162.5z"/>
				</g>
				<path id="XMLID_536_" class="st23" d="M163.5,189.6c0,0-3.4-1-5.3-8.7c-1.3-5.2,0.2-16.2,6.6-21.5c3.8-3.1,4.8-1.7,4.8-1.7
					s1-3.7,8.1-6.8c23.4-10.1,29.4,0.9,32.7,10c4.5,12.4,2.3,21.7-22.2,13.7c-9.9-3.2-16.2-4.8-16.2-4.8s0.1,3.2-1.9,7.7
					c-2,4.5-6.7,9.5-6.7,9.5"/>
			</g>
		</g>
		<path id="XMLID_78_" class="st13" d="M229.9,259.5l-13.7-31.1c-2-4.5-7.2-7.4-13.1-7.4h-16.3H185h-16.3c-5.9,0-11.1,3-13.1,7.4
			L142,259.5c-3.2,7.2,3.5,14.8,13.1,14.8h30h1.8h30C226.4,274.3,233.1,266.7,229.9,259.5z"/>
		<path class="st24" d="M206.2,306.8h-39.8c-7.8,0-14.1-6.3-14.1-14.1v-52.2c0-7.8,6.3-14.1,14.1-14.1h39.8
			c7.8,0,14.1,6.3,14.1,14.1v52.2C220.3,300.5,214,306.8,206.2,306.8z"/>
		<path class="st3" d="M202.9,301.9h-33.2c-7.8,0-14.1-6.3-14.1-14.1v-47.3c0-7.8,6.3-14.1,14.1-14.1h33.2c7.8,0,14.1,6.3,14.1,14.1
			v47.3C217,295.6,210.7,301.9,202.9,301.9z"/>
		<path class="st24" d="M201.9,217.2h-33.2c-7.8,0-14.1-6.3-14.1-14.1v-11.7c0-7.8,6.3-14.1,14.1-14.1h33.2
			c7.8,0,14.1,6.3,14.1,14.1v11.7C216,210.9,209.7,217.2,201.9,217.2z"/>
		<path id="XMLID_80_" class="st3" d="M200.8,213.8h-31c-6.3,0-11.4-5.1-11.4-11.4v-12.2c0-6.3,5.1-11.4,11.4-11.4h31
			c6.3,0,11.4,5.1,11.4,11.4v12.2C212.1,208.7,207.1,213.8,200.8,213.8z"/>
		<ellipse class="st3" cx="185" cy="317.4" rx="39.8" ry="9.4"/>
		<path id="XMLID_81_" class="st24" d="M154.6,311.4c7.3,0.8,18.2,1.3,30.4,1.3c12.2,0,23.1-0.5,30.4-1.3c-7.3-2-18.2-3.3-30.4-3.3
			C172.8,308.1,161.9,309.4,154.6,311.4z"/>
		<path id="XMLID_82_" class="st25" d="M145.9,319.3c3.6,4.3,19.7,7.5,39,7.5s35.4-3.2,39-7.5H145.9z"/>
		<path id="XMLID_85_" class="st9" d="M190.8,373.3h-11.7v-95.7c0-3.2,2.6-5.8,5.8-5.8l0,0c3.2,0,5.8,2.6,5.8,5.8V373.3z"/>
		<path id="XMLID_88_" class="st9" d="M189.1,273.2h-8.2v-82c0-2.3,1.8-4.1,4.1-4.1l0,0c2.3,0,4.1,1.8,4.1,4.1V273.2z"/>
		<path id="XMLID_89_" class="st18" d="M168.8,372.4h-15.6c0,0-16.6,1.6-16.6,12.5h32.1V372.4z"/>
		<g id="XMLID_90_">
			<g id="XMLID_91_">
				<path id="XMLID_92_" class="st9" d="M184.5,325.4c-0.2,0-16.4,1.4-34.2-3.9c-12.8-3.8-11.2-30.3-9.1-42.9c5-0.2,8.9-1.3,8.9-2.7
					c0-1.5-4.7-2.7-10.5-2.7c-5.8,0-10.5,1.2-10.5,2.7c0,1.2,3.2,2.3,7.7,2.6c-1.6,9.9-5.1,41.4,12.1,46.5
					c12.2,3.6,23.6,4.3,30.2,4.3c3.5,0,5.7-0.2,6-0.2L184.5,325.4z"/>
			</g>
			<g id="XMLID_94_">
				<path class="st9" d="M187.2,325.4c0.2,0,16.4,1.4,34.2-3.9c12.8-3.8,11.2-30.3,9.1-42.9c-5-0.2-8.9-1.3-8.9-2.7
					c0-1.5,4.7-2.7,10.5-2.7c5.8,0,10.5,1.2,10.5,2.7c0,1.2-3.2,2.3-7.7,2.6c1.6,9.9,5.1,41.4-12.1,46.5
					c-12.2,3.6-23.6,4.3-30.2,4.3c-3.5,0-5.7-0.2-6-0.2L187.2,325.4z"/>
			</g>
		</g>
		<circle id="XMLID_95_" class="st9" cx="185" cy="380.2" r="6.9"/>
		<circle id="XMLID_96_" class="st9" cx="185" cy="274.3" r="6.9"/>
		<g id="XMLID_97_">
			<circle id="XMLID_98_" class="st9" cx="162.3" cy="380.2" r="6.9"/>
			<circle id="XMLID_99_" class="st9" cx="207.6" cy="380.2" r="6.9"/>
		</g>
		<rect x="164.2" y="372.4" class="st9" width="41.6" height="4.8"/>
	</g>
</g>
<g id="DESIGNED_BY_FREEPIK">
</g>
</svg>
